<?xml version="1.0" encoding="UTF-8"?><svg xmlns="http://www.w3.org/2000/svg" xmlns:xlink="http://www.w3.org/1999/xlink" fill-opacity="1" color-rendering="auto" color-interpolation="auto" text-rendering="auto" stroke="black" stroke-linecap="square" width="851" stroke-miterlimit="10" shape-rendering="auto" stroke-opacity="1" fill="black" stroke-dasharray="none" font-weight="normal" stroke-width="1" height="570" font-family="'Dialog'" font-style="normal" stroke-linejoin="miter" font-size="12px" stroke-dashoffset="0" image-rendering="auto">
  <!--Generated by ySVG 2.5-->
  <defs id="genericDefs"/>
  <g>
    <defs id="defs1">
      <clipPath clipPathUnits="userSpaceOnUse" id="clipPath1">
        <path d="M0 0 L851 0 L851 570 L0 570 L0 0 Z"/>
      </clipPath>
      <clipPath clipPathUnits="userSpaceOnUse" id="clipPath2">
        <path d="M5 -555 L856 -555 L856 15 L5 15 L5 -555 Z"/>
      </clipPath>
      <clipPath clipPathUnits="userSpaceOnUse" id="clipPath3">
        <path d="M284 -540 L284 -374 L518 -374 L518 -540 Z"/>
      </clipPath>
      <clipPath clipPathUnits="userSpaceOnUse" id="clipPath4">
        <path d="M284 -324 L284 -129 L518 -129 L518 -324 Z"/>
      </clipPath>
      <clipPath clipPathUnits="userSpaceOnUse" id="clipPath5">
        <path d="M20 -270 L20 -182 L254 -182 L254 -270 Z"/>
      </clipPath>
      <clipPath clipPathUnits="userSpaceOnUse" id="clipPath6">
        <path d="M78 -53 L78 -26 L312 -26 L312 -53 Z"/>
      </clipPath>
      <clipPath clipPathUnits="userSpaceOnUse" id="clipPath7">
        <path d="M606 -53 L606 -26 L840 -26 L840 -53 Z"/>
      </clipPath>
      <clipPath clipPathUnits="userSpaceOnUse" id="clipPath8">
        <path d="M560 -266 L560 -187 L684 -187 L684 -266 Z"/>
      </clipPath>
      <clipPath clipPathUnits="userSpaceOnUse" id="clipPath9">
        <path d="M342 -79 L342 0 L576 0 L576 -79 Z"/>
      </clipPath>
    </defs>
    <g fill="white" text-rendering="geometricPrecision" shape-rendering="geometricPrecision" transform="translate(-5,555)" stroke="white">
      <rect x="5" width="851" height="570" y="-555" clip-path="url(#clipPath2)" stroke="none"/>
    </g>
    <g fill="rgb(238,238,238)" text-rendering="geometricPrecision" shape-rendering="geometricPrecision" transform="matrix(1,0,0,1,-5,555)" stroke="rgb(238,238,238)">
      <rect x="284" width="234" height="166" y="-540" clip-path="url(#clipPath2)" stroke="none"/>
    </g>
    <g text-rendering="geometricPrecision" stroke-miterlimit="1.45" shape-rendering="geometricPrecision" transform="matrix(1,0,0,1,-5,555)" stroke-linecap="butt">
      <rect fill="none" x="284" width="234" height="166" y="-540" clip-path="url(#clipPath2)"/>
      <text x="340.2561" font-size="13px" y="-522.4316" clip-path="url(#clipPath3)" font-family="sans-serif" stroke="none" font-weight="bold" xml:space="preserve">InstanceContainer</text>
      <line stroke-linecap="square" clip-path="url(#clipPath3)" fill="none" x1="285" x2="517" y1="-514" y2="-514" stroke-miterlimit="10"/>
      <line stroke-linecap="square" clip-path="url(#clipPath3)" fill="none" x1="285" x2="517" y1="-504" y2="-504" stroke-miterlimit="10"/>
      <text x="289" xml:space="preserve" y="-488.0879" clip-path="url(#clipPath3)" font-family="sans-serif" stroke="none">setItem()</text>
      <text x="289" xml:space="preserve" y="-473.9551" clip-path="url(#clipPath3)" font-family="sans-serif" stroke="none">getItem()</text>
      <text x="289" xml:space="preserve" y="-459.8223" clip-path="url(#clipPath3)" font-family="sans-serif" stroke="none">getItemOrNull()</text>
      <text x="289" xml:space="preserve" y="-445.6895" clip-path="url(#clipPath3)" font-family="sans-serif" stroke="none">getEntityMetaClass()</text>
      <text x="289" xml:space="preserve" y="-431.5566" clip-path="url(#clipPath3)" font-family="sans-serif" stroke="none">setView()</text>
      <text x="289" xml:space="preserve" y="-417.4238" clip-path="url(#clipPath3)" font-family="sans-serif" stroke="none">getView()</text>
      <text x="289" xml:space="preserve" y="-403.291" clip-path="url(#clipPath3)" font-family="sans-serif" stroke="none">addItemPropertyChangeListener()</text>
      <text x="289" xml:space="preserve" y="-389.1582" clip-path="url(#clipPath3)" font-family="sans-serif" stroke="none">addItemChangeListener()</text>
    </g>
    <g fill="rgb(238,238,238)" text-rendering="geometricPrecision" shape-rendering="geometricPrecision" transform="matrix(1,0,0,1,-5,555)" stroke="rgb(238,238,238)">
      <rect x="284" width="234" height="195" y="-324" clip-path="url(#clipPath2)" stroke="none"/>
    </g>
    <g text-rendering="geometricPrecision" stroke-miterlimit="1.45" shape-rendering="geometricPrecision" transform="matrix(1,0,0,1,-5,555)" stroke-linecap="butt">
      <rect fill="none" x="284" width="234" height="195" y="-324" clip-path="url(#clipPath2)"/>
      <text x="334.9019" font-size="13px" y="-306.4316" clip-path="url(#clipPath4)" font-family="sans-serif" stroke="none" font-weight="bold" xml:space="preserve">CollectionContainer</text>
      <line stroke-linecap="square" clip-path="url(#clipPath4)" fill="none" x1="285" x2="517" y1="-298" y2="-298" stroke-miterlimit="10"/>
      <line stroke-linecap="square" clip-path="url(#clipPath4)" fill="none" x1="285" x2="517" y1="-288" y2="-288" stroke-miterlimit="10"/>
      <text x="289" xml:space="preserve" y="-272.0879" clip-path="url(#clipPath4)" font-family="sans-serif" stroke="none">setItems()</text>
      <text x="289" xml:space="preserve" y="-257.9551" clip-path="url(#clipPath4)" font-family="sans-serif" stroke="none">getItems()</text>
      <text x="289" xml:space="preserve" y="-243.8223" clip-path="url(#clipPath4)" font-family="sans-serif" stroke="none">getMutableItems()</text>
      <text x="289" xml:space="preserve" y="-229.6895" clip-path="url(#clipPath4)" font-family="sans-serif" stroke="none">getItem(entityId)</text>
      <text x="289" xml:space="preserve" y="-215.5566" clip-path="url(#clipPath4)" font-family="sans-serif" stroke="none">getItemOrNull(entityId)</text>
      <text x="289" xml:space="preserve" y="-201.4238" clip-path="url(#clipPath4)" font-family="sans-serif" stroke="none">getItemIndex(entityId)</text>
      <text x="289" xml:space="preserve" y="-187.291" clip-path="url(#clipPath4)" font-family="sans-serif" stroke="none">replaceItem(entity)</text>
      <text x="289" xml:space="preserve" y="-173.1582" clip-path="url(#clipPath4)" font-family="sans-serif" stroke="none">setSorter()</text>
      <text x="289" xml:space="preserve" y="-159.0254" clip-path="url(#clipPath4)" font-family="sans-serif" stroke="none">getSorter()</text>
      <text x="289" xml:space="preserve" y="-144.8926" clip-path="url(#clipPath4)" font-family="sans-serif" stroke="none">addCollectionChangeListener()</text>
    </g>
    <g fill="rgb(238,238,238)" text-rendering="geometricPrecision" shape-rendering="geometricPrecision" transform="matrix(1,0,0,1,-5,555)" stroke="rgb(238,238,238)">
      <rect x="20" width="234" height="88" y="-270.5" clip-path="url(#clipPath2)" stroke="none"/>
    </g>
    <g text-rendering="geometricPrecision" stroke-miterlimit="1.45" shape-rendering="geometricPrecision" transform="matrix(1,0,0,1,-5,555)" stroke-linecap="butt">
      <rect fill="none" x="20" width="234" height="88" y="-270.5" clip-path="url(#clipPath2)"/>
      <text x="73.5806" font-size="13px" y="-252.9316" clip-path="url(#clipPath5)" font-family="sans-serif" stroke="none" font-weight="bold" xml:space="preserve">KeyValueContainer</text>
      <line stroke-linecap="square" clip-path="url(#clipPath5)" fill="none" x1="21" x2="253" y1="-245" y2="-245" stroke-miterlimit="10"/>
      <line stroke-linecap="square" clip-path="url(#clipPath5)" fill="none" x1="21" x2="253" y1="-235" y2="-235" stroke-miterlimit="10"/>
      <text x="25" xml:space="preserve" y="-218.5879" clip-path="url(#clipPath5)" font-family="sans-serif" stroke="none">addProperty()</text>
      <text x="25" xml:space="preserve" y="-204.4551" clip-path="url(#clipPath5)" font-family="sans-serif" stroke="none">setIdName()</text>
    </g>
    <g fill="rgb(238,238,238)" text-rendering="geometricPrecision" shape-rendering="geometricPrecision" transform="matrix(1,0,0,1,-5,555)" stroke="rgb(238,238,238)">
      <rect x="78.5" width="234" height="27" y="-53" clip-path="url(#clipPath2)" stroke="none"/>
    </g>
    <g text-rendering="geometricPrecision" stroke-miterlimit="1.45" shape-rendering="geometricPrecision" transform="matrix(1,0,0,1,-5,555)" stroke-linecap="butt">
      <rect fill="none" x="78.5" width="234" height="27" y="-53" clip-path="url(#clipPath2)"/>
      <text x="98.6348" font-size="13px" y="-35.4316" clip-path="url(#clipPath6)" font-family="sans-serif" stroke="none" font-weight="bold" xml:space="preserve">KeyValueCollectionContainer</text>
    </g>
    <g fill="rgb(238,238,238)" text-rendering="geometricPrecision" shape-rendering="geometricPrecision" transform="matrix(1,0,0,1,-5,555)" stroke="rgb(238,238,238)">
      <rect x="606.5" width="234" height="27" y="-53" clip-path="url(#clipPath2)" stroke="none"/>
    </g>
    <g text-rendering="geometricPrecision" stroke-miterlimit="1.45" shape-rendering="geometricPrecision" transform="matrix(1,0,0,1,-5,555)" stroke-linecap="butt">
      <rect fill="none" x="606.5" width="234" height="27" y="-53" clip-path="url(#clipPath2)"/>
      <text x="634.1694" font-size="13px" y="-35.4316" clip-path="url(#clipPath7)" font-family="sans-serif" stroke="none" font-weight="bold" xml:space="preserve">InstancePropertyContainer</text>
    </g>
    <g fill="rgb(238,238,238)" text-rendering="geometricPrecision" shape-rendering="geometricPrecision" transform="matrix(1,0,0,1,-5,555)" stroke="rgb(238,238,238)">
      <rect x="560" width="124" height="79" y="-266" clip-path="url(#clipPath2)" stroke="none"/>
    </g>
    <g text-rendering="geometricPrecision" stroke-miterlimit="1.45" shape-rendering="geometricPrecision" transform="matrix(1,0,0,1,-5,555)" stroke-linecap="butt">
      <rect fill="none" x="560" width="124" height="79" y="-266" clip-path="url(#clipPath2)"/>
      <text x="598.7708" font-size="13px" y="-248.4316" clip-path="url(#clipPath8)" font-family="sans-serif" stroke="none" font-weight="bold" xml:space="preserve">Nested</text>
      <line stroke-linecap="square" clip-path="url(#clipPath8)" fill="none" x1="561" x2="683" y1="-240" y2="-240" stroke-miterlimit="10"/>
      <line stroke-linecap="square" clip-path="url(#clipPath8)" fill="none" x1="561" x2="683" y1="-230" y2="-230" stroke-miterlimit="10"/>
      <text x="565" xml:space="preserve" y="-214.0879" clip-path="url(#clipPath8)" font-family="sans-serif" stroke="none">getMaster()</text>
      <text x="565" xml:space="preserve" y="-199.9551" clip-path="url(#clipPath8)" font-family="sans-serif" stroke="none">getProperty()</text>
    </g>
    <g fill="rgb(238,238,238)" text-rendering="geometricPrecision" shape-rendering="geometricPrecision" transform="matrix(1,0,0,1,-5,555)" stroke="rgb(238,238,238)">
      <rect x="342.5" width="234" height="79" y="-79" clip-path="url(#clipPath2)" stroke="none"/>
    </g>
    <g text-rendering="geometricPrecision" stroke-miterlimit="1.45" shape-rendering="geometricPrecision" transform="matrix(1,0,0,1,-5,555)" stroke-linecap="butt">
      <rect fill="none" x="342.5" width="234" height="79" y="-79" clip-path="url(#clipPath2)"/>
      <text x="364.8152" font-size="13px" y="-61.4316" clip-path="url(#clipPath9)" font-family="sans-serif" stroke="none" font-weight="bold" xml:space="preserve">CollectionPropertyContainer</text>
      <line stroke-linecap="square" clip-path="url(#clipPath9)" fill="none" x1="343" x2="575" y1="-53" y2="-53" stroke-miterlimit="10"/>
      <line stroke-linecap="square" clip-path="url(#clipPath9)" fill="none" x1="343" x2="575" y1="-43" y2="-43" stroke-miterlimit="10"/>
      <text x="347.5" xml:space="preserve" y="-27.0879" clip-path="url(#clipPath9)" font-family="sans-serif" stroke="none">getDisconnectedItems()</text>
      <text x="347.5" xml:space="preserve" y="-12.9551" clip-path="url(#clipPath9)" font-family="sans-serif" stroke="none">setDisconnectedItems()</text>
      <path fill="none" d="M401 -324.0488 L401 -358.9512" clip-path="url(#clipPath2)"/>
      <path fill="white" d="M401 -373.9512 L395 -357.9512 L407 -357.9512 Z" clip-path="url(#clipPath2)" stroke="none"/>
      <path fill="none" d="M401 -373.9512 L395 -357.9512 L407 -357.9512 Z" clip-path="url(#clipPath2)"/>
      <path fill="none" d="M137 -270.5337 L137 -339.5 L323 -339.5 L323 -358.9663" clip-path="url(#clipPath2)"/>
      <path fill="white" d="M323 -373.9663 L317 -357.9663 L329 -357.9663 Z" clip-path="url(#clipPath2)" stroke="none"/>
      <path fill="none" d="M323 -373.9663 L317 -357.9663 L329 -357.9663 Z" clip-path="url(#clipPath2)"/>
      <path fill="none" d="M254 -53.0405 L254 -94.5 L342.5 -94.5 L342.5 -113.9663" clip-path="url(#clipPath2)"/>
      <path fill="white" d="M342.5 -128.9663 L336.5 -112.9663 L348.5 -112.9663 Z" clip-path="url(#clipPath2)" stroke="none"/>
      <path fill="none" d="M342.5 -128.9663 L336.5 -112.9663 L348.5 -112.9663 Z" clip-path="url(#clipPath2)"/>
      <path fill="none" d="M137 -53.0316 L137 -167.4684" clip-path="url(#clipPath2)"/>
      <path fill="white" d="M137 -182.4684 L131 -166.4684 L143 -166.4684 Z" clip-path="url(#clipPath2)" stroke="none"/>
      <path fill="none" d="M137 -182.4684 L131 -166.4684 L143 -166.4684 Z" clip-path="url(#clipPath2)"/>
      <path fill="none" d="M782 -53.035 L782 -339.5 L479 -339.5 L479 -358.9663" clip-path="url(#clipPath2)"/>
      <path fill="white" d="M479 -373.9663 L473 -357.9663 L485 -357.9663 Z" clip-path="url(#clipPath2)" stroke="none"/>
      <path fill="none" d="M479 -373.9663 L473 -357.9663 L485 -357.9663 Z" clip-path="url(#clipPath2)"/>
      <path fill="none" d="M665 -53.0303 L665 -68.5 L653 -68.5 L653 -171.9711" clip-path="url(#clipPath2)"/>
      <path fill="white" d="M653 -186.9711 L647 -170.9711 L659 -170.9711 Z" clip-path="url(#clipPath2)" stroke="none"/>
      <path fill="none" d="M653 -186.9711 L647 -170.9711 L659 -170.9711 Z" clip-path="url(#clipPath2)"/>
      <path fill="none" d="M401 -79.0303 L401 -94.5 L459.5 -94.5 L459.5 -113.9663" clip-path="url(#clipPath2)"/>
      <path fill="white" d="M459.5 -128.9663 L453.5 -112.9663 L465.5 -112.9663 Z" clip-path="url(#clipPath2)" stroke="none"/>
      <path fill="none" d="M459.5 -128.9663 L453.5 -112.9663 L465.5 -112.9663 Z" clip-path="url(#clipPath2)"/>
      <path fill="none" d="M518 -79.0303 L518 -94.5 L591 -94.5 L591 -171.9548" clip-path="url(#clipPath2)"/>
      <path fill="white" d="M591 -186.9548 L585 -170.9548 L597 -170.9548 Z" clip-path="url(#clipPath2)" stroke="none"/>
      <path fill="none" d="M591 -186.9548 L585 -170.9548 L597 -170.9548 Z" clip-path="url(#clipPath2)"/>
    </g>
  </g>
</svg>
