<?xml version="1.0" encoding="UTF-8" standalone="no" ?><!DOCTYPE svg PUBLIC "-//W3C//DTD SVG 1.1//EN" "http://www.w3.org/Graphics/SVG/1.1/DTD/svg11.dtd">
<svg xmlns="http://www.w3.org/2000/svg" xmlns:xlink="http://www.w3.org/1999/xlink" version="1.1" width="1024" height="570" style="background-color: #FFFFFF" xml:space="preserve"><desc>Created with Fabric.js 1.5.0</desc><defs></defs><g style="stroke: none; stroke-width: 1; stroke-dasharray: ; stroke-linecap: butt; stroke-linejoin: miter; stroke-miterlimit: 10; fill: none; fill-rule: nonzero; opacity: 1" transform="translate(0 0)" >
<path d="M 0.5 0.5 L 1023.5 0.5 L 1023.5 569.5 L 0.5 569.5 Z" style="stroke:#000000;stroke-opacity:0; stroke-width: 1; stroke-dasharray: ; stroke-linecap: butt; stroke-linejoin: miter; stroke-miterlimit: 10;fill:#FFFFFF;fill-opacity:0; fill-rule: nonzero; opacity: 1" transform="" stroke-linecap="round" />
<path d="M 0.5 0.5 L 985.5 0.5 L 985.5 533.5 L 0.5 533.5 L 0.5 0.5 Z" style="stroke:#000000;stroke-opacity:0; stroke-width: 1; stroke-dasharray: ; stroke-linecap: butt; stroke-linejoin: miter; stroke-miterlimit: 10;fill:#FFFFFF;fill-opacity:0; fill-rule: nonzero; opacity: 1" transform=" matrix(1 0 0 1 30 10) " stroke-linecap="round" />
<path d="M 0.5 533.5 L 0.5 533.5 L 0.5 0.5" style="stroke:#000000;stroke-opacity:0.15; stroke-width: 1; stroke-dasharray: ; stroke-linecap: butt; stroke-linejoin: miter; stroke-miterlimit: 10; fill: none; fill-rule: nonzero; opacity: 1" transform=" matrix(1 0 0 1 30 10) " stroke-linecap="round" />
<path d="M 164.5 533.5 L 164.5 533.5 L 164.5 0.5" style="stroke:#000000;stroke-opacity:0.15; stroke-width: 1; stroke-dasharray: ; stroke-linecap: butt; stroke-linejoin: miter; stroke-miterlimit: 10; fill: none; fill-rule: nonzero; opacity: 1" transform=" matrix(1 0 0 1 30 10) " stroke-linecap="round" />
<path d="M 328.5 533.5 L 328.5 533.5 L 328.5 0.5" style="stroke:#000000;stroke-opacity:0.15; stroke-width: 1; stroke-dasharray: ; stroke-linecap: butt; stroke-linejoin: miter; stroke-miterlimit: 10; fill: none; fill-rule: nonzero; opacity: 1" transform=" matrix(1 0 0 1 30 10) " stroke-linecap="round" />
<path d="M 493.5 533.5 L 493.5 533.5 L 493.5 0.5" style="stroke:#000000;stroke-opacity:0.15; stroke-width: 1; stroke-dasharray: ; stroke-linecap: butt; stroke-linejoin: miter; stroke-miterlimit: 10; fill: none; fill-rule: nonzero; opacity: 1" transform=" matrix(1 0 0 1 30 10) " stroke-linecap="round" />
<path d="M 657.5 533.5 L 657.5 533.5 L 657.5 0.5" style="stroke:#000000;stroke-opacity:0.15; stroke-width: 1; stroke-dasharray: ; stroke-linecap: butt; stroke-linejoin: miter; stroke-miterlimit: 10; fill: none; fill-rule: nonzero; opacity: 1" transform=" matrix(1 0 0 1 30 10) " stroke-linecap="round" />
<path d="M 821.5 533.5 L 821.5 533.5 L 821.5 0.5" style="stroke:#000000;stroke-opacity:0.15; stroke-width: 1; stroke-dasharray: ; stroke-linecap: butt; stroke-linejoin: miter; stroke-miterlimit: 10; fill: none; fill-rule: nonzero; opacity: 1" transform=" matrix(1 0 0 1 30 10) " stroke-linecap="round" />
<path d="M 985.5 533.5 L 985.5 533.5 L 985.5 0.5" style="stroke:#000000;stroke-opacity:0.15; stroke-width: 1; stroke-dasharray: ; stroke-linecap: butt; stroke-linejoin: miter; stroke-miterlimit: 10; fill: none; fill-rule: nonzero; opacity: 1" transform=" matrix(1 0 0 1 30 10) " stroke-linecap="round" />
<path d="M 0.5 533.5 L 0.5 533.5 L 985.5 533.5" style="stroke:#000000;stroke-opacity:0.15; stroke-width: 1; stroke-dasharray: ; stroke-linecap: butt; stroke-linejoin: miter; stroke-miterlimit: 10; fill: none; fill-rule: nonzero; opacity: 1" transform=" matrix(1 0 0 1 30 10) " stroke-linecap="round" />
<path d="M 0.5 480.5 L 0.5 480.5 L 985.5 480.5" style="stroke:#000000;stroke-opacity:0.15; stroke-width: 1; stroke-dasharray: ; stroke-linecap: butt; stroke-linejoin: miter; stroke-miterlimit: 10; fill: none; fill-rule: nonzero; opacity: 1" transform=" matrix(1 0 0 1 30 10) " stroke-linecap="round" />
<path d="M 0.5 426.5 L 0.5 426.5 L 985.5 426.5" style="stroke:#000000;stroke-opacity:0.15; stroke-width: 1; stroke-dasharray: ; stroke-linecap: butt; stroke-linejoin: miter; stroke-miterlimit: 10; fill: none; fill-rule: nonzero; opacity: 1" transform=" matrix(1 0 0 1 30 10) " stroke-linecap="round" />
<path d="M 0.5 373.5 L 0.5 373.5 L 985.5 373.5" style="stroke:#000000;stroke-opacity:0.15; stroke-width: 1; stroke-dasharray: ; stroke-linecap: butt; stroke-linejoin: miter; stroke-miterlimit: 10; fill: none; fill-rule: nonzero; opacity: 1" transform=" matrix(1 0 0 1 30 10) " stroke-linecap="round" />
<path d="M 0.5 320.5 L 0.5 320.5 L 985.5 320.5" style="stroke:#000000;stroke-opacity:0.15; stroke-width: 1; stroke-dasharray: ; stroke-linecap: butt; stroke-linejoin: miter; stroke-miterlimit: 10; fill: none; fill-rule: nonzero; opacity: 1" transform=" matrix(1 0 0 1 30 10) " stroke-linecap="round" />
<path d="M 0.5 267.5 L 0.5 267.5 L 985.5 267.5" style="stroke:#000000;stroke-opacity:0.15; stroke-width: 1; stroke-dasharray: ; stroke-linecap: butt; stroke-linejoin: miter; stroke-miterlimit: 10; fill: none; fill-rule: nonzero; opacity: 1" transform=" matrix(1 0 0 1 30 10) " stroke-linecap="round" />
<path d="M 0.5 213.5 L 0.5 213.5 L 985.5 213.5" style="stroke:#000000;stroke-opacity:0.15; stroke-width: 1; stroke-dasharray: ; stroke-linecap: butt; stroke-linejoin: miter; stroke-miterlimit: 10; fill: none; fill-rule: nonzero; opacity: 1" transform=" matrix(1 0 0 1 30 10) " stroke-linecap="round" />
<path d="M 0.5 160.5 L 0.5 160.5 L 985.5 160.5" style="stroke:#000000;stroke-opacity:0.15; stroke-width: 1; stroke-dasharray: ; stroke-linecap: butt; stroke-linejoin: miter; stroke-miterlimit: 10; fill: none; fill-rule: nonzero; opacity: 1" transform=" matrix(1 0 0 1 30 10) " stroke-linecap="round" />
<path d="M 0.5 107.5 L 0.5 107.5 L 985.5 107.5" style="stroke:#000000;stroke-opacity:0.15; stroke-width: 1; stroke-dasharray: ; stroke-linecap: butt; stroke-linejoin: miter; stroke-miterlimit: 10; fill: none; fill-rule: nonzero; opacity: 1" transform=" matrix(1 0 0 1 30 10) " stroke-linecap="round" />
<path d="M 0.5 53.5 L 0.5 53.5 L 985.5 53.5" style="stroke:#000000;stroke-opacity:0.15; stroke-width: 1; stroke-dasharray: ; stroke-linecap: butt; stroke-linejoin: miter; stroke-miterlimit: 10; fill: none; fill-rule: nonzero; opacity: 1" transform=" matrix(1 0 0 1 30 10) " stroke-linecap="round" />
<path d="M 0.5 0.5 L 0.5 0.5 L 985.5 0.5" style="stroke:#000000;stroke-opacity:0.15; stroke-width: 1; stroke-dasharray: ; stroke-linecap: butt; stroke-linejoin: miter; stroke-miterlimit: 10; fill: none; fill-rule: nonzero; opacity: 1" transform=" matrix(1 0 0 1 30 10) " stroke-linecap="round" />
<path d="M 0.5 0.5 L 0.5 -199.5 L 131.5 -199.5 L 131.5 0.5 L 0.5 0.5 Z" style="stroke:#FF6600;stroke-opacity:1; stroke-width: 1; stroke-dasharray: ; stroke-linecap: butt; stroke-linejoin: miter; stroke-miterlimit: 10;fill:#FF6600;fill-opacity:1; fill-rule: nonzero; opacity: 1" transform=" matrix(1 0 0 1 46 543) " stroke-linecap="round" />
<path d="M 0.5 0.5 L 0.5 -271.5 L 131.5 -271.5 L 131.5 0.5 L 0.5 0.5 Z" style="stroke:#FF6600;stroke-opacity:1; stroke-width: 1; stroke-dasharray: ; stroke-linecap: butt; stroke-linejoin: miter; stroke-miterlimit: 10;fill:#FF6600;fill-opacity:1; fill-rule: nonzero; opacity: 1" transform=" matrix(1 0 0 1 210 543) " stroke-linecap="round" />
<path d="M 0.5 0.5 L 0.5 -375.5 L 131.5 -375.5 L 131.5 0.5 L 0.5 0.5 Z" style="stroke:#FF6600;stroke-opacity:1; stroke-width: 1; stroke-dasharray: ; stroke-linecap: butt; stroke-linejoin: miter; stroke-miterlimit: 10;fill:#FF6600;fill-opacity:1; fill-rule: nonzero; opacity: 1" transform=" matrix(1 0 0 1 374 543) " stroke-linecap="round" />
<path d="M 0.5 0.5 L 0.5 -359.5 L 131.5 -359.5 L 131.5 0.5 L 0.5 0.5 Z" style="stroke:#FF6600;stroke-opacity:1; stroke-width: 1; stroke-dasharray: ; stroke-linecap: butt; stroke-linejoin: miter; stroke-miterlimit: 10;fill:#FF6600;fill-opacity:1; fill-rule: nonzero; opacity: 1" transform=" matrix(1 0 0 1 539 543) " stroke-linecap="round" />
<path d="M 0.5 0.5 L 0.5 -388.5 L 131.5 -388.5 L 131.5 0.5 L 0.5 0.5 Z" style="stroke:#FF6600;stroke-opacity:1; stroke-width: 1; stroke-dasharray: ; stroke-linecap: butt; stroke-linejoin: miter; stroke-miterlimit: 10;fill:#FF6600;fill-opacity:1; fill-rule: nonzero; opacity: 1" transform=" matrix(1 0 0 1 703 543) " stroke-linecap="round" />
<path d="M 0.5 0.5 L 0.5 -481.5 L 131.5 -481.5 L 131.5 0.5 L 0.5 0.5 Z" style="stroke:#FF6600;stroke-opacity:1; stroke-width: 1; stroke-dasharray: 5 5; stroke-linecap: butt; stroke-linejoin: miter; stroke-miterlimit: 10;fill:#FF6600;fill-opacity:0.2; fill-rule: nonzero; opacity: 1" transform=" matrix(1 0 0 1 867 543) " stroke-linecap="round" />
<path d="M 82.5 477.5 L 246.5 352.5 L 410.5 322.5 L 575.5 290.5 L 739.5 235.5 M 0 0 L 0 0" style="stroke:#FCD202;stroke-opacity:1; stroke-width: 3; stroke-dasharray: ; stroke-linecap: butt; stroke-linejoin: miter; stroke-miterlimit: 10; fill: none; fill-rule: nonzero; opacity: 1" transform=" matrix(1 0 0 1 30 10) " stroke-linecap="round" />
<rect x="0" y="0" rx="0" ry="0" width="987" height="535" style="stroke: none; stroke-width: 0; stroke-dasharray: ; stroke-linecap: butt; stroke-linejoin: miter; stroke-miterlimit: 10; fill: transparent; fill-rule: nonzero; opacity: 1" transform=""/>
<path d="M 739.5 235.5 L 903.5 163.5 M 0 0 L 0 0" style="stroke:#FCD202;stroke-opacity:1; stroke-width: 3; stroke-dasharray: 5 5; stroke-linecap: butt; stroke-linejoin: miter; stroke-miterlimit: 10; fill: none; fill-rule: nonzero; opacity: 1" transform=" matrix(1 0 0 1 30 10) " stroke-linecap="round" />
<rect x="0" y="0" rx="0" ry="0" width="987" height="535" style="stroke: none; stroke-width: 0; stroke-dasharray: ; stroke-linecap: butt; stroke-linejoin: miter; stroke-miterlimit: 10; fill: transparent; fill-rule: nonzero; opacity: 1" transform=""/>
<path d="M 0.5 0.5 L 985.5 0.5" style="stroke:#000000;stroke-opacity:0; stroke-width: 1; stroke-dasharray: ; stroke-linecap: butt; stroke-linejoin: miter; stroke-miterlimit: 10; fill: none; fill-rule: nonzero; opacity: 1" transform=" matrix(1 0 0 1 30 543) " stroke-linecap="round" />
<path d="M 0.5 0.5 L 0.5 533.5" style="stroke:#000000;stroke-opacity:0; stroke-width: 1; stroke-dasharray: ; stroke-linecap: butt; stroke-linejoin: miter; stroke-miterlimit: 10; fill: none; fill-rule: nonzero; opacity: 1" transform=" matrix(1 0 0 1 30 10) " stroke-linecap="round" />
<circle cx="0" cy="0" r="3.5" style="stroke:#FFFFFF;stroke-opacity:1; stroke-width: 3; stroke-dasharray: ; stroke-linecap: butt; stroke-linejoin: miter; stroke-miterlimit: 10;fill:#FFFFFF;fill-opacity:1; fill-rule: nonzero; opacity: 1" transform="  matrix(1 0 0 1 112 487) "/>
<circle cx="0" cy="0" r="3.5" style="stroke:#FFFFFF;stroke-opacity:1; stroke-width: 3; stroke-dasharray: ; stroke-linecap: butt; stroke-linejoin: miter; stroke-miterlimit: 10;fill:#FFFFFF;fill-opacity:1; fill-rule: nonzero; opacity: 1" transform="  matrix(1 0 0 1 276 362) "/>
<circle cx="0" cy="0" r="3.5" style="stroke:#FFFFFF;stroke-opacity:1; stroke-width: 3; stroke-dasharray: ; stroke-linecap: butt; stroke-linejoin: miter; stroke-miterlimit: 10;fill:#FFFFFF;fill-opacity:1; fill-rule: nonzero; opacity: 1" transform="  matrix(1 0 0 1 440 332) "/>
<circle cx="0" cy="0" r="3.5" style="stroke:#FFFFFF;stroke-opacity:1; stroke-width: 3; stroke-dasharray: ; stroke-linecap: butt; stroke-linejoin: miter; stroke-miterlimit: 10;fill:#FFFFFF;fill-opacity:1; fill-rule: nonzero; opacity: 1" transform="  matrix(1 0 0 1 605 300) "/>
<circle cx="0" cy="0" r="3.5" style="stroke:#FFFFFF;stroke-opacity:1; stroke-width: 3; stroke-dasharray: ; stroke-linecap: butt; stroke-linejoin: miter; stroke-miterlimit: 10;fill:#FFFFFF;fill-opacity:1; fill-rule: nonzero; opacity: 1" transform="  matrix(1 0 0 1 769 245) "/>
<circle cx="0" cy="0" r="3.5" style="stroke:#FFFFFF;stroke-opacity:1; stroke-width: 3; stroke-dasharray: ; stroke-linecap: butt; stroke-linejoin: miter; stroke-miterlimit: 10;fill:#FFFFFF;fill-opacity:1; fill-rule: nonzero; opacity: 1" transform="  matrix(1 0 0 1 933 173) "/>
	<g transform=" matrix(1 0 0 1 112.08333333333333 555.5) ">
		<text font-family="Verdana" font-size="11" font-weight="normal" style="stroke: none; stroke-width: 1; stroke-dasharray: ; stroke-linecap: butt; stroke-linejoin: miter; stroke-miterlimit: 10;fill:#000000;fill-opacity:1; fill-rule: nonzero; opacity: 1" ><tspan x="-14" y="5.9912" fill="rgba(0,0,0,1)">2009</tspan></text>
	</g>
	<g transform=" matrix(1 0 0 1 276.0833333333333 555.5) ">
		<text font-family="Verdana" font-size="11" font-weight="normal" style="stroke: none; stroke-width: 1; stroke-dasharray: ; stroke-linecap: butt; stroke-linejoin: miter; stroke-miterlimit: 10;fill:#000000;fill-opacity:1; fill-rule: nonzero; opacity: 1" ><tspan x="-14" y="5.9912" fill="rgba(0,0,0,1)">2010</tspan></text>
	</g>
	<g transform=" matrix(1 0 0 1 440.0833333333333 555.5) ">
		<text font-family="Verdana" font-size="11" font-weight="normal" style="stroke: none; stroke-width: 1; stroke-dasharray: ; stroke-linecap: butt; stroke-linejoin: miter; stroke-miterlimit: 10;fill:#000000;fill-opacity:1; fill-rule: nonzero; opacity: 1" ><tspan x="-14" y="5.9912" fill="rgba(0,0,0,1)">2011</tspan></text>
	</g>
	<g transform=" matrix(1 0 0 1 605.0833333333334 555.5) ">
		<text font-family="Verdana" font-size="11" font-weight="normal" style="stroke: none; stroke-width: 1; stroke-dasharray: ; stroke-linecap: butt; stroke-linejoin: miter; stroke-miterlimit: 10;fill:#000000;fill-opacity:1; fill-rule: nonzero; opacity: 1" ><tspan x="-14" y="5.9912" fill="rgba(0,0,0,1)">2012</tspan></text>
	</g>
	<g transform=" matrix(1 0 0 1 769.0833333333334 555.5) ">
		<text font-family="Verdana" font-size="11" font-weight="normal" style="stroke: none; stroke-width: 1; stroke-dasharray: ; stroke-linecap: butt; stroke-linejoin: miter; stroke-miterlimit: 10;fill:#000000;fill-opacity:1; fill-rule: nonzero; opacity: 1" ><tspan x="-14" y="5.9912" fill="rgba(0,0,0,1)">2013</tspan></text>
	</g>
	<g transform=" matrix(1 0 0 1 933.0833333333334 555.5) ">
		<text font-family="Verdana" font-size="11" font-weight="normal" style="stroke: none; stroke-width: 1; stroke-dasharray: ; stroke-linecap: butt; stroke-linejoin: miter; stroke-miterlimit: 10;fill:#000000;fill-opacity:1; fill-rule: nonzero; opacity: 1" ><tspan x="-14" y="5.9912" fill="rgba(0,0,0,1)">2014</tspan></text>
	</g>
	<g transform=" matrix(1 0 0 1 18 542) ">
		<text font-family="Verdana" font-size="11" font-weight="normal" style="stroke: none; stroke-width: 1; stroke-dasharray: ; stroke-linecap: butt; stroke-linejoin: miter; stroke-miterlimit: 10;fill:#000000;fill-opacity:1; fill-rule: nonzero; opacity: 1" ><tspan x="-14" y="5.9912" fill="rgba(0,0,0,1)">16</tspan></text>
	</g>
	<g transform=" matrix(1 0 0 1 18 489) ">
		<text font-family="Verdana" font-size="11" font-weight="normal" style="stroke: none; stroke-width: 1; stroke-dasharray: ; stroke-linecap: butt; stroke-linejoin: miter; stroke-miterlimit: 10;fill:#000000;fill-opacity:1; fill-rule: nonzero; opacity: 1" ><tspan x="-14" y="5.9912" fill="rgba(0,0,0,1)">18</tspan></text>
	</g>
	<g transform=" matrix(1 0 0 1 18 435) ">
		<text font-family="Verdana" font-size="11" font-weight="normal" style="stroke: none; stroke-width: 1; stroke-dasharray: ; stroke-linecap: butt; stroke-linejoin: miter; stroke-miterlimit: 10;fill:#000000;fill-opacity:1; fill-rule: nonzero; opacity: 1" ><tspan x="-14" y="5.9912" fill="rgba(0,0,0,1)">20</tspan></text>
	</g>
	<g transform=" matrix(1 0 0 1 18 382) ">
		<text font-family="Verdana" font-size="11" font-weight="normal" style="stroke: none; stroke-width: 1; stroke-dasharray: ; stroke-linecap: butt; stroke-linejoin: miter; stroke-miterlimit: 10;fill:#000000;fill-opacity:1; fill-rule: nonzero; opacity: 1" ><tspan x="-14" y="5.9912" fill="rgba(0,0,0,1)">22</tspan></text>
	</g>
	<g transform=" matrix(1 0 0 1 18 329) ">
		<text font-family="Verdana" font-size="11" font-weight="normal" style="stroke: none; stroke-width: 1; stroke-dasharray: ; stroke-linecap: butt; stroke-linejoin: miter; stroke-miterlimit: 10;fill:#000000;fill-opacity:1; fill-rule: nonzero; opacity: 1" ><tspan x="-14" y="5.9912" fill="rgba(0,0,0,1)">24</tspan></text>
	</g>
	<g transform=" matrix(1 0 0 1 18 276) ">
		<text font-family="Verdana" font-size="11" font-weight="normal" style="stroke: none; stroke-width: 1; stroke-dasharray: ; stroke-linecap: butt; stroke-linejoin: miter; stroke-miterlimit: 10;fill:#000000;fill-opacity:1; fill-rule: nonzero; opacity: 1" ><tspan x="-14" y="5.9912" fill="rgba(0,0,0,1)">26</tspan></text>
	</g>
	<g transform=" matrix(1 0 0 1 18 222) ">
		<text font-family="Verdana" font-size="11" font-weight="normal" style="stroke: none; stroke-width: 1; stroke-dasharray: ; stroke-linecap: butt; stroke-linejoin: miter; stroke-miterlimit: 10;fill:#000000;fill-opacity:1; fill-rule: nonzero; opacity: 1" ><tspan x="-14" y="5.9912" fill="rgba(0,0,0,1)">28</tspan></text>
	</g>
	<g transform=" matrix(1 0 0 1 18 169) ">
		<text font-family="Verdana" font-size="11" font-weight="normal" style="stroke: none; stroke-width: 1; stroke-dasharray: ; stroke-linecap: butt; stroke-linejoin: miter; stroke-miterlimit: 10;fill:#000000;fill-opacity:1; fill-rule: nonzero; opacity: 1" ><tspan x="-14" y="5.9912" fill="rgba(0,0,0,1)">30</tspan></text>
	</g>
	<g transform=" matrix(1 0 0 1 18 116) ">
		<text font-family="Verdana" font-size="11" font-weight="normal" style="stroke: none; stroke-width: 1; stroke-dasharray: ; stroke-linecap: butt; stroke-linejoin: miter; stroke-miterlimit: 10;fill:#000000;fill-opacity:1; fill-rule: nonzero; opacity: 1" ><tspan x="-14" y="5.9912" fill="rgba(0,0,0,1)">32</tspan></text>
	</g>
	<g transform=" matrix(1 0 0 1 18 62) ">
		<text font-family="Verdana" font-size="11" font-weight="normal" style="stroke: none; stroke-width: 1; stroke-dasharray: ; stroke-linecap: butt; stroke-linejoin: miter; stroke-miterlimit: 10;fill:#000000;fill-opacity:1; fill-rule: nonzero; opacity: 1" ><tspan x="-14" y="5.9912" fill="rgba(0,0,0,1)">34</tspan></text>
	</g>
	<g transform=" matrix(1 0 0 1 18 9) ">
		<text font-family="Verdana" font-size="11" font-weight="normal" style="stroke: none; stroke-width: 1; stroke-dasharray: ; stroke-linecap: butt; stroke-linejoin: miter; stroke-miterlimit: 10;fill:#000000;fill-opacity:1; fill-rule: nonzero; opacity: 1" ><tspan x="-14" y="5.9912" fill="rgba(0,0,0,1)">36</tspan></text>
	</g>
</g>
	<g transform="translate(96.5 22.21)">
		<text font-family="Verdana" font-size="11" font-weight="normal" style="stroke: none; stroke-width: 1; stroke-dasharray: ; stroke-linecap: butt; stroke-linejoin: miter; stroke-miterlimit: 10;fill:#000000;fill-opacity:1; fill-rule: nonzero; opacity: 1" ><tspan x="-61.5" y="2.4706" fill="rgb(0, 0, 0)">JS chart by amCharts</tspan></text>
	</g>
</svg>