<?xml version="1.0" encoding="UTF-8" standalone="no" ?><!DOCTYPE svg PUBLIC "-//W3C//DTD SVG 1.1//EN" "http://www.w3.org/Graphics/SVG/1.1/DTD/svg11.dtd">
<svg xmlns="http://www.w3.org/2000/svg" xmlns:xlink="http://www.w3.org/1999/xlink" version="1.1" width="1024" height="570" style="background-color: #FFFFFF" xml:space="preserve"><desc>Created with Fabric.js 1.5.0</desc><defs></defs><g style="stroke: none; stroke-width: 1; stroke-dasharray: ; stroke-linecap: butt; stroke-linejoin: miter; stroke-miterlimit: 10; fill: none; fill-rule: nonzero; opacity: 1" transform="translate(0 0)" >
<path d="M 0.5 0.5 L 1023.5 0.5 L 1023.5 569.5 L 0.5 569.5 Z" style="stroke:#000000;stroke-opacity:0; stroke-width: 1; stroke-dasharray: ; stroke-linecap: butt; stroke-linejoin: miter; stroke-miterlimit: 10;fill:#FFFFFF;fill-opacity:0; fill-rule: nonzero; opacity: 1" transform="" stroke-linecap="round" />
<linearGradient id="SVGID_57" gradientUnits="userSpaceOnUse" x1="20" y1="0" x2="0" y2="0">
<stop offset="0%" style="stop-color:rgb(4,210,21);stop-opacity: 1"/>
<stop offset="33.333333333333336%" style="stop-color:rgb(3,147,15);stop-opacity: 1"/>
<stop offset="66.66666666666667%" style="stop-color:rgb(3,147,15);stop-opacity: 1"/>
<stop offset="100%" style="stop-color:rgb(4,210,21);stop-opacity: 1"/>
</linearGradient>
<path d="M 0 0 L 10 14 A 0 0 0 0 0 10 14 L 20 0 A 10 0.8584202682563334 0 0 1 0 0" style="stroke: rgba(255,255,255,1); stroke-width: 2; stroke-dasharray: ; stroke-linecap: butt; stroke-linejoin: miter; stroke-miterlimit: 10; fill: url(#SVGID_57); fill-rule: nonzero; opacity: 1;" transform=" matrix(1 0 0 1 407 546) " stroke-linecap="round" />
<ellipse cx="0" cy="0" rx="10" ry="0.8584202682563334" style="stroke:#FFFFFF;stroke-opacity:1; stroke-width: 2; stroke-dasharray: ; stroke-linecap: butt; stroke-linejoin: miter; stroke-miterlimit: 10;fill:#04D215;fill-opacity:1; fill-rule: nonzero; opacity: 1" transform=" matrix(1 0 0 1 417 546) "/>
	<g transform=" matrix(1 0 0 1 794 552) ">
		<text font-family="Verdana" font-size="11" font-weight="normal" style="stroke: none; stroke-width: 1; stroke-dasharray: ; stroke-linecap: butt; stroke-linejoin: miter; stroke-miterlimit: 10;fill:#000000;fill-opacity:1; fill-rule: nonzero; opacity: 1" ><tspan x="0" y="5.9912" fill="rgba(0,0,0,1)">Purchased more: 18</tspan></text>
	</g>
<rect x="0.5" y="0.5" rx="0" ry="0" width="121" height="18" style="stroke:#FFFFFF;stroke-opacity:0.005; stroke-width: 0; stroke-dasharray: ; stroke-linecap: butt; stroke-linejoin: miter; stroke-miterlimit: 10;fill:#FFFFFF;fill-opacity:0.005; fill-rule: nonzero; opacity: 1" transform=" matrix(1 0 0 1 794 547) "/>
<path d="M 417.5 553.5 L 794.5 552.5 L 794.5 552.5" style="stroke:#000000;stroke-opacity:0.2; stroke-width: 1; stroke-dasharray: ; stroke-linecap: butt; stroke-linejoin: miter; stroke-miterlimit: 10; fill: none; fill-rule: nonzero; opacity: 1" transform="" stroke-linecap="round" />
<ellipse cx="0" cy="0" rx="9.837209302325578" ry="0.8584202682563334" style="stroke:#FFFFFF;stroke-opacity:1; stroke-width: 2; stroke-dasharray: ; stroke-linecap: butt; stroke-linejoin: miter; stroke-miterlimit: 10;fill:#FFFF0E;fill-opacity:1; fill-rule: nonzero; opacity: 1" transform=" matrix(1 0 0 1 417 547) "/>
<linearGradient id="SVGID_58" gradientUnits="userSpaceOnUse" x1="47" y1="0" x2="0" y2="0">
<stop offset="0%" style="stop-color:rgb(176,222,9);stop-opacity: 1"/>
<stop offset="33.333333333333336%" style="stop-color:rgb(123,155,6);stop-opacity: 1"/>
<stop offset="66.66666666666667%" style="stop-color:rgb(123,155,6);stop-opacity: 1"/>
<stop offset="100%" style="stop-color:rgb(176,222,9);stop-opacity: 1"/>
</linearGradient>
<path d="M 0 0 L 13.662790697674422 19 A 9.837209302325578 0.8584202682563334 0 0 0 33.337209302325576 19 L 47 0 A 23.5 2.050670640834575 0 0 1 0 0" style="stroke: rgba(255,255,255,1); stroke-width: 2; stroke-dasharray: ; stroke-linecap: butt; stroke-linejoin: miter; stroke-miterlimit: 10; fill: url(#SVGID_58); fill-rule: nonzero; opacity: 1;" transform=" matrix(1 0 0 1 393 527) " stroke-linecap="round" />
<ellipse cx="0" cy="0" rx="23.5" ry="2.050670640834575" style="stroke:#FFFFFF;stroke-opacity:1; stroke-width: 2; stroke-dasharray: ; stroke-linecap: butt; stroke-linejoin: miter; stroke-miterlimit: 10;fill:#B0DE09;fill-opacity:1; fill-rule: nonzero; opacity: 1" transform=" matrix(1 0 0 1 417 527) "/>
	<g transform=" matrix(1 0 0 1 794 534) ">
		<text font-family="Verdana" font-size="11" font-weight="normal" style="stroke: none; stroke-width: 1; stroke-dasharray: ; stroke-linecap: butt; stroke-linejoin: miter; stroke-miterlimit: 10;fill:#000000;fill-opacity:1; fill-rule: nonzero; opacity: 1" ><tspan x="0" y="5.9912" fill="rgba(0,0,0,1)">Asked for support: 25</tspan></text>
	</g>
<rect x="0.5" y="0.5" rx="0" ry="0" width="130" height="18" style="stroke:#FFFFFF;stroke-opacity:0.005; stroke-width: 0; stroke-dasharray: ; stroke-linecap: butt; stroke-linejoin: miter; stroke-miterlimit: 10;fill:#FFFFFF;fill-opacity:0.005; fill-rule: nonzero; opacity: 1" transform=" matrix(1 0 0 1 794 529) "/>
<path d="M 434.5 536.5 L 794.5 534.5 L 794.5 534.5" style="stroke:#000000;stroke-opacity:0.2; stroke-width: 1; stroke-dasharray: ; stroke-linecap: butt; stroke-linejoin: miter; stroke-miterlimit: 10; fill: none; fill-rule: nonzero; opacity: 1" transform="" stroke-linecap="round" />
<ellipse cx="0" cy="0" rx="23.429487179487175" ry="2.050670640834575" style="stroke:#FFFFFF;stroke-opacity:1; stroke-width: 2; stroke-dasharray: ; stroke-linecap: butt; stroke-linejoin: miter; stroke-miterlimit: 10;fill:#FFFF02;fill-opacity:1; fill-rule: nonzero; opacity: 1" transform=" matrix(1 0 0 1 417 528) "/>
<linearGradient id="SVGID_59" gradientUnits="userSpaceOnUse" x1="85" y1="0" x2="0" y2="0">
<stop offset="0%" style="stop-color:rgb(248,255,1);stop-opacity: 1"/>
<stop offset="33.333333333333336%" style="stop-color:rgb(174,179,1);stop-opacity: 1"/>
<stop offset="66.66666666666667%" style="stop-color:rgb(174,179,1);stop-opacity: 1"/>
<stop offset="100%" style="stop-color:rgb(248,255,1);stop-opacity: 1"/>
</linearGradient>
<path d="M 0 0 L 19.070512820512825 27 A 23.429487179487175 2.050670640834575 0 0 0 65.92948717948718 27 L 85 0 A 42.5 3.719821162444113 0 0 1 0 0" style="stroke: rgba(255,255,255,1); stroke-width: 2; stroke-dasharray: ; stroke-linecap: butt; stroke-linejoin: miter; stroke-miterlimit: 10; fill: url(#SVGID_59); fill-rule: nonzero; opacity: 1;" transform=" matrix(1 0 0 1 374 500) " stroke-linecap="round" />
<ellipse cx="0" cy="0" rx="42.5" ry="3.719821162444113" style="stroke:#FFFFFF;stroke-opacity:1; stroke-width: 2; stroke-dasharray: ; stroke-linecap: butt; stroke-linejoin: miter; stroke-miterlimit: 10;fill:#F8FF01;fill-opacity:1; fill-rule: nonzero; opacity: 1" transform=" matrix(1 0 0 1 417 500) "/>
	<g transform=" matrix(1 0 0 1 794 513) ">
		<text font-family="Verdana" font-size="11" font-weight="normal" style="stroke: none; stroke-width: 1; stroke-dasharray: ; stroke-linecap: butt; stroke-linejoin: miter; stroke-miterlimit: 10;fill:#000000;fill-opacity:1; fill-rule: nonzero; opacity: 1" ><tspan x="0" y="5.9912" fill="rgba(0,0,0,1)">Purchased: 35</tspan></text>
	</g>
<rect x="0.5" y="0.5" rx="0" ry="0" width="87" height="18" style="stroke:#FFFFFF;stroke-opacity:0.005; stroke-width: 0; stroke-dasharray: ; stroke-linecap: butt; stroke-linejoin: miter; stroke-miterlimit: 10;fill:#FFFFFF;fill-opacity:0.005; fill-rule: nonzero; opacity: 1" transform=" matrix(1 0 0 1 794 508) "/>
<path d="M 450.5 513.5 L 794.5 513.5 L 794.5 513.5" style="stroke:#000000;stroke-opacity:0.2; stroke-width: 1; stroke-dasharray: ; stroke-linecap: butt; stroke-linejoin: miter; stroke-miterlimit: 10; fill: none; fill-rule: nonzero; opacity: 1" transform="" stroke-linecap="round" />
<ellipse cx="0" cy="0" rx="42.64" ry="3.719821162444113" style="stroke:#FFFFFF;stroke-opacity:1; stroke-width: 2; stroke-dasharray: ; stroke-linecap: butt; stroke-linejoin: miter; stroke-miterlimit: 10;fill:#FFFF03;fill-opacity:1; fill-rule: nonzero; opacity: 1" transform=" matrix(1 0 0 1 417 501) "/>
<linearGradient id="SVGID_60" gradientUnits="userSpaceOnUse" x1="164" y1="0" x2="0" y2="0">
<stop offset="0%" style="stop-color:rgb(252,210,2);stop-opacity: 1"/>
<stop offset="33.333333333333336%" style="stop-color:rgb(176,147,1);stop-opacity: 1"/>
<stop offset="66.66666666666667%" style="stop-color:rgb(176,147,1);stop-opacity: 1"/>
<stop offset="100%" style="stop-color:rgb(252,210,2);stop-opacity: 1"/>
</linearGradient>
<path d="M 0 0 L 39.36 56 A 42.64 3.719821162444113 0 0 0 124.64 56 L 164 0 A 82 7.153502235469448 0 0 1 0 0" style="stroke: rgba(255,255,255,1); stroke-width: 2; stroke-dasharray: ; stroke-linecap: butt; stroke-linejoin: miter; stroke-miterlimit: 10; fill: url(#SVGID_60); fill-rule: nonzero; opacity: 1;" transform=" matrix(1 0 0 1 335 444) " stroke-linecap="round" />
<ellipse cx="0" cy="0" rx="82" ry="7.153502235469448" style="stroke:#FFFFFF;stroke-opacity:1; stroke-width: 2; stroke-dasharray: ; stroke-linecap: butt; stroke-linejoin: miter; stroke-miterlimit: 10;fill:#FCD202;fill-opacity:1; fill-rule: nonzero; opacity: 1" transform=" matrix(1 0 0 1 417 444) "/>
	<g transform=" matrix(1 0 0 1 794 472) ">
		<text font-family="Verdana" font-size="11" font-weight="normal" style="stroke: none; stroke-width: 1; stroke-dasharray: ; stroke-linecap: butt; stroke-linejoin: miter; stroke-miterlimit: 10;fill:#000000;fill-opacity:1; fill-rule: nonzero; opacity: 1" ><tspan x="0" y="5.9912" fill="rgba(0,0,0,1)">Contaced: 72</tspan></text>
	</g>
<rect x="0.5" y="0.5" rx="0" ry="0" width="81" height="18" style="stroke:#FFFFFF;stroke-opacity:0.005; stroke-width: 0; stroke-dasharray: ; stroke-linecap: butt; stroke-linejoin: miter; stroke-miterlimit: 10;fill:#FFFFFF;fill-opacity:0.005; fill-rule: nonzero; opacity: 1" transform=" matrix(1 0 0 1 794 467) "/>
<path d="M 479.5 472.5 L 794.5 472.5 L 794.5 472.5" style="stroke:#000000;stroke-opacity:0.2; stroke-width: 1; stroke-dasharray: ; stroke-linecap: butt; stroke-linejoin: miter; stroke-miterlimit: 10; fill: none; fill-rule: nonzero; opacity: 1" transform="" stroke-linecap="round" />
<ellipse cx="0" cy="0" rx="81.95564516129032" ry="7.153502235469448" style="stroke:#FFFFFF;stroke-opacity:1; stroke-width: 2; stroke-dasharray: ; stroke-linecap: butt; stroke-linejoin: miter; stroke-miterlimit: 10;fill:#FFED02;fill-opacity:1; fill-rule: nonzero; opacity: 1" transform=" matrix(1 0 0 1 417 445) "/>
<linearGradient id="SVGID_61" gradientUnits="userSpaceOnUse" x1="271" y1="0" x2="0" y2="0">
<stop offset="0%" style="stop-color:rgb(255,158,1);stop-opacity: 1"/>
<stop offset="33.333333333333336%" style="stop-color:rgb(179,111,1);stop-opacity: 1"/>
<stop offset="66.66666666666667%" style="stop-color:rgb(179,111,1);stop-opacity: 1"/>
<stop offset="100%" style="stop-color:rgb(255,158,1);stop-opacity: 1"/>
</linearGradient>
<path d="M 0 0 L 53.54435483870968 76 A 81.95564516129032 7.153502235469448 0 0 0 217.45564516129033 76 L 271 0 A 135.5 11.827123695976153 0 0 1 0 0" style="stroke: rgba(255,255,255,1); stroke-width: 2; stroke-dasharray: ; stroke-linecap: butt; stroke-linejoin: miter; stroke-miterlimit: 10; fill: url(#SVGID_61); fill-rule: nonzero; opacity: 1;" transform=" matrix(1 0 0 1 281 368) " stroke-linecap="round" />
<ellipse cx="0" cy="0" rx="135.5" ry="11.827123695976153" style="stroke:#FFFFFF;stroke-opacity:1; stroke-width: 2; stroke-dasharray: ; stroke-linecap: butt; stroke-linejoin: miter; stroke-miterlimit: 10;fill:#FF9E01;fill-opacity:1; fill-rule: nonzero; opacity: 1" transform=" matrix(1 0 0 1 417 368) "/>
	<g transform=" matrix(1 0 0 1 794 406) ">
		<text font-family="Verdana" font-size="11" font-weight="normal" style="stroke: none; stroke-width: 1; stroke-dasharray: ; stroke-linecap: butt; stroke-linejoin: miter; stroke-miterlimit: 10;fill:#000000;fill-opacity:1; fill-rule: nonzero; opacity: 1" ><tspan x="0" y="5.9912" fill="rgba(0,0,0,1)">Requested prices: 98</tspan></text>
	</g>
<rect x="0.5" y="0.5" rx="0" ry="0" width="126" height="18" style="stroke:#FFFFFF;stroke-opacity:0.005; stroke-width: 0; stroke-dasharray: ; stroke-linecap: butt; stroke-linejoin: miter; stroke-miterlimit: 10;fill:#FFFFFF;fill-opacity:0.005; fill-rule: nonzero; opacity: 1" transform=" matrix(1 0 0 1 794 401) "/>
<path d="M 526.5 406.5 L 794.5 406.5 L 794.5 406.5" style="stroke:#000000;stroke-opacity:0.2; stroke-width: 1; stroke-dasharray: ; stroke-linecap: butt; stroke-linejoin: miter; stroke-miterlimit: 10; fill: none; fill-rule: nonzero; opacity: 1" transform="" stroke-linecap="round" />
<ellipse cx="0" cy="0" rx="135.69811320754715" ry="11.827123695976153" style="stroke:#FFFFFF;stroke-opacity:1; stroke-width: 2; stroke-dasharray: ; stroke-linecap: butt; stroke-linejoin: miter; stroke-miterlimit: 10;fill:#FF9900;fill-opacity:1; fill-rule: nonzero; opacity: 1" transform=" matrix(1 0 0 1 417 369) "/>
<linearGradient id="SVGID_62" gradientUnits="userSpaceOnUse" x1="406.00000000000006" y1="0" x2="0" y2="0">
<stop offset="0%" style="stop-color:rgb(255,102,0);stop-opacity: 1"/>
<stop offset="33.333333333333336%" style="stop-color:rgb(179,71,0);stop-opacity: 1"/>
<stop offset="66.66666666666667%" style="stop-color:rgb(179,71,0);stop-opacity: 1"/>
<stop offset="100%" style="stop-color:rgb(255,102,0);stop-opacity: 1"/>
</linearGradient>
<path d="M 0 0 L 67.30188679245285 95 A 135.69811320754715 11.827123695976153 0 0 0 338.6981132075472 95 L 406 0 A 203 17.692995529061104 0 0 1 0 0" style="stroke: rgba(255,255,255,1); stroke-width: 2; stroke-dasharray: ; stroke-linecap: butt; stroke-linejoin: miter; stroke-miterlimit: 10; fill: url(#SVGID_62); fill-rule: nonzero; opacity: 1;" transform=" matrix(1 0 0 1 214 273) " stroke-linecap="round" />
<ellipse cx="0" cy="0" rx="203" ry="17.692995529061104" style="stroke:#FFFFFF;stroke-opacity:1; stroke-width: 2; stroke-dasharray: ; stroke-linecap: butt; stroke-linejoin: miter; stroke-miterlimit: 10;fill:#FF6600;fill-opacity:1; fill-rule: nonzero; opacity: 1" transform=" matrix(1 0 0 1 417 273) "/>
	<g transform=" matrix(1 0 0 1 794 321) ">
		<text font-family="Verdana" font-size="11" font-weight="normal" style="stroke: none; stroke-width: 1; stroke-dasharray: ; stroke-linecap: butt; stroke-linejoin: miter; stroke-miterlimit: 10;fill:#000000;fill-opacity:1; fill-rule: nonzero; opacity: 1" ><tspan x="0" y="5.9912" fill="rgba(0,0,0,1)">Downloads: 123</tspan></text>
	</g>
<rect x="0.5" y="0.5" rx="0" ry="0" width="96" height="18" style="stroke:#FFFFFF;stroke-opacity:0.005; stroke-width: 0; stroke-dasharray: ; stroke-linecap: butt; stroke-linejoin: miter; stroke-miterlimit: 10;fill:#FFFFFF;fill-opacity:0.005; fill-rule: nonzero; opacity: 1" transform=" matrix(1 0 0 1 794 316) "/>
<path d="M 586.5 321.5 L 794.5 321.5 L 794.5 321.5" style="stroke:#000000;stroke-opacity:0.2; stroke-width: 1; stroke-dasharray: ; stroke-linecap: butt; stroke-linejoin: miter; stroke-miterlimit: 10; fill: none; fill-rule: nonzero; opacity: 1" transform="" stroke-linecap="round" />
<ellipse cx="0" cy="0" rx="202.91654247391955" ry="17.692995529061104" style="stroke:#FFFFFF;stroke-opacity:1; stroke-width: 2; stroke-dasharray: ; stroke-linecap: butt; stroke-linejoin: miter; stroke-miterlimit: 10;fill:#FF1700;fill-opacity:1; fill-rule: nonzero; opacity: 1" transform=" matrix(1 0 0 1 417 275) "/>
<linearGradient id="SVGID_63" gradientUnits="userSpaceOnUse" x1="734" y1="0" x2="0" y2="0">
<stop offset="0%" style="stop-color:rgb(255,15,0);stop-opacity: 1"/>
<stop offset="33.333333333333336%" style="stop-color:rgb(179,11,0);stop-opacity: 1"/>
<stop offset="66.66666666666667%" style="stop-color:rgb(179,11,0);stop-opacity: 1"/>
<stop offset="100%" style="stop-color:rgb(255,15,0);stop-opacity: 1"/>
</linearGradient>
<path d="M 0 0 L 164.08345752608045 232 A 202.91654247391955 17.692995529061104 0 0 0 569.9165424739195 232 L 734 0 A 367 32 0 0 1 0 0" style="stroke: rgba(255,255,255,1); stroke-width: 2; stroke-dasharray: ; stroke-linecap: butt; stroke-linejoin: miter; stroke-miterlimit: 10; fill: url(#SVGID_63); fill-rule: nonzero; opacity: 1;" transform=" matrix(1 0 0 1 50 42) " stroke-linecap="round" />
<ellipse cx="0" cy="0" rx="367" ry="32" style="stroke:#FFFFFF;stroke-opacity:1; stroke-width: 2; stroke-dasharray: ; stroke-linecap: butt; stroke-linejoin: miter; stroke-miterlimit: 10;fill:#FF0F00;fill-opacity:1; fill-rule: nonzero; opacity: 1" transform=" matrix(1 0 0 1 417 42) "/>
	<g transform=" matrix(1 0 0 1 794 158) ">
		<text font-family="Verdana" font-size="11" font-weight="normal" style="stroke: none; stroke-width: 1; stroke-dasharray: ; stroke-linecap: butt; stroke-linejoin: miter; stroke-miterlimit: 10;fill:#000000;fill-opacity:1; fill-rule: nonzero; opacity: 1" ><tspan x="0" y="5.9912" fill="rgba(0,0,0,1)">Website visits: 300</tspan></text>
	</g>
<rect x="0.5" y="0.5" rx="0" ry="0" width="113" height="18" style="stroke:#FFFFFF;stroke-opacity:0.005; stroke-width: 0; stroke-dasharray: ; stroke-linecap: butt; stroke-linejoin: miter; stroke-miterlimit: 10;fill:#FFFFFF;fill-opacity:0.005; fill-rule: nonzero; opacity: 1" transform=" matrix(1 0 0 1 794 153) "/>
<path d="M 702.5 158.5 L 794.5 158.5 L 794.5 158.5" style="stroke:#000000;stroke-opacity:0.2; stroke-width: 1; stroke-dasharray: ; stroke-linecap: butt; stroke-linejoin: miter; stroke-miterlimit: 10; fill: none; fill-rule: nonzero; opacity: 1" transform="" stroke-linecap="round" />
</g>
</svg>