<?xml version="1.0" encoding="UTF-8" standalone="no" ?><!DOCTYPE svg PUBLIC "-//W3C//DTD SVG 1.1//EN" "http://www.w3.org/Graphics/SVG/1.1/DTD/svg11.dtd">
<svg xmlns="http://www.w3.org/2000/svg" xmlns:xlink="http://www.w3.org/1999/xlink" version="1.1" width="1024" height="570" style="background-color: #FFFFFF" xml:space="preserve"><desc>Created with Fabric.js 1.5.0</desc><defs></defs><g style="stroke: none; stroke-width: 1; stroke-dasharray: ; stroke-linecap: butt; stroke-linejoin: miter; stroke-miterlimit: 10; fill: none; fill-rule: nonzero; opacity: 1" transform="translate(0 0)" >
<path d="M 0.5 0.5 L 1023.5 0.5 L 1023.5 569.5 L 0.5 569.5 Z" style="stroke:#000000;stroke-opacity:0; stroke-width: 1; stroke-dasharray: ; stroke-linecap: butt; stroke-linejoin: miter; stroke-miterlimit: 10;fill:#FFFFFF;fill-opacity:0; fill-rule: nonzero; opacity: 1" transform="" stroke-linecap="round" />
<path d="M 0.5 0.5 L 865.5 0.5 L 865.5 519.5 L 0.5 519.5 L 0.5 0.5 Z" style="stroke:#000000;stroke-opacity:0; stroke-width: 1; stroke-dasharray: ; stroke-linecap: butt; stroke-linejoin: miter; stroke-miterlimit: 10;fill:#FFFFFF;fill-opacity:0; fill-rule: nonzero; opacity: 1" transform=" matrix(1 0 0 1 68 20) " stroke-linecap="round" />
<path d="M 0.5 14.5 L 6.5 14.5" style="stroke:#000000;stroke-opacity:0.3; stroke-width: 1; stroke-dasharray: ; stroke-linecap: butt; stroke-linejoin: miter; stroke-miterlimit: 10; fill: none; fill-rule: nonzero; opacity: 1" transform=" matrix(1 0 0 1 62 20) " stroke-linecap="round" />
<path d="M 0.5 0.5 L 0.5 0.5 L 865.5 0.5" style="stroke:#000000;stroke-opacity:0.1; stroke-width: 1; stroke-dasharray: ; stroke-linecap: butt; stroke-linejoin: miter; stroke-miterlimit: 10; fill: none; fill-rule: nonzero; opacity: 1" transform=" matrix(1 0 0 1 68 20) " stroke-linecap="round" />
<path d="M 0.5 43.5 L 6.5 43.5" style="stroke:#000000;stroke-opacity:0.3; stroke-width: 1; stroke-dasharray: ; stroke-linecap: butt; stroke-linejoin: miter; stroke-miterlimit: 10; fill: none; fill-rule: nonzero; opacity: 1" transform=" matrix(1 0 0 1 62 20) " stroke-linecap="round" />
<path d="M 0.5 29.5 L 0.5 29.5 L 865.5 29.5" style="stroke:#000000;stroke-opacity:0.1; stroke-width: 1; stroke-dasharray: ; stroke-linecap: butt; stroke-linejoin: miter; stroke-miterlimit: 10; fill: none; fill-rule: nonzero; opacity: 1" transform=" matrix(1 0 0 1 68 20) " stroke-linecap="round" />
<path d="M 0.5 72.5 L 6.5 72.5" style="stroke:#000000;stroke-opacity:0.3; stroke-width: 1; stroke-dasharray: ; stroke-linecap: butt; stroke-linejoin: miter; stroke-miterlimit: 10; fill: none; fill-rule: nonzero; opacity: 1" transform=" matrix(1 0 0 1 62 20) " stroke-linecap="round" />
<path d="M 0.5 58.5 L 0.5 58.5 L 865.5 58.5" style="stroke:#000000;stroke-opacity:0.1; stroke-width: 1; stroke-dasharray: ; stroke-linecap: butt; stroke-linejoin: miter; stroke-miterlimit: 10; fill: none; fill-rule: nonzero; opacity: 1" transform=" matrix(1 0 0 1 68 20) " stroke-linecap="round" />
<path d="M 0.5 101.5 L 6.5 101.5" style="stroke:#000000;stroke-opacity:0.3; stroke-width: 1; stroke-dasharray: ; stroke-linecap: butt; stroke-linejoin: miter; stroke-miterlimit: 10; fill: none; fill-rule: nonzero; opacity: 1" transform=" matrix(1 0 0 1 62 20) " stroke-linecap="round" />
<path d="M 0.5 87.5 L 0.5 87.5 L 865.5 87.5" style="stroke:#000000;stroke-opacity:0.1; stroke-width: 1; stroke-dasharray: ; stroke-linecap: butt; stroke-linejoin: miter; stroke-miterlimit: 10; fill: none; fill-rule: nonzero; opacity: 1" transform=" matrix(1 0 0 1 68 20) " stroke-linecap="round" />
<path d="M 0.5 130.5 L 6.5 130.5" style="stroke:#000000;stroke-opacity:0.3; stroke-width: 1; stroke-dasharray: ; stroke-linecap: butt; stroke-linejoin: miter; stroke-miterlimit: 10; fill: none; fill-rule: nonzero; opacity: 1" transform=" matrix(1 0 0 1 62 20) " stroke-linecap="round" />
<path d="M 0.5 116.5 L 0.5 116.5 L 865.5 116.5" style="stroke:#000000;stroke-opacity:0.1; stroke-width: 1; stroke-dasharray: ; stroke-linecap: butt; stroke-linejoin: miter; stroke-miterlimit: 10; fill: none; fill-rule: nonzero; opacity: 1" transform=" matrix(1 0 0 1 68 20) " stroke-linecap="round" />
<path d="M 0.5 159.5 L 6.5 159.5" style="stroke:#000000;stroke-opacity:0.3; stroke-width: 1; stroke-dasharray: ; stroke-linecap: butt; stroke-linejoin: miter; stroke-miterlimit: 10; fill: none; fill-rule: nonzero; opacity: 1" transform=" matrix(1 0 0 1 62 20) " stroke-linecap="round" />
<path d="M 0.5 145.5 L 0.5 145.5 L 865.5 145.5" style="stroke:#000000;stroke-opacity:0.1; stroke-width: 1; stroke-dasharray: ; stroke-linecap: butt; stroke-linejoin: miter; stroke-miterlimit: 10; fill: none; fill-rule: nonzero; opacity: 1" transform=" matrix(1 0 0 1 68 20) " stroke-linecap="round" />
<path d="M 0.5 187.5 L 6.5 187.5" style="stroke:#000000;stroke-opacity:0.3; stroke-width: 1; stroke-dasharray: ; stroke-linecap: butt; stroke-linejoin: miter; stroke-miterlimit: 10; fill: none; fill-rule: nonzero; opacity: 1" transform=" matrix(1 0 0 1 62 20) " stroke-linecap="round" />
<path d="M 0.5 173.5 L 0.5 173.5 L 865.5 173.5" style="stroke:#000000;stroke-opacity:0.1; stroke-width: 1; stroke-dasharray: ; stroke-linecap: butt; stroke-linejoin: miter; stroke-miterlimit: 10; fill: none; fill-rule: nonzero; opacity: 1" transform=" matrix(1 0 0 1 68 20) " stroke-linecap="round" />
<path d="M 0.5 216.5 L 6.5 216.5" style="stroke:#000000;stroke-opacity:0.3; stroke-width: 1; stroke-dasharray: ; stroke-linecap: butt; stroke-linejoin: miter; stroke-miterlimit: 10; fill: none; fill-rule: nonzero; opacity: 1" transform=" matrix(1 0 0 1 62 20) " stroke-linecap="round" />
<path d="M 0.5 202.5 L 0.5 202.5 L 865.5 202.5" style="stroke:#000000;stroke-opacity:0.1; stroke-width: 1; stroke-dasharray: ; stroke-linecap: butt; stroke-linejoin: miter; stroke-miterlimit: 10; fill: none; fill-rule: nonzero; opacity: 1" transform=" matrix(1 0 0 1 68 20) " stroke-linecap="round" />
<path d="M 0.5 245.5 L 6.5 245.5" style="stroke:#000000;stroke-opacity:0.3; stroke-width: 1; stroke-dasharray: ; stroke-linecap: butt; stroke-linejoin: miter; stroke-miterlimit: 10; fill: none; fill-rule: nonzero; opacity: 1" transform=" matrix(1 0 0 1 62 20) " stroke-linecap="round" />
<path d="M 0.5 231.5 L 0.5 231.5 L 865.5 231.5" style="stroke:#000000;stroke-opacity:0.1; stroke-width: 1; stroke-dasharray: ; stroke-linecap: butt; stroke-linejoin: miter; stroke-miterlimit: 10; fill: none; fill-rule: nonzero; opacity: 1" transform=" matrix(1 0 0 1 68 20) " stroke-linecap="round" />
<path d="M 0.5 274.5 L 6.5 274.5" style="stroke:#000000;stroke-opacity:0.3; stroke-width: 1; stroke-dasharray: ; stroke-linecap: butt; stroke-linejoin: miter; stroke-miterlimit: 10; fill: none; fill-rule: nonzero; opacity: 1" transform=" matrix(1 0 0 1 62 20) " stroke-linecap="round" />
<path d="M 0.5 260.5 L 0.5 260.5 L 865.5 260.5" style="stroke:#000000;stroke-opacity:0.1; stroke-width: 1; stroke-dasharray: ; stroke-linecap: butt; stroke-linejoin: miter; stroke-miterlimit: 10; fill: none; fill-rule: nonzero; opacity: 1" transform=" matrix(1 0 0 1 68 20) " stroke-linecap="round" />
<path d="M 0.5 303.5 L 6.5 303.5" style="stroke:#000000;stroke-opacity:0.3; stroke-width: 1; stroke-dasharray: ; stroke-linecap: butt; stroke-linejoin: miter; stroke-miterlimit: 10; fill: none; fill-rule: nonzero; opacity: 1" transform=" matrix(1 0 0 1 62 20) " stroke-linecap="round" />
<path d="M 0.5 289.5 L 0.5 289.5 L 865.5 289.5" style="stroke:#000000;stroke-opacity:0.1; stroke-width: 1; stroke-dasharray: ; stroke-linecap: butt; stroke-linejoin: miter; stroke-miterlimit: 10; fill: none; fill-rule: nonzero; opacity: 1" transform=" matrix(1 0 0 1 68 20) " stroke-linecap="round" />
<path d="M 0.5 332.5 L 6.5 332.5" style="stroke:#000000;stroke-opacity:0.3; stroke-width: 1; stroke-dasharray: ; stroke-linecap: butt; stroke-linejoin: miter; stroke-miterlimit: 10; fill: none; fill-rule: nonzero; opacity: 1" transform=" matrix(1 0 0 1 62 20) " stroke-linecap="round" />
<path d="M 0.5 318.5 L 0.5 318.5 L 865.5 318.5" style="stroke:#000000;stroke-opacity:0.1; stroke-width: 1; stroke-dasharray: ; stroke-linecap: butt; stroke-linejoin: miter; stroke-miterlimit: 10; fill: none; fill-rule: nonzero; opacity: 1" transform=" matrix(1 0 0 1 68 20) " stroke-linecap="round" />
<path d="M 0.5 360.5 L 6.5 360.5" style="stroke:#000000;stroke-opacity:0.3; stroke-width: 1; stroke-dasharray: ; stroke-linecap: butt; stroke-linejoin: miter; stroke-miterlimit: 10; fill: none; fill-rule: nonzero; opacity: 1" transform=" matrix(1 0 0 1 62 20) " stroke-linecap="round" />
<path d="M 0.5 346.5 L 0.5 346.5 L 865.5 346.5" style="stroke:#000000;stroke-opacity:0.1; stroke-width: 1; stroke-dasharray: ; stroke-linecap: butt; stroke-linejoin: miter; stroke-miterlimit: 10; fill: none; fill-rule: nonzero; opacity: 1" transform=" matrix(1 0 0 1 68 20) " stroke-linecap="round" />
<path d="M 0.5 389.5 L 6.5 389.5" style="stroke:#000000;stroke-opacity:0.3; stroke-width: 1; stroke-dasharray: ; stroke-linecap: butt; stroke-linejoin: miter; stroke-miterlimit: 10; fill: none; fill-rule: nonzero; opacity: 1" transform=" matrix(1 0 0 1 62 20) " stroke-linecap="round" />
<path d="M 0.5 375.5 L 0.5 375.5 L 865.5 375.5" style="stroke:#000000;stroke-opacity:0.1; stroke-width: 1; stroke-dasharray: ; stroke-linecap: butt; stroke-linejoin: miter; stroke-miterlimit: 10; fill: none; fill-rule: nonzero; opacity: 1" transform=" matrix(1 0 0 1 68 20) " stroke-linecap="round" />
<path d="M 0.5 418.5 L 6.5 418.5" style="stroke:#000000;stroke-opacity:0.3; stroke-width: 1; stroke-dasharray: ; stroke-linecap: butt; stroke-linejoin: miter; stroke-miterlimit: 10; fill: none; fill-rule: nonzero; opacity: 1" transform=" matrix(1 0 0 1 62 20) " stroke-linecap="round" />
<path d="M 0.5 404.5 L 0.5 404.5 L 865.5 404.5" style="stroke:#000000;stroke-opacity:0.1; stroke-width: 1; stroke-dasharray: ; stroke-linecap: butt; stroke-linejoin: miter; stroke-miterlimit: 10; fill: none; fill-rule: nonzero; opacity: 1" transform=" matrix(1 0 0 1 68 20) " stroke-linecap="round" />
<path d="M 0.5 447.5 L 6.5 447.5" style="stroke:#000000;stroke-opacity:0.3; stroke-width: 1; stroke-dasharray: ; stroke-linecap: butt; stroke-linejoin: miter; stroke-miterlimit: 10; fill: none; fill-rule: nonzero; opacity: 1" transform=" matrix(1 0 0 1 62 20) " stroke-linecap="round" />
<path d="M 0.5 433.5 L 0.5 433.5 L 865.5 433.5" style="stroke:#000000;stroke-opacity:0.1; stroke-width: 1; stroke-dasharray: ; stroke-linecap: butt; stroke-linejoin: miter; stroke-miterlimit: 10; fill: none; fill-rule: nonzero; opacity: 1" transform=" matrix(1 0 0 1 68 20) " stroke-linecap="round" />
<path d="M 0.5 476.5 L 6.5 476.5" style="stroke:#000000;stroke-opacity:0.3; stroke-width: 1; stroke-dasharray: ; stroke-linecap: butt; stroke-linejoin: miter; stroke-miterlimit: 10; fill: none; fill-rule: nonzero; opacity: 1" transform=" matrix(1 0 0 1 62 20) " stroke-linecap="round" />
<path d="M 0.5 462.5 L 0.5 462.5 L 865.5 462.5" style="stroke:#000000;stroke-opacity:0.1; stroke-width: 1; stroke-dasharray: ; stroke-linecap: butt; stroke-linejoin: miter; stroke-miterlimit: 10; fill: none; fill-rule: nonzero; opacity: 1" transform=" matrix(1 0 0 1 68 20) " stroke-linecap="round" />
<path d="M 0.5 505.5 L 6.5 505.5" style="stroke:#000000;stroke-opacity:0.3; stroke-width: 1; stroke-dasharray: ; stroke-linecap: butt; stroke-linejoin: miter; stroke-miterlimit: 10; fill: none; fill-rule: nonzero; opacity: 1" transform=" matrix(1 0 0 1 62 20) " stroke-linecap="round" />
<path d="M 0.5 491.5 L 0.5 491.5 L 865.5 491.5" style="stroke:#000000;stroke-opacity:0.1; stroke-width: 1; stroke-dasharray: ; stroke-linecap: butt; stroke-linejoin: miter; stroke-miterlimit: 10; fill: none; fill-rule: nonzero; opacity: 1" transform=" matrix(1 0 0 1 68 20) " stroke-linecap="round" />
<path d="M 0.5 519.5 L 0.5 519.5 L 865.5 519.5" style="stroke:#000000;stroke-opacity:0.1; stroke-width: 1; stroke-dasharray: ; stroke-linecap: butt; stroke-linejoin: miter; stroke-miterlimit: 10; fill: none; fill-rule: nonzero; opacity: 1" transform=" matrix(1 0 0 1 68 20) " stroke-linecap="round" />
<path d="M 72.5 0.5 L 72.5 5.5" style="stroke:#000000;stroke-opacity:0.3; stroke-width: 1; stroke-dasharray: ; stroke-linecap: butt; stroke-linejoin: miter; stroke-miterlimit: 10; fill: none; fill-rule: nonzero; opacity: 1" transform=" matrix(1 0 0 1 68 539) " stroke-linecap="round" />
<path d="M 72.5 519.5 L 72.5 519.5 L 72.5 0.5" style="stroke:#000000;stroke-opacity:0.1; stroke-width: 1; stroke-dasharray: ; stroke-linecap: butt; stroke-linejoin: miter; stroke-miterlimit: 10; fill: none; fill-rule: nonzero; opacity: 1" transform=" matrix(1 0 0 1 68 20) " stroke-linecap="round" />
<path d="M 180.5 0.5 L 180.5 5.5" style="stroke:#000000;stroke-opacity:0.3; stroke-width: 1; stroke-dasharray: ; stroke-linecap: butt; stroke-linejoin: miter; stroke-miterlimit: 10; fill: none; fill-rule: nonzero; opacity: 1" transform=" matrix(1 0 0 1 68 539) " stroke-linecap="round" />
<path d="M 180.5 519.5 L 180.5 519.5 L 180.5 0.5" style="stroke:#000000;stroke-opacity:0.1; stroke-width: 1; stroke-dasharray: ; stroke-linecap: butt; stroke-linejoin: miter; stroke-miterlimit: 10; fill: none; fill-rule: nonzero; opacity: 1" transform=" matrix(1 0 0 1 68 20) " stroke-linecap="round" />
<path d="M 288.5 0.5 L 288.5 5.5" style="stroke:#000000;stroke-opacity:0.3; stroke-width: 1; stroke-dasharray: ; stroke-linecap: butt; stroke-linejoin: miter; stroke-miterlimit: 10; fill: none; fill-rule: nonzero; opacity: 1" transform=" matrix(1 0 0 1 68 539) " stroke-linecap="round" />
<path d="M 288.5 519.5 L 288.5 519.5 L 288.5 0.5" style="stroke:#000000;stroke-opacity:0.1; stroke-width: 1; stroke-dasharray: ; stroke-linecap: butt; stroke-linejoin: miter; stroke-miterlimit: 10; fill: none; fill-rule: nonzero; opacity: 1" transform=" matrix(1 0 0 1 68 20) " stroke-linecap="round" />
<path d="M 396.5 0.5 L 396.5 5.5" style="stroke:#000000;stroke-opacity:0.3; stroke-width: 1; stroke-dasharray: ; stroke-linecap: butt; stroke-linejoin: miter; stroke-miterlimit: 10; fill: none; fill-rule: nonzero; opacity: 1" transform=" matrix(1 0 0 1 68 539) " stroke-linecap="round" />
<path d="M 396.5 519.5 L 396.5 519.5 L 396.5 0.5" style="stroke:#000000;stroke-opacity:0.1; stroke-width: 1; stroke-dasharray: ; stroke-linecap: butt; stroke-linejoin: miter; stroke-miterlimit: 10; fill: none; fill-rule: nonzero; opacity: 1" transform=" matrix(1 0 0 1 68 20) " stroke-linecap="round" />
<path d="M 505.5 0.5 L 505.5 5.5" style="stroke:#000000;stroke-opacity:0.3; stroke-width: 1; stroke-dasharray: ; stroke-linecap: butt; stroke-linejoin: miter; stroke-miterlimit: 10; fill: none; fill-rule: nonzero; opacity: 1" transform=" matrix(1 0 0 1 68 539) " stroke-linecap="round" />
<path d="M 505.5 519.5 L 505.5 519.5 L 505.5 0.5" style="stroke:#000000;stroke-opacity:0.1; stroke-width: 1; stroke-dasharray: ; stroke-linecap: butt; stroke-linejoin: miter; stroke-miterlimit: 10; fill: none; fill-rule: nonzero; opacity: 1" transform=" matrix(1 0 0 1 68 20) " stroke-linecap="round" />
<path d="M 613.5 0.5 L 613.5 5.5" style="stroke:#000000;stroke-opacity:0.3; stroke-width: 1; stroke-dasharray: ; stroke-linecap: butt; stroke-linejoin: miter; stroke-miterlimit: 10; fill: none; fill-rule: nonzero; opacity: 1" transform=" matrix(1 0 0 1 68 539) " stroke-linecap="round" />
<path d="M 613.5 519.5 L 613.5 519.5 L 613.5 0.5" style="stroke:#000000;stroke-opacity:0.1; stroke-width: 1; stroke-dasharray: ; stroke-linecap: butt; stroke-linejoin: miter; stroke-miterlimit: 10; fill: none; fill-rule: nonzero; opacity: 1" transform=" matrix(1 0 0 1 68 20) " stroke-linecap="round" />
<path d="M 721.5 0.5 L 721.5 5.5" style="stroke:#000000;stroke-opacity:0.3; stroke-width: 1; stroke-dasharray: ; stroke-linecap: butt; stroke-linejoin: miter; stroke-miterlimit: 10; fill: none; fill-rule: nonzero; opacity: 1" transform=" matrix(1 0 0 1 68 539) " stroke-linecap="round" />
<path d="M 721.5 519.5 L 721.5 519.5 L 721.5 0.5" style="stroke:#000000;stroke-opacity:0.1; stroke-width: 1; stroke-dasharray: ; stroke-linecap: butt; stroke-linejoin: miter; stroke-miterlimit: 10; fill: none; fill-rule: nonzero; opacity: 1" transform=" matrix(1 0 0 1 68 20) " stroke-linecap="round" />
<path d="M 829.5 0.5 L 829.5 5.5" style="stroke:#000000;stroke-opacity:0.3; stroke-width: 1; stroke-dasharray: ; stroke-linecap: butt; stroke-linejoin: miter; stroke-miterlimit: 10; fill: none; fill-rule: nonzero; opacity: 1" transform=" matrix(1 0 0 1 68 539) " stroke-linecap="round" />
<path d="M 829.5 519.5 L 829.5 519.5 L 829.5 0.5" style="stroke:#000000;stroke-opacity:0.1; stroke-width: 1; stroke-dasharray: ; stroke-linecap: butt; stroke-linejoin: miter; stroke-miterlimit: 10; fill: none; fill-rule: nonzero; opacity: 1" transform=" matrix(1 0 0 1 68 20) " stroke-linecap="round" />
<rect x="0.5" y="0.5" rx="0" ry="0" width="865" height="29" style="stroke:#000000;stroke-opacity:0.1; stroke-width: 0; stroke-dasharray: ; stroke-linecap: butt; stroke-linejoin: miter; stroke-miterlimit: 10;fill:#000000;fill-opacity:0.1; fill-rule: nonzero; opacity: 0" transform=" matrix(1 0 0 1 68 78) "/>
<path d="M 0.5 0.5 L 0.5 14.5 L 72.5 14.5 L 72.5 0.5 L 0.5 0.5 Z" style="stroke:#FFFBD8;stroke-opacity:0.9; stroke-width: 1; stroke-dasharray: ; stroke-linecap: butt; stroke-linejoin: miter; stroke-miterlimit: 10;fill:#FFFBD8;fill-opacity:1; fill-rule: nonzero; opacity: 1" transform=" matrix(1 0 0 1 537 517) " stroke-linecap="round" />
<path d="M 0.5 0.5 L 0.5 14.5 L 73.5 14.5 L 73.5 0.5 L 0.5 0.5 Z" style="stroke:#7E585F;stroke-opacity:0.9; stroke-width: 1; stroke-dasharray: ; stroke-linecap: butt; stroke-linejoin: miter; stroke-miterlimit: 10;fill:#7E585F;fill-opacity:1; fill-rule: nonzero; opacity: 1" transform=" matrix(1 0 0 1 464 517) " stroke-linecap="round" />
<path d="M 0.5 0.5 L 0.5 14.5 L 144.5 14.5 L 144.5 0.5 L 0.5 0.5 Z" style="stroke:#948B35;stroke-opacity:0.9; stroke-width: 1; stroke-dasharray: ; stroke-linecap: butt; stroke-linejoin: miter; stroke-miterlimit: 10;fill:#948B35;fill-opacity:1; fill-rule: nonzero; opacity: 1" transform=" matrix(1 0 0 1 284 488) " stroke-linecap="round" />
<path d="M 0.5 0.5 L 0.5 14.5 L 36.5 14.5 L 36.5 0.5 L 0.5 0.5 Z" style="stroke:#E48551;stroke-opacity:0.9; stroke-width: 1; stroke-dasharray: ; stroke-linecap: butt; stroke-linejoin: miter; stroke-miterlimit: 10;fill:#E48551;fill-opacity:1; fill-rule: nonzero; opacity: 1" transform=" matrix(1 0 0 1 248 488) " stroke-linecap="round" />
<path d="M 0.5 0.5 L 0.5 14.5 L 72.5 14.5 L 72.5 0.5 L 0.5 0.5 Z" style="stroke:#7E585F;stroke-opacity:0.9; stroke-width: 1; stroke-dasharray: ; stroke-linecap: butt; stroke-linejoin: miter; stroke-miterlimit: 10;fill:#7E585F;fill-opacity:1; fill-rule: nonzero; opacity: 1" transform=" matrix(1 0 0 1 176 488) " stroke-linecap="round" />
<path d="M 0.5 0.5 L 0.5 14.5 L 145.5 14.5 L 145.5 0.5 L 0.5 0.5 Z" style="stroke:#FFFBD8;stroke-opacity:0.9; stroke-width: 1; stroke-dasharray: ; stroke-linecap: butt; stroke-linejoin: miter; stroke-miterlimit: 10;fill:#FFFBD8;fill-opacity:1; fill-rule: nonzero; opacity: 1" transform=" matrix(1 0 0 1 428 459) " stroke-linecap="round" />
<path d="M 0.5 0.5 L 0.5 14.5 L 108.5 14.5 L 108.5 0.5 L 0.5 0.5 Z" style="stroke:#7E585F;stroke-opacity:0.9; stroke-width: 1; stroke-dasharray: ; stroke-linecap: butt; stroke-linejoin: miter; stroke-miterlimit: 10;fill:#7E585F;fill-opacity:1; fill-rule: nonzero; opacity: 1" transform=" matrix(1 0 0 1 176 459) " stroke-linecap="round" />
<path d="M 0.5 0.5 L 0.5 14.5 L 144.5 14.5 L 144.5 0.5 L 0.5 0.5 Z" style="stroke:#878030;stroke-opacity:0.9; stroke-width: 1; stroke-dasharray: ; stroke-linecap: butt; stroke-linejoin: miter; stroke-miterlimit: 10;fill:#878030;fill-opacity:1; fill-rule: nonzero; opacity: 1" transform=" matrix(1 0 0 1 140 430) " stroke-linecap="round" />
<path d="M 0.5 0.5 L 0.5 14.5 L 36.5 14.5 L 36.5 0.5 L 0.5 0.5 Z" style="stroke:#CF794A;stroke-opacity:0.9; stroke-width: 1; stroke-dasharray: ; stroke-linecap: butt; stroke-linejoin: miter; stroke-miterlimit: 10;fill:#CF794A;fill-opacity:1; fill-rule: nonzero; opacity: 1" transform=" matrix(1 0 0 1 104 430) " stroke-linecap="round" />
<path d="M 0.5 0.5 L 0.5 14.5 L 72.5 14.5 L 72.5 0.5 L 0.5 0.5 Z" style="stroke:#7E585F;stroke-opacity:0.9; stroke-width: 1; stroke-dasharray: ; stroke-linecap: butt; stroke-linejoin: miter; stroke-miterlimit: 10;fill:#7E585F;fill-opacity:1; fill-rule: nonzero; opacity: 1" transform=" matrix(1 0 0 1 68 401) " stroke-linecap="round" />
<path d="M 0.5 0.5 L 0.5 14.5 L 72.5 14.5 L 72.5 0.5 L 0.5 0.5 Z" style="stroke:#FFFBD8;stroke-opacity:0.9; stroke-width: 1; stroke-dasharray: ; stroke-linecap: butt; stroke-linejoin: miter; stroke-miterlimit: 10;fill:#FFFBD8;fill-opacity:1; fill-rule: nonzero; opacity: 1" transform=" matrix(1 0 0 1 501 372) " stroke-linecap="round" />
<path d="M 0.5 0.5 L 0.5 14.5 L 289.5 14.5 L 289.5 0.5 L 0.5 0.5 Z" style="stroke:#7E585F;stroke-opacity:0.9; stroke-width: 1; stroke-dasharray: ; stroke-linecap: butt; stroke-linejoin: miter; stroke-miterlimit: 10;fill:#7E585F;fill-opacity:1; fill-rule: nonzero; opacity: 1" transform=" matrix(1 0 0 1 212 372) " stroke-linecap="round" />
<path d="M 0.5 0.5 L 0.5 14.5 L 108.5 14.5 L 108.5 0.5 L 0.5 0.5 Z" style="stroke:#7E585F;stroke-opacity:0.9; stroke-width: 1; stroke-dasharray: ; stroke-linecap: butt; stroke-linejoin: miter; stroke-miterlimit: 10;fill:#7E585F;fill-opacity:1; fill-rule: nonzero; opacity: 1" transform=" matrix(1 0 0 1 356 344) " stroke-linecap="round" />
<path d="M 0.5 0.5 L 0.5 14.5 L 253.5 14.5 L 253.5 0.5 L 0.5 0.5 Z" style="stroke:#E48551;stroke-opacity:0.9; stroke-width: 1; stroke-dasharray: ; stroke-linecap: butt; stroke-linejoin: miter; stroke-miterlimit: 10;fill:#E48551;fill-opacity:1; fill-rule: nonzero; opacity: 1" transform=" matrix(1 0 0 1 428 315) " stroke-linecap="round" />
<path d="M 0.5 0.5 L 0.5 14.5 L 288.5 14.5 L 288.5 0.5 L 0.5 0.5 Z" style="stroke:#7E585F;stroke-opacity:0.9; stroke-width: 1; stroke-dasharray: ; stroke-linecap: butt; stroke-linejoin: miter; stroke-miterlimit: 10;fill:#7E585F;fill-opacity:1; fill-rule: nonzero; opacity: 1" transform=" matrix(1 0 0 1 140 315) " stroke-linecap="round" />
<path d="M 0.5 0.5 L 0.5 14.5 L 72.5 14.5 L 72.5 0.5 L 0.5 0.5 Z" style="stroke:#FFFBD8;stroke-opacity:0.9; stroke-width: 1; stroke-dasharray: ; stroke-linecap: butt; stroke-linejoin: miter; stroke-miterlimit: 10;fill:#FFFBD8;fill-opacity:1; fill-rule: nonzero; opacity: 1" transform=" matrix(1 0 0 1 392 286) " stroke-linecap="round" />
<path d="M 0.5 0.5 L 0.5 14.5 L 72.5 14.5 L 72.5 0.5 L 0.5 0.5 Z" style="stroke:#7E585F;stroke-opacity:0.9; stroke-width: 1; stroke-dasharray: ; stroke-linecap: butt; stroke-linejoin: miter; stroke-miterlimit: 10;fill:#7E585F;fill-opacity:1; fill-rule: nonzero; opacity: 1" transform=" matrix(1 0 0 1 248 286) " stroke-linecap="round" />
<path d="M 0.5 0.5 L 0.5 14.5 L 289.5 14.5 L 289.5 0.5 L 0.5 0.5 Z" style="stroke:#F89159;stroke-opacity:0.9; stroke-width: 1; stroke-dasharray: ; stroke-linecap: butt; stroke-linejoin: miter; stroke-miterlimit: 10;fill:#F89159;fill-opacity:1; fill-rule: nonzero; opacity: 1" transform=" matrix(1 0 0 1 248 257) " stroke-linecap="round" />
<path d="M 0.5 0.5 L 0.5 14.5 L 36.5 14.5 L 36.5 0.5 L 0.5 0.5 Z" style="stroke:#8B6169;stroke-opacity:0.9; stroke-width: 1; stroke-dasharray: ; stroke-linecap: butt; stroke-linejoin: miter; stroke-miterlimit: 10;fill:#8B6169;fill-opacity:1; fill-rule: nonzero; opacity: 1" transform=" matrix(1 0 0 1 212 257) " stroke-linecap="round" />
<path d="M 0.5 0.5 L 0.5 14.5 L 72.5 14.5 L 72.5 0.5 L 0.5 0.5 Z" style="stroke:#7B742C;stroke-opacity:0.9; stroke-width: 1; stroke-dasharray: ; stroke-linecap: butt; stroke-linejoin: miter; stroke-miterlimit: 10;fill:#7B742C;fill-opacity:1; fill-rule: nonzero; opacity: 1" transform=" matrix(1 0 0 1 140 257) " stroke-linecap="round" />
<path d="M 0.5 0.5 L 0.5 14.5 L 181.5 14.5 L 181.5 0.5 L 0.5 0.5 Z" style="stroke:#F89159;stroke-opacity:0.9; stroke-width: 1; stroke-dasharray: ; stroke-linecap: butt; stroke-linejoin: miter; stroke-miterlimit: 10;fill:#F89159;fill-opacity:1; fill-rule: nonzero; opacity: 1" transform=" matrix(1 0 0 1 392 228) " stroke-linecap="round" />
<path d="M 0.5 0.5 L 0.5 14.5 L 108.5 14.5 L 108.5 0.5 L 0.5 0.5 Z" style="stroke:#8B6169;stroke-opacity:0.9; stroke-width: 1; stroke-dasharray: ; stroke-linecap: butt; stroke-linejoin: miter; stroke-miterlimit: 10;fill:#8B6169;fill-opacity:1; fill-rule: nonzero; opacity: 1" transform=" matrix(1 0 0 1 284 228) " stroke-linecap="round" />
<path d="M 0.5 0.5 L 0.5 14.5 L 144.5 14.5 L 144.5 0.5 L 0.5 0.5 Z" style="stroke:#7B742C;stroke-opacity:0.9; stroke-width: 1; stroke-dasharray: ; stroke-linecap: butt; stroke-linejoin: miter; stroke-miterlimit: 10;fill:#7B742C;fill-opacity:1; fill-rule: nonzero; opacity: 1" transform=" matrix(1 0 0 1 140 228) " stroke-linecap="round" />
<path d="M 0.5 0.5 L 0.5 14.5 L 145.5 14.5 L 145.5 0.5 L 0.5 0.5 Z" style="stroke:#8B6169;stroke-opacity:0.9; stroke-width: 1; stroke-dasharray: ; stroke-linecap: butt; stroke-linejoin: miter; stroke-miterlimit: 10;fill:#8B6169;fill-opacity:1; fill-rule: nonzero; opacity: 1" transform=" matrix(1 0 0 1 356 199) " stroke-linecap="round" />
<path d="M 0.5 0.5 L 0.5 14.5 L 216.5 14.5 L 216.5 0.5 L 0.5 0.5 Z" style="stroke:#7B742C;stroke-opacity:0.9; stroke-width: 1; stroke-dasharray: ; stroke-linecap: butt; stroke-linejoin: miter; stroke-miterlimit: 10;fill:#7B742C;fill-opacity:1; fill-rule: nonzero; opacity: 1" transform=" matrix(1 0 0 1 140 199) " stroke-linecap="round" />
<path d="M 0.5 0.5 L 0.5 14.5 L 73.5 14.5 L 73.5 0.5 L 0.5 0.5 Z" style="stroke:#8B6169;stroke-opacity:0.9; stroke-width: 1; stroke-dasharray: ; stroke-linecap: butt; stroke-linejoin: miter; stroke-miterlimit: 10;fill:#8B6169;fill-opacity:1; fill-rule: nonzero; opacity: 1" transform=" matrix(1 0 0 1 464 171) " stroke-linecap="round" />
<path d="M 0.5 0.5 L 0.5 14.5 L 360.5 14.5 L 360.5 0.5 L 0.5 0.5 Z" style="stroke:#7B742C;stroke-opacity:0.9; stroke-width: 1; stroke-dasharray: ; stroke-linecap: butt; stroke-linejoin: miter; stroke-miterlimit: 10;fill:#7B742C;fill-opacity:1; fill-rule: nonzero; opacity: 1" transform=" matrix(1 0 0 1 104 171) " stroke-linecap="round" />
<path d="M 0.5 0.5 L 0.5 14.5 L 108.5 14.5 L 108.5 0.5 L 0.5 0.5 Z" style="stroke:#E48551;stroke-opacity:0.9; stroke-width: 1; stroke-dasharray: ; stroke-linecap: butt; stroke-linejoin: miter; stroke-miterlimit: 10;fill:#E48551;fill-opacity:1; fill-rule: nonzero; opacity: 1" transform=" matrix(1 0 0 1 320 142) " stroke-linecap="round" />
<path d="M 0.5 0.5 L 0.5 14.5 L 72.5 14.5 L 72.5 0.5 L 0.5 0.5 Z" style="stroke:#7E585F;stroke-opacity:0.9; stroke-width: 1; stroke-dasharray: ; stroke-linecap: butt; stroke-linejoin: miter; stroke-miterlimit: 10;fill:#7E585F;fill-opacity:1; fill-rule: nonzero; opacity: 1" transform=" matrix(1 0 0 1 248 142) " stroke-linecap="round" />
<path d="M 0.5 0.5 L 0.5 14.5 L 72.5 14.5 L 72.5 0.5 L 0.5 0.5 Z" style="stroke:#F89159;stroke-opacity:0.9; stroke-width: 1; stroke-dasharray: ; stroke-linecap: butt; stroke-linejoin: miter; stroke-miterlimit: 10;fill:#F89159;fill-opacity:1; fill-rule: nonzero; opacity: 1" transform=" matrix(1 0 0 1 573 113) " stroke-linecap="round" />
<path d="M 0.5 0.5 L 0.5 14.5 L 72.5 14.5 L 72.5 0.5 L 0.5 0.5 Z" style="stroke:#8B6169;stroke-opacity:0.9; stroke-width: 1; stroke-dasharray: ; stroke-linecap: butt; stroke-linejoin: miter; stroke-miterlimit: 10;fill:#8B6169;fill-opacity:1; fill-rule: nonzero; opacity: 1" transform=" matrix(1 0 0 1 501 113) " stroke-linecap="round" />
<path d="M 0.5 0.5 L 0.5 14.5 L 73.5 14.5 L 73.5 0.5 L 0.5 0.5 Z" style="stroke:#7B742C;stroke-opacity:0.9; stroke-width: 1; stroke-dasharray: ; stroke-linecap: butt; stroke-linejoin: miter; stroke-miterlimit: 10;fill:#7B742C;fill-opacity:1; fill-rule: nonzero; opacity: 1" transform=" matrix(1 0 0 1 428 113) " stroke-linecap="round" />
<path d="M 0.5 0.5 L 0.5 14.5 L 72.5 14.5 L 72.5 0.5 L 0.5 0.5 Z" style="stroke:#F89159;stroke-opacity:0.9; stroke-width: 1; stroke-dasharray: ; stroke-linecap: butt; stroke-linejoin: miter; stroke-miterlimit: 10;fill:#F89159;fill-opacity:1; fill-rule: nonzero; opacity: 1" transform=" matrix(1 0 0 1 212 84) " stroke-linecap="round" />
<path d="M 0.5 0.5 L 0.5 14.5 L 72.5 14.5 L 72.5 0.5 L 0.5 0.5 Z" style="stroke:#8B6169;stroke-opacity:0.9; stroke-width: 1; stroke-dasharray: ; stroke-linecap: butt; stroke-linejoin: miter; stroke-miterlimit: 10;fill:#8B6169;fill-opacity:1; fill-rule: nonzero; opacity: 1" transform=" matrix(1 0 0 1 140 84) " stroke-linecap="round" />
<path d="M 0.5 0.5 L 0.5 14.5 L 72.5 14.5 L 72.5 0.5 L 0.5 0.5 Z" style="stroke:#7B742C;stroke-opacity:0.9; stroke-width: 1; stroke-dasharray: ; stroke-linecap: butt; stroke-linejoin: miter; stroke-miterlimit: 10;fill:#7B742C;fill-opacity:1; fill-rule: nonzero; opacity: 1" transform=" matrix(1 0 0 1 68 84) " stroke-linecap="round" />
<path d="M 0.5 0.5 L 0.5 14.5 L 72.5 14.5 L 72.5 0.5 L 0.5 0.5 Z" style="stroke:#FFFBD8;stroke-opacity:0.9; stroke-width: 1; stroke-dasharray: ; stroke-linecap: butt; stroke-linejoin: miter; stroke-miterlimit: 10;fill:#FFFBD8;fill-opacity:1; fill-rule: nonzero; opacity: 1" transform=" matrix(1 0 0 1 392 55) " stroke-linecap="round" />
<path d="M 0.5 0.5 L 0.5 14.5 L 72.5 14.5 L 72.5 0.5 L 0.5 0.5 Z" style="stroke:#7E585F;stroke-opacity:0.9; stroke-width: 1; stroke-dasharray: ; stroke-linecap: butt; stroke-linejoin: miter; stroke-miterlimit: 10;fill:#7E585F;fill-opacity:1; fill-rule: nonzero; opacity: 1" transform=" matrix(1 0 0 1 248 55) " stroke-linecap="round" />
<path d="M 0.5 0.5 L 0.5 14.5 L 145.5 14.5 L 145.5 0.5 L 0.5 0.5 Z" style="stroke:#948B35;stroke-opacity:0.9; stroke-width: 1; stroke-dasharray: ; stroke-linecap: butt; stroke-linejoin: miter; stroke-miterlimit: 10;fill:#948B35;fill-opacity:1; fill-rule: nonzero; opacity: 1" transform=" matrix(1 0 0 1 392 26) " stroke-linecap="round" />
<path d="M 0.5 0.5 L 0.5 14.5 L 36.5 14.5 L 36.5 0.5 L 0.5 0.5 Z" style="stroke:#E48551;stroke-opacity:0.9; stroke-width: 1; stroke-dasharray: ; stroke-linecap: butt; stroke-linejoin: miter; stroke-miterlimit: 10;fill:#E48551;fill-opacity:1; fill-rule: nonzero; opacity: 1" transform=" matrix(1 0 0 1 356 26) " stroke-linecap="round" />
<path d="M 0.5 0.5 L 0.5 14.5 L 72.5 14.5 L 72.5 0.5 L 0.5 0.5 Z" style="stroke:#7E585F;stroke-opacity:0.9; stroke-width: 1; stroke-dasharray: ; stroke-linecap: butt; stroke-linejoin: miter; stroke-miterlimit: 10;fill:#7E585F;fill-opacity:1; fill-rule: nonzero; opacity: 1" transform=" matrix(1 0 0 1 284 26) " stroke-linecap="round" />
<path d="M 0.5 0.5 L 0.5 520.5" style="stroke:#000000;stroke-opacity:0; stroke-width: 1; stroke-dasharray: ; stroke-linecap: butt; stroke-linejoin: miter; stroke-miterlimit: 10; fill: none; fill-rule: nonzero; opacity: 1" transform=" matrix(1 0 0 1 0 0) " stroke-linecap="round" />
<path d="M 0.5 0.5 L 0.5 519.5" style="stroke:#000000;stroke-opacity:0.3; stroke-width: 1; stroke-dasharray: ; stroke-linecap: butt; stroke-linejoin: miter; stroke-miterlimit: 10; fill: none; fill-rule: nonzero; opacity: 1" transform=" matrix(1 0 0 1 68 20) " stroke-linecap="round" />
<path d="M 0.5 0.5 L 865.5 0.5" style="stroke:#000000;stroke-opacity:0.3; stroke-width: 1; stroke-dasharray: ; stroke-linecap: butt; stroke-linejoin: miter; stroke-miterlimit: 10; fill: none; fill-rule: nonzero; opacity: 1" transform=" matrix(1 0 0 1 68 539) " stroke-linecap="round" />
<path d="M 0.5 0.5 L 0.5 0.5 L 0.5 519.5" style="stroke:#000000;stroke-opacity:0.1; stroke-width: 1; stroke-dasharray: ; stroke-linecap: butt; stroke-linejoin: miter; stroke-miterlimit: 10; fill: none; fill-rule: nonzero; opacity: 0" transform=" matrix(1 0 0 1 921 20) " stroke-linecap="round" />
<rect x="0.5" y="0.5" rx="0" ry="0" width="20" height="520" style="stroke:#000000;stroke-opacity:0.12; stroke-width: 1; stroke-dasharray: ; stroke-linecap: butt; stroke-linejoin: miter; stroke-miterlimit: 10;fill:#000000;fill-opacity:0.12; fill-rule: nonzero; opacity: 1" transform=" matrix(1 0 0 1 934 20) "/>
<rect x="0.5" y="0.5" rx="0" ry="0" width="20" height="520" style="stroke:#FFFFFF;stroke-opacity:0.4; stroke-width: 0; stroke-dasharray: ; stroke-linecap: butt; stroke-linejoin: miter; stroke-miterlimit: 10;fill:#FFFFFF;fill-opacity:0.4; fill-rule: nonzero; opacity: 1" transform=" matrix(1 0 0 1 934 20) "/>
<rect x="0.5" y="0.5" rx="0" ry="0" width="20" height="520" style="stroke:#000000;stroke-opacity:0.005; stroke-width: 0; stroke-dasharray: ; stroke-linecap: butt; stroke-linejoin: miter; stroke-miterlimit: 10;fill:#000000;fill-opacity:0.005; fill-rule: nonzero; opacity: 1" transform=" matrix(1 0 0 1 934 20) "/>
<rect x="0.5" y="0" rx="0" ry="0" width="20" height="520" style="stroke:#000000;stroke-opacity:0.005; stroke-width: 0; stroke-dasharray: ; stroke-linecap: butt; stroke-linejoin: miter; stroke-miterlimit: 10;fill:#000000;fill-opacity:0.005; fill-rule: nonzero; opacity: 1" transform=" matrix(1 0 0 1 934 20) "/>
<g transform=" matrix(1 0 0 1 927 3) ">
<image xlink:href="https://demo.cuba-platform.com/sampler/VAADIN/resources/amcharts/images/dragIconRoundBigH.svg" x="0" y="0" style="stroke: none; stroke-width: 1; stroke-dasharray: ; stroke-linecap: butt; stroke-linejoin: miter; stroke-miterlimit: 10;fill:#000000;fill-opacity:1; fill-rule: nonzero; opacity: 1" width="35" height="35" preserveAspectRatio="xMidYMid meet"></image>
</g>
<rect x="0.5" y="0.5" rx="0" ry="0" width="25" height="20" style="stroke:#000000;stroke-opacity:0.005; stroke-width: 0; stroke-dasharray: ; stroke-linecap: butt; stroke-linejoin: miter; stroke-miterlimit: 10;fill:#000000;fill-opacity:0.005; fill-rule: nonzero; opacity: 1" transform=" matrix(1 0 0 1 932 11) "/>
<g transform=" matrix(1 0 0 1 927 523) ">
<image xlink:href="https://demo.cuba-platform.com/sampler/VAADIN/resources/amcharts/images/dragIconRoundBigH.svg" x="0" y="0" style="stroke: none; stroke-width: 1; stroke-dasharray: ; stroke-linecap: butt; stroke-linejoin: miter; stroke-miterlimit: 10;fill:#000000;fill-opacity:1; fill-rule: nonzero; opacity: 1" width="35" height="35" preserveAspectRatio="xMidYMid meet"></image>
</g>
<rect x="0.5" y="0.5" rx="0" ry="0" width="25" height="20" style="stroke:#000000;stroke-opacity:0.005; stroke-width: 0; stroke-dasharray: ; stroke-linecap: butt; stroke-linejoin: miter; stroke-miterlimit: 10;fill:#000000;fill-opacity:0.005; fill-rule: nonzero; opacity: 1" transform=" matrix(1 0 0 1 932 531) "/>
<rect x="0" y="0" rx="0" ry="0" width="21" height="520" style="stroke: none; stroke-width: 0; stroke-dasharray: ; stroke-linecap: butt; stroke-linejoin: miter; stroke-miterlimit: 10; fill: transparent; fill-rule: nonzero; opacity: 1" transform=""/>
	<g transform=" matrix(1 0 0 1 56 33.416666666666664) ">
		<text font-family="Verdana" font-size="11" font-weight="normal" style="stroke: none; stroke-width: 1; stroke-dasharray: ; stroke-linecap: butt; stroke-linejoin: miter; stroke-miterlimit: 10;fill:#000000;fill-opacity:1; fill-rule: nonzero; opacity: 1" ><tspan x="-26" y="5.9912" fill="rgba(0,0,0,1)">Ruth</tspan></text>
	</g>
	<g transform=" matrix(1 0 0 1 56 62.416666666666664) ">
		<text font-family="Verdana" font-size="11" font-weight="normal" style="stroke: none; stroke-width: 1; stroke-dasharray: ; stroke-linecap: butt; stroke-linejoin: miter; stroke-miterlimit: 10;fill:#000000;fill-opacity:1; fill-rule: nonzero; opacity: 1" ><tspan x="-29" y="5.9912" fill="rgba(0,0,0,1)">Anita</tspan></text>
	</g>
	<g transform=" matrix(1 0 0 1 56 91.41666666666667) ">
		<text font-family="Verdana" font-size="11" font-weight="normal" style="stroke: none; stroke-width: 1; stroke-dasharray: ; stroke-linecap: butt; stroke-linejoin: miter; stroke-miterlimit: 10;fill:#000000;fill-opacity:1; fill-rule: nonzero; opacity: 1" ><tspan x="-26" y="5.9912" fill="rgba(0,0,0,1)">John</tspan></text>
	</g>
	<g transform=" matrix(1 0 0 1 56 120.41666666666667) ">
		<text font-family="Verdana" font-size="11" font-weight="normal" style="stroke: none; stroke-width: 1; stroke-dasharray: ; stroke-linecap: butt; stroke-linejoin: miter; stroke-miterlimit: 10;fill:#000000;fill-opacity:1; fill-rule: nonzero; opacity: 1" ><tspan x="-25" y="5.9912" fill="rgba(0,0,0,1)">Alan</tspan></text>
	</g>
	<g transform=" matrix(1 0 0 1 56 149.41666666666666) ">
		<text font-family="Verdana" font-size="11" font-weight="normal" style="stroke: none; stroke-width: 1; stroke-dasharray: ; stroke-linecap: butt; stroke-linejoin: miter; stroke-miterlimit: 10;fill:#000000;fill-opacity:1; fill-rule: nonzero; opacity: 1" ><tspan x="-22" y="5.9912" fill="rgba(0,0,0,1)">Kim</tspan></text>
	</g>
	<g transform=" matrix(1 0 0 1 56 178.41666666666666) ">
		<text font-family="Verdana" font-size="11" font-weight="normal" style="stroke: none; stroke-width: 1; stroke-dasharray: ; stroke-linecap: butt; stroke-linejoin: miter; stroke-miterlimit: 10;fill:#000000;fill-opacity:1; fill-rule: nonzero; opacity: 1" ><tspan x="-25" y="5.9912" fill="rgba(0,0,0,1)">Jack</tspan></text>
	</g>
	<g transform=" matrix(1 0 0 1 56 206.41666666666666) ">
		<text font-family="Verdana" font-size="11" font-weight="normal" style="stroke: none; stroke-width: 1; stroke-dasharray: ; stroke-linecap: butt; stroke-linejoin: miter; stroke-miterlimit: 10;fill:#000000;fill-opacity:1; fill-rule: nonzero; opacity: 1" ><tspan x="-26" y="5.9912" fill="rgba(0,0,0,1)">Mike</tspan></text>
	</g>
	<g transform=" matrix(1 0 0 1 56 235.41666666666666) ">
		<text font-family="Verdana" font-size="11" font-weight="normal" style="stroke: none; stroke-width: 1; stroke-dasharray: ; stroke-linecap: butt; stroke-linejoin: miter; stroke-miterlimit: 10;fill:#000000;fill-opacity:1; fill-rule: nonzero; opacity: 1" ><tspan x="-25" y="5.9912" fill="rgba(0,0,0,1)">Tom</tspan></text>
	</g>
	<g transform=" matrix(1 0 0 1 56 264.41666666666663) ">
		<text font-family="Verdana" font-size="11" font-weight="normal" style="stroke: none; stroke-width: 1; stroke-dasharray: ; stroke-linecap: butt; stroke-linejoin: miter; stroke-miterlimit: 10;fill:#000000;fill-opacity:1; fill-rule: nonzero; opacity: 1" ><tspan x="-25" y="5.9912" fill="rgba(0,0,0,1)">Julia</tspan></text>
	</g>
	<g transform=" matrix(1 0 0 1 56 293.4166666666667) ">
		<text font-family="Verdana" font-size="11" font-weight="normal" style="stroke: none; stroke-width: 1; stroke-dasharray: ; stroke-linecap: butt; stroke-linejoin: miter; stroke-miterlimit: 10;fill:#000000;fill-opacity:1; fill-rule: nonzero; opacity: 1" ><tspan x="-22" y="5.9912" fill="rgba(0,0,0,1)">Ben</tspan></text>
	</g>
	<g transform=" matrix(1 0 0 1 56 322.4166666666667) ">
		<text font-family="Verdana" font-size="11" font-weight="normal" style="stroke: none; stroke-width: 1; stroke-dasharray: ; stroke-linecap: butt; stroke-linejoin: miter; stroke-miterlimit: 10;fill:#000000;fill-opacity:1; fill-rule: nonzero; opacity: 1" ><tspan x="-22" y="5.9912" fill="rgba(0,0,0,1)">Bob</tspan></text>
	</g>
	<g transform=" matrix(1 0 0 1 56 351.4166666666667) ">
		<text font-family="Verdana" font-size="11" font-weight="normal" style="stroke: none; stroke-width: 1; stroke-dasharray: ; stroke-linecap: butt; stroke-linejoin: miter; stroke-miterlimit: 10;fill:#000000;fill-opacity:1; fill-rule: nonzero; opacity: 1" ><tspan x="-29" y="5.9912" fill="rgba(0,0,0,1)">Scott</tspan></text>
	</g>
	<g transform=" matrix(1 0 0 1 56 379.4166666666667) ">
		<text font-family="Verdana" font-size="11" font-weight="normal" style="stroke: none; stroke-width: 1; stroke-dasharray: ; stroke-linecap: butt; stroke-linejoin: miter; stroke-miterlimit: 10;fill:#000000;fill-opacity:1; fill-rule: nonzero; opacity: 1" ><tspan x="-41" y="5.9912" fill="rgba(0,0,0,1)">Kendra</tspan></text>
	</g>
	<g transform=" matrix(1 0 0 1 56 408.4166666666667) ">
		<text font-family="Verdana" font-size="11" font-weight="normal" style="stroke: none; stroke-width: 1; stroke-dasharray: ; stroke-linecap: butt; stroke-linejoin: miter; stroke-miterlimit: 10;fill:#000000;fill-opacity:1; fill-rule: nonzero; opacity: 1" ><tspan x="-25" y="5.9912" fill="rgba(0,0,0,1)">Kyle</tspan></text>
	</g>
	<g transform=" matrix(1 0 0 1 56 437.4166666666667) ">
		<text font-family="Verdana" font-size="11" font-weight="normal" style="stroke: none; stroke-width: 1; stroke-dasharray: ; stroke-linecap: butt; stroke-linejoin: miter; stroke-miterlimit: 10;fill:#000000;fill-opacity:1; fill-rule: nonzero; opacity: 1" ><tspan x="-34" y="5.9912" fill="rgba(0,0,0,1)">Lenny</tspan></text>
	</g>
	<g transform=" matrix(1 0 0 1 56 466.4166666666667) ">
		<text font-family="Verdana" font-size="11" font-weight="normal" style="stroke: none; stroke-width: 1; stroke-dasharray: ; stroke-linecap: butt; stroke-linejoin: miter; stroke-miterlimit: 10;fill:#000000;fill-opacity:1; fill-rule: nonzero; opacity: 1" ><tspan x="-36" y="5.9912" fill="rgba(0,0,0,1)">Simon</tspan></text>
	</g>
	<g transform=" matrix(1 0 0 1 56 495.4166666666667) ">
		<text font-family="Verdana" font-size="11" font-weight="normal" style="stroke: none; stroke-width: 1; stroke-dasharray: ; stroke-linecap: butt; stroke-linejoin: miter; stroke-miterlimit: 10;fill:#000000;fill-opacity:1; fill-rule: nonzero; opacity: 1" ><tspan x="-33" y="5.9912" fill="rgba(0,0,0,1)">Smith</tspan></text>
	</g>
	<g transform=" matrix(1 0 0 1 56 524.4166666666667) ">
		<text font-family="Verdana" font-size="11" font-weight="normal" style="stroke: none; stroke-width: 1; stroke-dasharray: ; stroke-linecap: butt; stroke-linejoin: miter; stroke-miterlimit: 10;fill:#000000;fill-opacity:1; fill-rule: nonzero; opacity: 1" ><tspan x="-34" y="5.9912" fill="rgba(0,0,0,1)">Aaron</tspan></text>
	</g>
	<g transform=" matrix(1 0 0 1 143 551.5) ">
		<text font-family="Verdana" font-size="11" font-weight="normal" style="stroke: none; stroke-width: 1; stroke-dasharray: ; stroke-linecap: butt; stroke-linejoin: miter; stroke-miterlimit: 10;fill:#000000;fill-opacity:1; fill-rule: nonzero; opacity: 1" ><tspan x="0" y="5.9912" fill="rgba(0,0,0,1)">09:00</tspan></text>
	</g>
	<g transform=" matrix(1 0 0 1 251 551.5) ">
		<text font-family="Verdana" font-size="11" font-weight="normal" style="stroke: none; stroke-width: 1; stroke-dasharray: ; stroke-linecap: butt; stroke-linejoin: miter; stroke-miterlimit: 10;fill:#000000;fill-opacity:1; fill-rule: nonzero; opacity: 1" ><tspan x="0" y="5.9912" fill="rgba(0,0,0,1)">12:00</tspan></text>
	</g>
	<g transform=" matrix(1 0 0 1 359 551.5) ">
		<text font-family="Verdana" font-size="11" font-weight="normal" style="stroke: none; stroke-width: 1; stroke-dasharray: ; stroke-linecap: butt; stroke-linejoin: miter; stroke-miterlimit: 10;fill:#000000;fill-opacity:1; fill-rule: nonzero; opacity: 1" ><tspan x="0" y="5.9912" fill="rgba(0,0,0,1)">15:00</tspan></text>
	</g>
	<g transform=" matrix(1 0 0 1 467 551.5) ">
		<text font-family="Verdana" font-size="11" font-weight="normal" style="stroke: none; stroke-width: 1; stroke-dasharray: ; stroke-linecap: butt; stroke-linejoin: miter; stroke-miterlimit: 10;fill:#000000;fill-opacity:1; fill-rule: nonzero; opacity: 1" ><tspan x="0" y="5.9912" fill="rgba(0,0,0,1)">18:00</tspan></text>
	</g>
	<g transform=" matrix(1 0 0 1 576 551.5) ">
		<text font-family="Verdana" font-size="11" font-weight="normal" style="stroke: none; stroke-width: 1; stroke-dasharray: ; stroke-linecap: butt; stroke-linejoin: miter; stroke-miterlimit: 10;fill:#000000;fill-opacity:1; fill-rule: nonzero; opacity: 1" ><tspan x="0" y="5.9912" fill="rgba(0,0,0,1)">21:00</tspan></text>
	</g>
	<g transform=" matrix(1 0 0 1 684 551.5) ">
		<text font-family="Verdana" font-size="11" font-weight="normal" style="stroke: none; stroke-width: 1; stroke-dasharray: ; stroke-linecap: butt; stroke-linejoin: miter; stroke-miterlimit: 10;fill:#000000;fill-opacity:1; fill-rule: nonzero; opacity: 1" ><tspan x="0" y="5.9912" fill="rgba(0,0,0,1)">00:00</tspan></text>
	</g>
	<g transform=" matrix(1 0 0 1 792 551.5) ">
		<text font-family="Verdana" font-size="11" font-weight="normal" style="stroke: none; stroke-width: 1; stroke-dasharray: ; stroke-linecap: butt; stroke-linejoin: miter; stroke-miterlimit: 10;fill:#000000;fill-opacity:1; fill-rule: nonzero; opacity: 1" ><tspan x="0" y="5.9912" fill="rgba(0,0,0,1)">03:00</tspan></text>
	</g>
	<g transform=" matrix(1 0 0 1 900 551.5) ">
		<text font-family="Verdana" font-size="11" font-weight="normal" style="stroke: none; stroke-width: 1; stroke-dasharray: ; stroke-linecap: butt; stroke-linejoin: miter; stroke-miterlimit: 10;fill:#000000;fill-opacity:1; fill-rule: nonzero; opacity: 1" ><tspan x="0" y="5.9912" fill="rgba(0,0,0,1)">06:00</tspan></text>
	</g>
</g>
</svg>