<?xml version="1.0" encoding="UTF-8" standalone="no" ?><!DOCTYPE svg PUBLIC "-//W3C//DTD SVG 1.1//EN" "http://www.w3.org/Graphics/SVG/1.1/DTD/svg11.dtd">
<svg xmlns="http://www.w3.org/2000/svg" xmlns:xlink="http://www.w3.org/1999/xlink" version="1.1" width="1024" height="570" style="background-color: #FFFFFF" xml:space="preserve"><desc>Created with Fabric.js 1.5.0</desc><defs></defs><g style="stroke: none; stroke-width: 1; stroke-dasharray: ; stroke-linecap: butt; stroke-linejoin: miter; stroke-miterlimit: 10; fill: none; fill-rule: nonzero; opacity: 1" transform="translate(0 0)" >
<path d="M 0.5 0.5 L 1023.5 0.5 L 1023.5 569.5 L 0.5 569.5 Z" style="stroke:#000000;stroke-opacity:0; stroke-width: 1; stroke-dasharray: ; stroke-linecap: butt; stroke-linejoin: miter; stroke-miterlimit: 10;fill:#FFFFFF;fill-opacity:0; fill-rule: nonzero; opacity: 1" transform="" stroke-linecap="round" />
<path d="M 0.5 0.5 L 962.5 0.5 L 962.5 492.5 L 0.5 492.5 L 0.5 0.5 Z" style="stroke:#000000;stroke-opacity:0; stroke-width: 1; stroke-dasharray: ; stroke-linecap: butt; stroke-linejoin: miter; stroke-miterlimit: 10;fill:#FFFFFF;fill-opacity:0; fill-rule: nonzero; opacity: 1" transform=" matrix(1 0 0 1 41 27) " stroke-linecap="round" />
<path d="M 26.5 0.5 L 26.5 5.5" style="stroke:#000000;stroke-opacity:1; stroke-width: 1; stroke-dasharray: ; stroke-linecap: butt; stroke-linejoin: miter; stroke-miterlimit: 10; fill: none; fill-rule: nonzero; opacity: 1" transform=" matrix(1 0 0 1 41 22) " stroke-linecap="round" />
<path d="M 26.5 492.5 L 26.5 492.5 L 26.5 0.5" style="stroke:#000000;stroke-opacity:0.15; stroke-width: 1; stroke-dasharray: 1 1; stroke-linecap: butt; stroke-linejoin: miter; stroke-miterlimit: 10; fill: none; fill-rule: nonzero; opacity: 1" transform=" matrix(1 0 0 1 41 27) " stroke-linecap="round" />
<path d="M 184.5 0.5 L 184.5 5.5" style="stroke:#000000;stroke-opacity:1; stroke-width: 1; stroke-dasharray: ; stroke-linecap: butt; stroke-linejoin: miter; stroke-miterlimit: 10; fill: none; fill-rule: nonzero; opacity: 1" transform=" matrix(1 0 0 1 41 22) " stroke-linecap="round" />
<path d="M 184.5 492.5 L 184.5 492.5 L 184.5 0.5" style="stroke:#000000;stroke-opacity:0.15; stroke-width: 1; stroke-dasharray: 1 1; stroke-linecap: butt; stroke-linejoin: miter; stroke-miterlimit: 10; fill: none; fill-rule: nonzero; opacity: 1" transform=" matrix(1 0 0 1 41 27) " stroke-linecap="round" />
<path d="M 338.5 0.5 L 338.5 5.5" style="stroke:#000000;stroke-opacity:1; stroke-width: 1; stroke-dasharray: ; stroke-linecap: butt; stroke-linejoin: miter; stroke-miterlimit: 10; fill: none; fill-rule: nonzero; opacity: 1" transform=" matrix(1 0 0 1 41 22) " stroke-linecap="round" />
<path d="M 338.5 492.5 L 338.5 492.5 L 338.5 0.5" style="stroke:#000000;stroke-opacity:0.15; stroke-width: 1; stroke-dasharray: 1 1; stroke-linecap: butt; stroke-linejoin: miter; stroke-miterlimit: 10; fill: none; fill-rule: nonzero; opacity: 1" transform=" matrix(1 0 0 1 41 27) " stroke-linecap="round" />
<path d="M 496.5 0.5 L 496.5 5.5" style="stroke:#000000;stroke-opacity:1; stroke-width: 1; stroke-dasharray: ; stroke-linecap: butt; stroke-linejoin: miter; stroke-miterlimit: 10; fill: none; fill-rule: nonzero; opacity: 1" transform=" matrix(1 0 0 1 41 22) " stroke-linecap="round" />
<path d="M 496.5 492.5 L 496.5 492.5 L 496.5 0.5" style="stroke:#000000;stroke-opacity:0.15; stroke-width: 1; stroke-dasharray: 1 1; stroke-linecap: butt; stroke-linejoin: miter; stroke-miterlimit: 10; fill: none; fill-rule: nonzero; opacity: 1" transform=" matrix(1 0 0 1 41 27) " stroke-linecap="round" />
<path d="M 650.5 0.5 L 650.5 5.5" style="stroke:#000000;stroke-opacity:1; stroke-width: 1; stroke-dasharray: ; stroke-linecap: butt; stroke-linejoin: miter; stroke-miterlimit: 10; fill: none; fill-rule: nonzero; opacity: 1" transform=" matrix(1 0 0 1 41 22) " stroke-linecap="round" />
<path d="M 650.5 492.5 L 650.5 492.5 L 650.5 0.5" style="stroke:#000000;stroke-opacity:0.15; stroke-width: 1; stroke-dasharray: 1 1; stroke-linecap: butt; stroke-linejoin: miter; stroke-miterlimit: 10; fill: none; fill-rule: nonzero; opacity: 1" transform=" matrix(1 0 0 1 41 27) " stroke-linecap="round" />
<path d="M 808.5 0.5 L 808.5 5.5" style="stroke:#000000;stroke-opacity:1; stroke-width: 1; stroke-dasharray: ; stroke-linecap: butt; stroke-linejoin: miter; stroke-miterlimit: 10; fill: none; fill-rule: nonzero; opacity: 1" transform=" matrix(1 0 0 1 41 22) " stroke-linecap="round" />
<path d="M 808.5 492.5 L 808.5 492.5 L 808.5 0.5" style="stroke:#000000;stroke-opacity:0.15; stroke-width: 1; stroke-dasharray: 1 1; stroke-linecap: butt; stroke-linejoin: miter; stroke-miterlimit: 10; fill: none; fill-rule: nonzero; opacity: 1" transform=" matrix(1 0 0 1 41 27) " stroke-linecap="round" />
<path d="M 0.5 492.5 L 0.5 492.5 L 962.5 492.5" style="stroke:#000000;stroke-opacity:0.15; stroke-width: 1; stroke-dasharray: ; stroke-linecap: butt; stroke-linejoin: miter; stroke-miterlimit: 10; fill: none; fill-rule: nonzero; opacity: 1" transform=" matrix(1 0 0 1 41 27) " stroke-linecap="round" />
<path d="M 0.5 437.5 L 0.5 437.5 L 962.5 437.5" style="stroke:#000000;stroke-opacity:0.15; stroke-width: 1; stroke-dasharray: ; stroke-linecap: butt; stroke-linejoin: miter; stroke-miterlimit: 10; fill: none; fill-rule: nonzero; opacity: 1" transform=" matrix(1 0 0 1 41 27) " stroke-linecap="round" />
<path d="M 0.5 383.5 L 0.5 383.5 L 962.5 383.5" style="stroke:#000000;stroke-opacity:0.15; stroke-width: 1; stroke-dasharray: ; stroke-linecap: butt; stroke-linejoin: miter; stroke-miterlimit: 10; fill: none; fill-rule: nonzero; opacity: 1" transform=" matrix(1 0 0 1 41 27) " stroke-linecap="round" />
<path d="M 0.5 328.5 L 0.5 328.5 L 962.5 328.5" style="stroke:#000000;stroke-opacity:0.15; stroke-width: 1; stroke-dasharray: ; stroke-linecap: butt; stroke-linejoin: miter; stroke-miterlimit: 10; fill: none; fill-rule: nonzero; opacity: 1" transform=" matrix(1 0 0 1 41 27) " stroke-linecap="round" />
<path d="M 0.5 273.5 L 0.5 273.5 L 962.5 273.5" style="stroke:#000000;stroke-opacity:0.15; stroke-width: 1; stroke-dasharray: ; stroke-linecap: butt; stroke-linejoin: miter; stroke-miterlimit: 10; fill: none; fill-rule: nonzero; opacity: 1" transform=" matrix(1 0 0 1 41 27) " stroke-linecap="round" />
<path d="M 0.5 219.5 L 0.5 219.5 L 962.5 219.5" style="stroke:#000000;stroke-opacity:0.15; stroke-width: 1; stroke-dasharray: ; stroke-linecap: butt; stroke-linejoin: miter; stroke-miterlimit: 10; fill: none; fill-rule: nonzero; opacity: 1" transform=" matrix(1 0 0 1 41 27) " stroke-linecap="round" />
<path d="M 0.5 164.5 L 0.5 164.5 L 962.5 164.5" style="stroke:#000000;stroke-opacity:0.15; stroke-width: 1; stroke-dasharray: ; stroke-linecap: butt; stroke-linejoin: miter; stroke-miterlimit: 10; fill: none; fill-rule: nonzero; opacity: 1" transform=" matrix(1 0 0 1 41 27) " stroke-linecap="round" />
<path d="M 0.5 109.5 L 0.5 109.5 L 962.5 109.5" style="stroke:#000000;stroke-opacity:0.15; stroke-width: 1; stroke-dasharray: ; stroke-linecap: butt; stroke-linejoin: miter; stroke-miterlimit: 10; fill: none; fill-rule: nonzero; opacity: 1" transform=" matrix(1 0 0 1 41 27) " stroke-linecap="round" />
<path d="M 0.5 55.5 L 0.5 55.5 L 962.5 55.5" style="stroke:#000000;stroke-opacity:0.15; stroke-width: 1; stroke-dasharray: ; stroke-linecap: butt; stroke-linejoin: miter; stroke-miterlimit: 10; fill: none; fill-rule: nonzero; opacity: 1" transform=" matrix(1 0 0 1 41 27) " stroke-linecap="round" />
<path d="M 0.5 0.5 L 0.5 0.5 L 962.5 0.5" style="stroke:#000000;stroke-opacity:0.15; stroke-width: 1; stroke-dasharray: ; stroke-linecap: butt; stroke-linejoin: miter; stroke-miterlimit: 10; fill: none; fill-rule: nonzero; opacity: 1" transform=" matrix(1 0 0 1 41 27) " stroke-linecap="round" />
<path d="M 3.5 421.5 L 8.5 432.5 L 13.5 410.5 L 18.5 405.5 L 23.5 394.5 L 28.5 421.5 L 33.5 372.5 L 38.5 366.5 L 43.5 383.5 L 49.5 399.5 L 54.5 405.5 L 59.5 394.5 L 64.5 377.5 L 69.5 350.5 L 74.5 361.5 L 79.5 333.5 L 84.5 317.5 L 90.5 394.5 L 95.5 361.5 L 100.5 372.5 L 105.5 394.5 L 110.5 388.5 L 115.5 415.5 L 120.5 410.5 L 125.5 426.5 L 130.5 448.5 L 136.5 443.5 L 141.5 448.5 L 146.5 454.5 L 151.5 465.5 L 156.5 432.5 L 161.5 421.5 L 166.5 394.5 L 171.5 383.5 L 177.5 333.5 L 182.5 312.5 L 187.5 262.5 L 192.5 301.5 L 197.5 323.5 L 202.5 235.5 L 207.5 208.5 L 212.5 241.5 L 217.5 268.5 L 223.5 257.5 L 228.5 273.5 L 233.5 279.5 L 238.5 306.5 L 243.5 333.5 L 248.5 306.5 L 253.5 290.5 L 258.5 262.5 L 264.5 224.5 L 269.5 241.5 L 274.5 235.5 L 279.5 191.5 L 284.5 169.5 L 289.5 175.5 L 294.5 180.5 L 299.5 159.5 L 304.5 169.5 L 310.5 126.5 L 315.5 137.5 L 320.5 159.5 L 325.5 131.5 L 330.5 115.5 L 335.5 104.5 L 340.5 126.5 L 345.5 148.5 L 351.5 241.5 L 356.5 317.5 L 361.5 377.5 L 366.5 394.5 L 371.5 377.5 L 376.5 339.5 L 381.5 344.5 L 386.5 295.5 L 391.5 312.5 L 397.5 323.5 L 402.5 328.5 L 407.5 306.5 L 412.5 284.5 L 417.5 290.5 L 422.5 251.5 L 427.5 224.5 L 432.5 202.5 L 438.5 180.5 L 443.5 164.5 L 448.5 159.5 L 453.5 115.5 L 458.5 126.5 L 463.5 98.5 L 468.5 71.5 L 473.5 82.5 L 478.5 109.5 L 484.5 98.5 L 489.5 109.5 L 494.5 98.5 L 499.5 93.5 L 504.5 126.5 L 509.5 120.5 L 514.5 137.5 L 519.5 104.5 L 524.5 82.5 L 530.5 87.5 L 535.5 104.5 L 540.5 77.5 L 545.5 71.5 L 550.5 49.5 L 555.5 38.5 L 560.5 55.5 L 565.5 49.5 L 571.5 16.5 L 576.5 44.5 L 581.5 22.5 L 586.5 55.5 L 591.5 16.5 L 596.5 38.5 L 601.5 27.5 L 606.5 33.5 L 611.5 44.5 L 617.5 93.5 L 622.5 104.5 L 627.5 82.5 L 632.5 60.5 L 637.5 109.5 L 642.5 93.5 L 647.5 159.5 L 652.5 153.5 L 658.5 131.5 L 663.5 137.5 L 668.5 93.5 L 673.5 60.5 L 678.5 66.5 L 683.5 66.5 L 688.5 66.5 L 693.5 87.5 L 698.5 93.5 L 704.5 82.5 L 709.5 109.5 L 714.5 71.5 L 719.5 126.5 L 724.5 153.5 L 729.5 142.5 L 734.5 159.5 L 739.5 169.5 L 745.5 202.5 L 750.5 197.5 L 755.5 186.5 L 760.5 169.5 L 765.5 175.5 L 770.5 191.5 L 775.5 208.5 L 780.5 197.5 L 785.5 219.5 L 791.5 219.5 L 796.5 213.5 L 801.5 208.5 L 806.5 175.5 L 811.5 164.5 L 816.5 126.5 L 821.5 142.5 L 826.5 131.5 L 832.5 164.5 L 837.5 148.5 L 842.5 159.5 L 847.5 164.5 L 852.5 137.5 L 857.5 82.5 L 862.5 71.5 L 867.5 66.5 L 872.5 109.5 L 878.5 109.5 L 883.5 93.5 L 888.5 104.5 L 893.5 87.5 L 898.5 66.5 L 903.5 27.5 L 908.5 44.5 L 913.5 38.5 L 919.5 11.5 L 924.5 27.5 L 929.5 27.5 L 934.5 55.5 L 939.5 16.5 L 944.5 33.5 L 949.5 38.5 L 954.5 33.5 L 959.5 49.5 M 0 0 L 0 0" style="stroke:#FF6600;stroke-opacity:1; stroke-width: 2; stroke-dasharray: ; stroke-linecap: butt; stroke-linejoin: miter; stroke-miterlimit: 10; fill: none; fill-rule: nonzero; opacity: 1" transform=" matrix(1 0 0 1 41 27) " stroke-linecap="round" />
<rect x="0" y="0" rx="0" ry="0" width="964" height="494" style="stroke: none; stroke-width: 0; stroke-dasharray: ; stroke-linecap: butt; stroke-linejoin: miter; stroke-miterlimit: 10; fill: transparent; fill-rule: nonzero; opacity: 1" transform=""/>
<path d="M 0.5 492.5 L 962.5 492.5 L 962.5 492.5" style="stroke:#000000;stroke-opacity:0.3; stroke-width: 1; stroke-dasharray: ; stroke-linecap: butt; stroke-linejoin: miter; stroke-miterlimit: 10; fill: none; fill-rule: nonzero; opacity: 1" transform=" matrix(1 0 0 1 41 27) " stroke-linecap="round" />
<path d="M 0.5 30.5 L 963.5 30.5 L 963.5 30.5" style="stroke:#000000;stroke-opacity:0; stroke-width: 1; stroke-dasharray: ; stroke-linecap: butt; stroke-linejoin: miter; stroke-miterlimit: 10; fill: none; fill-rule: nonzero; opacity: 1" transform=" matrix(1 0 0 1 0 0) " stroke-linecap="round" />
<path d="M 0.5 0.5 L 963.5 0.5" style="stroke:#000000;stroke-opacity:0; stroke-width: 1; stroke-dasharray: ; stroke-linecap: butt; stroke-linejoin: miter; stroke-miterlimit: 10; fill: none; fill-rule: nonzero; opacity: 1" transform=" matrix(1 0 0 1 0 30) " stroke-linecap="round" />
<path d="M 0.5 0.5 L 0.5 30.5" style="stroke:#000000;stroke-opacity:0; stroke-width: 1; stroke-dasharray: ; stroke-linecap: butt; stroke-linejoin: miter; stroke-miterlimit: 10; fill: none; fill-rule: nonzero; opacity: 0" transform=" matrix(1 0 0 1 0 0) " stroke-linecap="round" />
<path d="M 0.5 0.5 L 962.5 0.5" style="stroke:#000000;stroke-opacity:1; stroke-width: 1; stroke-dasharray: ; stroke-linecap: butt; stroke-linejoin: miter; stroke-miterlimit: 10; fill: none; fill-rule: nonzero; opacity: 1" transform=" matrix(1 0 0 1 41 27) " stroke-linecap="round" />
<path d="M 0.5 0.5 L 0.5 492.5" style="stroke:#000000;stroke-opacity:0; stroke-width: 1; stroke-dasharray: ; stroke-linecap: butt; stroke-linejoin: miter; stroke-miterlimit: 10; fill: none; fill-rule: nonzero; opacity: 1" transform=" matrix(1 0 0 1 41 27) " stroke-linecap="round" />
<path d="M 0.5 0.5 L 0.5 0.5 L 0.5 492.5" style="stroke:#CC0000;stroke-opacity:1; stroke-width: 1; stroke-dasharray: ; stroke-linecap: butt; stroke-linejoin: miter; stroke-miterlimit: 10; fill: none; fill-rule: nonzero; opacity: 0" transform=" matrix(1 0 0 1 967 27) " stroke-linecap="round" />
<rect x="0.5" y="0.5" rx="0" ry="0" width="963" height="30" style="stroke:#D4D4D4;stroke-opacity:1; stroke-width: 1; stroke-dasharray: ; stroke-linecap: butt; stroke-linejoin: miter; stroke-miterlimit: 10;fill:#D4D4D4;fill-opacity:1; fill-rule: nonzero; opacity: 1" transform=" matrix(1 0 0 1 41 520) "/>
<rect x="0.5" y="0.5" rx="0" ry="0" width="963" height="30" style="stroke:#EFEFEF;stroke-opacity:1; stroke-width: 0; stroke-dasharray: ; stroke-linecap: butt; stroke-linejoin: miter; stroke-miterlimit: 10;fill:#EFEFEF;fill-opacity:1; fill-rule: nonzero; opacity: 1" transform=" matrix(1 0 0 1 41 520) "/>
<path d="M 3.5 26.5 L 8.5 27.5 L 13.5 26.5 L 18.5 25.5 L 23.5 25.5 L 28.5 26.5 L 33.5 23.5 L 38.5 23.5 L 44.5 24.5 L 49.5 25.5 L 54.5 25.5 L 59.5 25.5 L 64.5 24.5 L 69.5 22.5 L 74.5 23.5 L 79.5 21.5 L 85.5 20.5 L 90.5 25.5 L 95.5 23.5 L 100.5 23.5 L 105.5 25.5 L 110.5 24.5 L 115.5 26.5 L 120.5 26.5 L 125.5 26.5 L 131.5 28.5 L 136.5 27.5 L 141.5 28.5 L 146.5 28.5 L 151.5 29.5 L 156.5 27.5 L 161.5 26.5 L 166.5 25.5 L 172.5 24.5 L 177.5 21.5 L 182.5 20.5 L 187.5 17.5 L 192.5 20.5 L 197.5 21.5 L 202.5 16.5 L 207.5 14.5 L 213.5 16.5 L 218.5 18.5 L 223.5 17.5 L 228.5 18.5 L 233.5 18.5 L 238.5 20.5 L 243.5 21.5 L 248.5 20.5 L 254.5 19.5 L 259.5 17.5 L 264.5 15.5 L 269.5 16.5 L 274.5 16.5 L 279.5 14.5 L 284.5 12.5 L 289.5 13.5 L 295.5 13.5 L 300.5 12.5 L 305.5 12.5 L 310.5 10.5 L 315.5 11.5 L 320.5 12.5 L 325.5 10.5 L 330.5 9.5 L 336.5 9.5 L 341.5 10.5 L 346.5 11.5 L 351.5 16.5 L 356.5 20.5 L 361.5 24.5 L 366.5 25.5 L 371.5 24.5 L 376.5 22.5 L 382.5 22.5 L 387.5 19.5 L 392.5 20.5 L 397.5 21.5 L 402.5 21.5 L 407.5 20.5 L 412.5 19.5 L 417.5 19.5 L 423.5 17.5 L 428.5 15.5 L 433.5 14.5 L 438.5 13.5 L 443.5 12.5 L 448.5 12.5 L 453.5 9.5 L 458.5 10.5 L 464.5 8.5 L 469.5 7.5 L 474.5 8.5 L 479.5 9.5 L 484.5 8.5 L 489.5 9.5 L 494.5 8.5 L 499.5 8.5 L 505.5 10.5 L 510.5 10.5 L 515.5 11.5 L 520.5 9.5 L 525.5 8.5 L 530.5 8.5 L 535.5 9.5 L 540.5 7.5 L 546.5 7.5 L 551.5 6.5 L 556.5 5.5 L 561.5 6.5 L 566.5 6.5 L 571.5 4.5 L 576.5 5.5 L 581.5 4.5 L 587.5 6.5 L 592.5 4.5 L 597.5 5.5 L 602.5 5.5 L 607.5 5.5 L 612.5 5.5 L 617.5 8.5 L 622.5 9.5 L 627.5 8.5 L 633.5 6.5 L 638.5 9.5 L 643.5 8.5 L 648.5 12.5 L 653.5 11.5 L 658.5 10.5 L 663.5 11.5 L 668.5 8.5 L 674.5 6.5 L 679.5 7.5 L 684.5 7.5 L 689.5 7.5 L 694.5 8.5 L 699.5 8.5 L 704.5 8.5 L 709.5 9.5 L 715.5 7.5 L 720.5 10.5 L 725.5 11.5 L 730.5 11.5 L 735.5 12.5 L 740.5 12.5 L 745.5 14.5 L 750.5 14.5 L 756.5 13.5 L 761.5 12.5 L 766.5 13.5 L 771.5 14.5 L 776.5 14.5 L 781.5 14.5 L 786.5 15.5 L 791.5 15.5 L 797.5 15.5 L 802.5 14.5 L 807.5 13.5 L 812.5 12.5 L 817.5 10.5 L 822.5 11.5 L 827.5 10.5 L 832.5 12.5 L 838.5 11.5 L 843.5 12.5 L 848.5 12.5 L 853.5 11.5 L 858.5 8.5 L 863.5 7.5 L 868.5 7.5 L 873.5 9.5 L 878.5 9.5 L 884.5 8.5 L 889.5 9.5 L 894.5 8.5 L 899.5 7.5 L 904.5 5.5 L 909.5 5.5 L 914.5 5.5 L 919.5 4.5 L 925.5 5.5 L 930.5 5.5 L 935.5 6.5 L 940.5 4.5 L 945.5 5.5 L 950.5 5.5 L 955.5 5.5 L 960.5 6.5 M 0 0 L 0 0" style="stroke:#BBBBBB;stroke-opacity:0; stroke-width: 1; stroke-dasharray: ; stroke-linecap: butt; stroke-linejoin: miter; stroke-miterlimit: 10; fill: none; fill-rule: nonzero; opacity: 1" transform=" matrix(1 0 0 1 41 520) " stroke-linecap="round" />
<path d="M 3.5 26.5 L 8.5 27.5 L 13.5 26.5 L 18.5 25.5 L 23.5 25.5 L 28.5 26.5 L 33.5 23.5 L 38.5 23.5 L 44.5 24.5 L 49.5 25.5 L 54.5 25.5 L 59.5 25.5 L 64.5 24.5 L 69.5 22.5 L 74.5 23.5 L 79.5 21.5 L 85.5 20.5 L 90.5 25.5 L 95.5 23.5 L 100.5 23.5 L 105.5 25.5 L 110.5 24.5 L 115.5 26.5 L 120.5 26.5 L 125.5 26.5 L 131.5 28.5 L 136.5 27.5 L 141.5 28.5 L 146.5 28.5 L 151.5 29.5 L 156.5 27.5 L 161.5 26.5 L 166.5 25.5 L 172.5 24.5 L 177.5 21.5 L 182.5 20.5 L 187.5 17.5 L 192.5 20.5 L 197.5 21.5 L 202.5 16.5 L 207.5 14.5 L 213.5 16.5 L 218.5 18.5 L 223.5 17.5 L 228.5 18.5 L 233.5 18.5 L 238.5 20.5 L 243.5 21.5 L 248.5 20.5 L 254.5 19.5 L 259.5 17.5 L 264.5 15.5 L 269.5 16.5 L 274.5 16.5 L 279.5 14.5 L 284.5 12.5 L 289.5 13.5 L 295.5 13.5 L 300.5 12.5 L 305.5 12.5 L 310.5 10.5 L 315.5 11.5 L 320.5 12.5 L 325.5 10.5 L 330.5 9.5 L 336.5 9.5 L 341.5 10.5 L 346.5 11.5 L 351.5 16.5 L 356.5 20.5 L 361.5 24.5 L 366.5 25.5 L 371.5 24.5 L 376.5 22.5 L 382.5 22.5 L 387.5 19.5 L 392.5 20.5 L 397.5 21.5 L 402.5 21.5 L 407.5 20.5 L 412.5 19.5 L 417.5 19.5 L 423.5 17.5 L 428.5 15.5 L 433.5 14.5 L 438.5 13.5 L 443.5 12.5 L 448.5 12.5 L 453.5 9.5 L 458.5 10.5 L 464.5 8.5 L 469.5 7.5 L 474.5 8.5 L 479.5 9.5 L 484.5 8.5 L 489.5 9.5 L 494.5 8.5 L 499.5 8.5 L 505.5 10.5 L 510.5 10.5 L 515.5 11.5 L 520.5 9.5 L 525.5 8.5 L 530.5 8.5 L 535.5 9.5 L 540.5 7.5 L 546.5 7.5 L 551.5 6.5 L 556.5 5.5 L 561.5 6.5 L 566.5 6.5 L 571.5 4.5 L 576.5 5.5 L 581.5 4.5 L 587.5 6.5 L 592.5 4.5 L 597.5 5.5 L 602.5 5.5 L 607.5 5.5 L 612.5 5.5 L 617.5 8.5 L 622.5 9.5 L 627.5 8.5 L 633.5 6.5 L 638.5 9.5 L 643.5 8.5 L 648.5 12.5 L 653.5 11.5 L 658.5 10.5 L 663.5 11.5 L 668.5 8.5 L 674.5 6.5 L 679.5 7.5 L 684.5 7.5 L 689.5 7.5 L 694.5 8.5 L 699.5 8.5 L 704.5 8.5 L 709.5 9.5 L 715.5 7.5 L 720.5 10.5 L 725.5 11.5 L 730.5 11.5 L 735.5 12.5 L 740.5 12.5 L 745.5 14.5 L 750.5 14.5 L 756.5 13.5 L 761.5 12.5 L 766.5 13.5 L 771.5 14.5 L 776.5 14.5 L 781.5 14.5 L 786.5 15.5 L 791.5 15.5 L 797.5 15.5 L 802.5 14.5 L 807.5 13.5 L 812.5 12.5 L 817.5 10.5 L 822.5 11.5 L 827.5 10.5 L 832.5 12.5 L 838.5 11.5 L 843.5 12.5 L 848.5 12.5 L 853.5 11.5 L 858.5 8.5 L 863.5 7.5 L 868.5 7.5 L 873.5 9.5 L 878.5 9.5 L 884.5 8.5 L 889.5 9.5 L 894.5 8.5 L 899.5 7.5 L 904.5 5.5 L 909.5 5.5 L 914.5 5.5 L 919.5 4.5 L 925.5 5.5 L 930.5 5.5 L 935.5 6.5 L 940.5 4.5 L 945.5 5.5 L 950.5 5.5 L 955.5 5.5 L 960.5 6.5 L 960.5 30.5 L 3.5 30.5 L 3.5 26.5 Z" style="stroke:#000000;stroke-opacity:0; stroke-width: 1; stroke-dasharray: ; stroke-linecap: butt; stroke-linejoin: miter; stroke-miterlimit: 10;fill:#BBBBBB;fill-opacity:1; fill-rule: nonzero; opacity: 1" transform=" matrix(1 0 0 1 41 520) " stroke-linecap="round" />
<path d="M 3.5 26.5 L 8.5 27.5 L 13.5 26.5 L 18.5 25.5 L 23.5 25.5 L 28.5 26.5 L 33.5 23.5 L 38.5 23.5 L 44.5 24.5 L 49.5 25.5 L 54.5 25.5 L 59.5 25.5 L 64.5 24.5 L 69.5 22.5 L 74.5 23.5 L 79.5 21.5 L 85.5 20.5 L 90.5 25.5 L 95.5 23.5 L 100.5 23.5 L 105.5 25.5 L 110.5 24.5 L 115.5 26.5 L 120.5 26.5 L 125.5 26.5 L 131.5 28.5 L 136.5 27.5 L 141.5 28.5 L 146.5 28.5 L 151.5 29.5 L 156.5 27.5 L 161.5 26.5 L 166.5 25.5 L 172.5 24.5 L 177.5 21.5 L 182.5 20.5 L 187.5 17.5 L 192.5 20.5 L 197.5 21.5 L 202.5 16.5 L 207.5 14.5 L 213.5 16.5 L 218.5 18.5 L 223.5 17.5 L 228.5 18.5 L 233.5 18.5 L 238.5 20.5 L 243.5 21.5 L 248.5 20.5 L 254.5 19.5 L 259.5 17.5 L 264.5 15.5 L 269.5 16.5 L 274.5 16.5 L 279.5 14.5 L 284.5 12.5 L 289.5 13.5 L 295.5 13.5 L 300.5 12.5 L 305.5 12.5 L 310.5 10.5 L 315.5 11.5 L 320.5 12.5 L 325.5 10.5 L 330.5 9.5 L 336.5 9.5 L 341.5 10.5 L 346.5 11.5 L 351.5 16.5 L 356.5 20.5 L 361.5 24.5 L 366.5 25.5 L 371.5 24.5 L 376.5 22.5 L 382.5 22.5 L 387.5 19.5 L 392.5 20.5 L 397.5 21.5 L 402.5 21.5 L 407.5 20.5 L 412.5 19.5 L 417.5 19.5 L 423.5 17.5 L 428.5 15.5 L 433.5 14.5 L 438.5 13.5 L 443.5 12.5 L 448.5 12.5 L 453.5 9.5 L 458.5 10.5 L 464.5 8.5 L 469.5 7.5 L 474.5 8.5 L 479.5 9.5 L 484.5 8.5 L 489.5 9.5 L 494.5 8.5 L 499.5 8.5 L 505.5 10.5 L 510.5 10.5 L 515.5 11.5 L 520.5 9.5 L 525.5 8.5 L 530.5 8.5 L 535.5 9.5 L 540.5 7.5 L 546.5 7.5 L 551.5 6.5 L 556.5 5.5 L 561.5 6.5 L 566.5 6.5 L 571.5 4.5 L 576.5 5.5 L 581.5 4.5 L 587.5 6.5 L 592.5 4.5 L 597.5 5.5 L 602.5 5.5 L 607.5 5.5 L 612.5 5.5 L 617.5 8.5 L 622.5 9.5 L 627.5 8.5 L 633.5 6.5 L 638.5 9.5 L 643.5 8.5 L 648.5 12.5 L 653.5 11.5 L 658.5 10.5 L 663.5 11.5 L 668.5 8.5 L 674.5 6.5 L 679.5 7.5 L 684.5 7.5 L 689.5 7.5 L 694.5 8.5 L 699.5 8.5 L 704.5 8.5 L 709.5 9.5 L 715.5 7.5 L 720.5 10.5 L 725.5 11.5 L 730.5 11.5 L 735.5 12.5 L 740.5 12.5 L 745.5 14.5 L 750.5 14.5 L 756.5 13.5 L 761.5 12.5 L 766.5 13.5 L 771.5 14.5 L 776.5 14.5 L 781.5 14.5 L 786.5 15.5 L 791.5 15.5 L 797.5 15.5 L 802.5 14.5 L 807.5 13.5 L 812.5 12.5 L 817.5 10.5 L 822.5 11.5 L 827.5 10.5 L 832.5 12.5 L 838.5 11.5 L 843.5 12.5 L 848.5 12.5 L 853.5 11.5 L 858.5 8.5 L 863.5 7.5 L 868.5 7.5 L 873.5 9.5 L 878.5 9.5 L 884.5 8.5 L 889.5 9.5 L 894.5 8.5 L 899.5 7.5 L 904.5 5.5 L 909.5 5.5 L 914.5 5.5 L 919.5 4.5 L 925.5 5.5 L 930.5 5.5 L 935.5 6.5 L 940.5 4.5 L 945.5 5.5 L 950.5 5.5 L 955.5 5.5 L 960.5 6.5 M 0 0 L 0 0" style="stroke:#888888;stroke-opacity:0; stroke-width: 1; stroke-dasharray: ; stroke-linecap: butt; stroke-linejoin: miter; stroke-miterlimit: 10; fill: none; fill-rule: nonzero; opacity: 1" transform=" matrix(1 0 0 1 41 520) " stroke-linecap="round" />
<path d="M 3.5 26.5 L 8.5 27.5 L 13.5 26.5 L 18.5 25.5 L 23.5 25.5 L 28.5 26.5 L 33.5 23.5 L 38.5 23.5 L 44.5 24.5 L 49.5 25.5 L 54.5 25.5 L 59.5 25.5 L 64.5 24.5 L 69.5 22.5 L 74.5 23.5 L 79.5 21.5 L 85.5 20.5 L 90.5 25.5 L 95.5 23.5 L 100.5 23.5 L 105.5 25.5 L 110.5 24.5 L 115.5 26.5 L 120.5 26.5 L 125.5 26.5 L 131.5 28.5 L 136.5 27.5 L 141.5 28.5 L 146.5 28.5 L 151.5 29.5 L 156.5 27.5 L 161.5 26.5 L 166.5 25.5 L 172.5 24.5 L 177.5 21.5 L 182.5 20.5 L 187.5 17.5 L 192.5 20.5 L 197.5 21.5 L 202.5 16.5 L 207.5 14.5 L 213.5 16.5 L 218.5 18.5 L 223.5 17.5 L 228.5 18.5 L 233.5 18.5 L 238.5 20.5 L 243.5 21.5 L 248.5 20.5 L 254.5 19.5 L 259.5 17.5 L 264.5 15.5 L 269.5 16.5 L 274.5 16.5 L 279.5 14.5 L 284.5 12.5 L 289.5 13.5 L 295.5 13.5 L 300.5 12.5 L 305.5 12.5 L 310.5 10.5 L 315.5 11.5 L 320.5 12.5 L 325.5 10.5 L 330.5 9.5 L 336.5 9.5 L 341.5 10.5 L 346.5 11.5 L 351.5 16.5 L 356.5 20.5 L 361.5 24.5 L 366.5 25.5 L 371.5 24.5 L 376.5 22.5 L 382.5 22.5 L 387.5 19.5 L 392.5 20.5 L 397.5 21.5 L 402.5 21.5 L 407.5 20.5 L 412.5 19.5 L 417.5 19.5 L 423.5 17.5 L 428.5 15.5 L 433.5 14.5 L 438.5 13.5 L 443.5 12.5 L 448.5 12.5 L 453.5 9.5 L 458.5 10.5 L 464.5 8.5 L 469.5 7.5 L 474.5 8.5 L 479.5 9.5 L 484.5 8.5 L 489.5 9.5 L 494.5 8.5 L 499.5 8.5 L 505.5 10.5 L 510.5 10.5 L 515.5 11.5 L 520.5 9.5 L 525.5 8.5 L 530.5 8.5 L 535.5 9.5 L 540.5 7.5 L 546.5 7.5 L 551.5 6.5 L 556.5 5.5 L 561.5 6.5 L 566.5 6.5 L 571.5 4.5 L 576.5 5.5 L 581.5 4.5 L 587.5 6.5 L 592.5 4.5 L 597.5 5.5 L 602.5 5.5 L 607.5 5.5 L 612.5 5.5 L 617.5 8.5 L 622.5 9.5 L 627.5 8.5 L 633.5 6.5 L 638.5 9.5 L 643.5 8.5 L 648.5 12.5 L 653.5 11.5 L 658.5 10.5 L 663.5 11.5 L 668.5 8.5 L 674.5 6.5 L 679.5 7.5 L 684.5 7.5 L 689.5 7.5 L 694.5 8.5 L 699.5 8.5 L 704.5 8.5 L 709.5 9.5 L 715.5 7.5 L 720.5 10.5 L 725.5 11.5 L 730.5 11.5 L 735.5 12.5 L 740.5 12.5 L 745.5 14.5 L 750.5 14.5 L 756.5 13.5 L 761.5 12.5 L 766.5 13.5 L 771.5 14.5 L 776.5 14.5 L 781.5 14.5 L 786.5 15.5 L 791.5 15.5 L 797.5 15.5 L 802.5 14.5 L 807.5 13.5 L 812.5 12.5 L 817.5 10.5 L 822.5 11.5 L 827.5 10.5 L 832.5 12.5 L 838.5 11.5 L 843.5 12.5 L 848.5 12.5 L 853.5 11.5 L 858.5 8.5 L 863.5 7.5 L 868.5 7.5 L 873.5 9.5 L 878.5 9.5 L 884.5 8.5 L 889.5 9.5 L 894.5 8.5 L 899.5 7.5 L 904.5 5.5 L 909.5 5.5 L 914.5 5.5 L 919.5 4.5 L 925.5 5.5 L 930.5 5.5 L 935.5 6.5 L 940.5 4.5 L 945.5 5.5 L 950.5 5.5 L 955.5 5.5 L 960.5 6.5 L 960.5 30.5 L 3.5 30.5 L 3.5 26.5 Z" style="stroke:#000000;stroke-opacity:0; stroke-width: 1; stroke-dasharray: ; stroke-linecap: butt; stroke-linejoin: miter; stroke-miterlimit: 10;fill:#888888;fill-opacity:1; fill-rule: nonzero; opacity: 1" transform=" matrix(1 0 0 1 41 520) " stroke-linecap="round" />
<rect x="0.5" y="0.5" rx="0" ry="0" width="963" height="30" style="stroke:#000000;stroke-opacity:0.005; stroke-width: 0; stroke-dasharray: ; stroke-linecap: butt; stroke-linejoin: miter; stroke-miterlimit: 10;fill:#000000;fill-opacity:0.005; fill-rule: nonzero; opacity: 1" transform=" matrix(1 0 0 1 41 520) "/>
<rect x="0" y="0.5" rx="0" ry="0" width="963" height="30" style="stroke:#000000;stroke-opacity:0.005; stroke-width: 0; stroke-dasharray: ; stroke-linecap: butt; stroke-linejoin: miter; stroke-miterlimit: 10;fill:#000000;fill-opacity:0.005; fill-rule: nonzero; opacity: 1" transform=" matrix(1 0 0 1 41 520) "/>
<g transform=" matrix(1 0 0 1 24 518) ">
<image xlink:href="https://demo.cuba-platform.com/sampler/VAADIN/resources/amcharts/images/dragIconRoundBig.svg" x="0" y="0" style="stroke: none; stroke-width: 1; stroke-dasharray: ; stroke-linecap: butt; stroke-linejoin: miter; stroke-miterlimit: 10;fill:#000000;fill-opacity:1; fill-rule: nonzero; opacity: 1" width="35" height="35" preserveAspectRatio="xMidYMid meet"></image>
</g>
<rect x="0.5" y="0.5" rx="0" ry="0" width="25" height="30" style="stroke:#000000;stroke-opacity:0.005; stroke-width: 0; stroke-dasharray: ; stroke-linecap: butt; stroke-linejoin: miter; stroke-miterlimit: 10;fill:#000000;fill-opacity:0.005; fill-rule: nonzero; opacity: 1" transform=" matrix(1 0 0 1 29 521) "/>
<g transform=" matrix(1 0 0 1 987 518) ">
<image xlink:href="https://demo.cuba-platform.com/sampler/VAADIN/resources/amcharts/images/dragIconRoundBig.svg" x="0" y="0" style="stroke: none; stroke-width: 1; stroke-dasharray: ; stroke-linecap: butt; stroke-linejoin: miter; stroke-miterlimit: 10;fill:#000000;fill-opacity:1; fill-rule: nonzero; opacity: 1" width="35" height="35" preserveAspectRatio="xMidYMid meet"></image>
</g>
<rect x="0.5" y="0.5" rx="0" ry="0" width="25" height="30" style="stroke:#000000;stroke-opacity:0.005; stroke-width: 0; stroke-dasharray: ; stroke-linecap: butt; stroke-linejoin: miter; stroke-miterlimit: 10;fill:#000000;fill-opacity:0.005; fill-rule: nonzero; opacity: 1" transform=" matrix(1 0 0 1 992 521) "/>
<rect x="0" y="0" rx="0" ry="0" width="963" height="31" style="stroke: none; stroke-width: 0; stroke-dasharray: ; stroke-linecap: butt; stroke-linejoin: miter; stroke-miterlimit: 10; fill: transparent; fill-rule: nonzero; opacity: 1" transform=""/>
<rect x="0" y="0" rx="0" ry="0" width="963" height="31" style="stroke: none; stroke-width: 0; stroke-dasharray: ; stroke-linecap: butt; stroke-linejoin: miter; stroke-miterlimit: 10; fill: transparent; fill-rule: nonzero; opacity: 1" transform=""/>
	<g transform=" matrix(1 0 0 1 146.31382979211693 14.5) ">
		<text font-family="Verdana" font-size="11" font-weight="normal" style="stroke: none; stroke-width: 1; stroke-dasharray: ; stroke-linecap: butt; stroke-linejoin: miter; stroke-miterlimit: 10;fill:#000000;fill-opacity:1; fill-rule: nonzero; opacity: 1" ><tspan x="-11" y="5.9912" fill="rgba(0,0,0,1)">Aug</tspan></text>
	</g>
	<g transform=" matrix(1 0 0 1 304.31382979211696 14.5) ">
		<text font-family="Verdana" font-size="11" font-weight="normal" style="stroke: none; stroke-width: 1; stroke-dasharray: ; stroke-linecap: butt; stroke-linejoin: miter; stroke-miterlimit: 10;fill:#000000;fill-opacity:1; fill-rule: nonzero; opacity: 1" ><tspan x="-11" y="5.9912" fill="rgba(0,0,0,1)">Sep</tspan></text>
	</g>
	<g transform=" matrix(1 0 0 1 458.31382979211696 14.5) ">
		<text font-family="Verdana" font-size="11" font-weight="normal" style="stroke: none; stroke-width: 1; stroke-dasharray: ; stroke-linecap: butt; stroke-linejoin: miter; stroke-miterlimit: 10;fill:#000000;fill-opacity:1; fill-rule: nonzero; opacity: 1" ><tspan x="-9.5" y="5.9912" fill="rgba(0,0,0,1)">Oct</tspan></text>
	</g>
	<g transform=" matrix(1 0 0 1 616.313829792117 14.5) ">
		<text font-family="Verdana" font-size="11" font-weight="normal" style="stroke: none; stroke-width: 1; stroke-dasharray: ; stroke-linecap: butt; stroke-linejoin: miter; stroke-miterlimit: 10;fill:#000000;fill-opacity:1; fill-rule: nonzero; opacity: 1" ><tspan x="-11" y="5.9912" fill="rgba(0,0,0,1)">Nov</tspan></text>
	</g>
	<g transform=" matrix(1 0 0 1 770.313829792117 14.5) ">
		<text font-family="Verdana" font-size="11" font-weight="normal" style="stroke: none; stroke-width: 1; stroke-dasharray: ; stroke-linecap: butt; stroke-linejoin: miter; stroke-miterlimit: 10;fill:#000000;fill-opacity:1; fill-rule: nonzero; opacity: 1" ><tspan x="-10.5" y="5.9912" fill="rgba(0,0,0,1)">Dec</tspan></text>
	</g>
	<g transform=" matrix(1 0 0 1 928.313829792117 14.5) ">
		<text font-family="Verdana" font-size="11" font-weight="bold" style="stroke: none; stroke-width: 1; stroke-dasharray: ; stroke-linecap: butt; stroke-linejoin: miter; stroke-miterlimit: 10;fill:#000000;fill-opacity:1; fill-rule: nonzero; opacity: 1" ><tspan x="-16" y="5.9912" fill="rgba(0,0,0,1)">2013</tspan></text>
	</g>
	<g transform=" matrix(1 0 0 1 29 518) ">
		<text font-family="Verdana" font-size="11" font-weight="normal" style="stroke: none; stroke-width: 1; stroke-dasharray: ; stroke-linecap: butt; stroke-linejoin: miter; stroke-miterlimit: 10;fill:#000000;fill-opacity:1; fill-rule: nonzero; opacity: 1" ><tspan x="-7" y="5.9912" fill="rgba(0,0,0,1)">0</tspan></text>
	</g>
	<g transform=" matrix(1 0 0 1 29 463) ">
		<text font-family="Verdana" font-size="11" font-weight="normal" style="stroke: none; stroke-width: 1; stroke-dasharray: ; stroke-linecap: butt; stroke-linejoin: miter; stroke-miterlimit: 10;fill:#000000;fill-opacity:1; fill-rule: nonzero; opacity: 1" ><tspan x="-14" y="5.9912" fill="rgba(0,0,0,1)">10</tspan></text>
	</g>
	<g transform=" matrix(1 0 0 1 29 409) ">
		<text font-family="Verdana" font-size="11" font-weight="normal" style="stroke: none; stroke-width: 1; stroke-dasharray: ; stroke-linecap: butt; stroke-linejoin: miter; stroke-miterlimit: 10;fill:#000000;fill-opacity:1; fill-rule: nonzero; opacity: 1" ><tspan x="-14" y="5.9912" fill="rgba(0,0,0,1)">20</tspan></text>
	</g>
	<g transform=" matrix(1 0 0 1 29 354) ">
		<text font-family="Verdana" font-size="11" font-weight="normal" style="stroke: none; stroke-width: 1; stroke-dasharray: ; stroke-linecap: butt; stroke-linejoin: miter; stroke-miterlimit: 10;fill:#000000;fill-opacity:1; fill-rule: nonzero; opacity: 1" ><tspan x="-14" y="5.9912" fill="rgba(0,0,0,1)">30</tspan></text>
	</g>
	<g transform=" matrix(1 0 0 1 29 299) ">
		<text font-family="Verdana" font-size="11" font-weight="normal" style="stroke: none; stroke-width: 1; stroke-dasharray: ; stroke-linecap: butt; stroke-linejoin: miter; stroke-miterlimit: 10;fill:#000000;fill-opacity:1; fill-rule: nonzero; opacity: 1" ><tspan x="-14" y="5.9912" fill="rgba(0,0,0,1)">40</tspan></text>
	</g>
	<g transform=" matrix(1 0 0 1 29 245) ">
		<text font-family="Verdana" font-size="11" font-weight="normal" style="stroke: none; stroke-width: 1; stroke-dasharray: ; stroke-linecap: butt; stroke-linejoin: miter; stroke-miterlimit: 10;fill:#000000;fill-opacity:1; fill-rule: nonzero; opacity: 1" ><tspan x="-14" y="5.9912" fill="rgba(0,0,0,1)">50</tspan></text>
	</g>
	<g transform=" matrix(1 0 0 1 29 190) ">
		<text font-family="Verdana" font-size="11" font-weight="normal" style="stroke: none; stroke-width: 1; stroke-dasharray: ; stroke-linecap: butt; stroke-linejoin: miter; stroke-miterlimit: 10;fill:#000000;fill-opacity:1; fill-rule: nonzero; opacity: 1" ><tspan x="-14" y="5.9912" fill="rgba(0,0,0,1)">60</tspan></text>
	</g>
	<g transform=" matrix(1 0 0 1 29 135) ">
		<text font-family="Verdana" font-size="11" font-weight="normal" style="stroke: none; stroke-width: 1; stroke-dasharray: ; stroke-linecap: butt; stroke-linejoin: miter; stroke-miterlimit: 10;fill:#000000;fill-opacity:1; fill-rule: nonzero; opacity: 1" ><tspan x="-14" y="5.9912" fill="rgba(0,0,0,1)">70</tspan></text>
	</g>
	<g transform=" matrix(1 0 0 1 29 81) ">
		<text font-family="Verdana" font-size="11" font-weight="normal" style="stroke: none; stroke-width: 1; stroke-dasharray: ; stroke-linecap: butt; stroke-linejoin: miter; stroke-miterlimit: 10;fill:#000000;fill-opacity:1; fill-rule: nonzero; opacity: 1" ><tspan x="-14" y="5.9912" fill="rgba(0,0,0,1)">80</tspan></text>
	</g>
	<g transform=" matrix(1 0 0 1 29 26) ">
		<text font-family="Verdana" font-size="11" font-weight="normal" style="stroke: none; stroke-width: 1; stroke-dasharray: ; stroke-linecap: butt; stroke-linejoin: miter; stroke-miterlimit: 10;fill:#000000;fill-opacity:1; fill-rule: nonzero; opacity: 1" ><tspan x="-14" y="5.9912" fill="rgba(0,0,0,1)">90</tspan></text>
	</g>
</g>
</svg>