<?xml version="1.0" encoding="UTF-8" standalone="no" ?><!DOCTYPE svg PUBLIC "-//W3C//DTD SVG 1.1//EN" "http://www.w3.org/Graphics/SVG/1.1/DTD/svg11.dtd">
<svg xmlns="http://www.w3.org/2000/svg" xmlns:xlink="http://www.w3.org/1999/xlink" version="1.1" width="1024" height="570" style="background-color: #FFFFFF" xml:space="preserve"><desc>Created with Fabric.js 1.5.0</desc><defs></defs><g style="stroke: none; stroke-width: 1; stroke-dasharray: ; stroke-linecap: butt; stroke-linejoin: miter; stroke-miterlimit: 10; fill: none; fill-rule: nonzero; opacity: 1" transform="translate(0 0)" >
<path d="M 0.5 0.5 L 794.5 0.5 L 794.5 569.5 L 0.5 569.5 Z" style="stroke:#000000;stroke-opacity:0; stroke-width: 1; stroke-dasharray: ; stroke-linecap: butt; stroke-linejoin: miter; stroke-miterlimit: 10;fill:#FFFFFF;fill-opacity:0; fill-rule: nonzero; opacity: 1" transform="" stroke-linecap="round" />
<path d="M 397.5 300 L 346.92739233333424 193.1322954370163 A 169 112 0 0 1 397.49999999999983 188 L 397.5 300 Z" style="stroke: none; stroke-width: 1; stroke-dasharray: ; stroke-linecap: butt; stroke-linejoin: miter; stroke-miterlimit: 10;fill:#03A811;fill-opacity:1; fill-rule: nonzero; opacity: 1" transform=" matrix(1 0 0 1 0 0) " stroke-linecap="round" />
<path d="M 397.5 300 L 346.92739233333424 193.1322954370163 A 169 112 0 0 1 397.49999999999983 188 L 397.5 300 Z" style="stroke: none; stroke-width: 1; stroke-dasharray: ; stroke-linecap: butt; stroke-linejoin: miter; stroke-miterlimit: 10;fill:#03A811;fill-opacity:1; fill-rule: nonzero; opacity: 1" transform=" matrix(1 0 0 1 0 -10) " stroke-linecap="round" />
<path d="M 397.5 285 L 397.5 300 L 346.92739233333424 193.1322954370163 L 346.92739233333424 178.1322954370163 L 397.5 285 Z" style="stroke: none; stroke-width: 1; stroke-dasharray: ; stroke-linecap: butt; stroke-linejoin: miter; stroke-miterlimit: 10;fill:#03A811;fill-opacity:1; fill-rule: nonzero; opacity: 1" transform="" stroke-linecap="round" />
<path d="M 397.49999999999983 173 L 397.49999999999983 188 L 397.5 300 L 397.5 285 L 397.49999999999983 173 Z" style="stroke: none; stroke-width: 1; stroke-dasharray: ; stroke-linecap: butt; stroke-linejoin: miter; stroke-miterlimit: 10;fill:#03A811;fill-opacity:1; fill-rule: nonzero; opacity: 1" transform="" stroke-linecap="round" />
<path d="M 397.5 285 L 346.92739233333424 178.1322954370163 A 169 112 0 0 1 397.49999999999983 173 L 397.5 285 Z" style="stroke:#FFFFFF;stroke-opacity:0; stroke-width: 1; stroke-dasharray: ; stroke-linecap: butt; stroke-linejoin: miter; stroke-miterlimit: 10;fill:#04D215;fill-opacity:1; fill-rule: nonzero; opacity: 1" transform="" stroke-linecap="round" />
<path d="M 372.5 174.5 L 369.5 161.5 L 361.5 161.5" style="stroke:#000000;stroke-opacity:0.2; stroke-width: 1; stroke-dasharray: ; stroke-linecap: butt; stroke-linejoin: miter; stroke-miterlimit: 10; fill: none; fill-rule: nonzero; opacity: 1" transform="" stroke-linecap="round" />
<path d="M 397.5 300 L 276.53273395638877 221.7878078868763 A 169 112 0 0 1 346.92739233333424 193.1322954370163 L 397.5 300 Z" style="stroke: none; stroke-width: 1; stroke-dasharray: ; stroke-linecap: butt; stroke-linejoin: miter; stroke-miterlimit: 10;fill:#8DB207;fill-opacity:1; fill-rule: nonzero; opacity: 1" transform=" matrix(1 0 0 1 0 0) " stroke-linecap="round" />
<path d="M 397.5 300 L 276.53273395638877 221.7878078868763 A 169 112 0 0 1 346.92739233333424 193.1322954370163 L 397.5 300 Z" style="stroke: none; stroke-width: 1; stroke-dasharray: ; stroke-linecap: butt; stroke-linejoin: miter; stroke-miterlimit: 10;fill:#8DB207;fill-opacity:1; fill-rule: nonzero; opacity: 1" transform=" matrix(1 0 0 1 0 -10) " stroke-linecap="round" />
<path d="M 397.5 285 L 397.5 300 L 276.53273395638877 221.7878078868763 L 276.53273395638877 206.7878078868763 L 397.5 285 Z" style="stroke: none; stroke-width: 1; stroke-dasharray: ; stroke-linecap: butt; stroke-linejoin: miter; stroke-miterlimit: 10;fill:#8DB207;fill-opacity:1; fill-rule: nonzero; opacity: 1" transform="" stroke-linecap="round" />
<path d="M 346.92739233333424 178.1322954370163 L 346.92739233333424 193.1322954370163 L 397.5 300 L 397.5 285 L 346.92739233333424 178.1322954370163 Z" style="stroke: none; stroke-width: 1; stroke-dasharray: ; stroke-linecap: butt; stroke-linejoin: miter; stroke-miterlimit: 10;fill:#8DB207;fill-opacity:1; fill-rule: nonzero; opacity: 1" transform="" stroke-linecap="round" />
<path d="M 397.5 285 L 276.53273395638877 206.7878078868763 A 169 112 0 0 1 346.92739233333424 178.1322954370163 L 397.5 285 Z" style="stroke:#FFFFFF;stroke-opacity:0; stroke-width: 1; stroke-dasharray: ; stroke-linecap: butt; stroke-linejoin: miter; stroke-miterlimit: 10;fill:#B0DE09;fill-opacity:1; fill-rule: nonzero; opacity: 1" transform="" stroke-linecap="round" />
<path d="M 309.5 189.5 L 299.5 178.5 L 291.5 178.5" style="stroke:#000000;stroke-opacity:0.2; stroke-width: 1; stroke-dasharray: ; stroke-linecap: butt; stroke-linejoin: miter; stroke-miterlimit: 10; fill: none; fill-rule: nonzero; opacity: 1" transform="" stroke-linecap="round" />
<path d="M 397.5 300 L 228.70921768804172 305.57127267302354 A 169 112 0 0 1 276.53273395638877 221.7878078868763 L 397.5 300 Z" style="stroke: none; stroke-width: 1; stroke-dasharray: ; stroke-linecap: butt; stroke-linejoin: miter; stroke-miterlimit: 10;fill:#C6CC01;fill-opacity:1; fill-rule: nonzero; opacity: 1" transform=" matrix(1 0 0 1 0 0) " stroke-linecap="round" />
<path d="M 397.5 300 L 228.70921768804172 305.57127267302354 A 169 112 0 0 1 276.53273395638877 221.7878078868763 L 397.5 300 Z" style="stroke: none; stroke-width: 1; stroke-dasharray: ; stroke-linecap: butt; stroke-linejoin: miter; stroke-miterlimit: 10;fill:#C6CC01;fill-opacity:1; fill-rule: nonzero; opacity: 1" transform=" matrix(1 0 0 1 0 -10) " stroke-linecap="round" />
<path d="M 397.5 285 L 397.5 300 L 228.70921768804172 305.57127267302354 L 228.70921768804172 290.57127267302354 L 397.5 285 Z" style="stroke: none; stroke-width: 1; stroke-dasharray: ; stroke-linecap: butt; stroke-linejoin: miter; stroke-miterlimit: 10;fill:#C6CC01;fill-opacity:1; fill-rule: nonzero; opacity: 1" transform="" stroke-linecap="round" />
<path d="M 276.53273395638877 206.7878078868763 L 276.53273395638877 221.7878078868763 L 397.5 300 L 397.5 285 L 276.53273395638877 206.7878078868763 Z" style="stroke: none; stroke-width: 1; stroke-dasharray: ; stroke-linecap: butt; stroke-linejoin: miter; stroke-miterlimit: 10;fill:#C6CC01;fill-opacity:1; fill-rule: nonzero; opacity: 1" transform="" stroke-linecap="round" />
<path d="M 397.5 285 L 228.70921768804172 290.57127267302354 A 169 112 0 0 1 276.53273395638877 206.7878078868763 L 397.5 285 Z" style="stroke:#FFFFFF;stroke-opacity:0; stroke-width: 1; stroke-dasharray: ; stroke-linecap: butt; stroke-linejoin: miter; stroke-miterlimit: 10;fill:#F8FF01;fill-opacity:1; fill-rule: nonzero; opacity: 1" transform="" stroke-linecap="round" />
<path d="M 240.5 245.5 L 221.5 241.5 L 213.5 241.5" style="stroke:#000000;stroke-opacity:0.2; stroke-width: 1; stroke-dasharray: ; stroke-linecap: butt; stroke-linejoin: miter; stroke-miterlimit: 10; fill: none; fill-rule: nonzero; opacity: 1" transform="" stroke-linecap="round" />
<path d="M 397.5 300 L 290.43958962702806 386.65977248499235 A 169 112 0 0 1 228.70921768804172 305.57127267302354 L 397.5 300 Z" style="stroke: none; stroke-width: 1; stroke-dasharray: ; stroke-linecap: butt; stroke-linejoin: miter; stroke-miterlimit: 10;fill:#CAA802;fill-opacity:1; fill-rule: nonzero; opacity: 1" transform=" matrix(1 0 0 1 0 0) " stroke-linecap="round" />
<path d="M 397.5 300 L 290.43958962702806 386.65977248499235 A 169 112 0 0 1 228.70921768804172 305.57127267302354 L 397.5 300 Z" style="stroke: none; stroke-width: 1; stroke-dasharray: ; stroke-linecap: butt; stroke-linejoin: miter; stroke-miterlimit: 10;fill:#CAA802;fill-opacity:1; fill-rule: nonzero; opacity: 1" transform=" matrix(1 0 0 1 0 -10) " stroke-linecap="round" />
<path d="M 397.5 285 L 397.5 300 L 290.43958962702806 386.65977248499235 L 290.43958962702806 371.65977248499235 L 397.5 285 Z" style="stroke: none; stroke-width: 1; stroke-dasharray: ; stroke-linecap: butt; stroke-linejoin: miter; stroke-miterlimit: 10;fill:#CAA802;fill-opacity:1; fill-rule: nonzero; opacity: 1" transform="" stroke-linecap="round" />
<path d="M 228.70921768804172 290.57127267302354 L 228.70921768804172 305.57127267302354 L 397.5 300 L 397.5 285 L 228.70921768804172 290.57127267302354 Z" style="stroke: none; stroke-width: 1; stroke-dasharray: ; stroke-linecap: butt; stroke-linejoin: miter; stroke-miterlimit: 10;fill:#CAA802;fill-opacity:1; fill-rule: nonzero; opacity: 1" transform="" stroke-linecap="round" />
<path d="M 397.5 285 L 290.43958962702806 371.65977248499235 A 169 112 0 0 1 228.70921768804172 290.57127267302354 L 397.5 285 Z" style="stroke:#FFFFFF;stroke-opacity:0; stroke-width: 1; stroke-dasharray: ; stroke-linecap: butt; stroke-linejoin: miter; stroke-miterlimit: 10;fill:#FCD202;fill-opacity:1; fill-rule: nonzero; opacity: 1" transform="" stroke-linecap="round" />
<path d="M 247.5 336.5 L 229.5 342.5 L 221.5 342.5" style="stroke:#000000;stroke-opacity:0.2; stroke-width: 1; stroke-dasharray: ; stroke-linecap: butt; stroke-linejoin: miter; stroke-miterlimit: 10; fill: none; fill-rule: nonzero; opacity: 1" transform="" stroke-linecap="round" />
<path d="M 397.5 300 L 397.5 188 A 169 112 0 0 1 554.3804390565315 341.6489356989439 L 397.5 300 Z" style="stroke: none; stroke-width: 1; stroke-dasharray: ; stroke-linecap: butt; stroke-linejoin: miter; stroke-miterlimit: 10;fill:#CC0C00;fill-opacity:1; fill-rule: nonzero; opacity: 1" transform=" matrix(1 0 0 1 0 0) " stroke-linecap="round" />
<path d="M 397.5 300 L 397.5 188 A 169 112 0 0 1 554.3804390565315 341.6489356989439 L 397.5 300 Z" style="stroke: none; stroke-width: 1; stroke-dasharray: ; stroke-linecap: butt; stroke-linejoin: miter; stroke-miterlimit: 10;fill:#CC0C00;fill-opacity:1; fill-rule: nonzero; opacity: 1" transform=" matrix(1 0 0 1 0 -10) " stroke-linecap="round" />
<path d="M 397.5 285 L 397.5 300 L 397.5 188 L 397.5 173 L 397.5 285 Z" style="stroke: none; stroke-width: 1; stroke-dasharray: ; stroke-linecap: butt; stroke-linejoin: miter; stroke-miterlimit: 10;fill:#CC0C00;fill-opacity:1; fill-rule: nonzero; opacity: 1" transform="" stroke-linecap="round" />
<path d="M 554.3804390565315 326.6489356989439 L 554.3804390565315 341.6489356989439 L 397.5 300 L 397.5 285 L 554.3804390565315 326.6489356989439 Z" style="stroke: none; stroke-width: 1; stroke-dasharray: ; stroke-linecap: butt; stroke-linejoin: miter; stroke-miterlimit: 10;fill:#CC0C00;fill-opacity:1; fill-rule: nonzero; opacity: 1" transform="" stroke-linecap="round" />
<path d="M 397.5 285 L 397.5 173 A 169 112 0 0 1 554.3804390565315 326.6489356989439 L 397.5 285 Z" style="stroke:#FFFFFF;stroke-opacity:0; stroke-width: 1; stroke-dasharray: ; stroke-linecap: butt; stroke-linejoin: miter; stroke-miterlimit: 10;fill:#FF0F00;fill-opacity:1; fill-rule: nonzero; opacity: 1" transform="" stroke-linecap="round" />
<path d="M 537.5 222.5 L 554.5 215.5 L 562.5 215.5" style="stroke:#000000;stroke-opacity:0.2; stroke-width: 1; stroke-dasharray: ; stroke-linecap: butt; stroke-linejoin: miter; stroke-miterlimit: 10; fill: none; fill-rule: nonzero; opacity: 1" transform="" stroke-linecap="round" />
<path d="M 397.5 300 L 554.3804390565315 341.6489356989439 A 169 112 0 0 1 430.03726231580197 409.90464184645487 L 397.5 300 Z" style="stroke: none; stroke-width: 1; stroke-dasharray: ; stroke-linecap: butt; stroke-linejoin: miter; stroke-miterlimit: 10;fill:#CC5200;fill-opacity:1; fill-rule: nonzero; opacity: 1" transform=" matrix(1 0 0 1 0 0) " stroke-linecap="round" />
<path d="M 397.5 300 L 554.3804390565315 341.6489356989439 A 169 112 0 0 1 430.03726231580197 409.90464184645487 L 397.5 300 Z" style="stroke: none; stroke-width: 1; stroke-dasharray: ; stroke-linecap: butt; stroke-linejoin: miter; stroke-miterlimit: 10;fill:#CC5200;fill-opacity:1; fill-rule: nonzero; opacity: 1" transform=" matrix(1 0 0 1 0 -10) " stroke-linecap="round" />
<path d="M 397.5 285 L 397.5 300 L 554.3804390565315 341.6489356989439 L 554.3804390565315 326.6489356989439 L 397.5 285 Z" style="stroke: none; stroke-width: 1; stroke-dasharray: ; stroke-linecap: butt; stroke-linejoin: miter; stroke-miterlimit: 10;fill:#CC5200;fill-opacity:1; fill-rule: nonzero; opacity: 1" transform="" stroke-linecap="round" />
<path d="M 430.03726231580197 394.90464184645487 L 430.03726231580197 409.90464184645487 L 397.5 300 L 397.5 285 L 430.03726231580197 394.90464184645487 Z" style="stroke: none; stroke-width: 1; stroke-dasharray: ; stroke-linecap: butt; stroke-linejoin: miter; stroke-miterlimit: 10;fill:#CC5200;fill-opacity:1; fill-rule: nonzero; opacity: 1" transform="" stroke-linecap="round" />
<path d="M 397.5 285 L 554.3804390565315 326.6489356989439 A 169 112 0 0 1 430.03726231580197 394.90464184645487 L 397.5 285 Z" style="stroke:#FFFFFF;stroke-opacity:0; stroke-width: 1; stroke-dasharray: ; stroke-linecap: butt; stroke-linejoin: miter; stroke-miterlimit: 10;fill:#FF6600;fill-opacity:1; fill-rule: nonzero; opacity: 1" transform="" stroke-linecap="round" />
<path d="M 505.5 372.5 L 518.5 382.5 L 526.5 382.5" style="stroke:#000000;stroke-opacity:0.2; stroke-width: 1; stroke-dasharray: ; stroke-linecap: butt; stroke-linejoin: miter; stroke-miterlimit: 10; fill: none; fill-rule: nonzero; opacity: 1" transform="" stroke-linecap="round" />
<path d="M 397.5 300 L 430.03726231580197 409.90464184645487 A 169 112 0 0 1 290.43958962702806 386.65977248499235 L 397.5 300 Z" style="stroke: none; stroke-width: 1; stroke-dasharray: ; stroke-linecap: butt; stroke-linejoin: miter; stroke-miterlimit: 10;fill:#CC7E01;fill-opacity:1; fill-rule: nonzero; opacity: 1" transform=" matrix(1 0 0 1 0 0) " stroke-linecap="round" />
<path d="M 397.5 300 L 430.03726231580197 409.90464184645487 A 169 112 0 0 1 290.43958962702806 386.65977248499235 L 397.5 300 Z" style="stroke: none; stroke-width: 1; stroke-dasharray: ; stroke-linecap: butt; stroke-linejoin: miter; stroke-miterlimit: 10;fill:#CC7E01;fill-opacity:1; fill-rule: nonzero; opacity: 1" transform=" matrix(1 0 0 1 0 -10) " stroke-linecap="round" />
<path d="M 397.5 285 L 397.5 300 L 430.03726231580197 409.90464184645487 L 430.03726231580197 394.90464184645487 L 397.5 285 Z" style="stroke: none; stroke-width: 1; stroke-dasharray: ; stroke-linecap: butt; stroke-linejoin: miter; stroke-miterlimit: 10;fill:#CC7E01;fill-opacity:1; fill-rule: nonzero; opacity: 1" transform="" stroke-linecap="round" />
<path d="M 290.43958962702806 371.65977248499235 L 290.43958962702806 386.65977248499235 L 397.5 300 L 397.5 285 L 290.43958962702806 371.65977248499235 Z" style="stroke: none; stroke-width: 1; stroke-dasharray: ; stroke-linecap: butt; stroke-linejoin: miter; stroke-miterlimit: 10;fill:#CC7E01;fill-opacity:1; fill-rule: nonzero; opacity: 1" transform="" stroke-linecap="round" />
<path d="M 397.5 285 L 430.03726231580197 394.90464184645487 A 169 112 0 0 1 290.43958962702806 371.65977248499235 L 397.5 285 Z" style="stroke:#FFFFFF;stroke-opacity:0; stroke-width: 1; stroke-dasharray: ; stroke-linecap: butt; stroke-linejoin: miter; stroke-miterlimit: 10;fill:#FF9E01;fill-opacity:1; fill-rule: nonzero; opacity: 1" transform="" stroke-linecap="round" />
<path d="M 356.5 394.5 L 352.5 407.5 L 344.5 407.5" style="stroke:#000000;stroke-opacity:0.2; stroke-width: 1; stroke-dasharray: ; stroke-linecap: butt; stroke-linejoin: miter; stroke-miterlimit: 10; fill: none; fill-rule: nonzero; opacity: 1" transform="" stroke-linecap="round" />
	<g transform=" matrix(1 0 0 1 566 215) ">
		<text font-family="Verdana" font-size="11" font-weight="normal" style="stroke: none; stroke-width: 1; stroke-dasharray: ; stroke-linecap: butt; stroke-linejoin: miter; stroke-miterlimit: 10;fill:#000000;fill-opacity:1; fill-rule: nonzero; opacity: 1" ><tspan x="0" y="5.9912" fill="rgba(0,0,0,1)">Russia: 31,06%</tspan></text>
	</g>
<rect x="0.5" y="0.5" rx="0" ry="0" width="95" height="18" style="stroke:#FFFFFF;stroke-opacity:0.005; stroke-width: 0; stroke-dasharray: ; stroke-linecap: butt; stroke-linejoin: miter; stroke-miterlimit: 10;fill:#FFFFFF;fill-opacity:0.005; fill-rule: nonzero; opacity: 1" transform=" matrix(1 0 0 1 566 210) "/>
	<g transform=" matrix(1 0 0 1 530 382) ">
		<text font-family="Verdana" font-size="11" font-weight="normal" style="stroke: none; stroke-width: 1; stroke-dasharray: ; stroke-linecap: butt; stroke-linejoin: miter; stroke-miterlimit: 10;fill:#000000;fill-opacity:1; fill-rule: nonzero; opacity: 1" ><tspan x="0" y="5.9912" fill="rgba(0,0,0,1)">Ireland: 15,85%</tspan></text>
	</g>
<rect x="0.5" y="0.5" rx="0" ry="0" width="99" height="18" style="stroke:#FFFFFF;stroke-opacity:0.005; stroke-width: 0; stroke-dasharray: ; stroke-linecap: butt; stroke-linejoin: miter; stroke-miterlimit: 10;fill:#FFFFFF;fill-opacity:0.005; fill-rule: nonzero; opacity: 1" transform=" matrix(1 0 0 1 530 377) "/>
	<g transform=" matrix(1 0 0 1 340 407) ">
		<text font-family="Verdana" font-size="11" font-weight="normal" style="stroke: none; stroke-width: 1; stroke-dasharray: ; stroke-linecap: butt; stroke-linejoin: miter; stroke-miterlimit: 10;fill:#000000;fill-opacity:1; fill-rule: nonzero; opacity: 1" ><tspan x="-106" y="5.9912" fill="rgba(0,0,0,1)">Germany: 14,00%</tspan></text>
	</g>
<rect x="0.5" y="0.5" rx="0" ry="0" width="111" height="18" style="stroke:#FFFFFF;stroke-opacity:0.005; stroke-width: 0; stroke-dasharray: ; stroke-linecap: butt; stroke-linejoin: miter; stroke-miterlimit: 10;fill:#FFFFFF;fill-opacity:0.005; fill-rule: nonzero; opacity: 1" transform=" matrix(1 0 0 1 234 402) "/>
	<g transform=" matrix(1 0 0 1 217 342) ">
		<text font-family="Verdana" font-size="11" font-weight="normal" style="stroke: none; stroke-width: 1; stroke-dasharray: ; stroke-linecap: butt; stroke-linejoin: miter; stroke-miterlimit: 10;fill:#000000;fill-opacity:1; fill-rule: nonzero; opacity: 1" ><tspan x="-103" y="5.9912" fill="rgba(0,0,0,1)">Australia: 13,29%</tspan></text>
	</g>
<rect x="0.5" y="0.5" rx="0" ry="0" width="108" height="18" style="stroke:#FFFFFF;stroke-opacity:0.005; stroke-width: 0; stroke-dasharray: ; stroke-linecap: butt; stroke-linejoin: miter; stroke-miterlimit: 10;fill:#FFFFFF;fill-opacity:0.005; fill-rule: nonzero; opacity: 1" transform=" matrix(1 0 0 1 114 337) "/>
	<g transform=" matrix(1 0 0 1 209 241) ">
		<text font-family="Verdana" font-size="11" font-weight="normal" style="stroke: none; stroke-width: 1; stroke-dasharray: ; stroke-linecap: butt; stroke-linejoin: miter; stroke-miterlimit: 10;fill:#000000;fill-opacity:1; fill-rule: nonzero; opacity: 1" ><tspan x="-93" y="5.9912" fill="rgba(0,0,0,1)">Austria: 13,10%</tspan></text>
	</g>
<rect x="0.5" y="0.5" rx="0" ry="0" width="98" height="18" style="stroke:#FFFFFF;stroke-opacity:0.005; stroke-width: 0; stroke-dasharray: ; stroke-linecap: butt; stroke-linejoin: miter; stroke-miterlimit: 10;fill:#FFFFFF;fill-opacity:0.005; fill-rule: nonzero; opacity: 1" transform=" matrix(1 0 0 1 116 236) "/>
	<g transform=" matrix(1 0 0 1 287 178) ">
		<text font-family="Verdana" font-size="11" font-weight="normal" style="stroke: none; stroke-width: 1; stroke-dasharray: ; stroke-linecap: butt; stroke-linejoin: miter; stroke-miterlimit: 10;fill:#000000;fill-opacity:1; fill-rule: nonzero; opacity: 1" ><tspan x="-62" y="5.9912" fill="rgba(0,0,0,1)">UK: 7,86%</tspan></text>
	</g>
<rect x="0.5" y="0.5" rx="0" ry="0" width="67" height="18" style="stroke:#FFFFFF;stroke-opacity:0.005; stroke-width: 0; stroke-dasharray: ; stroke-linecap: butt; stroke-linejoin: miter; stroke-miterlimit: 10;fill:#FFFFFF;fill-opacity:0.005; fill-rule: nonzero; opacity: 1" transform=" matrix(1 0 0 1 225 173) "/>
	<g transform=" matrix(1 0 0 1 357 161) ">
		<text font-family="Verdana" font-size="11" font-weight="normal" style="stroke: none; stroke-width: 1; stroke-dasharray: ; stroke-linecap: butt; stroke-linejoin: miter; stroke-miterlimit: 10;fill:#000000;fill-opacity:1; fill-rule: nonzero; opacity: 1" ><tspan x="-92" y="5.9912" fill="rgba(0,0,0,1)">Belgium: 4,84%</tspan></text>
	</g>
<rect x="0.5" y="0.5" rx="0" ry="0" width="97" height="18" style="stroke:#FFFFFF;stroke-opacity:0.005; stroke-width: 0; stroke-dasharray: ; stroke-linecap: butt; stroke-linejoin: miter; stroke-miterlimit: 10;fill:#FFFFFF;fill-opacity:0.005; fill-rule: nonzero; opacity: 1" transform=" matrix(1 0 0 1 265 156) "/>
</g>
	<g transform="translate(66.5 12.21)">
		<text font-family="Verdana" font-size="11" font-weight="normal" style="stroke: none; stroke-width: 1; stroke-dasharray: ; stroke-linecap: butt; stroke-linejoin: miter; stroke-miterlimit: 10;fill:#000000;fill-opacity:1; fill-rule: nonzero; opacity: 1" ><tspan x="-61.5" y="2.4706" fill="rgb(0, 0, 0)">JS chart by amCharts</tspan></text>
	</g>
<g style="stroke: none; stroke-width: 1; stroke-dasharray: ; stroke-linecap: butt; stroke-linejoin: miter; stroke-miterlimit: 10; fill: none; fill-rule: nonzero; opacity: 1" transform="translate(795 182)" >
<path d="M 0.5 0.5 L 129.5 0.5 L 129.5 205.5 L 0.5 205.5 Z" style="stroke:#000000;stroke-opacity:0; stroke-width: 1; stroke-dasharray: ; stroke-linecap: butt; stroke-linejoin: miter; stroke-miterlimit: 10;fill:#FFFFFF;fill-opacity:0; fill-rule: nonzero; opacity: 1" transform=" matrix(1 0 0 1 20 0) " stroke-linecap="round" />
<circle cx="0" cy="0" r="8" style="stroke:#FF0F00;stroke-opacity:1; stroke-width: 1; stroke-dasharray: ; stroke-linecap: butt; stroke-linejoin: miter; stroke-miterlimit: 10;fill:#FF0F00;fill-opacity:1; fill-rule: nonzero; opacity: 1" transform="  matrix(1 0 0 1 28 19) "/>
<path d="M -5.5 -5.5 L 6.5 6.5" style="stroke: #FFFFFF; stroke-width: 3; stroke-dasharray: ; stroke-linecap: butt; stroke-linejoin: miter; stroke-miterlimit: 10; fill: none; fill-rule: nonzero; opacity: 0" transform=" matrix(1 0 0 1 28 19) " stroke-linecap="round" />
<path d="M -5.5 6.5 L 6.5 -5.5" style="stroke: #FFFFFF; stroke-width: 3; stroke-dasharray: ; stroke-linecap: butt; stroke-linejoin: miter; stroke-miterlimit: 10; fill: none; fill-rule: nonzero; opacity: 0" transform=" matrix(1 0 0 1 28 19) " stroke-linecap="round" />
	<g transform=" matrix(1 0 0 1 41 18) ">
		<text font-family="Verdana" font-size="11" font-weight="normal" style="stroke: none; stroke-width: 1; stroke-dasharray: ; stroke-linecap: butt; stroke-linejoin: miter; stroke-miterlimit: 10;fill:#000000;fill-opacity:1; fill-rule: nonzero; opacity: 1" ><tspan x="0" y="5.9912" fill="rgba(0,0,0,1)">Russia</tspan></text>
	</g>
	<g transform=" matrix(1 0 0 1 149 18) ">
		<text font-family="Verdana" font-size="11" font-weight="normal" style="stroke: none; stroke-width: 1; stroke-dasharray: ; stroke-linecap: butt; stroke-linejoin: miter; stroke-miterlimit: 10;fill:#000000;fill-opacity:1; fill-rule: nonzero; opacity: 1" ><tspan x="-32" y="5.9912" fill="rgba(0,0,0,1)">256,9</tspan></text>
	</g>
<rect x="16" y="0" rx="0" ry="0" width="113" height="18" style="stroke: none; stroke-width: 0; stroke-dasharray: ; stroke-linecap: butt; stroke-linejoin: miter; stroke-miterlimit: 10;fill:#FFFFFF;fill-opacity:0.005; fill-rule: nonzero; opacity: 1" transform=" matrix(1 0 0 1 20 11) "/>
<circle cx="0" cy="0" r="8" style="stroke:#FF6600;stroke-opacity:1; stroke-width: 1; stroke-dasharray: ; stroke-linecap: butt; stroke-linejoin: miter; stroke-miterlimit: 10;fill:#FF6600;fill-opacity:1; fill-rule: nonzero; opacity: 1" transform="  matrix(1 0 0 1 28 47) "/>
<path d="M -5.5 -5.5 L 6.5 6.5" style="stroke: #FFFFFF; stroke-width: 3; stroke-dasharray: ; stroke-linecap: butt; stroke-linejoin: miter; stroke-miterlimit: 10; fill: none; fill-rule: nonzero; opacity: 0" transform=" matrix(1 0 0 1 28 47) " stroke-linecap="round" />
<path d="M -5.5 6.5 L 6.5 -5.5" style="stroke: #FFFFFF; stroke-width: 3; stroke-dasharray: ; stroke-linecap: butt; stroke-linejoin: miter; stroke-miterlimit: 10; fill: none; fill-rule: nonzero; opacity: 0" transform=" matrix(1 0 0 1 28 47) " stroke-linecap="round" />
	<g transform=" matrix(1 0 0 1 41 46) ">
		<text font-family="Verdana" font-size="11" font-weight="normal" style="stroke: none; stroke-width: 1; stroke-dasharray: ; stroke-linecap: butt; stroke-linejoin: miter; stroke-miterlimit: 10;fill:#000000;fill-opacity:1; fill-rule: nonzero; opacity: 1" ><tspan x="0" y="5.9912" fill="rgba(0,0,0,1)">Ireland</tspan></text>
	</g>
	<g transform=" matrix(1 0 0 1 149 46) ">
		<text font-family="Verdana" font-size="11" font-weight="normal" style="stroke: none; stroke-width: 1; stroke-dasharray: ; stroke-linecap: butt; stroke-linejoin: miter; stroke-miterlimit: 10;fill:#000000;fill-opacity:1; fill-rule: nonzero; opacity: 1" ><tspan x="-32" y="5.9912" fill="rgba(0,0,0,1)">131,1</tspan></text>
	</g>
<rect x="16" y="0" rx="0" ry="0" width="113" height="18" style="stroke: none; stroke-width: 0; stroke-dasharray: ; stroke-linecap: butt; stroke-linejoin: miter; stroke-miterlimit: 10;fill:#FFFFFF;fill-opacity:0.005; fill-rule: nonzero; opacity: 1" transform=" matrix(1 0 0 1 20 39) "/>
<circle cx="0" cy="0" r="8" style="stroke:#FF9E01;stroke-opacity:1; stroke-width: 1; stroke-dasharray: ; stroke-linecap: butt; stroke-linejoin: miter; stroke-miterlimit: 10;fill:#FF9E01;fill-opacity:1; fill-rule: nonzero; opacity: 1" transform="  matrix(1 0 0 1 28 75) "/>
<path d="M -5.5 -5.5 L 6.5 6.5" style="stroke: #FFFFFF; stroke-width: 3; stroke-dasharray: ; stroke-linecap: butt; stroke-linejoin: miter; stroke-miterlimit: 10; fill: none; fill-rule: nonzero; opacity: 0" transform=" matrix(1 0 0 1 28 75) " stroke-linecap="round" />
<path d="M -5.5 6.5 L 6.5 -5.5" style="stroke: #FFFFFF; stroke-width: 3; stroke-dasharray: ; stroke-linecap: butt; stroke-linejoin: miter; stroke-miterlimit: 10; fill: none; fill-rule: nonzero; opacity: 0" transform=" matrix(1 0 0 1 28 75) " stroke-linecap="round" />
	<g transform=" matrix(1 0 0 1 41 74) ">
		<text font-family="Verdana" font-size="11" font-weight="normal" style="stroke: none; stroke-width: 1; stroke-dasharray: ; stroke-linecap: butt; stroke-linejoin: miter; stroke-miterlimit: 10;fill:#000000;fill-opacity:1; fill-rule: nonzero; opacity: 1" ><tspan x="0" y="5.9912" fill="rgba(0,0,0,1)">Germany</tspan></text>
	</g>
	<g transform=" matrix(1 0 0 1 149 74) ">
		<text font-family="Verdana" font-size="11" font-weight="normal" style="stroke: none; stroke-width: 1; stroke-dasharray: ; stroke-linecap: butt; stroke-linejoin: miter; stroke-miterlimit: 10;fill:#000000;fill-opacity:1; fill-rule: nonzero; opacity: 1" ><tspan x="-32" y="5.9912" fill="rgba(0,0,0,1)">115,8</tspan></text>
	</g>
<rect x="16" y="0" rx="0" ry="0" width="113" height="18" style="stroke: none; stroke-width: 0; stroke-dasharray: ; stroke-linecap: butt; stroke-linejoin: miter; stroke-miterlimit: 10;fill:#FFFFFF;fill-opacity:0.005; fill-rule: nonzero; opacity: 1" transform=" matrix(1 0 0 1 20 67) "/>
<circle cx="0" cy="0" r="8" style="stroke:#FCD202;stroke-opacity:1; stroke-width: 1; stroke-dasharray: ; stroke-linecap: butt; stroke-linejoin: miter; stroke-miterlimit: 10;fill:#FCD202;fill-opacity:1; fill-rule: nonzero; opacity: 1" transform="  matrix(1 0 0 1 28 103) "/>
<path d="M -5.5 -5.5 L 6.5 6.5" style="stroke: #FFFFFF; stroke-width: 3; stroke-dasharray: ; stroke-linecap: butt; stroke-linejoin: miter; stroke-miterlimit: 10; fill: none; fill-rule: nonzero; opacity: 0" transform=" matrix(1 0 0 1 28 103) " stroke-linecap="round" />
<path d="M -5.5 6.5 L 6.5 -5.5" style="stroke: #FFFFFF; stroke-width: 3; stroke-dasharray: ; stroke-linecap: butt; stroke-linejoin: miter; stroke-miterlimit: 10; fill: none; fill-rule: nonzero; opacity: 0" transform=" matrix(1 0 0 1 28 103) " stroke-linecap="round" />
	<g transform=" matrix(1 0 0 1 41 102) ">
		<text font-family="Verdana" font-size="11" font-weight="normal" style="stroke: none; stroke-width: 1; stroke-dasharray: ; stroke-linecap: butt; stroke-linejoin: miter; stroke-miterlimit: 10;fill:#000000;fill-opacity:1; fill-rule: nonzero; opacity: 1" ><tspan x="0" y="5.9912" fill="rgba(0,0,0,1)">Australia</tspan></text>
	</g>
	<g transform=" matrix(1 0 0 1 149 102) ">
		<text font-family="Verdana" font-size="11" font-weight="normal" style="stroke: none; stroke-width: 1; stroke-dasharray: ; stroke-linecap: butt; stroke-linejoin: miter; stroke-miterlimit: 10;fill:#000000;fill-opacity:1; fill-rule: nonzero; opacity: 1" ><tspan x="-32" y="5.9912" fill="rgba(0,0,0,1)">109,9</tspan></text>
	</g>
<rect x="16" y="0" rx="0" ry="0" width="113" height="18" style="stroke: none; stroke-width: 0; stroke-dasharray: ; stroke-linecap: butt; stroke-linejoin: miter; stroke-miterlimit: 10;fill:#FFFFFF;fill-opacity:0.005; fill-rule: nonzero; opacity: 1" transform=" matrix(1 0 0 1 20 95) "/>
<circle cx="0" cy="0" r="8" style="stroke:#F8FF01;stroke-opacity:1; stroke-width: 1; stroke-dasharray: ; stroke-linecap: butt; stroke-linejoin: miter; stroke-miterlimit: 10;fill:#F8FF01;fill-opacity:1; fill-rule: nonzero; opacity: 1" transform="  matrix(1 0 0 1 28 131) "/>
<path d="M -5.5 -5.5 L 6.5 6.5" style="stroke: #FFFFFF; stroke-width: 3; stroke-dasharray: ; stroke-linecap: butt; stroke-linejoin: miter; stroke-miterlimit: 10; fill: none; fill-rule: nonzero; opacity: 0" transform=" matrix(1 0 0 1 28 131) " stroke-linecap="round" />
<path d="M -5.5 6.5 L 6.5 -5.5" style="stroke: #FFFFFF; stroke-width: 3; stroke-dasharray: ; stroke-linecap: butt; stroke-linejoin: miter; stroke-miterlimit: 10; fill: none; fill-rule: nonzero; opacity: 0" transform=" matrix(1 0 0 1 28 131) " stroke-linecap="round" />
	<g transform=" matrix(1 0 0 1 41 130) ">
		<text font-family="Verdana" font-size="11" font-weight="normal" style="stroke: none; stroke-width: 1; stroke-dasharray: ; stroke-linecap: butt; stroke-linejoin: miter; stroke-miterlimit: 10;fill:#000000;fill-opacity:1; fill-rule: nonzero; opacity: 1" ><tspan x="0" y="5.9912" fill="rgba(0,0,0,1)">Austria</tspan></text>
	</g>
	<g transform=" matrix(1 0 0 1 149 130) ">
		<text font-family="Verdana" font-size="11" font-weight="normal" style="stroke: none; stroke-width: 1; stroke-dasharray: ; stroke-linecap: butt; stroke-linejoin: miter; stroke-miterlimit: 10;fill:#000000;fill-opacity:1; fill-rule: nonzero; opacity: 1" ><tspan x="-32" y="5.9912" fill="rgba(0,0,0,1)">108,3</tspan></text>
	</g>
<rect x="16" y="0" rx="0" ry="0" width="113" height="18" style="stroke: none; stroke-width: 0; stroke-dasharray: ; stroke-linecap: butt; stroke-linejoin: miter; stroke-miterlimit: 10;fill:#FFFFFF;fill-opacity:0.005; fill-rule: nonzero; opacity: 1" transform=" matrix(1 0 0 1 20 123) "/>
<circle cx="0" cy="0" r="8" style="stroke:#B0DE09;stroke-opacity:1; stroke-width: 1; stroke-dasharray: ; stroke-linecap: butt; stroke-linejoin: miter; stroke-miterlimit: 10;fill:#B0DE09;fill-opacity:1; fill-rule: nonzero; opacity: 1" transform="  matrix(1 0 0 1 28 159) "/>
<path d="M -5.5 -5.5 L 6.5 6.5" style="stroke: #FFFFFF; stroke-width: 3; stroke-dasharray: ; stroke-linecap: butt; stroke-linejoin: miter; stroke-miterlimit: 10; fill: none; fill-rule: nonzero; opacity: 0" transform=" matrix(1 0 0 1 28 159) " stroke-linecap="round" />
<path d="M -5.5 6.5 L 6.5 -5.5" style="stroke: #FFFFFF; stroke-width: 3; stroke-dasharray: ; stroke-linecap: butt; stroke-linejoin: miter; stroke-miterlimit: 10; fill: none; fill-rule: nonzero; opacity: 0" transform=" matrix(1 0 0 1 28 159) " stroke-linecap="round" />
	<g transform=" matrix(1 0 0 1 41 158) ">
		<text font-family="Verdana" font-size="11" font-weight="normal" style="stroke: none; stroke-width: 1; stroke-dasharray: ; stroke-linecap: butt; stroke-linejoin: miter; stroke-miterlimit: 10;fill:#000000;fill-opacity:1; fill-rule: nonzero; opacity: 1" ><tspan x="0" y="5.9912" fill="rgba(0,0,0,1)">UK</tspan></text>
	</g>
	<g transform=" matrix(1 0 0 1 149 158) ">
		<text font-family="Verdana" font-size="11" font-weight="normal" style="stroke: none; stroke-width: 1; stroke-dasharray: ; stroke-linecap: butt; stroke-linejoin: miter; stroke-miterlimit: 10;fill:#000000;fill-opacity:1; fill-rule: nonzero; opacity: 1" ><tspan x="-14" y="5.9912" fill="rgba(0,0,0,1)">65</tspan></text>
	</g>
<rect x="16" y="0" rx="0" ry="0" width="113" height="18" style="stroke: none; stroke-width: 0; stroke-dasharray: ; stroke-linecap: butt; stroke-linejoin: miter; stroke-miterlimit: 10;fill:#FFFFFF;fill-opacity:0.005; fill-rule: nonzero; opacity: 1" transform=" matrix(1 0 0 1 20 151) "/>
<circle cx="0" cy="0" r="8" style="stroke:#04D215;stroke-opacity:1; stroke-width: 1; stroke-dasharray: ; stroke-linecap: butt; stroke-linejoin: miter; stroke-miterlimit: 10;fill:#04D215;fill-opacity:1; fill-rule: nonzero; opacity: 1" transform="  matrix(1 0 0 1 28 187) "/>
<path d="M -5.5 -5.5 L 6.5 6.5" style="stroke: #FFFFFF; stroke-width: 3; stroke-dasharray: ; stroke-linecap: butt; stroke-linejoin: miter; stroke-miterlimit: 10; fill: none; fill-rule: nonzero; opacity: 0" transform=" matrix(1 0 0 1 28 187) " stroke-linecap="round" />
<path d="M -5.5 6.5 L 6.5 -5.5" style="stroke: #FFFFFF; stroke-width: 3; stroke-dasharray: ; stroke-linecap: butt; stroke-linejoin: miter; stroke-miterlimit: 10; fill: none; fill-rule: nonzero; opacity: 0" transform=" matrix(1 0 0 1 28 187) " stroke-linecap="round" />
	<g transform=" matrix(1 0 0 1 41 186) ">
		<text font-family="Verdana" font-size="11" font-weight="normal" style="stroke: none; stroke-width: 1; stroke-dasharray: ; stroke-linecap: butt; stroke-linejoin: miter; stroke-miterlimit: 10;fill:#000000;fill-opacity:1; fill-rule: nonzero; opacity: 1" ><tspan x="0" y="5.9912" fill="rgba(0,0,0,1)">Belgium</tspan></text>
	</g>
	<g transform=" matrix(1 0 0 1 149 186) ">
		<text font-family="Verdana" font-size="11" font-weight="normal" style="stroke: none; stroke-width: 1; stroke-dasharray: ; stroke-linecap: butt; stroke-linejoin: miter; stroke-miterlimit: 10;fill:#000000;fill-opacity:1; fill-rule: nonzero; opacity: 1" ><tspan x="-14" y="5.9912" fill="rgba(0,0,0,1)">40</tspan></text>
	</g>
<rect x="16" y="0" rx="0" ry="0" width="113" height="18" style="stroke: none; stroke-width: 0; stroke-dasharray: ; stroke-linecap: butt; stroke-linejoin: miter; stroke-miterlimit: 10;fill:#FFFFFF;fill-opacity:0.005; fill-rule: nonzero; opacity: 1" transform=" matrix(1 0 0 1 20 179) "/>
</g>
</svg>