<?xml version="1.0" encoding="UTF-8" standalone="no" ?><!DOCTYPE svg PUBLIC "-//W3C//DTD SVG 1.1//EN" "http://www.w3.org/Graphics/SVG/1.1/DTD/svg11.dtd">
<svg xmlns="http://www.w3.org/2000/svg" xmlns:xlink="http://www.w3.org/1999/xlink" version="1.1" width="1024" height="570" style="background-color: #FFFFFF" xml:space="preserve"><desc>Created with Fabric.js 1.5.0</desc><defs></defs><g style="stroke: none; stroke-width: 1; stroke-dasharray: ; stroke-linecap: butt; stroke-linejoin: miter; stroke-miterlimit: 10; fill: none; fill-rule: nonzero; opacity: 1" transform="translate(0 0)" >
<path d="M 0.5 0.5 L 1023.5 0.5 L 1023.5 569.5 L 0.5 569.5 Z" style="stroke:#000000;stroke-opacity:0; stroke-width: 1; stroke-dasharray: ; stroke-linecap: butt; stroke-linejoin: miter; stroke-miterlimit: 10;fill:#FFFFFF;fill-opacity:0; fill-rule: nonzero; opacity: 1" transform="" stroke-linecap="round" />
<path d="M 512.5 285.5 L 512.5 86.5" style="stroke:#000000;stroke-opacity:0.2; stroke-width: 1; stroke-dasharray: ; stroke-linecap: butt; stroke-linejoin: miter; stroke-miterlimit: 10; fill: none; fill-rule: nonzero; opacity: 1" transform="" stroke-linecap="round" />
	<g transform=" matrix(1 0 0 1 512 71) ">
		<text font-family="Verdana" font-size="11" font-weight="normal" style="stroke: none; stroke-width: 1; stroke-dasharray: ; stroke-linecap: butt; stroke-linejoin: miter; stroke-miterlimit: 10;fill:#000000;fill-opacity:1; fill-rule: nonzero; opacity: 1" ><tspan x="-4" y="5.9912" fill="rgba(0,0,0,1)">N</tspan></text>
	</g>
<path d="M 512.5 285.5 L 653.5 144.5" style="stroke:#000000;stroke-opacity:0.2; stroke-width: 1; stroke-dasharray: ; stroke-linecap: butt; stroke-linejoin: miter; stroke-miterlimit: 10; fill: none; fill-rule: nonzero; opacity: 1" transform="" stroke-linecap="round" />
	<g transform=" matrix(1 0 0 1 665 137) ">
		<text font-family="Verdana" font-size="11" font-weight="normal" style="stroke: none; stroke-width: 1; stroke-dasharray: ; stroke-linecap: butt; stroke-linejoin: miter; stroke-miterlimit: 10;fill:#000000;fill-opacity:1; fill-rule: nonzero; opacity: 1" ><tspan x="0" y="5.9912" fill="rgba(0,0,0,1)">NE</tspan></text>
	</g>
<path d="M 512.5 285.5 L 712.5 285.5" style="stroke:#000000;stroke-opacity:0.2; stroke-width: 1; stroke-dasharray: ; stroke-linecap: butt; stroke-linejoin: miter; stroke-miterlimit: 10; fill: none; fill-rule: nonzero; opacity: 1" transform="" stroke-linecap="round" />
	<g transform=" matrix(1 0 0 1 727 285) ">
		<text font-family="Verdana" font-size="11" font-weight="normal" style="stroke: none; stroke-width: 1; stroke-dasharray: ; stroke-linecap: butt; stroke-linejoin: miter; stroke-miterlimit: 10;fill:#000000;fill-opacity:1; fill-rule: nonzero; opacity: 1" ><tspan x="0" y="5.9912" fill="rgba(0,0,0,1)">E</tspan></text>
	</g>
<path d="M 512.5 285.5 L 653.5 426.5" style="stroke:#000000;stroke-opacity:0.2; stroke-width: 1; stroke-dasharray: ; stroke-linecap: butt; stroke-linejoin: miter; stroke-miterlimit: 10; fill: none; fill-rule: nonzero; opacity: 1" transform="" stroke-linecap="round" />
	<g transform=" matrix(1 0 0 1 665 433) ">
		<text font-family="Verdana" font-size="11" font-weight="normal" style="stroke: none; stroke-width: 1; stroke-dasharray: ; stroke-linecap: butt; stroke-linejoin: miter; stroke-miterlimit: 10;fill:#000000;fill-opacity:1; fill-rule: nonzero; opacity: 1" ><tspan x="0" y="5.9912" fill="rgba(0,0,0,1)">SE</tspan></text>
	</g>
<path d="M 512.5 285.5 L 512.5 485.5" style="stroke:#000000;stroke-opacity:0.2; stroke-width: 1; stroke-dasharray: ; stroke-linecap: butt; stroke-linejoin: miter; stroke-miterlimit: 10; fill: none; fill-rule: nonzero; opacity: 1" transform="" stroke-linecap="round" />
	<g transform=" matrix(1 0 0 1 512 500) ">
		<text font-family="Verdana" font-size="11" font-weight="normal" style="stroke: none; stroke-width: 1; stroke-dasharray: ; stroke-linecap: butt; stroke-linejoin: miter; stroke-miterlimit: 10;fill:#000000;fill-opacity:1; fill-rule: nonzero; opacity: 1" ><tspan x="-4" y="5.9912" fill="rgba(0,0,0,1)">S</tspan></text>
	</g>
<path d="M 512.5 285.5 L 371.5 426.5" style="stroke:#000000;stroke-opacity:0.2; stroke-width: 1; stroke-dasharray: ; stroke-linecap: butt; stroke-linejoin: miter; stroke-miterlimit: 10; fill: none; fill-rule: nonzero; opacity: 1" transform="" stroke-linecap="round" />
	<g transform=" matrix(1 0 0 1 359 433) ">
		<text font-family="Verdana" font-size="11" font-weight="normal" style="stroke: none; stroke-width: 1; stroke-dasharray: ; stroke-linecap: butt; stroke-linejoin: miter; stroke-miterlimit: 10;fill:#000000;fill-opacity:1; fill-rule: nonzero; opacity: 1" ><tspan x="-19" y="5.9912" fill="rgba(0,0,0,1)">SW</tspan></text>
	</g>
<path d="M 512.5 285.5 L 313.5 285.5" style="stroke:#000000;stroke-opacity:0.2; stroke-width: 1; stroke-dasharray: ; stroke-linecap: butt; stroke-linejoin: miter; stroke-miterlimit: 10; fill: none; fill-rule: nonzero; opacity: 1" transform="" stroke-linecap="round" />
	<g transform=" matrix(1 0 0 1 298 285) ">
		<text font-family="Verdana" font-size="11" font-weight="normal" style="stroke: none; stroke-width: 1; stroke-dasharray: ; stroke-linecap: butt; stroke-linejoin: miter; stroke-miterlimit: 10;fill:#000000;fill-opacity:1; fill-rule: nonzero; opacity: 1" ><tspan x="-11" y="5.9912" fill="rgba(0,0,0,1)">W</tspan></text>
	</g>
<path d="M 512.5 285.5 L 371.5 144.5" style="stroke:#000000;stroke-opacity:0.2; stroke-width: 1; stroke-dasharray: ; stroke-linecap: butt; stroke-linejoin: miter; stroke-miterlimit: 10; fill: none; fill-rule: nonzero; opacity: 1" transform="" stroke-linecap="round" />
	<g transform=" matrix(1 0 0 1 359 137) ">
		<text font-family="Verdana" font-size="11" font-weight="normal" style="stroke: none; stroke-width: 1; stroke-dasharray: ; stroke-linecap: butt; stroke-linejoin: miter; stroke-miterlimit: 10;fill:#000000;fill-opacity:1; fill-rule: nonzero; opacity: 1" ><tspan x="-19" y="5.9912" fill="rgba(0,0,0,1)">NW</tspan></text>
	</g>
<path d="M 512.5 99.5 L 512.5 99.5" style="stroke:#000000;stroke-opacity:0.2; stroke-width: 1; stroke-dasharray: ; stroke-linecap: butt; stroke-linejoin: miter; stroke-miterlimit: 10; fill: none; fill-rule: nonzero; opacity: 1" transform="" stroke-linecap="round" />
<path d="M 512.5 286.5 L 512.5 286.5" style="stroke:#000000;stroke-opacity:0.2; stroke-width: 1; stroke-dasharray: ; stroke-linecap: butt; stroke-linejoin: miter; stroke-miterlimit: 10; fill: none; fill-rule: nonzero; opacity: 1" transform="" stroke-linecap="round" />
<path d="M -0.2588190451025207 -0.9659258262890683 L -48.39916143417137 -180.62812951605576 A 187 187 0 0 1 132.22896808188435 -132.2289680818844 L 0.7071067811865474 -0.7071067811865477 A 1 1 0 0 0 -0.2588190451025207 -0.9659258262890683 Z" style="stroke:#000000;stroke-opacity:0; stroke-width: 1; stroke-dasharray: ; stroke-linecap: butt; stroke-linejoin: miter; stroke-miterlimit: 10;fill:#0066CC;fill-opacity:0.3; fill-rule: nonzero; opacity: 1" transform=" matrix(1 0 0 1 512 285) " stroke-linecap="round" />
<path d="M 512.5 99.5 L 512.5 99.5" style="stroke:#000000;stroke-opacity:0.2; stroke-width: 1; stroke-dasharray: ; stroke-linecap: butt; stroke-linejoin: miter; stroke-miterlimit: 10; fill: none; fill-rule: nonzero; opacity: 1" transform="" stroke-linecap="round" />
<path d="M 512.5 286.5 L 512.5 286.5" style="stroke:#000000;stroke-opacity:0.2; stroke-width: 1; stroke-dasharray: ; stroke-linecap: butt; stroke-linejoin: miter; stroke-miterlimit: 10; fill: none; fill-rule: nonzero; opacity: 1" transform="" stroke-linecap="round" />
<path d="M 0.7071067811865476 0.7071067811865475 L 132.2289680818844 132.22896808188437 A 187 187 0 0 1 -132.22896808188437 132.2289680818844 L -0.7071067811865475 0.7071067811865477 A 1 1 0 0 0 0.7071067811865476 0.7071067811865475 Z" style="stroke:#000000;stroke-opacity:0; stroke-width: 1; stroke-dasharray: ; stroke-linecap: butt; stroke-linejoin: miter; stroke-miterlimit: 10;fill:#CC3333;fill-opacity:0.3; fill-rule: nonzero; opacity: 1" transform=" matrix(1 0 0 1 512 285) " stroke-linecap="round" />
<path d="M 512.5 286.5 L 507.5 286.5" style="stroke:#000000;stroke-opacity:0.2; stroke-width: 1; stroke-dasharray: ; stroke-linecap: butt; stroke-linejoin: miter; stroke-miterlimit: 10; fill: none; fill-rule: nonzero; opacity: 1" transform="" stroke-linecap="round" />
<circle cx="0" cy="0" r="0.001" style="stroke:#000000;stroke-opacity:0.08; stroke-width: 1; stroke-dasharray: ; stroke-linecap: butt; stroke-linejoin: miter; stroke-miterlimit: 10;fill:#FFFFFF;fill-opacity:0; fill-rule: nonzero; opacity: 1" transform="  matrix(1 0 0 1 512 285) "/>
<path d="M 512.5 219.5 L 507.5 219.5" style="stroke:#000000;stroke-opacity:0.2; stroke-width: 1; stroke-dasharray: ; stroke-linecap: butt; stroke-linejoin: miter; stroke-miterlimit: 10; fill: none; fill-rule: nonzero; opacity: 1" transform="" stroke-linecap="round" />
<circle cx="0" cy="0" r="67" style="stroke:#000000;stroke-opacity:0.08; stroke-width: 1; stroke-dasharray: ; stroke-linecap: butt; stroke-linejoin: miter; stroke-miterlimit: 10;fill:#FFFFFF;fill-opacity:0; fill-rule: nonzero; opacity: 1" transform="  matrix(1 0 0 1 512 285) "/>
<path d="M 0 0 L 0 -67 A 67 67 0 1 1 -0.07016222310660122 -66.99996326314253 L 0 0 Z" style="stroke:#000000;stroke-opacity:0; stroke-width: 1; stroke-dasharray: ; stroke-linecap: butt; stroke-linejoin: miter; stroke-miterlimit: 10;fill:#FFFFFF;fill-opacity:0.05; fill-rule: nonzero; opacity: 1" transform=" matrix(1 0 0 1 512 285) " stroke-linecap="round" />
<path d="M 512.5 153.5 L 507.5 153.5" style="stroke:#000000;stroke-opacity:0.2; stroke-width: 1; stroke-dasharray: ; stroke-linecap: butt; stroke-linejoin: miter; stroke-miterlimit: 10; fill: none; fill-rule: nonzero; opacity: 1" transform="" stroke-linecap="round" />
<circle cx="0" cy="0" r="133" style="stroke:#000000;stroke-opacity:0.08; stroke-width: 1; stroke-dasharray: ; stroke-linecap: butt; stroke-linejoin: miter; stroke-miterlimit: 10;fill:#FFFFFF;fill-opacity:0; fill-rule: nonzero; opacity: 1" transform="  matrix(1 0 0 1 512 285) "/>
<path d="M 512.5 86.5 L 507.5 86.5" style="stroke:#000000;stroke-opacity:0.2; stroke-width: 1; stroke-dasharray: ; stroke-linecap: butt; stroke-linejoin: miter; stroke-miterlimit: 10; fill: none; fill-rule: nonzero; opacity: 1" transform="" stroke-linecap="round" />
<circle cx="0" cy="0" r="200" style="stroke:#000000;stroke-opacity:0.08; stroke-width: 1; stroke-dasharray: ; stroke-linecap: butt; stroke-linejoin: miter; stroke-miterlimit: 10;fill:#FFFFFF;fill-opacity:0; fill-rule: nonzero; opacity: 1" transform="  matrix(1 0 0 1 512 285) "/>
<path d="M 0 -133 L 0 -200 A 200 200 0 1 1 -0.20943947196000365 -199.99989033773892 L -0.13927724885340242 -132.99992707459637 A 133 133 0 1 0 0 -133 Z" style="stroke:#000000;stroke-opacity:0; stroke-width: 1; stroke-dasharray: ; stroke-linecap: butt; stroke-linejoin: miter; stroke-miterlimit: 10;fill:#FFFFFF;fill-opacity:0.05; fill-rule: nonzero; opacity: 1" transform=" matrix(1 0 0 1 512 285) " stroke-linecap="round" />
<path d="M 0.5 -105.5 L 84.5 -83.5 L 60.5 0.5 L 33.5 33.5 L 0.5 123.5 L -78.5 79.5 L -146.5 0.5 L -93.5 -93.5 L 0.5 -105.5 M 0 0 L 0 0" style="stroke:#FF6600;stroke-opacity:1; stroke-width: 1; stroke-dasharray: ; stroke-linecap: butt; stroke-linejoin: miter; stroke-miterlimit: 10; fill: none; fill-rule: nonzero; opacity: 1" transform=" matrix(1 0 0 1 512 285) " stroke-linecap="round" />
<path d="M 0.5 -105.5 L 84.5 -83.5 L 60.5 0.5 L 33.5 33.5 L 0.5 123.5 L -78.5 79.5 L -146.5 0.5 L -93.5 -93.5 L 0.5 -105.5 L 0.5 0.5 Z" style="stroke:#000000;stroke-opacity:0; stroke-width: 1; stroke-dasharray: ; stroke-linecap: butt; stroke-linejoin: miter; stroke-miterlimit: 10;fill:#FF6600;fill-opacity:0.3; fill-rule: nonzero; opacity: 1" transform=" matrix(1 0 0 1 512 285) " stroke-linecap="round" />
<circle cx="0" cy="0" r="4" style="stroke:#FF6600;stroke-opacity:0; stroke-width: 2; stroke-dasharray: ; stroke-linecap: butt; stroke-linejoin: miter; stroke-miterlimit: 10;fill:#FF6600;fill-opacity:1; fill-rule: nonzero; opacity: 1" transform="  matrix(1 0 0 1 512 179) "/>
<circle cx="0" cy="0" r="4" style="stroke:#FF6600;stroke-opacity:0; stroke-width: 2; stroke-dasharray: ; stroke-linecap: butt; stroke-linejoin: miter; stroke-miterlimit: 10;fill:#FF6600;fill-opacity:1; fill-rule: nonzero; opacity: 1" transform="  matrix(1 0 0 1 596 201) "/>
<circle cx="0" cy="0" r="4" style="stroke:#FF6600;stroke-opacity:0; stroke-width: 2; stroke-dasharray: ; stroke-linecap: butt; stroke-linejoin: miter; stroke-miterlimit: 10;fill:#FF6600;fill-opacity:1; fill-rule: nonzero; opacity: 1" transform="  matrix(1 0 0 1 572 285) "/>
<circle cx="0" cy="0" r="4" style="stroke:#FF6600;stroke-opacity:0; stroke-width: 2; stroke-dasharray: ; stroke-linecap: butt; stroke-linejoin: miter; stroke-miterlimit: 10;fill:#FF6600;fill-opacity:1; fill-rule: nonzero; opacity: 1" transform="  matrix(1 0 0 1 545 318) "/>
<circle cx="0" cy="0" r="4" style="stroke:#FF6600;stroke-opacity:0; stroke-width: 2; stroke-dasharray: ; stroke-linecap: butt; stroke-linejoin: miter; stroke-miterlimit: 10;fill:#FF6600;fill-opacity:1; fill-rule: nonzero; opacity: 1" transform="  matrix(1 0 0 1 512 408) "/>
<circle cx="0" cy="0" r="4" style="stroke:#FF6600;stroke-opacity:0; stroke-width: 2; stroke-dasharray: ; stroke-linecap: butt; stroke-linejoin: miter; stroke-miterlimit: 10;fill:#FF6600;fill-opacity:1; fill-rule: nonzero; opacity: 1" transform="  matrix(1 0 0 1 433 364) "/>
<circle cx="0" cy="0" r="4" style="stroke:#FF6600;stroke-opacity:0; stroke-width: 2; stroke-dasharray: ; stroke-linecap: butt; stroke-linejoin: miter; stroke-miterlimit: 10;fill:#FF6600;fill-opacity:1; fill-rule: nonzero; opacity: 1" transform="  matrix(1 0 0 1 365 285) "/>
<circle cx="0" cy="0" r="4" style="stroke:#FF6600;stroke-opacity:0; stroke-width: 2; stroke-dasharray: ; stroke-linecap: butt; stroke-linejoin: miter; stroke-miterlimit: 10;fill:#FF6600;fill-opacity:1; fill-rule: nonzero; opacity: 1" transform="  matrix(1 0 0 1 418 191) "/>
	<g transform=" matrix(1 0 0 1 509 99) ">
		<text font-family="Verdana" font-size="11" font-weight="normal" style="stroke: none; stroke-width: 1; stroke-dasharray: ; stroke-linecap: butt; stroke-linejoin: miter; stroke-miterlimit: 10;fill:#000000;fill-opacity:1; fill-rule: nonzero; opacity: 1" ><tspan x="0" y="5.9912" fill="rgba(0,0,0,1)"></tspan></text>
	</g>
	<g transform=" matrix(1 0 0 1 509 286) ">
		<text font-family="Verdana" font-size="11" font-weight="normal" style="stroke: none; stroke-width: 1; stroke-dasharray: ; stroke-linecap: butt; stroke-linejoin: miter; stroke-miterlimit: 10;fill:#000000;fill-opacity:1; fill-rule: nonzero; opacity: 1" ><tspan x="0" y="5.9912" fill="rgba(0,0,0,1)"></tspan></text>
	</g>
	<g transform=" matrix(1 0 0 1 509 99) ">
		<text font-family="Verdana" font-size="11" font-weight="normal" style="stroke: none; stroke-width: 1; stroke-dasharray: ; stroke-linecap: butt; stroke-linejoin: miter; stroke-miterlimit: 10;fill:#000000;fill-opacity:1; fill-rule: nonzero; opacity: 1" ><tspan x="0" y="5.9912" fill="rgba(0,0,0,1)"></tspan></text>
	</g>
	<g transform=" matrix(1 0 0 1 509 286) ">
		<text font-family="Verdana" font-size="11" font-weight="normal" style="stroke: none; stroke-width: 1; stroke-dasharray: ; stroke-linecap: butt; stroke-linejoin: miter; stroke-miterlimit: 10;fill:#000000;fill-opacity:1; fill-rule: nonzero; opacity: 1" ><tspan x="0" y="5.9912" fill="rgba(0,0,0,1)"></tspan></text>
	</g>
	<g transform=" matrix(1 0 0 1 504 286) ">
		<text font-family="Verdana" font-size="11" font-weight="normal" style="stroke: none; stroke-width: 1; stroke-dasharray: ; stroke-linecap: butt; stroke-linejoin: miter; stroke-miterlimit: 10;fill:#000000;fill-opacity:1; fill-rule: nonzero; opacity: 1" ><tspan x="-7" y="5.9912" fill="rgba(0,0,0,1)">0</tspan></text>
	</g>
	<g transform=" matrix(1 0 0 1 504 219) ">
		<text font-family="Verdana" font-size="11" font-weight="normal" style="stroke: none; stroke-width: 1; stroke-dasharray: ; stroke-linecap: butt; stroke-linejoin: miter; stroke-miterlimit: 10;fill:#000000;fill-opacity:1; fill-rule: nonzero; opacity: 1" ><tspan x="-7" y="5.9912" fill="rgba(0,0,0,1)">5</tspan></text>
	</g>
	<g transform=" matrix(1 0 0 1 504 153) ">
		<text font-family="Verdana" font-size="11" font-weight="normal" style="stroke: none; stroke-width: 1; stroke-dasharray: ; stroke-linecap: butt; stroke-linejoin: miter; stroke-miterlimit: 10;fill:#000000;fill-opacity:1; fill-rule: nonzero; opacity: 1" ><tspan x="-14" y="5.9912" fill="rgba(0,0,0,1)">10</tspan></text>
	</g>
	<g transform=" matrix(1 0 0 1 504 86) ">
		<text font-family="Verdana" font-size="11" font-weight="normal" style="stroke: none; stroke-width: 1; stroke-dasharray: ; stroke-linecap: butt; stroke-linejoin: miter; stroke-miterlimit: 10;fill:#000000;fill-opacity:1; fill-rule: nonzero; opacity: 1" ><tspan x="-14" y="5.9912" fill="rgba(0,0,0,1)">15</tspan></text>
	</g>
</g>
</svg>