<?xml version="1.0" encoding="UTF-8" standalone="no" ?><!DOCTYPE svg PUBLIC "-//W3C//DTD SVG 1.1//EN" "http://www.w3.org/Graphics/SVG/1.1/DTD/svg11.dtd">
<svg xmlns="http://www.w3.org/2000/svg" xmlns:xlink="http://www.w3.org/1999/xlink" version="1.1" width="1024" height="570" style="background-color: #FFFFFF" xml:space="preserve"><desc>Created with Fabric.js 1.5.0</desc><defs></defs><g style="stroke: none; stroke-width: 1; stroke-dasharray: ; stroke-linecap: butt; stroke-linejoin: miter; stroke-miterlimit: 10; fill: none; fill-rule: nonzero; opacity: 1" transform="translate(0 0)" >
<path d="M 0.5 0.5 L 932.5 0.5 L 932.5 37.5 L 0.5 37.5 Z" style="stroke:#000000;stroke-opacity:0; stroke-width: 1; stroke-dasharray: ; stroke-linecap: butt; stroke-linejoin: miter; stroke-miterlimit: 10;fill:#FFFFFF;fill-opacity:0; fill-rule: nonzero; opacity: 1" transform=" matrix(1 0 0 1 71 10) " stroke-linecap="round" />
<path d="M -7.5 8.5 L 8.5 8.5 L 8.5 -7.5 L -7.5 -7.5 Z" style="stroke:#AAB3B3;stroke-opacity:1; stroke-width: 1; stroke-dasharray: ; stroke-linecap: butt; stroke-linejoin: miter; stroke-miterlimit: 10;fill:#AAB3B3;fill-opacity:0.6; fill-rule: nonzero; opacity: 1" transform=" matrix(1 0 0 1 79 29) " stroke-linecap="round" />
<path d="M -5.5 -5.5 L 6.5 6.5" style="stroke:#FFFFFF;stroke-opacity:1; stroke-width: 3; stroke-dasharray: ; stroke-linecap: butt; stroke-linejoin: miter; stroke-miterlimit: 10; fill: none; fill-rule: nonzero; opacity: 1" transform=" matrix(1 0 0 1 79 29) " stroke-linecap="round" />
<path d="M -5.5 6.5 L 6.5 -5.5" style="stroke:#FFFFFF;stroke-opacity:1; stroke-width: 3; stroke-dasharray: ; stroke-linecap: butt; stroke-linejoin: miter; stroke-miterlimit: 10; fill: none; fill-rule: nonzero; opacity: 1" transform=" matrix(1 0 0 1 79 29) " stroke-linecap="round" />
	<g transform=" matrix(1 0 0 1 92 28) ">
		<text font-family="Verdana" font-size="11" font-weight="normal" style="stroke: none; stroke-width: 1; stroke-dasharray: ; stroke-linecap: butt; stroke-linejoin: miter; stroke-miterlimit: 10;fill:#AAB3B3;fill-opacity:1; fill-rule: nonzero; opacity: 1" ><tspan x="0" y="5.9912" fill="rgba(170,179,179,1)">Cars</tspan></text>
	</g>
	<g transform=" matrix(1 0 0 1 144 28) ">
		<text font-family="Verdana" font-size="11" font-weight="normal" style="stroke: none; stroke-width: 1; stroke-dasharray: ; stroke-linecap: butt; stroke-linejoin: miter; stroke-miterlimit: 10;fill:#AAB3B3;fill-opacity:1; fill-rule: nonzero; opacity: 1" ><tspan x="0" y="5.9912" fill="rgba(170,179,179,1)">total: 25 906</tspan></text>
	</g>
<rect x="16" y="0" rx="0" ry="0" width="156.5" height="18" style="stroke: none; stroke-width: 0; stroke-dasharray: ; stroke-linecap: butt; stroke-linejoin: miter; stroke-miterlimit: 10;fill:#FFFFFF;fill-opacity:0.005; fill-rule: nonzero; opacity: 1" transform=" matrix(1 0 0 1 71 21) "/>
<path d="M -7.5 8.5 L 8.5 8.5 L 8.5 -7.5 L -7.5 -7.5 Z" style="stroke:#FCD202;stroke-opacity:1; stroke-width: 1; stroke-dasharray: ; stroke-linecap: butt; stroke-linejoin: miter; stroke-miterlimit: 10;fill:#FCD202;fill-opacity:0.6; fill-rule: nonzero; opacity: 1" transform=" matrix(1 0 0 1 261 29) " stroke-linecap="round" />
<path d="M -5.5 -5.5 L 6.5 6.5" style="stroke: #FFFFFF; stroke-width: 3; stroke-dasharray: ; stroke-linecap: butt; stroke-linejoin: miter; stroke-miterlimit: 10; fill: none; fill-rule: nonzero; opacity: 0" transform=" matrix(1 0 0 1 261 29) " stroke-linecap="round" />
<path d="M -5.5 6.5 L 6.5 -5.5" style="stroke: #FFFFFF; stroke-width: 3; stroke-dasharray: ; stroke-linecap: butt; stroke-linejoin: miter; stroke-miterlimit: 10; fill: none; fill-rule: nonzero; opacity: 0" transform=" matrix(1 0 0 1 261 29) " stroke-linecap="round" />
	<g transform=" matrix(1 0 0 1 274 28) ">
		<text font-family="Verdana" font-size="11" font-weight="normal" style="stroke: none; stroke-width: 1; stroke-dasharray: ; stroke-linecap: butt; stroke-linejoin: miter; stroke-miterlimit: 10;fill:#000000;fill-opacity:1; fill-rule: nonzero; opacity: 1" ><tspan x="0" y="5.9912" fill="rgba(0,0,0,1)">Motorcycles</tspan></text>
	</g>
	<g transform=" matrix(1 0 0 1 367 28) ">
		<text font-family="Verdana" font-size="11" font-weight="normal" style="stroke: none; stroke-width: 1; stroke-dasharray: ; stroke-linecap: butt; stroke-linejoin: miter; stroke-miterlimit: 10;fill:#000000;fill-opacity:1; fill-rule: nonzero; opacity: 1" ><tspan x="0" y="5.9912" fill="rgba(0,0,0,1)">total: 10 190</tspan></text>
	</g>
<rect x="16" y="0" rx="0" ry="0" width="197.5" height="18" style="stroke: none; stroke-width: 0; stroke-dasharray: ; stroke-linecap: butt; stroke-linejoin: miter; stroke-miterlimit: 10;fill:#FFFFFF;fill-opacity:0.005; fill-rule: nonzero; opacity: 1" transform=" matrix(1 0 0 1 253 21) "/>
<path d="M -7.5 8.5 L 8.5 8.5 L 8.5 -7.5 L -7.5 -7.5 Z" style="stroke:#B0DE09;stroke-opacity:1; stroke-width: 1; stroke-dasharray: ; stroke-linecap: butt; stroke-linejoin: miter; stroke-miterlimit: 10;fill:#B0DE09;fill-opacity:0.6; fill-rule: nonzero; opacity: 1" transform=" matrix(1 0 0 1 484 29) " stroke-linecap="round" />
<path d="M -5.5 -5.5 L 6.5 6.5" style="stroke: #FFFFFF; stroke-width: 3; stroke-dasharray: ; stroke-linecap: butt; stroke-linejoin: miter; stroke-miterlimit: 10; fill: none; fill-rule: nonzero; opacity: 0" transform=" matrix(1 0 0 1 484 29) " stroke-linecap="round" />
<path d="M -5.5 6.5 L 6.5 -5.5" style="stroke: #FFFFFF; stroke-width: 3; stroke-dasharray: ; stroke-linecap: butt; stroke-linejoin: miter; stroke-miterlimit: 10; fill: none; fill-rule: nonzero; opacity: 0" transform=" matrix(1 0 0 1 484 29) " stroke-linecap="round" />
	<g transform=" matrix(1 0 0 1 497 28) ">
		<text font-family="Verdana" font-size="11" font-weight="normal" style="stroke: none; stroke-width: 1; stroke-dasharray: ; stroke-linecap: butt; stroke-linejoin: miter; stroke-miterlimit: 10;fill:#000000;fill-opacity:1; fill-rule: nonzero; opacity: 1" ><tspan x="0" y="5.9912" fill="rgba(0,0,0,1)">Bicycles</tspan></text>
	</g>
	<g transform=" matrix(1 0 0 1 569 28) ">
		<text font-family="Verdana" font-size="11" font-weight="normal" style="stroke: none; stroke-width: 1; stroke-dasharray: ; stroke-linecap: butt; stroke-linejoin: miter; stroke-miterlimit: 10;fill:#000000;fill-opacity:1; fill-rule: nonzero; opacity: 1" ><tspan x="0" y="5.9912" fill="rgba(0,0,0,1)">total: 1 910</tspan></text>
	</g>
<rect x="16" y="0" rx="0" ry="0" width="176.5" height="18" style="stroke: none; stroke-width: 0; stroke-dasharray: ; stroke-linecap: butt; stroke-linejoin: miter; stroke-miterlimit: 10;fill:#FFFFFF;fill-opacity:0.005; fill-rule: nonzero; opacity: 1" transform=" matrix(1 0 0 1 476 21) "/>
</g>
<g style="stroke: none; stroke-width: 1; stroke-dasharray: ; stroke-linecap: butt; stroke-linejoin: miter; stroke-miterlimit: 10; fill: none; fill-rule: nonzero; opacity: 1" transform="translate(0 48)" >
<path d="M 0.5 0.5 L 1023.5 0.5 L 1023.5 521.5 L 0.5 521.5 Z" style="stroke:#000000;stroke-opacity:0; stroke-width: 1; stroke-dasharray: ; stroke-linecap: butt; stroke-linejoin: miter; stroke-miterlimit: 10;fill:#FFFFFF;fill-opacity:0; fill-rule: nonzero; opacity: 1" transform="" stroke-linecap="round" />
<path d="M 0.5 0.5 L 932.5 0.5 L 932.5 476.5 L 0.5 476.5 L 0.5 0.5 Z" style="stroke:#000000;stroke-opacity:0; stroke-width: 1; stroke-dasharray: ; stroke-linecap: butt; stroke-linejoin: miter; stroke-miterlimit: 10;fill:#FFFFFF;fill-opacity:0; fill-rule: nonzero; opacity: 1" transform=" matrix(1 0 0 1 71 10) " stroke-linecap="round" />
<path d="M 0.5 0.5 L 0.5 5.5" style="stroke:#DADADA;stroke-opacity:1; stroke-width: 1; stroke-dasharray: ; stroke-linecap: butt; stroke-linejoin: miter; stroke-miterlimit: 10; fill: none; fill-rule: nonzero; opacity: 1" transform=" matrix(1 0 0 1 71 486) " stroke-linecap="round" />
<path d="M 0.5 476.5 L 0.5 476.5 L 0.5 0.5" style="stroke:#000000;stroke-opacity:0.07; stroke-width: 1; stroke-dasharray: ; stroke-linecap: butt; stroke-linejoin: miter; stroke-miterlimit: 10; fill: none; fill-rule: nonzero; opacity: 1" transform=" matrix(1 0 0 1 71 10) " stroke-linecap="round" />
<path d="M 52.5 0.5 L 52.5 5.5" style="stroke:#DADADA;stroke-opacity:1; stroke-width: 1; stroke-dasharray: ; stroke-linecap: butt; stroke-linejoin: miter; stroke-miterlimit: 10; fill: none; fill-rule: nonzero; opacity: 1" transform=" matrix(1 0 0 1 71 486) " stroke-linecap="round" />
<path d="M 52.5 476.5 L 52.5 476.5 L 52.5 0.5" style="stroke:#000000;stroke-opacity:0.07; stroke-width: 1; stroke-dasharray: ; stroke-linecap: butt; stroke-linejoin: miter; stroke-miterlimit: 10; fill: none; fill-rule: nonzero; opacity: 1" transform=" matrix(1 0 0 1 71 10) " stroke-linecap="round" />
<path d="M 104.5 0.5 L 104.5 5.5" style="stroke:#DADADA;stroke-opacity:1; stroke-width: 1; stroke-dasharray: ; stroke-linecap: butt; stroke-linejoin: miter; stroke-miterlimit: 10; fill: none; fill-rule: nonzero; opacity: 1" transform=" matrix(1 0 0 1 71 486) " stroke-linecap="round" />
<path d="M 104.5 476.5 L 104.5 476.5 L 104.5 0.5" style="stroke:#000000;stroke-opacity:0.07; stroke-width: 1; stroke-dasharray: ; stroke-linecap: butt; stroke-linejoin: miter; stroke-miterlimit: 10; fill: none; fill-rule: nonzero; opacity: 1" transform=" matrix(1 0 0 1 71 10) " stroke-linecap="round" />
<path d="M 155.5 0.5 L 155.5 5.5" style="stroke:#DADADA;stroke-opacity:1; stroke-width: 1; stroke-dasharray: ; stroke-linecap: butt; stroke-linejoin: miter; stroke-miterlimit: 10; fill: none; fill-rule: nonzero; opacity: 1" transform=" matrix(1 0 0 1 71 486) " stroke-linecap="round" />
<path d="M 155.5 476.5 L 155.5 476.5 L 155.5 0.5" style="stroke:#000000;stroke-opacity:0.07; stroke-width: 1; stroke-dasharray: ; stroke-linecap: butt; stroke-linejoin: miter; stroke-miterlimit: 10; fill: none; fill-rule: nonzero; opacity: 1" transform=" matrix(1 0 0 1 71 10) " stroke-linecap="round" />
<path d="M 207.5 0.5 L 207.5 5.5" style="stroke:#DADADA;stroke-opacity:1; stroke-width: 1; stroke-dasharray: ; stroke-linecap: butt; stroke-linejoin: miter; stroke-miterlimit: 10; fill: none; fill-rule: nonzero; opacity: 1" transform=" matrix(1 0 0 1 71 486) " stroke-linecap="round" />
<path d="M 207.5 476.5 L 207.5 476.5 L 207.5 0.5" style="stroke:#000000;stroke-opacity:0.07; stroke-width: 1; stroke-dasharray: ; stroke-linecap: butt; stroke-linejoin: miter; stroke-miterlimit: 10; fill: none; fill-rule: nonzero; opacity: 1" transform=" matrix(1 0 0 1 71 10) " stroke-linecap="round" />
<path d="M 259.5 0.5 L 259.5 5.5" style="stroke:#DADADA;stroke-opacity:1; stroke-width: 1; stroke-dasharray: ; stroke-linecap: butt; stroke-linejoin: miter; stroke-miterlimit: 10; fill: none; fill-rule: nonzero; opacity: 1" transform=" matrix(1 0 0 1 71 486) " stroke-linecap="round" />
<path d="M 259.5 476.5 L 259.5 476.5 L 259.5 0.5" style="stroke:#000000;stroke-opacity:0.07; stroke-width: 1; stroke-dasharray: ; stroke-linecap: butt; stroke-linejoin: miter; stroke-miterlimit: 10; fill: none; fill-rule: nonzero; opacity: 1" transform=" matrix(1 0 0 1 71 10) " stroke-linecap="round" />
<path d="M 311.5 0.5 L 311.5 5.5" style="stroke:#DADADA;stroke-opacity:1; stroke-width: 1; stroke-dasharray: ; stroke-linecap: butt; stroke-linejoin: miter; stroke-miterlimit: 10; fill: none; fill-rule: nonzero; opacity: 1" transform=" matrix(1 0 0 1 71 486) " stroke-linecap="round" />
<path d="M 311.5 476.5 L 311.5 476.5 L 311.5 0.5" style="stroke:#000000;stroke-opacity:0.07; stroke-width: 1; stroke-dasharray: ; stroke-linecap: butt; stroke-linejoin: miter; stroke-miterlimit: 10; fill: none; fill-rule: nonzero; opacity: 1" transform=" matrix(1 0 0 1 71 10) " stroke-linecap="round" />
<path d="M 362.5 0.5 L 362.5 5.5" style="stroke:#DADADA;stroke-opacity:1; stroke-width: 1; stroke-dasharray: ; stroke-linecap: butt; stroke-linejoin: miter; stroke-miterlimit: 10; fill: none; fill-rule: nonzero; opacity: 1" transform=" matrix(1 0 0 1 71 486) " stroke-linecap="round" />
<path d="M 362.5 476.5 L 362.5 476.5 L 362.5 0.5" style="stroke:#000000;stroke-opacity:0.07; stroke-width: 1; stroke-dasharray: ; stroke-linecap: butt; stroke-linejoin: miter; stroke-miterlimit: 10; fill: none; fill-rule: nonzero; opacity: 1" transform=" matrix(1 0 0 1 71 10) " stroke-linecap="round" />
<path d="M 414.5 0.5 L 414.5 5.5" style="stroke:#DADADA;stroke-opacity:1; stroke-width: 1; stroke-dasharray: ; stroke-linecap: butt; stroke-linejoin: miter; stroke-miterlimit: 10; fill: none; fill-rule: nonzero; opacity: 1" transform=" matrix(1 0 0 1 71 486) " stroke-linecap="round" />
<path d="M 414.5 476.5 L 414.5 476.5 L 414.5 0.5" style="stroke:#000000;stroke-opacity:0.07; stroke-width: 1; stroke-dasharray: ; stroke-linecap: butt; stroke-linejoin: miter; stroke-miterlimit: 10; fill: none; fill-rule: nonzero; opacity: 1" transform=" matrix(1 0 0 1 71 10) " stroke-linecap="round" />
<path d="M 466.5 0.5 L 466.5 5.5" style="stroke:#DADADA;stroke-opacity:1; stroke-width: 1; stroke-dasharray: ; stroke-linecap: butt; stroke-linejoin: miter; stroke-miterlimit: 10; fill: none; fill-rule: nonzero; opacity: 1" transform=" matrix(1 0 0 1 71 486) " stroke-linecap="round" />
<path d="M 466.5 476.5 L 466.5 476.5 L 466.5 0.5" style="stroke:#000000;stroke-opacity:0.07; stroke-width: 1; stroke-dasharray: ; stroke-linecap: butt; stroke-linejoin: miter; stroke-miterlimit: 10; fill: none; fill-rule: nonzero; opacity: 1" transform=" matrix(1 0 0 1 71 10) " stroke-linecap="round" />
<path d="M 518.5 0.5 L 518.5 5.5" style="stroke:#DADADA;stroke-opacity:1; stroke-width: 1; stroke-dasharray: ; stroke-linecap: butt; stroke-linejoin: miter; stroke-miterlimit: 10; fill: none; fill-rule: nonzero; opacity: 1" transform=" matrix(1 0 0 1 71 486) " stroke-linecap="round" />
<path d="M 518.5 476.5 L 518.5 476.5 L 518.5 0.5" style="stroke:#000000;stroke-opacity:0.07; stroke-width: 1; stroke-dasharray: ; stroke-linecap: butt; stroke-linejoin: miter; stroke-miterlimit: 10; fill: none; fill-rule: nonzero; opacity: 1" transform=" matrix(1 0 0 1 71 10) " stroke-linecap="round" />
<path d="M 570.5 0.5 L 570.5 5.5" style="stroke:#DADADA;stroke-opacity:1; stroke-width: 1; stroke-dasharray: ; stroke-linecap: butt; stroke-linejoin: miter; stroke-miterlimit: 10; fill: none; fill-rule: nonzero; opacity: 1" transform=" matrix(1 0 0 1 71 486) " stroke-linecap="round" />
<path d="M 570.5 476.5 L 570.5 476.5 L 570.5 0.5" style="stroke:#000000;stroke-opacity:0.07; stroke-width: 1; stroke-dasharray: ; stroke-linecap: butt; stroke-linejoin: miter; stroke-miterlimit: 10; fill: none; fill-rule: nonzero; opacity: 1" transform=" matrix(1 0 0 1 71 10) " stroke-linecap="round" />
<path d="M 621.5 0.5 L 621.5 5.5" style="stroke:#DADADA;stroke-opacity:1; stroke-width: 1; stroke-dasharray: ; stroke-linecap: butt; stroke-linejoin: miter; stroke-miterlimit: 10; fill: none; fill-rule: nonzero; opacity: 1" transform=" matrix(1 0 0 1 71 486) " stroke-linecap="round" />
<path d="M 621.5 476.5 L 621.5 476.5 L 621.5 0.5" style="stroke:#000000;stroke-opacity:0.07; stroke-width: 1; stroke-dasharray: ; stroke-linecap: butt; stroke-linejoin: miter; stroke-miterlimit: 10; fill: none; fill-rule: nonzero; opacity: 1" transform=" matrix(1 0 0 1 71 10) " stroke-linecap="round" />
<path d="M 673.5 0.5 L 673.5 5.5" style="stroke:#DADADA;stroke-opacity:1; stroke-width: 1; stroke-dasharray: ; stroke-linecap: butt; stroke-linejoin: miter; stroke-miterlimit: 10; fill: none; fill-rule: nonzero; opacity: 1" transform=" matrix(1 0 0 1 71 486) " stroke-linecap="round" />
<path d="M 673.5 476.5 L 673.5 476.5 L 673.5 0.5" style="stroke:#000000;stroke-opacity:0.07; stroke-width: 1; stroke-dasharray: ; stroke-linecap: butt; stroke-linejoin: miter; stroke-miterlimit: 10; fill: none; fill-rule: nonzero; opacity: 1" transform=" matrix(1 0 0 1 71 10) " stroke-linecap="round" />
<path d="M 725.5 0.5 L 725.5 5.5" style="stroke:#DADADA;stroke-opacity:1; stroke-width: 1; stroke-dasharray: ; stroke-linecap: butt; stroke-linejoin: miter; stroke-miterlimit: 10; fill: none; fill-rule: nonzero; opacity: 1" transform=" matrix(1 0 0 1 71 486) " stroke-linecap="round" />
<path d="M 725.5 476.5 L 725.5 476.5 L 725.5 0.5" style="stroke:#000000;stroke-opacity:0.07; stroke-width: 1; stroke-dasharray: ; stroke-linecap: butt; stroke-linejoin: miter; stroke-miterlimit: 10; fill: none; fill-rule: nonzero; opacity: 1" transform=" matrix(1 0 0 1 71 10) " stroke-linecap="round" />
<path d="M 777.5 0.5 L 777.5 5.5" style="stroke:#DADADA;stroke-opacity:1; stroke-width: 1; stroke-dasharray: ; stroke-linecap: butt; stroke-linejoin: miter; stroke-miterlimit: 10; fill: none; fill-rule: nonzero; opacity: 1" transform=" matrix(1 0 0 1 71 486) " stroke-linecap="round" />
<path d="M 777.5 476.5 L 777.5 476.5 L 777.5 0.5" style="stroke:#000000;stroke-opacity:0.07; stroke-width: 1; stroke-dasharray: ; stroke-linecap: butt; stroke-linejoin: miter; stroke-miterlimit: 10; fill: none; fill-rule: nonzero; opacity: 1" transform=" matrix(1 0 0 1 71 10) " stroke-linecap="round" />
<path d="M 828.5 0.5 L 828.5 5.5" style="stroke:#DADADA;stroke-opacity:1; stroke-width: 1; stroke-dasharray: ; stroke-linecap: butt; stroke-linejoin: miter; stroke-miterlimit: 10; fill: none; fill-rule: nonzero; opacity: 1" transform=" matrix(1 0 0 1 71 486) " stroke-linecap="round" />
<path d="M 828.5 476.5 L 828.5 476.5 L 828.5 0.5" style="stroke:#000000;stroke-opacity:0.07; stroke-width: 1; stroke-dasharray: ; stroke-linecap: butt; stroke-linejoin: miter; stroke-miterlimit: 10; fill: none; fill-rule: nonzero; opacity: 1" transform=" matrix(1 0 0 1 71 10) " stroke-linecap="round" />
<path d="M 880.5 0.5 L 880.5 5.5" style="stroke:#DADADA;stroke-opacity:1; stroke-width: 1; stroke-dasharray: ; stroke-linecap: butt; stroke-linejoin: miter; stroke-miterlimit: 10; fill: none; fill-rule: nonzero; opacity: 1" transform=" matrix(1 0 0 1 71 486) " stroke-linecap="round" />
<path d="M 880.5 476.5 L 880.5 476.5 L 880.5 0.5" style="stroke:#000000;stroke-opacity:0.07; stroke-width: 1; stroke-dasharray: ; stroke-linecap: butt; stroke-linejoin: miter; stroke-miterlimit: 10; fill: none; fill-rule: nonzero; opacity: 1" transform=" matrix(1 0 0 1 71 10) " stroke-linecap="round" />
<path d="M 932.5 0.5 L 932.5 5.5" style="stroke:#DADADA;stroke-opacity:1; stroke-width: 1; stroke-dasharray: ; stroke-linecap: butt; stroke-linejoin: miter; stroke-miterlimit: 10; fill: none; fill-rule: nonzero; opacity: 1" transform=" matrix(1 0 0 1 71 486) " stroke-linecap="round" />
<path d="M 932.5 476.5 L 932.5 476.5 L 932.5 0.5" style="stroke:#000000;stroke-opacity:0.07; stroke-width: 1; stroke-dasharray: ; stroke-linecap: butt; stroke-linejoin: miter; stroke-miterlimit: 10; fill: none; fill-rule: nonzero; opacity: 1" transform=" matrix(1 0 0 1 71 10) " stroke-linecap="round" />
<path d="M 0.5 476.5 L 6.5 476.5" style="stroke:#000000;stroke-opacity:1; stroke-width: 1; stroke-dasharray: ; stroke-linecap: butt; stroke-linejoin: miter; stroke-miterlimit: 10; fill: none; fill-rule: nonzero; opacity: 1" transform=" matrix(1 0 0 1 65 10) " stroke-linecap="round" />
<path d="M 0.5 476.5 L 0.5 476.5 L 932.5 476.5" style="stroke:#000000;stroke-opacity:0.07; stroke-width: 1; stroke-dasharray: ; stroke-linecap: butt; stroke-linejoin: miter; stroke-miterlimit: 10; fill: none; fill-rule: nonzero; opacity: 1" transform=" matrix(1 0 0 1 71 10) " stroke-linecap="round" />
<path d="M 0.5 423.5 L 6.5 423.5" style="stroke:#000000;stroke-opacity:1; stroke-width: 1; stroke-dasharray: ; stroke-linecap: butt; stroke-linejoin: miter; stroke-miterlimit: 10; fill: none; fill-rule: nonzero; opacity: 1" transform=" matrix(1 0 0 1 65 10) " stroke-linecap="round" />
<path d="M 0.5 423.5 L 0.5 423.5 L 932.5 423.5" style="stroke:#000000;stroke-opacity:0.07; stroke-width: 1; stroke-dasharray: ; stroke-linecap: butt; stroke-linejoin: miter; stroke-miterlimit: 10; fill: none; fill-rule: nonzero; opacity: 1" transform=" matrix(1 0 0 1 71 10) " stroke-linecap="round" />
<path d="M 0.5 370.5 L 6.5 370.5" style="stroke:#000000;stroke-opacity:1; stroke-width: 1; stroke-dasharray: ; stroke-linecap: butt; stroke-linejoin: miter; stroke-miterlimit: 10; fill: none; fill-rule: nonzero; opacity: 1" transform=" matrix(1 0 0 1 65 10) " stroke-linecap="round" />
<path d="M 0.5 370.5 L 0.5 370.5 L 932.5 370.5" style="stroke:#000000;stroke-opacity:0.07; stroke-width: 1; stroke-dasharray: ; stroke-linecap: butt; stroke-linejoin: miter; stroke-miterlimit: 10; fill: none; fill-rule: nonzero; opacity: 1" transform=" matrix(1 0 0 1 71 10) " stroke-linecap="round" />
<path d="M 0.5 317.5 L 6.5 317.5" style="stroke:#000000;stroke-opacity:1; stroke-width: 1; stroke-dasharray: ; stroke-linecap: butt; stroke-linejoin: miter; stroke-miterlimit: 10; fill: none; fill-rule: nonzero; opacity: 1" transform=" matrix(1 0 0 1 65 10) " stroke-linecap="round" />
<path d="M 0.5 317.5 L 0.5 317.5 L 932.5 317.5" style="stroke:#000000;stroke-opacity:0.07; stroke-width: 1; stroke-dasharray: ; stroke-linecap: butt; stroke-linejoin: miter; stroke-miterlimit: 10; fill: none; fill-rule: nonzero; opacity: 1" transform=" matrix(1 0 0 1 71 10) " stroke-linecap="round" />
<path d="M 0.5 264.5 L 6.5 264.5" style="stroke:#000000;stroke-opacity:1; stroke-width: 1; stroke-dasharray: ; stroke-linecap: butt; stroke-linejoin: miter; stroke-miterlimit: 10; fill: none; fill-rule: nonzero; opacity: 1" transform=" matrix(1 0 0 1 65 10) " stroke-linecap="round" />
<path d="M 0.5 264.5 L 0.5 264.5 L 932.5 264.5" style="stroke:#000000;stroke-opacity:0.07; stroke-width: 1; stroke-dasharray: ; stroke-linecap: butt; stroke-linejoin: miter; stroke-miterlimit: 10; fill: none; fill-rule: nonzero; opacity: 1" transform=" matrix(1 0 0 1 71 10) " stroke-linecap="round" />
<path d="M 0.5 212.5 L 6.5 212.5" style="stroke:#000000;stroke-opacity:1; stroke-width: 1; stroke-dasharray: ; stroke-linecap: butt; stroke-linejoin: miter; stroke-miterlimit: 10; fill: none; fill-rule: nonzero; opacity: 1" transform=" matrix(1 0 0 1 65 10) " stroke-linecap="round" />
<path d="M 0.5 212.5 L 0.5 212.5 L 932.5 212.5" style="stroke:#000000;stroke-opacity:0.07; stroke-width: 1; stroke-dasharray: ; stroke-linecap: butt; stroke-linejoin: miter; stroke-miterlimit: 10; fill: none; fill-rule: nonzero; opacity: 1" transform=" matrix(1 0 0 1 71 10) " stroke-linecap="round" />
<path d="M 0.5 159.5 L 6.5 159.5" style="stroke:#000000;stroke-opacity:1; stroke-width: 1; stroke-dasharray: ; stroke-linecap: butt; stroke-linejoin: miter; stroke-miterlimit: 10; fill: none; fill-rule: nonzero; opacity: 1" transform=" matrix(1 0 0 1 65 10) " stroke-linecap="round" />
<path d="M 0.5 159.5 L 0.5 159.5 L 932.5 159.5" style="stroke:#000000;stroke-opacity:0.07; stroke-width: 1; stroke-dasharray: ; stroke-linecap: butt; stroke-linejoin: miter; stroke-miterlimit: 10; fill: none; fill-rule: nonzero; opacity: 1" transform=" matrix(1 0 0 1 71 10) " stroke-linecap="round" />
<path d="M 0.5 106.5 L 6.5 106.5" style="stroke:#000000;stroke-opacity:1; stroke-width: 1; stroke-dasharray: ; stroke-linecap: butt; stroke-linejoin: miter; stroke-miterlimit: 10; fill: none; fill-rule: nonzero; opacity: 1" transform=" matrix(1 0 0 1 65 10) " stroke-linecap="round" />
<path d="M 0.5 106.5 L 0.5 106.5 L 932.5 106.5" style="stroke:#000000;stroke-opacity:0.07; stroke-width: 1; stroke-dasharray: ; stroke-linecap: butt; stroke-linejoin: miter; stroke-miterlimit: 10; fill: none; fill-rule: nonzero; opacity: 1" transform=" matrix(1 0 0 1 71 10) " stroke-linecap="round" />
<path d="M 0.5 53.5 L 6.5 53.5" style="stroke:#000000;stroke-opacity:1; stroke-width: 1; stroke-dasharray: ; stroke-linecap: butt; stroke-linejoin: miter; stroke-miterlimit: 10; fill: none; fill-rule: nonzero; opacity: 1" transform=" matrix(1 0 0 1 65 10) " stroke-linecap="round" />
<path d="M 0.5 53.5 L 0.5 53.5 L 932.5 53.5" style="stroke:#000000;stroke-opacity:0.07; stroke-width: 1; stroke-dasharray: ; stroke-linecap: butt; stroke-linejoin: miter; stroke-miterlimit: 10; fill: none; fill-rule: nonzero; opacity: 1" transform=" matrix(1 0 0 1 71 10) " stroke-linecap="round" />
<path d="M 0.5 0.5 L 6.5 0.5" style="stroke:#000000;stroke-opacity:1; stroke-width: 1; stroke-dasharray: ; stroke-linecap: butt; stroke-linejoin: miter; stroke-miterlimit: 10; fill: none; fill-rule: nonzero; opacity: 1" transform=" matrix(1 0 0 1 65 10) " stroke-linecap="round" />
<path d="M 0.5 0.5 L 0.5 0.5 L 932.5 0.5" style="stroke:#000000;stroke-opacity:0.07; stroke-width: 1; stroke-dasharray: ; stroke-linecap: butt; stroke-linejoin: miter; stroke-miterlimit: 10; fill: none; fill-rule: nonzero; opacity: 1" transform=" matrix(1 0 0 1 71 10) " stroke-linecap="round" />
<path d="M 0.5 132.5 L 52.5 115.5 L 104.5 111.5 L 155.5 136.5 L 207.5 106.5 L 259.5 95.5 L 311.5 86.5 L 362.5 116.5 L 414.5 125.5 L 466.5 133.5 L 518.5 107.5 L 570.5 141.5 L 621.5 148.5 L 673.5 365.5 L 725.5 353.5 L 777.5 360.5 L 828.5 370.5 L 880.5 325.5 L 932.5 329.5 M 0 0 L 0 0" style="stroke:#FCD202;stroke-opacity:0.4; stroke-width: 1; stroke-dasharray: ; stroke-linecap: butt; stroke-linejoin: miter; stroke-miterlimit: 10; fill: none; fill-rule: nonzero; opacity: 1" transform=" matrix(1 0 0 1 71 10) " stroke-linecap="round" />
<path d="M 0.5 132.5 L 52.5 115.5 L 104.5 111.5 L 155.5 136.5 L 207.5 106.5 L 259.5 95.5 L 311.5 86.5 L 362.5 116.5 L 414.5 125.5 L 466.5 133.5 L 518.5 107.5 L 570.5 141.5 L 621.5 148.5 L 673.5 365.5 L 725.5 353.5 L 777.5 360.5 L 828.5 370.5 L 880.5 325.5 L 932.5 329.5 L 932.5 476.5 L 880.5 476.5 L 828.5 476.5 L 777.5 476.5 L 725.5 476.5 L 673.5 476.5 L 621.5 476.5 L 570.5 476.5 L 518.5 476.5 L 466.5 476.5 L 414.5 476.5 L 362.5 476.5 L 311.5 476.5 L 259.5 476.5 L 207.5 476.5 L 155.5 476.5 L 104.5 476.5 L 52.5 476.5 L 0.5 476.5 Z" style="stroke:#000000;stroke-opacity:0; stroke-width: 1; stroke-dasharray: ; stroke-linecap: butt; stroke-linejoin: miter; stroke-miterlimit: 10;fill:#FCD202;fill-opacity:0.6; fill-rule: nonzero; opacity: 1" transform=" matrix(1 0 0 1 71 10) " stroke-linecap="round" />
<rect x="0" y="0" rx="0" ry="0" width="934" height="478" style="stroke: none; stroke-width: 0; stroke-dasharray: ; stroke-linecap: butt; stroke-linejoin: miter; stroke-miterlimit: 10; fill: transparent; fill-rule: nonzero; opacity: 1" transform=""/>
<path d="M 0.5 68.5 L 52.5 38.5 L 104.5 38.5 L 155.5 69.5 L 207.5 51.5 L 259.5 37.5 L 311.5 27.5 L 362.5 63.5 L 414.5 74.5 L 466.5 84.5 L 518.5 49.5 L 570.5 95.5 L 621.5 106.5 L 673.5 322.5 L 725.5 314.5 L 777.5 314.5 L 828.5 326.5 L 880.5 279.5 L 932.5 292.5 M 0 0 L 0 0" style="stroke:#B0DE09;stroke-opacity:0.4; stroke-width: 1; stroke-dasharray: ; stroke-linecap: butt; stroke-linejoin: miter; stroke-miterlimit: 10; fill: none; fill-rule: nonzero; opacity: 1" transform=" matrix(1 0 0 1 71 10) " stroke-linecap="round" />
<path d="M 0.5 68.5 L 52.5 38.5 L 104.5 38.5 L 155.5 69.5 L 207.5 51.5 L 259.5 37.5 L 311.5 27.5 L 362.5 63.5 L 414.5 74.5 L 466.5 84.5 L 518.5 49.5 L 570.5 95.5 L 621.5 106.5 L 673.5 322.5 L 725.5 314.5 L 777.5 314.5 L 828.5 326.5 L 880.5 279.5 L 932.5 292.5 L 932.5 329.5 L 880.5 325.5 L 828.5 370.5 L 777.5 360.5 L 725.5 353.5 L 673.5 365.5 L 621.5 148.5 L 570.5 141.5 L 518.5 107.5 L 466.5 133.5 L 414.5 125.5 L 362.5 116.5 L 311.5 86.5 L 259.5 95.5 L 207.5 106.5 L 155.5 136.5 L 104.5 111.5 L 52.5 115.5 L 0.5 132.5 Z" style="stroke:#000000;stroke-opacity:0; stroke-width: 1; stroke-dasharray: ; stroke-linecap: butt; stroke-linejoin: miter; stroke-miterlimit: 10;fill:#B0DE09;fill-opacity:0.6; fill-rule: nonzero; opacity: 1" transform=" matrix(1 0 0 1 71 10) " stroke-linecap="round" />
<rect x="0" y="0" rx="0" ry="0" width="934" height="478" style="stroke: none; stroke-width: 0; stroke-dasharray: ; stroke-linecap: butt; stroke-linejoin: miter; stroke-miterlimit: 10; fill: transparent; fill-rule: nonzero; opacity: 1" transform=""/>
<path d="M 0.5 476.5 L 932.5 476.5 L 932.5 476.5" style="stroke:#000000;stroke-opacity:0.14; stroke-width: 1; stroke-dasharray: ; stroke-linecap: butt; stroke-linejoin: miter; stroke-miterlimit: 10; fill: none; fill-rule: nonzero; opacity: 1" transform=" matrix(1 0 0 1 71 10) " stroke-linecap="round" />
<path d="M 0.5 0.5 L 932.5 0.5" style="stroke:#DADADA;stroke-opacity:1; stroke-width: 1; stroke-dasharray: ; stroke-linecap: butt; stroke-linejoin: miter; stroke-miterlimit: 10; fill: none; fill-rule: nonzero; opacity: 1" transform=" matrix(1 0 0 1 71 486) " stroke-linecap="round" />
<path d="M 0.5 0.5 L 0.5 476.5" style="stroke:#000000;stroke-opacity:1; stroke-width: 1; stroke-dasharray: ; stroke-linecap: butt; stroke-linejoin: miter; stroke-miterlimit: 10; fill: none; fill-rule: nonzero; opacity: 1" transform=" matrix(1 0 0 1 71 10) " stroke-linecap="round" />
<path d="M 0.5 0.5 L 0.5 0.5 L 0.5 476.5" style="stroke:#CC0000;stroke-opacity:0; stroke-width: 1; stroke-dasharray: ; stroke-linecap: butt; stroke-linejoin: miter; stroke-miterlimit: 10; fill: none; fill-rule: nonzero; opacity: 0" transform=" matrix(1 0 0 1 71 10) " stroke-linecap="round" />
	<g transform=" matrix(1 0 0 1 71 503.5) ">
		<text font-family="Verdana" font-size="11" font-weight="normal" style="stroke: none; stroke-width: 1; stroke-dasharray: ; stroke-linecap: butt; stroke-linejoin: miter; stroke-miterlimit: 10;fill:#000000;fill-opacity:1; fill-rule: nonzero; opacity: 1" ><tspan x="-14" y="5.9912" fill="rgba(0,0,0,1)">1994</tspan></text>
	</g>
	<g transform=" matrix(1 0 0 1 123 503.5) ">
		<text font-family="Verdana" font-size="11" font-weight="normal" style="stroke: none; stroke-width: 1; stroke-dasharray: ; stroke-linecap: butt; stroke-linejoin: miter; stroke-miterlimit: 10;fill:#000000;fill-opacity:1; fill-rule: nonzero; opacity: 1" ><tspan x="-14" y="5.9912" fill="rgba(0,0,0,1)">1995</tspan></text>
	</g>
	<g transform=" matrix(1 0 0 1 175 503.5) ">
		<text font-family="Verdana" font-size="11" font-weight="normal" style="stroke: none; stroke-width: 1; stroke-dasharray: ; stroke-linecap: butt; stroke-linejoin: miter; stroke-miterlimit: 10;fill:#000000;fill-opacity:1; fill-rule: nonzero; opacity: 1" ><tspan x="-14" y="5.9912" fill="rgba(0,0,0,1)">1996</tspan></text>
	</g>
	<g transform=" matrix(1 0 0 1 226 503.5) ">
		<text font-family="Verdana" font-size="11" font-weight="normal" style="stroke: none; stroke-width: 1; stroke-dasharray: ; stroke-linecap: butt; stroke-linejoin: miter; stroke-miterlimit: 10;fill:#000000;fill-opacity:1; fill-rule: nonzero; opacity: 1" ><tspan x="-14" y="5.9912" fill="rgba(0,0,0,1)">1997</tspan></text>
	</g>
	<g transform=" matrix(1 0 0 1 278 503.5) ">
		<text font-family="Verdana" font-size="11" font-weight="normal" style="stroke: none; stroke-width: 1; stroke-dasharray: ; stroke-linecap: butt; stroke-linejoin: miter; stroke-miterlimit: 10;fill:#000000;fill-opacity:1; fill-rule: nonzero; opacity: 1" ><tspan x="-14" y="5.9912" fill="rgba(0,0,0,1)">1998</tspan></text>
	</g>
	<g transform=" matrix(1 0 0 1 330 503.5) ">
		<text font-family="Verdana" font-size="11" font-weight="normal" style="stroke: none; stroke-width: 1; stroke-dasharray: ; stroke-linecap: butt; stroke-linejoin: miter; stroke-miterlimit: 10;fill:#000000;fill-opacity:1; fill-rule: nonzero; opacity: 1" ><tspan x="-14" y="5.9912" fill="rgba(0,0,0,1)">1999</tspan></text>
	</g>
	<g transform=" matrix(1 0 0 1 382 503.5) ">
		<text font-family="Verdana" font-size="11" font-weight="normal" style="stroke: none; stroke-width: 1; stroke-dasharray: ; stroke-linecap: butt; stroke-linejoin: miter; stroke-miterlimit: 10;fill:#000000;fill-opacity:1; fill-rule: nonzero; opacity: 1" ><tspan x="-14" y="5.9912" fill="rgba(0,0,0,1)">2000</tspan></text>
	</g>
	<g transform=" matrix(1 0 0 1 433 503.5) ">
		<text font-family="Verdana" font-size="11" font-weight="normal" style="stroke: none; stroke-width: 1; stroke-dasharray: ; stroke-linecap: butt; stroke-linejoin: miter; stroke-miterlimit: 10;fill:#000000;fill-opacity:1; fill-rule: nonzero; opacity: 1" ><tspan x="-14" y="5.9912" fill="rgba(0,0,0,1)">2001</tspan></text>
	</g>
	<g transform=" matrix(1 0 0 1 485 503.5) ">
		<text font-family="Verdana" font-size="11" font-weight="normal" style="stroke: none; stroke-width: 1; stroke-dasharray: ; stroke-linecap: butt; stroke-linejoin: miter; stroke-miterlimit: 10;fill:#000000;fill-opacity:1; fill-rule: nonzero; opacity: 1" ><tspan x="-14" y="5.9912" fill="rgba(0,0,0,1)">2002</tspan></text>
	</g>
	<g transform=" matrix(1 0 0 1 537 503.5) ">
		<text font-family="Verdana" font-size="11" font-weight="normal" style="stroke: none; stroke-width: 1; stroke-dasharray: ; stroke-linecap: butt; stroke-linejoin: miter; stroke-miterlimit: 10;fill:#000000;fill-opacity:1; fill-rule: nonzero; opacity: 1" ><tspan x="-14" y="5.9912" fill="rgba(0,0,0,1)">2003</tspan></text>
	</g>
	<g transform=" matrix(1 0 0 1 589 503.5) ">
		<text font-family="Verdana" font-size="11" font-weight="normal" style="stroke: none; stroke-width: 1; stroke-dasharray: ; stroke-linecap: butt; stroke-linejoin: miter; stroke-miterlimit: 10;fill:#000000;fill-opacity:1; fill-rule: nonzero; opacity: 1" ><tspan x="-14" y="5.9912" fill="rgba(0,0,0,1)">2004</tspan></text>
	</g>
	<g transform=" matrix(1 0 0 1 641 503.5) ">
		<text font-family="Verdana" font-size="11" font-weight="normal" style="stroke: none; stroke-width: 1; stroke-dasharray: ; stroke-linecap: butt; stroke-linejoin: miter; stroke-miterlimit: 10;fill:#000000;fill-opacity:1; fill-rule: nonzero; opacity: 1" ><tspan x="-14" y="5.9912" fill="rgba(0,0,0,1)">2005</tspan></text>
	</g>
	<g transform=" matrix(1 0 0 1 692 503.5) ">
		<text font-family="Verdana" font-size="11" font-weight="normal" style="stroke: none; stroke-width: 1; stroke-dasharray: ; stroke-linecap: butt; stroke-linejoin: miter; stroke-miterlimit: 10;fill:#000000;fill-opacity:1; fill-rule: nonzero; opacity: 1" ><tspan x="-14" y="5.9912" fill="rgba(0,0,0,1)">2006</tspan></text>
	</g>
	<g transform=" matrix(1 0 0 1 744 503.5) ">
		<text font-family="Verdana" font-size="11" font-weight="normal" style="stroke: none; stroke-width: 1; stroke-dasharray: ; stroke-linecap: butt; stroke-linejoin: miter; stroke-miterlimit: 10;fill:#000000;fill-opacity:1; fill-rule: nonzero; opacity: 1" ><tspan x="-14" y="5.9912" fill="rgba(0,0,0,1)">2007</tspan></text>
	</g>
	<g transform=" matrix(1 0 0 1 796 503.5) ">
		<text font-family="Verdana" font-size="11" font-weight="normal" style="stroke: none; stroke-width: 1; stroke-dasharray: ; stroke-linecap: butt; stroke-linejoin: miter; stroke-miterlimit: 10;fill:#000000;fill-opacity:1; fill-rule: nonzero; opacity: 1" ><tspan x="-14" y="5.9912" fill="rgba(0,0,0,1)">2008</tspan></text>
	</g>
	<g transform=" matrix(1 0 0 1 848 503.5) ">
		<text font-family="Verdana" font-size="11" font-weight="normal" style="stroke: none; stroke-width: 1; stroke-dasharray: ; stroke-linecap: butt; stroke-linejoin: miter; stroke-miterlimit: 10;fill:#000000;fill-opacity:1; fill-rule: nonzero; opacity: 1" ><tspan x="-14" y="5.9912" fill="rgba(0,0,0,1)">2009</tspan></text>
	</g>
	<g transform=" matrix(1 0 0 1 899 503.5) ">
		<text font-family="Verdana" font-size="11" font-weight="normal" style="stroke: none; stroke-width: 1; stroke-dasharray: ; stroke-linecap: butt; stroke-linejoin: miter; stroke-miterlimit: 10;fill:#000000;fill-opacity:1; fill-rule: nonzero; opacity: 1" ><tspan x="-14" y="5.9912" fill="rgba(0,0,0,1)">2010</tspan></text>
	</g>
	<g transform=" matrix(1 0 0 1 951 503.5) ">
		<text font-family="Verdana" font-size="11" font-weight="normal" style="stroke: none; stroke-width: 1; stroke-dasharray: ; stroke-linecap: butt; stroke-linejoin: miter; stroke-miterlimit: 10;fill:#000000;fill-opacity:1; fill-rule: nonzero; opacity: 1" ><tspan x="-14" y="5.9912" fill="rgba(0,0,0,1)">2011</tspan></text>
	</g>
	<g transform=" matrix(1 0 0 1 1003 503.5) ">
		<text font-family="Verdana" font-size="11" font-weight="normal" style="stroke: none; stroke-width: 1; stroke-dasharray: ; stroke-linecap: butt; stroke-linejoin: miter; stroke-miterlimit: 10;fill:#000000;fill-opacity:1; fill-rule: nonzero; opacity: 1" ><tspan x="-14" y="5.9912" fill="rgba(0,0,0,1)">2012</tspan></text>
	</g>
	<g transform=" matrix(1 0 0 1 59 485) ">
		<text font-family="Verdana" font-size="11" font-weight="normal" style="stroke: none; stroke-width: 1; stroke-dasharray: ; stroke-linecap: butt; stroke-linejoin: miter; stroke-miterlimit: 10;fill:#000000;fill-opacity:1; fill-rule: nonzero; opacity: 1" ><tspan x="-7" y="5.9912" fill="rgba(0,0,0,1)">0</tspan></text>
	</g>
	<g transform=" matrix(1 0 0 1 59 432) ">
		<text font-family="Verdana" font-size="11" font-weight="normal" style="stroke: none; stroke-width: 1; stroke-dasharray: ; stroke-linecap: butt; stroke-linejoin: miter; stroke-miterlimit: 10;fill:#000000;fill-opacity:1; fill-rule: nonzero; opacity: 1" ><tspan x="-21" y="5.9912" fill="rgba(0,0,0,1)">100</tspan></text>
	</g>
	<g transform=" matrix(1 0 0 1 59 379) ">
		<text font-family="Verdana" font-size="11" font-weight="normal" style="stroke: none; stroke-width: 1; stroke-dasharray: ; stroke-linecap: butt; stroke-linejoin: miter; stroke-miterlimit: 10;fill:#000000;fill-opacity:1; fill-rule: nonzero; opacity: 1" ><tspan x="-21" y="5.9912" fill="rgba(0,0,0,1)">200</tspan></text>
	</g>
	<g transform=" matrix(1 0 0 1 59 326) ">
		<text font-family="Verdana" font-size="11" font-weight="normal" style="stroke: none; stroke-width: 1; stroke-dasharray: ; stroke-linecap: butt; stroke-linejoin: miter; stroke-miterlimit: 10;fill:#000000;fill-opacity:1; fill-rule: nonzero; opacity: 1" ><tspan x="-21" y="5.9912" fill="rgba(0,0,0,1)">300</tspan></text>
	</g>
	<g transform=" matrix(1 0 0 1 59 273) ">
		<text font-family="Verdana" font-size="11" font-weight="normal" style="stroke: none; stroke-width: 1; stroke-dasharray: ; stroke-linecap: butt; stroke-linejoin: miter; stroke-miterlimit: 10;fill:#000000;fill-opacity:1; fill-rule: nonzero; opacity: 1" ><tspan x="-21" y="5.9912" fill="rgba(0,0,0,1)">400</tspan></text>
	</g>
	<g transform=" matrix(1 0 0 1 59 221) ">
		<text font-family="Verdana" font-size="11" font-weight="normal" style="stroke: none; stroke-width: 1; stroke-dasharray: ; stroke-linecap: butt; stroke-linejoin: miter; stroke-miterlimit: 10;fill:#000000;fill-opacity:1; fill-rule: nonzero; opacity: 1" ><tspan x="-21" y="5.9912" fill="rgba(0,0,0,1)">500</tspan></text>
	</g>
	<g transform=" matrix(1 0 0 1 59 168) ">
		<text font-family="Verdana" font-size="11" font-weight="normal" style="stroke: none; stroke-width: 1; stroke-dasharray: ; stroke-linecap: butt; stroke-linejoin: miter; stroke-miterlimit: 10;fill:#000000;fill-opacity:1; fill-rule: nonzero; opacity: 1" ><tspan x="-21" y="5.9912" fill="rgba(0,0,0,1)">600</tspan></text>
	</g>
	<g transform=" matrix(1 0 0 1 59 115) ">
		<text font-family="Verdana" font-size="11" font-weight="normal" style="stroke: none; stroke-width: 1; stroke-dasharray: ; stroke-linecap: butt; stroke-linejoin: miter; stroke-miterlimit: 10;fill:#000000;fill-opacity:1; fill-rule: nonzero; opacity: 1" ><tspan x="-21" y="5.9912" fill="rgba(0,0,0,1)">700</tspan></text>
	</g>
	<g transform=" matrix(1 0 0 1 59 62) ">
		<text font-family="Verdana" font-size="11" font-weight="normal" style="stroke: none; stroke-width: 1; stroke-dasharray: ; stroke-linecap: butt; stroke-linejoin: miter; stroke-miterlimit: 10;fill:#000000;fill-opacity:1; fill-rule: nonzero; opacity: 1" ><tspan x="-21" y="5.9912" fill="rgba(0,0,0,1)">800</tspan></text>
	</g>
	<g transform=" matrix(1 0 0 1 59 9) ">
		<text font-family="Verdana" font-size="11" font-weight="normal" style="stroke: none; stroke-width: 1; stroke-dasharray: ; stroke-linecap: butt; stroke-linejoin: miter; stroke-miterlimit: 10;fill:#000000;fill-opacity:1; fill-rule: nonzero; opacity: 1" ><tspan x="-21" y="5.9912" fill="rgba(0,0,0,1)">900</tspan></text>
	</g>
	<g transform=" matrix(6.123233995736766e-17 -1 1 6.123233995736766e-17 21 248) ">
		<text font-family="Verdana" font-size="12" font-weight="bold" style="stroke: none; stroke-width: 1; stroke-dasharray: ; stroke-linecap: butt; stroke-linejoin: miter; stroke-miterlimit: 10;fill:#000000;fill-opacity:1; fill-rule: nonzero; opacity: 1" ><tspan x="-54" y="5.9904" fill="rgba(0,0,0,1)">Traffic incidents</tspan></text>
	</g>
</g>
	<g transform="translate(137.5 70.21)">
		<text font-family="Verdana" font-size="11" font-weight="normal" style="stroke: none; stroke-width: 1; stroke-dasharray: ; stroke-linecap: butt; stroke-linejoin: miter; stroke-miterlimit: 10;fill:#000000;fill-opacity:1; fill-rule: nonzero; opacity: 1" ><tspan x="-61.5" y="2.4706" fill="rgb(0, 0, 0)">JS chart by amCharts</tspan></text>
	</g>
</svg>