<?xml version="1.0" encoding="UTF-8" standalone="no" ?><!DOCTYPE svg PUBLIC "-//W3C//DTD SVG 1.1//EN" "http://www.w3.org/Graphics/SVG/1.1/DTD/svg11.dtd">
<svg xmlns="http://www.w3.org/2000/svg" xmlns:xlink="http://www.w3.org/1999/xlink" version="1.1" width="1024" height="570" style="background-color: #FFFFFF" xml:space="preserve"><desc>Created with Fabric.js 1.5.0</desc><defs></defs><g style="stroke: none; stroke-width: 1; stroke-dasharray: ; stroke-linecap: butt; stroke-linejoin: miter; stroke-miterlimit: 10; fill: none; fill-rule: nonzero; opacity: 1" transform="translate(0 0)" >
	<g transform=" matrix(1 0 0 1 0 11) ">
		<text font-family="Verdana" font-size="11" font-weight="bold" style="stroke: none; stroke-width: 1; stroke-dasharray: ; stroke-linecap: butt; stroke-linejoin: miter; stroke-miterlimit: 10;fill:#000000;fill-opacity:1; fill-rule: nonzero; opacity: 1" ><tspan x="0" y="5.9912" fill="rgba(0,0,0,1)">Value</tspan></text>
	</g>
<path d="M 0.5 0.5 L 974.5 0.5 L 974.5 23.5 L 0.5 23.5 Z" style="stroke:#000000;stroke-opacity:0; stroke-width: 1; stroke-dasharray: ; stroke-linecap: butt; stroke-linejoin: miter; stroke-miterlimit: 10;fill:#FFFFFF;fill-opacity:0; fill-rule: nonzero; opacity: 1" transform=" matrix(1 0 0 1 49 0) " stroke-linecap="round" />
<path d="M -5.5 -5.5 L 6.5 6.5" style="stroke: #FFFFFF; stroke-width: 3; stroke-dasharray: ; stroke-linecap: butt; stroke-linejoin: miter; stroke-miterlimit: 10; fill: none; fill-rule: nonzero; opacity: 0" transform=" matrix(1 0 0 1 57 12) " stroke-linecap="round" />
<path d="M -5.5 6.5 L 6.5 -5.5" style="stroke: #FFFFFF; stroke-width: 3; stroke-dasharray: ; stroke-linecap: butt; stroke-linejoin: miter; stroke-miterlimit: 10; fill: none; fill-rule: nonzero; opacity: 0" transform=" matrix(1 0 0 1 57 12) " stroke-linecap="round" />
	<g transform=" matrix(1 0 0 1 87 11) ">
		<text font-family="Verdana" font-size="11" font-weight="normal" style="stroke: none; stroke-width: 1; stroke-dasharray: ; stroke-linecap: butt; stroke-linejoin: miter; stroke-miterlimit: 10;fill:#000000;fill-opacity:1; fill-rule: nonzero; opacity: 1" ><tspan x="0" y="5.9912" fill="rgba(0,0,0,1)"></tspan></text>
	</g>
<rect x="16" y="0" rx="0" ry="0" width="72" height="18" style="stroke: none; stroke-width: 0; stroke-dasharray: ; stroke-linecap: butt; stroke-linejoin: miter; stroke-miterlimit: 10;fill:#FFFFFF;fill-opacity:0.005; fill-rule: nonzero; opacity: 1" transform=" matrix(1 0 0 1 49 4) "/>
</g>
<g style="stroke: none; stroke-width: 1; stroke-dasharray: ; stroke-linecap: butt; stroke-linejoin: miter; stroke-miterlimit: 10; fill: none; fill-rule: nonzero; opacity: 1" transform="translate(0 24)" >
<path d="M 0.5 0.5 L 1023.5 0.5 L 1023.5 505.5 L 0.5 505.5 Z" style="stroke:#000000;stroke-opacity:0; stroke-width: 1; stroke-dasharray: ; stroke-linecap: butt; stroke-linejoin: miter; stroke-miterlimit: 10;fill:#FFFFFF;fill-opacity:0; fill-rule: nonzero; opacity: 1" transform="" stroke-linecap="round" />
<path d="M 0.5 0.5 L 1023.5 0.5 L 1023.5 477.5 L 0.5 477.5 L 0.5 0.5 Z" style="stroke:#000000;stroke-opacity:0; stroke-width: 1; stroke-dasharray: ; stroke-linecap: butt; stroke-linejoin: miter; stroke-miterlimit: 10;fill:#FFFFFF;fill-opacity:0; fill-rule: nonzero; opacity: 1" transform=" matrix(1 0 0 1 0 0) " stroke-linecap="round" />
<path d="M 76.5 477.5 L 76.5 477.5 L 76.5 0.5" style="stroke:#000000;stroke-opacity:0.15; stroke-width: 1; stroke-dasharray: ; stroke-linecap: butt; stroke-linejoin: miter; stroke-miterlimit: 10; fill: none; fill-rule: nonzero; opacity: 1" transform=" matrix(1 0 0 1 0 0) " stroke-linecap="round" />
<path d="M 194.5 477.5 L 194.5 477.5 L 194.5 0.5" style="stroke:#000000;stroke-opacity:0.15; stroke-width: 1; stroke-dasharray: ; stroke-linecap: butt; stroke-linejoin: miter; stroke-miterlimit: 10; fill: none; fill-rule: nonzero; opacity: 1" transform=" matrix(1 0 0 1 0 0) " stroke-linecap="round" />
<path d="M 316.5 477.5 L 316.5 477.5 L 316.5 0.5" style="stroke:#000000;stroke-opacity:0.15; stroke-width: 1; stroke-dasharray: ; stroke-linecap: butt; stroke-linejoin: miter; stroke-miterlimit: 10; fill: none; fill-rule: nonzero; opacity: 1" transform=" matrix(1 0 0 1 0 0) " stroke-linecap="round" />
<path d="M 438.5 477.5 L 438.5 477.5 L 438.5 0.5" style="stroke:#000000;stroke-opacity:0.15; stroke-width: 1; stroke-dasharray: ; stroke-linecap: butt; stroke-linejoin: miter; stroke-miterlimit: 10; fill: none; fill-rule: nonzero; opacity: 1" transform=" matrix(1 0 0 1 0 0) " stroke-linecap="round" />
<path d="M 563.5 477.5 L 563.5 477.5 L 563.5 0.5" style="stroke:#000000;stroke-opacity:0.15; stroke-width: 1; stroke-dasharray: ; stroke-linecap: butt; stroke-linejoin: miter; stroke-miterlimit: 10; fill: none; fill-rule: nonzero; opacity: 1" transform=" matrix(1 0 0 1 0 0) " stroke-linecap="round" />
<path d="M 685.5 477.5 L 685.5 477.5 L 685.5 0.5" style="stroke:#000000;stroke-opacity:0.15; stroke-width: 1; stroke-dasharray: ; stroke-linecap: butt; stroke-linejoin: miter; stroke-miterlimit: 10; fill: none; fill-rule: nonzero; opacity: 1" transform=" matrix(1 0 0 1 0 0) " stroke-linecap="round" />
<path d="M 807.5 477.5 L 807.5 477.5 L 807.5 0.5" style="stroke:#000000;stroke-opacity:0.15; stroke-width: 1; stroke-dasharray: ; stroke-linecap: butt; stroke-linejoin: miter; stroke-miterlimit: 10; fill: none; fill-rule: nonzero; opacity: 1" transform=" matrix(1 0 0 1 0 0) " stroke-linecap="round" />
<path d="M 927.5 477.5 L 927.5 477.5 L 927.5 0.5" style="stroke:#000000;stroke-opacity:0.15; stroke-width: 1; stroke-dasharray: ; stroke-linecap: butt; stroke-linejoin: miter; stroke-miterlimit: 10; fill: none; fill-rule: nonzero; opacity: 1" transform=" matrix(1 0 0 1 0 0) " stroke-linecap="round" />
<path d="M 0.5 477.5 L 0.5 477.5 L 1023.5 477.5" style="stroke:#000000;stroke-opacity:0.15; stroke-width: 1; stroke-dasharray: ; stroke-linecap: butt; stroke-linejoin: miter; stroke-miterlimit: 10; fill: none; fill-rule: nonzero; opacity: 1" transform=" matrix(1 0 0 1 0 0) " stroke-linecap="round" />
<path d="M 0.5 429.5 L 0.5 429.5 L 1023.5 429.5" style="stroke:#000000;stroke-opacity:0.15; stroke-width: 1; stroke-dasharray: ; stroke-linecap: butt; stroke-linejoin: miter; stroke-miterlimit: 10; fill: none; fill-rule: nonzero; opacity: 1" transform=" matrix(1 0 0 1 0 0) " stroke-linecap="round" />
<path d="M 0.5 382.5 L 0.5 382.5 L 1023.5 382.5" style="stroke:#000000;stroke-opacity:0.15; stroke-width: 1; stroke-dasharray: ; stroke-linecap: butt; stroke-linejoin: miter; stroke-miterlimit: 10; fill: none; fill-rule: nonzero; opacity: 1" transform=" matrix(1 0 0 1 0 0) " stroke-linecap="round" />
<path d="M 0.5 334.5 L 0.5 334.5 L 1023.5 334.5" style="stroke:#000000;stroke-opacity:0.15; stroke-width: 1; stroke-dasharray: ; stroke-linecap: butt; stroke-linejoin: miter; stroke-miterlimit: 10; fill: none; fill-rule: nonzero; opacity: 1" transform=" matrix(1 0 0 1 0 0) " stroke-linecap="round" />
<path d="M 0.5 286.5 L 0.5 286.5 L 1023.5 286.5" style="stroke:#000000;stroke-opacity:0.15; stroke-width: 1; stroke-dasharray: ; stroke-linecap: butt; stroke-linejoin: miter; stroke-miterlimit: 10; fill: none; fill-rule: nonzero; opacity: 1" transform=" matrix(1 0 0 1 0 0) " stroke-linecap="round" />
<path d="M 0.5 239.5 L 0.5 239.5 L 1023.5 239.5" style="stroke:#000000;stroke-opacity:0.15; stroke-width: 1; stroke-dasharray: ; stroke-linecap: butt; stroke-linejoin: miter; stroke-miterlimit: 10; fill: none; fill-rule: nonzero; opacity: 1" transform=" matrix(1 0 0 1 0 0) " stroke-linecap="round" />
<path d="M 0.5 191.5 L 0.5 191.5 L 1023.5 191.5" style="stroke:#000000;stroke-opacity:0.15; stroke-width: 1; stroke-dasharray: ; stroke-linecap: butt; stroke-linejoin: miter; stroke-miterlimit: 10; fill: none; fill-rule: nonzero; opacity: 1" transform=" matrix(1 0 0 1 0 0) " stroke-linecap="round" />
<path d="M 0.5 143.5 L 0.5 143.5 L 1023.5 143.5" style="stroke:#000000;stroke-opacity:0.15; stroke-width: 1; stroke-dasharray: ; stroke-linecap: butt; stroke-linejoin: miter; stroke-miterlimit: 10; fill: none; fill-rule: nonzero; opacity: 1" transform=" matrix(1 0 0 1 0 0) " stroke-linecap="round" />
<path d="M 0.5 95.5 L 0.5 95.5 L 1023.5 95.5" style="stroke:#000000;stroke-opacity:0.15; stroke-width: 1; stroke-dasharray: ; stroke-linecap: butt; stroke-linejoin: miter; stroke-miterlimit: 10; fill: none; fill-rule: nonzero; opacity: 1" transform=" matrix(1 0 0 1 0 0) " stroke-linecap="round" />
<path d="M 0.5 48.5 L 0.5 48.5 L 1023.5 48.5" style="stroke:#000000;stroke-opacity:0.15; stroke-width: 1; stroke-dasharray: ; stroke-linecap: butt; stroke-linejoin: miter; stroke-miterlimit: 10; fill: none; fill-rule: nonzero; opacity: 1" transform=" matrix(1 0 0 1 0 0) " stroke-linecap="round" />
<path d="M 0.5 0.5 L 0.5 0.5 L 1023.5 0.5" style="stroke:#000000;stroke-opacity:0.15; stroke-width: 1; stroke-dasharray: ; stroke-linecap: butt; stroke-linejoin: miter; stroke-miterlimit: 10; fill: none; fill-rule: nonzero; opacity: 1" transform=" matrix(1 0 0 1 0 0) " stroke-linecap="round" />
<rect x="0.5" y="0.5" rx="0" ry="0" width="14" height="477" style="stroke:#CC0000;stroke-opacity:0.1; stroke-width: 0; stroke-dasharray: ; stroke-linecap: butt; stroke-linejoin: miter; stroke-miterlimit: 10;fill:#CC0000;fill-opacity:0.1; fill-rule: nonzero; opacity: 0" transform=" matrix(1 0 0 1 28 0) " clip-path="url(#AmChartsEl-2033)" />
<path d="M 7.5 471.299 L 21.5 453.65 L 35.5 462.236 L 49.5 437.909 L 63.5 448.403 L 77.5 454.127 L 91.5 444.587 L 105.5 414.059 L 119.5 424.553 L 133.5 440.771 L 147.5 438.863 L 161.5 425.507 L 175.5 416.444 L 189.5 388.778 L 203.5 407.858 L 217.5 388.301 L 231.5 416.921 L 245.5 376.853 L 259.5 396.41 L 273.5 378.284 L 287.5 373.991 L 301.5 384.008 L 315.5 390.686 L 329.5 372.56 L 343.5 311.504 L 357.5 321.998 L 371.5 301.487 L 385.5 376.853 L 399.5 286.7 L 413.5 286.223 L 427.5 280.499 L 441.5 275.729 L 455.5 341.555 L 469.5 338.693 L 483.5 235.661 L 497.5 238.523 L 512.5 333.923 L 526.5 295.286 L 540.5 270.005 L 554.5 301.964 L 568.5 282.884 L 582.5 220.874 L 596.5 223.259 L 610.5 284.792 L 624.5 307.688 L 638.5 263.327 L 652.5 228.029 L 666.5 248.063 L 680.5 176.036 L 694.5 214.673 L 708.5 159.818 L 722.5 239 L 736.5 182.237 L 750.5 242.816 L 764.5 207.995 L 778.5 180.329 L 792.5 83.975 L 806.5 185.099 L 820.5 116.888 L 834.5 122.612 L 848.5 150.278 L 862.5 233.276 L 876.5 47.723 L 890.5 137.876 L 904.5 69.188 L 918.5 168.404 L 932.5 256.172 L 946.5 105.44 L 960.5 47.246 L 974.5 139.784 L 988.5 158.387 L 1002.5 45.815 L 1016.5 219.92 M 0 0 L 0 0" style="stroke:#B0DE09;stroke-opacity:1; stroke-width: 1; stroke-dasharray: ; stroke-linecap: butt; stroke-linejoin: miter; stroke-miterlimit: 10; fill: none; fill-rule: nonzero; opacity: 1" transform=" matrix(1 0 0 1 0 0) " stroke-linecap="round"  clip-path="url(#AmChartsEl-2035)" />
<rect x="0" y="0" rx="0" ry="0" width="1023" height="477" style="stroke: none; stroke-width: 0; stroke-dasharray: ; stroke-linecap: butt; stroke-linejoin: miter; stroke-miterlimit: 10; fill: transparent; fill-rule: nonzero; opacity: 1" transform=""/>
<path d="M 0.5 0.5 L 1023.5 0.5" style="stroke:#000000;stroke-opacity:0; stroke-width: 1; stroke-dasharray: ; stroke-linecap: butt; stroke-linejoin: miter; stroke-miterlimit: 10; fill: none; fill-rule: nonzero; opacity: 1" transform=" matrix(1 0 0 1 0 477) " stroke-linecap="round" />
<path d="M 0.5 0.5 L 0.5 477.5" style="stroke:#000000;stroke-opacity:0; stroke-width: 1; stroke-dasharray: ; stroke-linecap: butt; stroke-linejoin: miter; stroke-miterlimit: 10; fill: none; fill-rule: nonzero; opacity: 1" transform=" matrix(1 0 0 1 0 0) " stroke-linecap="round" />
<path d="M 0.5 0.5 L 1023.5 0.5 L 1023.5 0.5" style="stroke:#CC0000;stroke-opacity:0.5; stroke-width: 1; stroke-dasharray: ; stroke-linecap: butt; stroke-linejoin: miter; stroke-miterlimit: 10; fill: none; fill-rule: nonzero; opacity: 0" transform=" matrix(1 0 0 1 0 22) " stroke-linecap="round"  clip-path="url(#AmChartsEl-2034)" />
<rect x="0" y="0" rx="0" ry="0" width="1023" height="477" style="stroke: none; stroke-width: 0; stroke-dasharray: ; stroke-linecap: butt; stroke-linejoin: miter; stroke-miterlimit: 10; fill: transparent; fill-rule: nonzero; opacity: 1" transform=""/>
<path d="M 0.5 0.5 L 8.5 -3.5 L 8.5 -18.5 L -6.5 -18.5 L -6.5 -3.5 L 0.5 0.5 Z" style="stroke:#888888;stroke-opacity:1; stroke-width: 1; stroke-dasharray: ; stroke-linecap: butt; stroke-linejoin: miter; stroke-miterlimit: 10;fill:#85CDE6;fill-opacity:1; fill-rule: nonzero; opacity: 1" transform=" matrix(1 0 0 1 35 477) " stroke-linecap="round" />
	<g transform=" matrix(1 0 0 1 35 466) ">
		<text font-family="Verdana" font-size="11" font-weight="normal" style="stroke: none; stroke-width: 1; stroke-dasharray: ; stroke-linecap: butt; stroke-linejoin: miter; stroke-miterlimit: 10;fill:#000000;fill-opacity:1; fill-rule: nonzero; opacity: 1" ><tspan x="-4" y="5.9912" fill="rgba(0,0,0,1)">X</tspan></text>
	</g>
<path d="M 0.5 0.5 L 8.5 -3.5 L 8.5 -18.5 L -6.5 -18.5 L -6.5 -3.5 L 0.5 0.5 Z" style="stroke:#888888;stroke-opacity:1; stroke-width: 1; stroke-dasharray: ; stroke-linecap: butt; stroke-linejoin: miter; stroke-miterlimit: 10;fill:#85CDE6;fill-opacity:1; fill-rule: nonzero; opacity: 1" transform=" matrix(1 0 0 1 63 477) " stroke-linecap="round" />
	<g transform=" matrix(1 0 0 1 63 466) ">
		<text font-family="Verdana" font-size="11" font-weight="normal" style="stroke: none; stroke-width: 1; stroke-dasharray: ; stroke-linecap: butt; stroke-linejoin: miter; stroke-miterlimit: 10;fill:#000000;fill-opacity:1; fill-rule: nonzero; opacity: 1" ><tspan x="-4" y="5.9912" fill="rgba(0,0,0,1)">Z</tspan></text>
	</g>
<path d="M 0.5 0.5 L 0.5 -7.5" style="stroke:#888888;stroke-opacity:1; stroke-width: 1; stroke-dasharray: ; stroke-linecap: butt; stroke-linejoin: miter; stroke-miterlimit: 10; fill: none; fill-rule: nonzero; opacity: 1" transform=" matrix(1 0 0 1 77 454) " stroke-linecap="round" />
<circle cx="0" cy="0" r="7.5" style="stroke:#888888;stroke-opacity:1; stroke-width: 1; stroke-dasharray: ; stroke-linecap: butt; stroke-linejoin: miter; stroke-miterlimit: 10;fill:#85CDE6;fill-opacity:1; fill-rule: nonzero; opacity: 1" transform="  matrix(1 0 0 1 77 439) "/>
	<g transform=" matrix(1 0 0 1 77 437) ">
		<text font-family="Verdana" font-size="11" font-weight="normal" style="stroke: none; stroke-width: 1; stroke-dasharray: ; stroke-linecap: butt; stroke-linejoin: miter; stroke-miterlimit: 10;fill:#000000;fill-opacity:1; fill-rule: nonzero; opacity: 1" ><tspan x="-4" y="5.9912" fill="rgba(0,0,0,1)">U</tspan></text>
	</g>
<path d="M 0.5 0.5 L 0.5 -7.5" style="stroke:#888888;stroke-opacity:1; stroke-width: 1; stroke-dasharray: ; stroke-linecap: butt; stroke-linejoin: miter; stroke-miterlimit: 10; fill: none; fill-rule: nonzero; opacity: 1" transform=" matrix(1 0 0 1 147 438) " stroke-linecap="round" />
<circle cx="0" cy="0" r="7.5" style="stroke:#888888;stroke-opacity:1; stroke-width: 1; stroke-dasharray: ; stroke-linecap: butt; stroke-linejoin: miter; stroke-miterlimit: 10;fill:#DADADA;fill-opacity:1; fill-rule: nonzero; opacity: 1" transform="  matrix(1 0 0 1 147 423) "/>
	<g transform=" matrix(1 0 0 1 147 421) ">
		<text font-family="Verdana" font-size="11" font-weight="normal" style="stroke: none; stroke-width: 1; stroke-dasharray: ; stroke-linecap: butt; stroke-linejoin: miter; stroke-miterlimit: 10;fill:#000000;fill-opacity:1; fill-rule: nonzero; opacity: 1" ><tspan x="-4" y="5.9912" fill="rgba(0,0,0,1)">D</tspan></text>
	</g>
<path d="M 0.5 0.5 L 0.5 -7.5" style="stroke:#888888;stroke-opacity:1; stroke-width: 1; stroke-dasharray: ; stroke-linecap: butt; stroke-linejoin: miter; stroke-miterlimit: 10; fill: none; fill-rule: nonzero; opacity: 1" transform=" matrix(1 0 0 1 259 396) " stroke-linecap="round" />
<circle cx="0" cy="0" r="7.5" style="stroke:#888888;stroke-opacity:1; stroke-width: 1; stroke-dasharray: ; stroke-linecap: butt; stroke-linejoin: miter; stroke-miterlimit: 10;fill:#DADADA;fill-opacity:1; fill-rule: nonzero; opacity: 1" transform="  matrix(1 0 0 1 259 381) "/>
	<g transform=" matrix(1 0 0 1 259 379) ">
		<text font-family="Verdana" font-size="11" font-weight="normal" style="stroke: none; stroke-width: 1; stroke-dasharray: ; stroke-linecap: butt; stroke-linejoin: miter; stroke-miterlimit: 10;fill:#000000;fill-opacity:1; fill-rule: nonzero; opacity: 1" ><tspan x="-3" y="5.9912" fill="rgba(0,0,0,1)">L</tspan></text>
	</g>
<path d="M 0.5 0.5 L 0.5 -7.5" style="stroke:#888888;stroke-opacity:1; stroke-width: 1; stroke-dasharray: ; stroke-linecap: butt; stroke-linejoin: miter; stroke-miterlimit: 10; fill: none; fill-rule: nonzero; opacity: 1" transform=" matrix(1 0 0 1 259 373) " stroke-linecap="round" />
<circle cx="0" cy="0" r="7.5" style="stroke:#888888;stroke-opacity:1; stroke-width: 1; stroke-dasharray: ; stroke-linecap: butt; stroke-linejoin: miter; stroke-miterlimit: 10;fill:#DADADA;fill-opacity:1; fill-rule: nonzero; opacity: 1" transform="  matrix(1 0 0 1 259 358) "/>
	<g transform=" matrix(1 0 0 1 259 356) ">
		<text font-family="Verdana" font-size="11" font-weight="normal" style="stroke: none; stroke-width: 1; stroke-dasharray: ; stroke-linecap: butt; stroke-linejoin: miter; stroke-miterlimit: 10;fill:#000000;fill-opacity:1; fill-rule: nonzero; opacity: 1" ><tspan x="-4" y="5.9912" fill="rgba(0,0,0,1)">R</tspan></text>
	</g>
<path d="M 0.5 0.5 L 8.5 -7.5 L 4.5 -7.5 L 4.5 -15.5 L -3.5 -15.5 L -3.5 -7.5 L -7.5 -7.5 L 0.5 0.5 Z" style="stroke:#888888;stroke-opacity:1; stroke-width: 1; stroke-dasharray: ; stroke-linecap: butt; stroke-linejoin: miter; stroke-miterlimit: 10;fill:#CC0000;fill-opacity:1; fill-rule: nonzero; opacity: 1" transform=" matrix(1 0 0 1 483 235) " stroke-linecap="round" />
	<g transform=" matrix(1 0 0 1 483 235) ">
		<text font-family="Verdana" font-size="11" font-weight="normal" style="stroke: none; stroke-width: 1; stroke-dasharray: ; stroke-linecap: butt; stroke-linejoin: miter; stroke-miterlimit: 10; fill: #000000; fill-rule: nonzero; opacity: 0" ><tspan x="0" y="5.9912" fill="#000000"></tspan></text>
	</g>
<path d="M -53.5 -4.5 L -4.5 -4.5 L 0.5 0.5 L 5.5 -4.5 L 55.5 -4.5 L 55.5 -37.5 L -53.5 -37.5 L -53.5 -4.5 Z" style="stroke:#888888;stroke-opacity:1; stroke-width: 1; stroke-dasharray: ; stroke-linecap: butt; stroke-linejoin: miter; stroke-miterlimit: 10;fill:#DADADA;fill-opacity:1; fill-rule: nonzero; opacity: 1" transform=" matrix(1 0 0 1 568 282) " stroke-linecap="round" />
<g transform="translate(0 10.69)">
	<g transform="translate(0 -6.5) matrix(1 0 0 1 568 253) ">
		<text font-family="Verdana" font-size="11" font-weight="normal" style="stroke: none; stroke-width: 1; stroke-dasharray: ; stroke-linecap: butt; stroke-linejoin: miter; stroke-miterlimit: 10; fill: #000000; fill-rule: nonzero; opacity: 1" ><tspan x="-44.5" y="2.4706" fill="#000000">Longer text can</tspan></text>
	</g>
	<g transform="translate(0 6.5) matrix(1 0 0 1 568 253) ">
		<text font-family="Verdana" font-size="11" font-weight="normal" style="stroke: none; stroke-width: 1; stroke-dasharray: ; stroke-linecap: butt; stroke-linejoin: miter; stroke-miterlimit: 10; fill: #000000; fill-rule: nonzero; opacity: 1" ><tspan x="-49.5" y="2.4706" fill="#000000">also be displayed</tspan></text>
	</g>
</g>
	<g transform=" matrix(1 0 0 1 79 489.5) ">
		<text font-family="Verdana" font-size="11" font-weight="bold" style="stroke: none; stroke-width: 1; stroke-dasharray: ; stroke-linecap: butt; stroke-linejoin: miter; stroke-miterlimit: 10;fill:#000000;fill-opacity:1; fill-rule: nonzero; opacity: 1" ><tspan x="0" y="5.9912" fill="rgba(0,0,0,1)">2015</tspan></text>
	</g>
	<g transform=" matrix(1 0 0 1 197 489.5) ">
		<text font-family="Verdana" font-size="11" font-weight="normal" style="stroke: none; stroke-width: 1; stroke-dasharray: ; stroke-linecap: butt; stroke-linejoin: miter; stroke-miterlimit: 10;fill:#000000;fill-opacity:1; fill-rule: nonzero; opacity: 1" ><tspan x="0" y="5.9912" fill="rgba(0,0,0,1)">Mar</tspan></text>
	</g>
	<g transform=" matrix(1 0 0 1 319 489.5) ">
		<text font-family="Verdana" font-size="11" font-weight="normal" style="stroke: none; stroke-width: 1; stroke-dasharray: ; stroke-linecap: butt; stroke-linejoin: miter; stroke-miterlimit: 10;fill:#000000;fill-opacity:1; fill-rule: nonzero; opacity: 1" ><tspan x="0" y="5.9912" fill="rgba(0,0,0,1)">May</tspan></text>
	</g>
	<g transform=" matrix(1 0 0 1 441 489.5) ">
		<text font-family="Verdana" font-size="11" font-weight="normal" style="stroke: none; stroke-width: 1; stroke-dasharray: ; stroke-linecap: butt; stroke-linejoin: miter; stroke-miterlimit: 10;fill:#000000;fill-opacity:1; fill-rule: nonzero; opacity: 1" ><tspan x="0" y="5.9912" fill="rgba(0,0,0,1)">Jul</tspan></text>
	</g>
	<g transform=" matrix(1 0 0 1 566 489.5) ">
		<text font-family="Verdana" font-size="11" font-weight="normal" style="stroke: none; stroke-width: 1; stroke-dasharray: ; stroke-linecap: butt; stroke-linejoin: miter; stroke-miterlimit: 10;fill:#000000;fill-opacity:1; fill-rule: nonzero; opacity: 1" ><tspan x="0" y="5.9912" fill="rgba(0,0,0,1)">Sep</tspan></text>
	</g>
	<g transform=" matrix(1 0 0 1 688 489.5) ">
		<text font-family="Verdana" font-size="11" font-weight="normal" style="stroke: none; stroke-width: 1; stroke-dasharray: ; stroke-linecap: butt; stroke-linejoin: miter; stroke-miterlimit: 10;fill:#000000;fill-opacity:1; fill-rule: nonzero; opacity: 1" ><tspan x="0" y="5.9912" fill="rgba(0,0,0,1)">Nov</tspan></text>
	</g>
	<g transform=" matrix(1 0 0 1 810 489.5) ">
		<text font-family="Verdana" font-size="11" font-weight="bold" style="stroke: none; stroke-width: 1; stroke-dasharray: ; stroke-linecap: butt; stroke-linejoin: miter; stroke-miterlimit: 10;fill:#000000;fill-opacity:1; fill-rule: nonzero; opacity: 1" ><tspan x="0" y="5.9912" fill="rgba(0,0,0,1)">2016</tspan></text>
	</g>
	<g transform=" matrix(1 0 0 1 930 489.5) ">
		<text font-family="Verdana" font-size="11" font-weight="normal" style="stroke: none; stroke-width: 1; stroke-dasharray: ; stroke-linecap: butt; stroke-linejoin: miter; stroke-miterlimit: 10;fill:#000000;fill-opacity:1; fill-rule: nonzero; opacity: 1" ><tspan x="0" y="5.9912" fill="rgba(0,0,0,1)">Mar</tspan></text>
	</g>
	<g transform=" matrix(1 0 0 1 4 469.5) ">
		<text font-family="Verdana" font-size="11" font-weight="normal" style="stroke: none; stroke-width: 1; stroke-dasharray: ; stroke-linecap: butt; stroke-linejoin: miter; stroke-miterlimit: 10;fill:#000000;fill-opacity:1; fill-rule: nonzero; opacity: 1" ><tspan x="0" y="5.9912" fill="rgba(0,0,0,1)">100</tspan></text>
	</g>
	<g transform=" matrix(1 0 0 1 4 421.5) ">
		<text font-family="Verdana" font-size="11" font-weight="normal" style="stroke: none; stroke-width: 1; stroke-dasharray: ; stroke-linecap: butt; stroke-linejoin: miter; stroke-miterlimit: 10;fill:#000000;fill-opacity:1; fill-rule: nonzero; opacity: 1" ><tspan x="0" y="5.9912" fill="rgba(0,0,0,1)">200</tspan></text>
	</g>
	<g transform=" matrix(1 0 0 1 4 374.5) ">
		<text font-family="Verdana" font-size="11" font-weight="normal" style="stroke: none; stroke-width: 1; stroke-dasharray: ; stroke-linecap: butt; stroke-linejoin: miter; stroke-miterlimit: 10;fill:#000000;fill-opacity:1; fill-rule: nonzero; opacity: 1" ><tspan x="0" y="5.9912" fill="rgba(0,0,0,1)">300</tspan></text>
	</g>
	<g transform=" matrix(1 0 0 1 4 326.5) ">
		<text font-family="Verdana" font-size="11" font-weight="normal" style="stroke: none; stroke-width: 1; stroke-dasharray: ; stroke-linecap: butt; stroke-linejoin: miter; stroke-miterlimit: 10;fill:#000000;fill-opacity:1; fill-rule: nonzero; opacity: 1" ><tspan x="0" y="5.9912" fill="rgba(0,0,0,1)">400</tspan></text>
	</g>
	<g transform=" matrix(1 0 0 1 4 278.5) ">
		<text font-family="Verdana" font-size="11" font-weight="normal" style="stroke: none; stroke-width: 1; stroke-dasharray: ; stroke-linecap: butt; stroke-linejoin: miter; stroke-miterlimit: 10;fill:#000000;fill-opacity:1; fill-rule: nonzero; opacity: 1" ><tspan x="0" y="5.9912" fill="rgba(0,0,0,1)">500</tspan></text>
	</g>
	<g transform=" matrix(1 0 0 1 4 231.5) ">
		<text font-family="Verdana" font-size="11" font-weight="normal" style="stroke: none; stroke-width: 1; stroke-dasharray: ; stroke-linecap: butt; stroke-linejoin: miter; stroke-miterlimit: 10;fill:#000000;fill-opacity:1; fill-rule: nonzero; opacity: 1" ><tspan x="0" y="5.9912" fill="rgba(0,0,0,1)">600</tspan></text>
	</g>
	<g transform=" matrix(1 0 0 1 4 183.5) ">
		<text font-family="Verdana" font-size="11" font-weight="normal" style="stroke: none; stroke-width: 1; stroke-dasharray: ; stroke-linecap: butt; stroke-linejoin: miter; stroke-miterlimit: 10;fill:#000000;fill-opacity:1; fill-rule: nonzero; opacity: 1" ><tspan x="0" y="5.9912" fill="rgba(0,0,0,1)">700</tspan></text>
	</g>
	<g transform=" matrix(1 0 0 1 4 135.5) ">
		<text font-family="Verdana" font-size="11" font-weight="normal" style="stroke: none; stroke-width: 1; stroke-dasharray: ; stroke-linecap: butt; stroke-linejoin: miter; stroke-miterlimit: 10;fill:#000000;fill-opacity:1; fill-rule: nonzero; opacity: 1" ><tspan x="0" y="5.9912" fill="rgba(0,0,0,1)">800</tspan></text>
	</g>
	<g transform=" matrix(1 0 0 1 4 87.5) ">
		<text font-family="Verdana" font-size="11" font-weight="normal" style="stroke: none; stroke-width: 1; stroke-dasharray: ; stroke-linecap: butt; stroke-linejoin: miter; stroke-miterlimit: 10;fill:#000000;fill-opacity:1; fill-rule: nonzero; opacity: 1" ><tspan x="0" y="5.9912" fill="rgba(0,0,0,1)">900</tspan></text>
	</g>
	<g transform=" matrix(1 0 0 1 4 40.5) ">
		<text font-family="Verdana" font-size="11" font-weight="normal" style="stroke: none; stroke-width: 1; stroke-dasharray: ; stroke-linecap: butt; stroke-linejoin: miter; stroke-miterlimit: 10;fill:#000000;fill-opacity:1; fill-rule: nonzero; opacity: 1" ><tspan x="0" y="5.9912" fill="rgba(0,0,0,1)">1k</tspan></text>
	</g>
	<g transform=" matrix(1 0 0 1 4 -1) ">
		<text font-family="Verdana" font-size="11" font-weight="normal" style="stroke: none; stroke-width: 1; stroke-dasharray: ; stroke-linecap: butt; stroke-linejoin: miter; stroke-miterlimit: 10;fill:#000000;fill-opacity:1; fill-rule: nonzero; opacity: 1" ><tspan x="0" y="5.9912" fill="rgba(0,0,0,1)"></tspan></text>
	</g>
<rect x="0" y="0" rx="0" ry="0" width="1023" height="477" style="stroke: none; stroke-width: 0; stroke-dasharray: ; stroke-linecap: butt; stroke-linejoin: miter; stroke-miterlimit: 10; fill: transparent; fill-rule: nonzero; opacity: 1" transform=""/>
</g>
<g style="stroke: none; stroke-width: 1; stroke-dasharray: ; stroke-linecap: butt; stroke-linejoin: miter; stroke-miterlimit: 10; fill: none; fill-rule: nonzero; opacity: 1" transform="translate(0 530)" >
<path d="M 0.5 0.5 L 1023.5 0.5 L 1023.5 39.5 L 0.5 39.5 Z" style="stroke:#000000;stroke-opacity:0; stroke-width: 1; stroke-dasharray: ; stroke-linecap: butt; stroke-linejoin: miter; stroke-miterlimit: 10;fill:#FFFFFF;fill-opacity:0; fill-rule: nonzero; opacity: 1" transform="" stroke-linecap="round" />
<path d="M 0.5 0.5 L 1023.5 0.5 L 1023.5 0.5 L 0.5 0.5 L 0.5 0.5 Z" style="stroke:#000000;stroke-opacity:0; stroke-width: 1; stroke-dasharray: ; stroke-linecap: butt; stroke-linejoin: miter; stroke-miterlimit: 10;fill:#FFFFFF;fill-opacity:0; fill-rule: nonzero; opacity: 1" transform=" matrix(1 0 0 1 0 40) " stroke-linecap="round" />
<path d="M 68.5 0.5 L 68.5 0.5 L 68.5 0.5" style="stroke:#000000;stroke-opacity:0.15; stroke-width: 1; stroke-dasharray: ; stroke-linecap: butt; stroke-linejoin: miter; stroke-miterlimit: 10; fill: none; fill-rule: nonzero; opacity: 1" transform=" matrix(1 0 0 1 0 40) " stroke-linecap="round" />
<path d="M 188.5 0.5 L 188.5 0.5 L 188.5 0.5" style="stroke:#000000;stroke-opacity:0.15; stroke-width: 1; stroke-dasharray: ; stroke-linecap: butt; stroke-linejoin: miter; stroke-miterlimit: 10; fill: none; fill-rule: nonzero; opacity: 1" transform=" matrix(1 0 0 1 0 40) " stroke-linecap="round" />
<path d="M 313.5 0.5 L 313.5 0.5 L 313.5 0.5" style="stroke:#000000;stroke-opacity:0.15; stroke-width: 1; stroke-dasharray: ; stroke-linecap: butt; stroke-linejoin: miter; stroke-miterlimit: 10; fill: none; fill-rule: nonzero; opacity: 1" transform=" matrix(1 0 0 1 0 40) " stroke-linecap="round" />
<path d="M 438.5 0.5 L 438.5 0.5 L 438.5 0.5" style="stroke:#000000;stroke-opacity:0.15; stroke-width: 1; stroke-dasharray: ; stroke-linecap: butt; stroke-linejoin: miter; stroke-miterlimit: 10; fill: none; fill-rule: nonzero; opacity: 1" transform=" matrix(1 0 0 1 0 40) " stroke-linecap="round" />
<path d="M 565.5 0.5 L 565.5 0.5 L 565.5 0.5" style="stroke:#000000;stroke-opacity:0.15; stroke-width: 1; stroke-dasharray: ; stroke-linecap: butt; stroke-linejoin: miter; stroke-miterlimit: 10; fill: none; fill-rule: nonzero; opacity: 1" transform=" matrix(1 0 0 1 0 40) " stroke-linecap="round" />
<path d="M 690.5 0.5 L 690.5 0.5 L 690.5 0.5" style="stroke:#000000;stroke-opacity:0.15; stroke-width: 1; stroke-dasharray: ; stroke-linecap: butt; stroke-linejoin: miter; stroke-miterlimit: 10; fill: none; fill-rule: nonzero; opacity: 1" transform=" matrix(1 0 0 1 0 40) " stroke-linecap="round" />
<path d="M 814.5 0.5 L 814.5 0.5 L 814.5 0.5" style="stroke:#000000;stroke-opacity:0.15; stroke-width: 1; stroke-dasharray: ; stroke-linecap: butt; stroke-linejoin: miter; stroke-miterlimit: 10; fill: none; fill-rule: nonzero; opacity: 1" transform=" matrix(1 0 0 1 0 40) " stroke-linecap="round" />
<path d="M 937.5 0.5 L 937.5 0.5 L 937.5 0.5" style="stroke:#000000;stroke-opacity:0.15; stroke-width: 1; stroke-dasharray: ; stroke-linecap: butt; stroke-linejoin: miter; stroke-miterlimit: 10; fill: none; fill-rule: nonzero; opacity: 1" transform=" matrix(1 0 0 1 0 40) " stroke-linecap="round" />
<path d="M 0.5 40.5 L 1024.5 40.5 L 1024.5 40.5" style="stroke:#000000;stroke-opacity:0; stroke-width: 1; stroke-dasharray: ; stroke-linecap: butt; stroke-linejoin: miter; stroke-miterlimit: 10; fill: none; fill-rule: nonzero; opacity: 1" transform=" matrix(1 0 0 1 0 0) " stroke-linecap="round" />
<path d="M 0.5 0.5 L 1023.5 0.5" style="stroke:#000000;stroke-opacity:0; stroke-width: 1; stroke-dasharray: ; stroke-linecap: butt; stroke-linejoin: miter; stroke-miterlimit: 10; fill: none; fill-rule: nonzero; opacity: 1" transform=" matrix(1 0 0 1 0 40) " stroke-linecap="round" />
<path d="M 0.5 0.5 L 0.5 40.5" style="stroke:#000000;stroke-opacity:0; stroke-width: 1; stroke-dasharray: ; stroke-linecap: butt; stroke-linejoin: miter; stroke-miterlimit: 10; fill: none; fill-rule: nonzero; opacity: 0" transform=" matrix(1 0 0 1 0 0) " stroke-linecap="round" />
<path d="M 0.5 0.5 L 1023.5 0.5" style="stroke:#000000;stroke-opacity:0; stroke-width: 1; stroke-dasharray: ; stroke-linecap: butt; stroke-linejoin: miter; stroke-miterlimit: 10; fill: none; fill-rule: nonzero; opacity: 1" transform=" matrix(1 0 0 1 0 40) " stroke-linecap="round" />
<rect x="0.5" y="0.5" rx="0" ry="0" width="1024" height="40" style="stroke:#D4D4D4;stroke-opacity:1; stroke-width: 1; stroke-dasharray: ; stroke-linecap: butt; stroke-linejoin: miter; stroke-miterlimit: 10;fill:#D4D4D4;fill-opacity:1; fill-rule: nonzero; opacity: 1" transform=" matrix(1 0 0 1 0 0) "/>
<rect x="0.5" y="0.5" rx="0" ry="0" width="1023" height="41" style="stroke:#EFEFEF;stroke-opacity:1; stroke-width: 0; stroke-dasharray: ; stroke-linecap: butt; stroke-linejoin: miter; stroke-miterlimit: 10;fill:#EFEFEF;fill-opacity:1; fill-rule: nonzero; opacity: 1" transform=" matrix(1 0 0 1 0 0) "/>
<path d="M 1.5 37.40667 L 3.5 37.48667 L 5.5 37.59333 L 7.5 37.46 L 9.5 37.27333 L 11.5 37.40667 L 13.5 36.55333 L 15.5 36.52667 L 17.5 36.5 L 19.5 36.92667 L 21.5 37.11333 L 24.5 36.31333 L 26.5 36.26 L 28.5 36.84667 L 30.5 36.47333 L 32.5 36.98 L 34.5 36.87333 L 36.5 36.79333 L 38.5 36.92667 L 40.5 37.00667 L 42.5 35.88667 L 44.5 36.07333 L 46.5 35.62 L 48.5 35.86 L 50.5 35.56667 L 52.5 36.44667 L 54.5 36.79333 L 56.5 36.68667 L 58.5 35.88667 L 60.5 36.20667 L 62.5 35.83333 L 64.5 35.88667 L 66.5 35.51333 L 69.5 36.60667 L 71.5 36.55333 L 73.5 36.55333 L 75.5 36.52667 L 77.5 36.31333 L 79.5 36.47333 L 81.5 36.26 L 83.5 35.38 L 85.5 35.40667 L 87.5 36.12667 L 89.5 35.99333 L 91.5 34.87333 L 93.5 36.34 L 95.5 34.68667 L 97.5 34.42 L 99.5 35.91333 L 101.5 36.07333 L 103.5 34.28667 L 105.5 35.22 L 107.5 34.28667 L 109.5 34.18 L 112.5 34.39333 L 114.5 34.23333 L 116.5 35.94 L 118.5 34.87333 L 120.5 34.66 L 122.5 33.75333 L 124.5 35.24667 L 126.5 35.48667 L 128.5 35.35333 L 130.5 34.39333 L 132.5 35.78 L 134.5 35.38 L 136.5 36.02 L 138.5 35.7 L 140.5 35.62 L 142.5 35.67333 L 144.5 33.62 L 146.5 35.67333 L 148.5 34.02 L 150.5 33.43333 L 152.5 35.64667 L 154.5 34.44667 L 157.5 34.15333 L 159.5 33.96667 L 161.5 34.92667 L 163.5 33.72667 L 165.5 33.99333 L 167.5 33.11333 L 169.5 33.38 L 171.5 32.71333 L 173.5 34.07333 L 175.5 34.42 L 177.5 34.28667 L 179.5 34.55333 L 181.5 33.00667 L 183.5 33.99333 L 185.5 33.56667 L 187.5 34.71333 L 189.5 32.87333 L 191.5 33.40667 L 193.5 32.019999999999996 L 195.5 33.80667 L 197.5 34.28667 L 199.5 34.84667 L 202.5 34.47333 L 204.5 33.94 L 206.5 31.64667 L 208.5 34.87333 L 210.5 35.03333 L 212.5 32.07333 L 214.5 33.78 L 216.5 33.43333 L 218.5 32.84667 L 220.5 33.46 L 222.5 31.78 L 224.5 33.22 L 226.5 32.473330000000004 L 228.5 32.60667 L 230.5 32.44667 L 232.5 34.44667 L 234.5 32.52667 L 236.5 32.20667 L 238.5 31.72667 L 240.5 30.68667 L 242.5 31.64667 L 244.5 32.473330000000004 L 247.5 32.20667 L 249.5 32.42 L 251.5 34.26 L 253.5 33.96667 L 255.5 30.82 L 257.5 31.54 L 259.5 34.12667 L 261.5 33.3 L 263.5 32.98 L 265.5 34.02 L 267.5 32.71333 L 269.5 31.51333 L 271.5 31.3 L 273.5 32.66 L 275.5 32.28667 L 277.5 31.22 L 279.5 33.88667 L 281.5 33.27333 L 283.5 32.04667 L 285.5 30.74 L 287.5 30.5 L 290.5 32.04667 L 292.5 33.32667 L 294.5 33.19333 L 296.5 32.76667 L 298.5 33.80667 L 300.5 33.59333 L 302.5 31.88667 L 304.5 32.60667 L 306.5 29.16667 L 308.5 30.04667 L 310.5 30.68667 L 312.5 31.48667 L 314.5 28.76667 L 316.5 29.83333 L 318.5 32.98 L 320.5 31.48667 L 322.5 31.62 L 324.5 30.95333 L 326.5 30.52667 L 328.5 29.48667 L 330.5 28.92667 L 332.5 31.96667 L 335.5 28.60667 L 337.5 28.71333 L 339.5 29.64667 L 341.5 28.02 L 343.5 31.35333 L 345.5 32.98 L 347.5 28.55333 L 349.5 31.46 L 351.5 27.75333 L 353.5 33.11333 L 355.5 28.02 L 357.5 28.52667 L 359.5 29.08667 L 361.5 29.14 L 363.5 32.31333 L 365.5 30.18 L 367.5 28.36667 L 369.5 32.18 L 371.5 31.99333 L 373.5 31.35333 L 375.5 27.99333 L 377.5 32.76667 L 380.5 31.83333 L 382.5 29.7 L 384.5 30.63333 L 386.5 29.22 L 388.5 30.79333 L 390.5 32.20667 L 392.5 30.42 L 394.5 29.72667 L 396.5 26.79333 L 398.5 26.79333 L 400.5 27.83333 L 402.5 28.23333 L 404.5 27.16667 L 406.5 31.78 L 408.5 28.31333 L 410.5 29.72667 L 412.5 28.76667 L 414.5 27.51333 L 416.5 30.34 L 418.5 27.14 L 420.5 29.3 L 422.5 30.76667 L 425.5 27.00667 L 427.5 28.84667 L 429.5 31.99333 L 431.5 27.06 L 433.5 26.82 L 435.5 31.96667 L 437.5 25.94 L 439.5 31.64667 L 441.5 30.76667 L 443.5 26.04667 L 445.5 30.23333 L 447.5 26.55333 L 449.5 30.07333 L 451.5 31.43333 L 453.5 27.94 L 455.5 25.27333 L 457.5 26.44667 L 459.5 26.26 L 461.5 30.23333 L 463.5 28.31333 L 465.5 24.74 L 468.5 26.12667 L 470.5 30.52667 L 472.5 26.52667 L 474.5 26.42 L 476.5 30.07333 L 478.5 27.64667 L 480.5 29.72667 L 482.5 24.87333 L 484.5 25.32667 L 486.5 29.16667 L 488.5 25.80667 L 490.5 24.31333 L 492.5 25.75333 L 494.5 31.32667 L 496.5 27.11333 L 498.5 28.68667 L 500.5 30.44667 L 502.5 29.51333 L 504.5 24.47333 L 506.5 23.78 L 508.5 27.08667 L 510.5 26.52667 L 513.5 27.78 L 515.5 29.86 L 517.5 29.86 L 519.5 29.80667 L 521.5 27.7 L 523.5 26.71333 L 525.5 27.32667 L 527.5 27.08667 L 529.5 28.04667 L 531.5 30.39333 L 533.5 27.64667 L 535.5 30.47333 L 537.5 29.62 L 539.5 24.28667 L 541.5 27.24667 L 543.5 26.79333 L 545.5 28.1 L 547.5 26.23333 L 549.5 26.74 L 551.5 23.00667 L 553.5 26.60667 L 555.5 29.75333 L 558.5 22.84667 L 560.5 26.44667 L 562.5 28.02 L 564.5 23.16667 L 566.5 28.74 L 568.5 25.94 L 570.5 26.20667 L 572.5 28.23333 L 574.5 25.99333 L 576.5 26.95333 L 578.5 22.92667 L 580.5 24.31333 L 582.5 23.80667 L 584.5 24.79333 L 586.5 29.03333 L 588.5 24.44667 L 590.5 23.48667 L 592.5 21.67333 L 594.5 27.96667 L 596.5 23.48667 L 598.5 26.31333 L 601.5 25.08667 L 603.5 27.06 L 605.5 23.62 L 607.5 28.98 L 609.5 28.18 L 611.5 25.32667 L 613.5 28.5 L 615.5 23.64667 L 617.5 24.95333 L 619.5 27.06 L 621.5 28.84667 L 623.5 29.3 L 625.5 23.96667 L 627.5 27.99333 L 629.5 22.1 L 631.5 22.71333 L 633.5 28.34 L 635.5 23.11333 L 637.5 25.38 L 639.5 26.5 L 641.5 27.94 L 643.5 29.46 L 646.5 25.38 L 648.5 25.86 L 650.5 24.36667 L 652.5 19.91333 L 654.5 21.96667 L 656.5 24.87333 L 658.5 21.19333 L 660.5 28.07333 L 662.5 23.88667 L 664.5 25.78 L 666.5 20.42 L 668.5 22.18 L 670.5 25.86 L 672.5 26.5 L 674.5 28.55333 L 676.5 25.00667 L 678.5 25.99333 L 680.5 28.23333 L 682.5 22.47333 L 684.5 19.99333 L 686.5 25.78 L 688.5 22.23333 L 691.5 20.98 L 693.5 26.34 L 695.5 27.08667 L 697.5 20.28667 L 699.5 20.82 L 701.5 25.11333 L 703.5 20.23333 L 705.5 23.14 L 707.5 25.54 L 709.5 24.63333 L 711.5 24.87333 L 713.5 25.83333 L 715.5 18.44667 L 717.5 26.07333 L 719.5 20.07333 L 721.5 19.03333 L 723.5 19.94 L 725.5 24.95333 L 727.5 25.00667 L 729.5 24.1 L 731.5 17.99333 L 733.5 24.5 L 736.5 25.99333 L 738.5 28.1 L 740.5 21.88667 L 742.5 20.34 L 744.5 19.64667 L 746.5 17.64667 L 748.5 21.32667 L 750.5 19.08667 L 752.5 26.87333 L 754.5 18.20667 L 756.5 26.79333 L 758.5 23.86 L 760.5 27.91333 L 762.5 24.71333 L 764.5 26.15333 L 766.5 22.66 L 768.5 27.03333 L 770.5 18.87333 L 772.5 21.16667 L 774.5 26.1 L 776.5 22.76667 L 779.5 23.94 L 781.5 25.72667 L 783.5 22.26 L 785.5 22.34 L 787.5 16.34 L 789.5 20.82 L 791.5 21.22 L 793.5 19.08667 L 795.5 21.94 L 797.5 17.06 L 799.5 16.79333 L 801.5 26.9 L 803.5 21.11333 L 805.5 15.83333 L 807.5 23.91333 L 809.5 25.88667 L 811.5 22.47333 L 813.5 25.40667 L 815.5 21.06 L 817.5 22.55333 L 819.5 21.48667 L 821.5 26.66 L 824.5 23.14 L 826.5 15.27333 L 828.5 19.51333 L 830.5 21.67333 L 832.5 25.11333 L 834.5 17.67333 L 836.5 16.55333 L 838.5 17.75333 L 840.5 26.20667 L 842.5 25.32667 L 844.5 23.88667 L 846.5 15.32667 L 848.5 17.99333 L 850.5 17.54 L 852.5 23.35333 L 854.5 20.9 L 856.5 15.64667 L 858.5 16.02 L 860.5 23.43333 L 862.5 19.54 L 864.5 17.22 L 866.5 23.94 L 869.5 24.28667 L 871.5 18.39333 L 873.5 25.43333 L 875.5 25.64667 L 877.5 24.18 L 879.5 16.04667 L 881.5 22.31333 L 883.5 24.28667 L 885.5 16.71333 L 887.5 15.75333 L 889.5 16.02 L 891.5 13.80667 L 893.5 24.07333 L 895.5 15.19333 L 897.5 17.11333 L 899.5 26.04667 L 901.5 18.04667 L 903.5 13.43333 L 905.5 18.84667 L 907.5 14.66 L 909.5 20.58 L 911.5 22.31333 L 914.5 20.68667 L 916.5 18.98 L 918.5 13.80667 L 920.5 15.00667 L 922.5 14.20667 L 924.5 16.95333 L 926.5 23.64667 L 928.5 24.02 L 930.5 14.47333 L 932.5 21.40667 L 934.5 20.55333 L 936.5 16.87333 L 938.5 22.18 L 940.5 23.24667 L 942.5 14.31333 L 944.5 17.11333 L 946.5 18.84667 L 948.5 25.46 L 950.5 15.40667 L 952.5 23.88667 L 954.5 19.80667 L 957.5 19.43333 L 959.5 12.23333 L 961.5 23.43333 L 963.5 17.03333 L 965.5 14.42 L 967.5 23.40667 L 969.5 19.38 L 971.5 14.20667 L 973.5 15.08667 L 975.5 24.07333 L 977.5 13.78 L 979.5 19.54 L 981.5 25.00667 L 983.5 13.91333 L 985.5 15.88667 L 987.5 18.02 L 989.5 17.06 L 991.5 18.95333 L 993.5 17.22 L 995.5 11.75333 L 997.5 14.28667 L 999.5 13.3 L 1002.5 19.32667 L 1004.5 21.83333 L 1006.5 19.99333 L 1008.5 13.48667 L 1010.5 17.27333 L 1012.5 20.42 L 1014.5 15.48667 L 1016.5 22.47333 L 1018.5 18.98 L 1020.5 13.7 L 1022.5 23.43333 M 0 0 L 0 0" style="stroke:#BBBBBB;stroke-opacity:0; stroke-width: 1; stroke-dasharray: ; stroke-linecap: butt; stroke-linejoin: miter; stroke-miterlimit: 10; fill: none; fill-rule: nonzero; opacity: 1" transform=" matrix(1 0 0 1 0 0) " stroke-linecap="round" />
<path d="M 1.5 37.40667 L 3.5 37.48667 L 5.5 37.59333 L 7.5 37.46 L 9.5 37.27333 L 11.5 37.40667 L 13.5 36.55333 L 15.5 36.52667 L 17.5 36.5 L 19.5 36.92667 L 21.5 37.11333 L 24.5 36.31333 L 26.5 36.26 L 28.5 36.84667 L 30.5 36.47333 L 32.5 36.98 L 34.5 36.87333 L 36.5 36.79333 L 38.5 36.92667 L 40.5 37.00667 L 42.5 35.88667 L 44.5 36.07333 L 46.5 35.62 L 48.5 35.86 L 50.5 35.56667 L 52.5 36.44667 L 54.5 36.79333 L 56.5 36.68667 L 58.5 35.88667 L 60.5 36.20667 L 62.5 35.83333 L 64.5 35.88667 L 66.5 35.51333 L 69.5 36.60667 L 71.5 36.55333 L 73.5 36.55333 L 75.5 36.52667 L 77.5 36.31333 L 79.5 36.47333 L 81.5 36.26 L 83.5 35.38 L 85.5 35.40667 L 87.5 36.12667 L 89.5 35.99333 L 91.5 34.87333 L 93.5 36.34 L 95.5 34.68667 L 97.5 34.42 L 99.5 35.91333 L 101.5 36.07333 L 103.5 34.28667 L 105.5 35.22 L 107.5 34.28667 L 109.5 34.18 L 112.5 34.39333 L 114.5 34.23333 L 116.5 35.94 L 118.5 34.87333 L 120.5 34.66 L 122.5 33.75333 L 124.5 35.24667 L 126.5 35.48667 L 128.5 35.35333 L 130.5 34.39333 L 132.5 35.78 L 134.5 35.38 L 136.5 36.02 L 138.5 35.7 L 140.5 35.62 L 142.5 35.67333 L 144.5 33.62 L 146.5 35.67333 L 148.5 34.02 L 150.5 33.43333 L 152.5 35.64667 L 154.5 34.44667 L 157.5 34.15333 L 159.5 33.96667 L 161.5 34.92667 L 163.5 33.72667 L 165.5 33.99333 L 167.5 33.11333 L 169.5 33.38 L 171.5 32.71333 L 173.5 34.07333 L 175.5 34.42 L 177.5 34.28667 L 179.5 34.55333 L 181.5 33.00667 L 183.5 33.99333 L 185.5 33.56667 L 187.5 34.71333 L 189.5 32.87333 L 191.5 33.40667 L 193.5 32.019999999999996 L 195.5 33.80667 L 197.5 34.28667 L 199.5 34.84667 L 202.5 34.47333 L 204.5 33.94 L 206.5 31.64667 L 208.5 34.87333 L 210.5 35.03333 L 212.5 32.07333 L 214.5 33.78 L 216.5 33.43333 L 218.5 32.84667 L 220.5 33.46 L 222.5 31.78 L 224.5 33.22 L 226.5 32.473330000000004 L 228.5 32.60667 L 230.5 32.44667 L 232.5 34.44667 L 234.5 32.52667 L 236.5 32.20667 L 238.5 31.72667 L 240.5 30.68667 L 242.5 31.64667 L 244.5 32.473330000000004 L 247.5 32.20667 L 249.5 32.42 L 251.5 34.26 L 253.5 33.96667 L 255.5 30.82 L 257.5 31.54 L 259.5 34.12667 L 261.5 33.3 L 263.5 32.98 L 265.5 34.02 L 267.5 32.71333 L 269.5 31.51333 L 271.5 31.3 L 273.5 32.66 L 275.5 32.28667 L 277.5 31.22 L 279.5 33.88667 L 281.5 33.27333 L 283.5 32.04667 L 285.5 30.74 L 287.5 30.5 L 290.5 32.04667 L 292.5 33.32667 L 294.5 33.19333 L 296.5 32.76667 L 298.5 33.80667 L 300.5 33.59333 L 302.5 31.88667 L 304.5 32.60667 L 306.5 29.16667 L 308.5 30.04667 L 310.5 30.68667 L 312.5 31.48667 L 314.5 28.76667 L 316.5 29.83333 L 318.5 32.98 L 320.5 31.48667 L 322.5 31.62 L 324.5 30.95333 L 326.5 30.52667 L 328.5 29.48667 L 330.5 28.92667 L 332.5 31.96667 L 335.5 28.60667 L 337.5 28.71333 L 339.5 29.64667 L 341.5 28.02 L 343.5 31.35333 L 345.5 32.98 L 347.5 28.55333 L 349.5 31.46 L 351.5 27.75333 L 353.5 33.11333 L 355.5 28.02 L 357.5 28.52667 L 359.5 29.08667 L 361.5 29.14 L 363.5 32.31333 L 365.5 30.18 L 367.5 28.36667 L 369.5 32.18 L 371.5 31.99333 L 373.5 31.35333 L 375.5 27.99333 L 377.5 32.76667 L 380.5 31.83333 L 382.5 29.7 L 384.5 30.63333 L 386.5 29.22 L 388.5 30.79333 L 390.5 32.20667 L 392.5 30.42 L 394.5 29.72667 L 396.5 26.79333 L 398.5 26.79333 L 400.5 27.83333 L 402.5 28.23333 L 404.5 27.16667 L 406.5 31.78 L 408.5 28.31333 L 410.5 29.72667 L 412.5 28.76667 L 414.5 27.51333 L 416.5 30.34 L 418.5 27.14 L 420.5 29.3 L 422.5 30.76667 L 425.5 27.00667 L 427.5 28.84667 L 429.5 31.99333 L 431.5 27.06 L 433.5 26.82 L 435.5 31.96667 L 437.5 25.94 L 439.5 31.64667 L 441.5 30.76667 L 443.5 26.04667 L 445.5 30.23333 L 447.5 26.55333 L 449.5 30.07333 L 451.5 31.43333 L 453.5 27.94 L 455.5 25.27333 L 457.5 26.44667 L 459.5 26.26 L 461.5 30.23333 L 463.5 28.31333 L 465.5 24.74 L 468.5 26.12667 L 470.5 30.52667 L 472.5 26.52667 L 474.5 26.42 L 476.5 30.07333 L 478.5 27.64667 L 480.5 29.72667 L 482.5 24.87333 L 484.5 25.32667 L 486.5 29.16667 L 488.5 25.80667 L 490.5 24.31333 L 492.5 25.75333 L 494.5 31.32667 L 496.5 27.11333 L 498.5 28.68667 L 500.5 30.44667 L 502.5 29.51333 L 504.5 24.47333 L 506.5 23.78 L 508.5 27.08667 L 510.5 26.52667 L 513.5 27.78 L 515.5 29.86 L 517.5 29.86 L 519.5 29.80667 L 521.5 27.7 L 523.5 26.71333 L 525.5 27.32667 L 527.5 27.08667 L 529.5 28.04667 L 531.5 30.39333 L 533.5 27.64667 L 535.5 30.47333 L 537.5 29.62 L 539.5 24.28667 L 541.5 27.24667 L 543.5 26.79333 L 545.5 28.1 L 547.5 26.23333 L 549.5 26.74 L 551.5 23.00667 L 553.5 26.60667 L 555.5 29.75333 L 558.5 22.84667 L 560.5 26.44667 L 562.5 28.02 L 564.5 23.16667 L 566.5 28.74 L 568.5 25.94 L 570.5 26.20667 L 572.5 28.23333 L 574.5 25.99333 L 576.5 26.95333 L 578.5 22.92667 L 580.5 24.31333 L 582.5 23.80667 L 584.5 24.79333 L 586.5 29.03333 L 588.5 24.44667 L 590.5 23.48667 L 592.5 21.67333 L 594.5 27.96667 L 596.5 23.48667 L 598.5 26.31333 L 601.5 25.08667 L 603.5 27.06 L 605.5 23.62 L 607.5 28.98 L 609.5 28.18 L 611.5 25.32667 L 613.5 28.5 L 615.5 23.64667 L 617.5 24.95333 L 619.5 27.06 L 621.5 28.84667 L 623.5 29.3 L 625.5 23.96667 L 627.5 27.99333 L 629.5 22.1 L 631.5 22.71333 L 633.5 28.34 L 635.5 23.11333 L 637.5 25.38 L 639.5 26.5 L 641.5 27.94 L 643.5 29.46 L 646.5 25.38 L 648.5 25.86 L 650.5 24.36667 L 652.5 19.91333 L 654.5 21.96667 L 656.5 24.87333 L 658.5 21.19333 L 660.5 28.07333 L 662.5 23.88667 L 664.5 25.78 L 666.5 20.42 L 668.5 22.18 L 670.5 25.86 L 672.5 26.5 L 674.5 28.55333 L 676.5 25.00667 L 678.5 25.99333 L 680.5 28.23333 L 682.5 22.47333 L 684.5 19.99333 L 686.5 25.78 L 688.5 22.23333 L 691.5 20.98 L 693.5 26.34 L 695.5 27.08667 L 697.5 20.28667 L 699.5 20.82 L 701.5 25.11333 L 703.5 20.23333 L 705.5 23.14 L 707.5 25.54 L 709.5 24.63333 L 711.5 24.87333 L 713.5 25.83333 L 715.5 18.44667 L 717.5 26.07333 L 719.5 20.07333 L 721.5 19.03333 L 723.5 19.94 L 725.5 24.95333 L 727.5 25.00667 L 729.5 24.1 L 731.5 17.99333 L 733.5 24.5 L 736.5 25.99333 L 738.5 28.1 L 740.5 21.88667 L 742.5 20.34 L 744.5 19.64667 L 746.5 17.64667 L 748.5 21.32667 L 750.5 19.08667 L 752.5 26.87333 L 754.5 18.20667 L 756.5 26.79333 L 758.5 23.86 L 760.5 27.91333 L 762.5 24.71333 L 764.5 26.15333 L 766.5 22.66 L 768.5 27.03333 L 770.5 18.87333 L 772.5 21.16667 L 774.5 26.1 L 776.5 22.76667 L 779.5 23.94 L 781.5 25.72667 L 783.5 22.26 L 785.5 22.34 L 787.5 16.34 L 789.5 20.82 L 791.5 21.22 L 793.5 19.08667 L 795.5 21.94 L 797.5 17.06 L 799.5 16.79333 L 801.5 26.9 L 803.5 21.11333 L 805.5 15.83333 L 807.5 23.91333 L 809.5 25.88667 L 811.5 22.47333 L 813.5 25.40667 L 815.5 21.06 L 817.5 22.55333 L 819.5 21.48667 L 821.5 26.66 L 824.5 23.14 L 826.5 15.27333 L 828.5 19.51333 L 830.5 21.67333 L 832.5 25.11333 L 834.5 17.67333 L 836.5 16.55333 L 838.5 17.75333 L 840.5 26.20667 L 842.5 25.32667 L 844.5 23.88667 L 846.5 15.32667 L 848.5 17.99333 L 850.5 17.54 L 852.5 23.35333 L 854.5 20.9 L 856.5 15.64667 L 858.5 16.02 L 860.5 23.43333 L 862.5 19.54 L 864.5 17.22 L 866.5 23.94 L 869.5 24.28667 L 871.5 18.39333 L 873.5 25.43333 L 875.5 25.64667 L 877.5 24.18 L 879.5 16.04667 L 881.5 22.31333 L 883.5 24.28667 L 885.5 16.71333 L 887.5 15.75333 L 889.5 16.02 L 891.5 13.80667 L 893.5 24.07333 L 895.5 15.19333 L 897.5 17.11333 L 899.5 26.04667 L 901.5 18.04667 L 903.5 13.43333 L 905.5 18.84667 L 907.5 14.66 L 909.5 20.58 L 911.5 22.31333 L 914.5 20.68667 L 916.5 18.98 L 918.5 13.80667 L 920.5 15.00667 L 922.5 14.20667 L 924.5 16.95333 L 926.5 23.64667 L 928.5 24.02 L 930.5 14.47333 L 932.5 21.40667 L 934.5 20.55333 L 936.5 16.87333 L 938.5 22.18 L 940.5 23.24667 L 942.5 14.31333 L 944.5 17.11333 L 946.5 18.84667 L 948.5 25.46 L 950.5 15.40667 L 952.5 23.88667 L 954.5 19.80667 L 957.5 19.43333 L 959.5 12.23333 L 961.5 23.43333 L 963.5 17.03333 L 965.5 14.42 L 967.5 23.40667 L 969.5 19.38 L 971.5 14.20667 L 973.5 15.08667 L 975.5 24.07333 L 977.5 13.78 L 979.5 19.54 L 981.5 25.00667 L 983.5 13.91333 L 985.5 15.88667 L 987.5 18.02 L 989.5 17.06 L 991.5 18.95333 L 993.5 17.22 L 995.5 11.75333 L 997.5 14.28667 L 999.5 13.3 L 1002.5 19.32667 L 1004.5 21.83333 L 1006.5 19.99333 L 1008.5 13.48667 L 1010.5 17.27333 L 1012.5 20.42 L 1014.5 15.48667 L 1016.5 22.47333 L 1018.5 18.98 L 1020.5 13.7 L 1022.5 23.43333 L 1022.5 40.5 L 1.5 40.5 L 1.5 37.40667 Z" style="stroke:#000000;stroke-opacity:0; stroke-width: 1; stroke-dasharray: ; stroke-linecap: butt; stroke-linejoin: miter; stroke-miterlimit: 10;fill:#BBBBBB;fill-opacity:1; fill-rule: nonzero; opacity: 1" transform=" matrix(1 0 0 1 0 0) " stroke-linecap="round" />
<path d="M 1.5 37.40667 L 3.5 37.48667 L 5.5 37.59333 L 7.5 37.46 L 9.5 37.27333 L 11.5 37.40667 L 13.5 36.55333 L 15.5 36.52667 L 17.5 36.5 L 19.5 36.92667 L 21.5 37.11333 L 24.5 36.31333 L 26.5 36.26 L 28.5 36.84667 L 30.5 36.47333 L 32.5 36.98 L 34.5 36.87333 L 36.5 36.79333 L 38.5 36.92667 L 40.5 37.00667 L 42.5 35.88667 L 44.5 36.07333 L 46.5 35.62 L 48.5 35.86 L 50.5 35.56667 L 52.5 36.44667 L 54.5 36.79333 L 56.5 36.68667 L 58.5 35.88667 L 60.5 36.20667 L 62.5 35.83333 L 64.5 35.88667 L 66.5 35.51333 L 69.5 36.60667 L 71.5 36.55333 L 73.5 36.55333 L 75.5 36.52667 L 77.5 36.31333 L 79.5 36.47333 L 81.5 36.26 L 83.5 35.38 L 85.5 35.40667 L 87.5 36.12667 L 89.5 35.99333 L 91.5 34.87333 L 93.5 36.34 L 95.5 34.68667 L 97.5 34.42 L 99.5 35.91333 L 101.5 36.07333 L 103.5 34.28667 L 105.5 35.22 L 107.5 34.28667 L 109.5 34.18 L 112.5 34.39333 L 114.5 34.23333 L 116.5 35.94 L 118.5 34.87333 L 120.5 34.66 L 122.5 33.75333 L 124.5 35.24667 L 126.5 35.48667 L 128.5 35.35333 L 130.5 34.39333 L 132.5 35.78 L 134.5 35.38 L 136.5 36.02 L 138.5 35.7 L 140.5 35.62 L 142.5 35.67333 L 144.5 33.62 L 146.5 35.67333 L 148.5 34.02 L 150.5 33.43333 L 152.5 35.64667 L 154.5 34.44667 L 157.5 34.15333 L 159.5 33.96667 L 161.5 34.92667 L 163.5 33.72667 L 165.5 33.99333 L 167.5 33.11333 L 169.5 33.38 L 171.5 32.71333 L 173.5 34.07333 L 175.5 34.42 L 177.5 34.28667 L 179.5 34.55333 L 181.5 33.00667 L 183.5 33.99333 L 185.5 33.56667 L 187.5 34.71333 L 189.5 32.87333 L 191.5 33.40667 L 193.5 32.019999999999996 L 195.5 33.80667 L 197.5 34.28667 L 199.5 34.84667 L 202.5 34.47333 L 204.5 33.94 L 206.5 31.64667 L 208.5 34.87333 L 210.5 35.03333 L 212.5 32.07333 L 214.5 33.78 L 216.5 33.43333 L 218.5 32.84667 L 220.5 33.46 L 222.5 31.78 L 224.5 33.22 L 226.5 32.473330000000004 L 228.5 32.60667 L 230.5 32.44667 L 232.5 34.44667 L 234.5 32.52667 L 236.5 32.20667 L 238.5 31.72667 L 240.5 30.68667 L 242.5 31.64667 L 244.5 32.473330000000004 L 247.5 32.20667 L 249.5 32.42 L 251.5 34.26 L 253.5 33.96667 L 255.5 30.82 L 257.5 31.54 L 259.5 34.12667 L 261.5 33.3 L 263.5 32.98 L 265.5 34.02 L 267.5 32.71333 L 269.5 31.51333 L 271.5 31.3 L 273.5 32.66 L 275.5 32.28667 L 277.5 31.22 L 279.5 33.88667 L 281.5 33.27333 L 283.5 32.04667 L 285.5 30.74 L 287.5 30.5 L 290.5 32.04667 L 292.5 33.32667 L 294.5 33.19333 L 296.5 32.76667 L 298.5 33.80667 L 300.5 33.59333 L 302.5 31.88667 L 304.5 32.60667 L 306.5 29.16667 L 308.5 30.04667 L 310.5 30.68667 L 312.5 31.48667 L 314.5 28.76667 L 316.5 29.83333 L 318.5 32.98 L 320.5 31.48667 L 322.5 31.62 L 324.5 30.95333 L 326.5 30.52667 L 328.5 29.48667 L 330.5 28.92667 L 332.5 31.96667 L 335.5 28.60667 L 337.5 28.71333 L 339.5 29.64667 L 341.5 28.02 L 343.5 31.35333 L 345.5 32.98 L 347.5 28.55333 L 349.5 31.46 L 351.5 27.75333 L 353.5 33.11333 L 355.5 28.02 L 357.5 28.52667 L 359.5 29.08667 L 361.5 29.14 L 363.5 32.31333 L 365.5 30.18 L 367.5 28.36667 L 369.5 32.18 L 371.5 31.99333 L 373.5 31.35333 L 375.5 27.99333 L 377.5 32.76667 L 380.5 31.83333 L 382.5 29.7 L 384.5 30.63333 L 386.5 29.22 L 388.5 30.79333 L 390.5 32.20667 L 392.5 30.42 L 394.5 29.72667 L 396.5 26.79333 L 398.5 26.79333 L 400.5 27.83333 L 402.5 28.23333 L 404.5 27.16667 L 406.5 31.78 L 408.5 28.31333 L 410.5 29.72667 L 412.5 28.76667 L 414.5 27.51333 L 416.5 30.34 L 418.5 27.14 L 420.5 29.3 L 422.5 30.76667 L 425.5 27.00667 L 427.5 28.84667 L 429.5 31.99333 L 431.5 27.06 L 433.5 26.82 L 435.5 31.96667 L 437.5 25.94 L 439.5 31.64667 L 441.5 30.76667 L 443.5 26.04667 L 445.5 30.23333 L 447.5 26.55333 L 449.5 30.07333 L 451.5 31.43333 L 453.5 27.94 L 455.5 25.27333 L 457.5 26.44667 L 459.5 26.26 L 461.5 30.23333 L 463.5 28.31333 L 465.5 24.74 L 468.5 26.12667 L 470.5 30.52667 L 472.5 26.52667 L 474.5 26.42 L 476.5 30.07333 L 478.5 27.64667 L 480.5 29.72667 L 482.5 24.87333 L 484.5 25.32667 L 486.5 29.16667 L 488.5 25.80667 L 490.5 24.31333 L 492.5 25.75333 L 494.5 31.32667 L 496.5 27.11333 L 498.5 28.68667 L 500.5 30.44667 L 502.5 29.51333 L 504.5 24.47333 L 506.5 23.78 L 508.5 27.08667 L 510.5 26.52667 L 513.5 27.78 L 515.5 29.86 L 517.5 29.86 L 519.5 29.80667 L 521.5 27.7 L 523.5 26.71333 L 525.5 27.32667 L 527.5 27.08667 L 529.5 28.04667 L 531.5 30.39333 L 533.5 27.64667 L 535.5 30.47333 L 537.5 29.62 L 539.5 24.28667 L 541.5 27.24667 L 543.5 26.79333 L 545.5 28.1 L 547.5 26.23333 L 549.5 26.74 L 551.5 23.00667 L 553.5 26.60667 L 555.5 29.75333 L 558.5 22.84667 L 560.5 26.44667 L 562.5 28.02 L 564.5 23.16667 L 566.5 28.74 L 568.5 25.94 L 570.5 26.20667 L 572.5 28.23333 L 574.5 25.99333 L 576.5 26.95333 L 578.5 22.92667 L 580.5 24.31333 L 582.5 23.80667 L 584.5 24.79333 L 586.5 29.03333 L 588.5 24.44667 L 590.5 23.48667 L 592.5 21.67333 L 594.5 27.96667 L 596.5 23.48667 L 598.5 26.31333 L 601.5 25.08667 L 603.5 27.06 L 605.5 23.62 L 607.5 28.98 L 609.5 28.18 L 611.5 25.32667 L 613.5 28.5 L 615.5 23.64667 L 617.5 24.95333 L 619.5 27.06 L 621.5 28.84667 L 623.5 29.3 L 625.5 23.96667 L 627.5 27.99333 L 629.5 22.1 L 631.5 22.71333 L 633.5 28.34 L 635.5 23.11333 L 637.5 25.38 L 639.5 26.5 L 641.5 27.94 L 643.5 29.46 L 646.5 25.38 L 648.5 25.86 L 650.5 24.36667 L 652.5 19.91333 L 654.5 21.96667 L 656.5 24.87333 L 658.5 21.19333 L 660.5 28.07333 L 662.5 23.88667 L 664.5 25.78 L 666.5 20.42 L 668.5 22.18 L 670.5 25.86 L 672.5 26.5 L 674.5 28.55333 L 676.5 25.00667 L 678.5 25.99333 L 680.5 28.23333 L 682.5 22.47333 L 684.5 19.99333 L 686.5 25.78 L 688.5 22.23333 L 691.5 20.98 L 693.5 26.34 L 695.5 27.08667 L 697.5 20.28667 L 699.5 20.82 L 701.5 25.11333 L 703.5 20.23333 L 705.5 23.14 L 707.5 25.54 L 709.5 24.63333 L 711.5 24.87333 L 713.5 25.83333 L 715.5 18.44667 L 717.5 26.07333 L 719.5 20.07333 L 721.5 19.03333 L 723.5 19.94 L 725.5 24.95333 L 727.5 25.00667 L 729.5 24.1 L 731.5 17.99333 L 733.5 24.5 L 736.5 25.99333 L 738.5 28.1 L 740.5 21.88667 L 742.5 20.34 L 744.5 19.64667 L 746.5 17.64667 L 748.5 21.32667 L 750.5 19.08667 L 752.5 26.87333 L 754.5 18.20667 L 756.5 26.79333 L 758.5 23.86 L 760.5 27.91333 L 762.5 24.71333 L 764.5 26.15333 L 766.5 22.66 L 768.5 27.03333 L 770.5 18.87333 L 772.5 21.16667 L 774.5 26.1 L 776.5 22.76667 L 779.5 23.94 L 781.5 25.72667 L 783.5 22.26 L 785.5 22.34 L 787.5 16.34 L 789.5 20.82 L 791.5 21.22 L 793.5 19.08667 L 795.5 21.94 L 797.5 17.06 L 799.5 16.79333 L 801.5 26.9 L 803.5 21.11333 L 805.5 15.83333 L 807.5 23.91333 L 809.5 25.88667 L 811.5 22.47333 L 813.5 25.40667 L 815.5 21.06 L 817.5 22.55333 L 819.5 21.48667 L 821.5 26.66 L 824.5 23.14 L 826.5 15.27333 L 828.5 19.51333 L 830.5 21.67333 L 832.5 25.11333 L 834.5 17.67333 L 836.5 16.55333 L 838.5 17.75333 L 840.5 26.20667 L 842.5 25.32667 L 844.5 23.88667 L 846.5 15.32667 L 848.5 17.99333 L 850.5 17.54 L 852.5 23.35333 L 854.5 20.9 L 856.5 15.64667 L 858.5 16.02 L 860.5 23.43333 L 862.5 19.54 L 864.5 17.22 L 866.5 23.94 L 869.5 24.28667 L 871.5 18.39333 L 873.5 25.43333 L 875.5 25.64667 L 877.5 24.18 L 879.5 16.04667 L 881.5 22.31333 L 883.5 24.28667 L 885.5 16.71333 L 887.5 15.75333 L 889.5 16.02 L 891.5 13.80667 L 893.5 24.07333 L 895.5 15.19333 L 897.5 17.11333 L 899.5 26.04667 L 901.5 18.04667 L 903.5 13.43333 L 905.5 18.84667 L 907.5 14.66 L 909.5 20.58 L 911.5 22.31333 L 914.5 20.68667 L 916.5 18.98 L 918.5 13.80667 L 920.5 15.00667 L 922.5 14.20667 L 924.5 16.95333 L 926.5 23.64667 L 928.5 24.02 L 930.5 14.47333 L 932.5 21.40667 L 934.5 20.55333 L 936.5 16.87333 L 938.5 22.18 L 940.5 23.24667 L 942.5 14.31333 L 944.5 17.11333 L 946.5 18.84667 L 948.5 25.46 L 950.5 15.40667 L 952.5 23.88667 L 954.5 19.80667 L 957.5 19.43333 L 959.5 12.23333 L 961.5 23.43333 L 963.5 17.03333 L 965.5 14.42 L 967.5 23.40667 L 969.5 19.38 L 971.5 14.20667 L 973.5 15.08667 L 975.5 24.07333 L 977.5 13.78 L 979.5 19.54 L 981.5 25.00667 L 983.5 13.91333 L 985.5 15.88667 L 987.5 18.02 L 989.5 17.06 L 991.5 18.95333 L 993.5 17.22 L 995.5 11.75333 L 997.5 14.28667 L 999.5 13.3 L 1002.5 19.32667 L 1004.5 21.83333 L 1006.5 19.99333 L 1008.5 13.48667 L 1010.5 17.27333 L 1012.5 20.42 L 1014.5 15.48667 L 1016.5 22.47333 L 1018.5 18.98 L 1020.5 13.7 L 1022.5 23.43333 M 0 0 L 0 0" style="stroke:#888888;stroke-opacity:0; stroke-width: 1; stroke-dasharray: ; stroke-linecap: butt; stroke-linejoin: miter; stroke-miterlimit: 10; fill: none; fill-rule: nonzero; opacity: 1" transform=" matrix(1 0 0 1 0 0) " stroke-linecap="round"  clip-path="url(#AmChartsEl-2036)" />
<path d="M 1.5 37.40667 L 3.5 37.48667 L 5.5 37.59333 L 7.5 37.46 L 9.5 37.27333 L 11.5 37.40667 L 13.5 36.55333 L 15.5 36.52667 L 17.5 36.5 L 19.5 36.92667 L 21.5 37.11333 L 24.5 36.31333 L 26.5 36.26 L 28.5 36.84667 L 30.5 36.47333 L 32.5 36.98 L 34.5 36.87333 L 36.5 36.79333 L 38.5 36.92667 L 40.5 37.00667 L 42.5 35.88667 L 44.5 36.07333 L 46.5 35.62 L 48.5 35.86 L 50.5 35.56667 L 52.5 36.44667 L 54.5 36.79333 L 56.5 36.68667 L 58.5 35.88667 L 60.5 36.20667 L 62.5 35.83333 L 64.5 35.88667 L 66.5 35.51333 L 69.5 36.60667 L 71.5 36.55333 L 73.5 36.55333 L 75.5 36.52667 L 77.5 36.31333 L 79.5 36.47333 L 81.5 36.26 L 83.5 35.38 L 85.5 35.40667 L 87.5 36.12667 L 89.5 35.99333 L 91.5 34.87333 L 93.5 36.34 L 95.5 34.68667 L 97.5 34.42 L 99.5 35.91333 L 101.5 36.07333 L 103.5 34.28667 L 105.5 35.22 L 107.5 34.28667 L 109.5 34.18 L 112.5 34.39333 L 114.5 34.23333 L 116.5 35.94 L 118.5 34.87333 L 120.5 34.66 L 122.5 33.75333 L 124.5 35.24667 L 126.5 35.48667 L 128.5 35.35333 L 130.5 34.39333 L 132.5 35.78 L 134.5 35.38 L 136.5 36.02 L 138.5 35.7 L 140.5 35.62 L 142.5 35.67333 L 144.5 33.62 L 146.5 35.67333 L 148.5 34.02 L 150.5 33.43333 L 152.5 35.64667 L 154.5 34.44667 L 157.5 34.15333 L 159.5 33.96667 L 161.5 34.92667 L 163.5 33.72667 L 165.5 33.99333 L 167.5 33.11333 L 169.5 33.38 L 171.5 32.71333 L 173.5 34.07333 L 175.5 34.42 L 177.5 34.28667 L 179.5 34.55333 L 181.5 33.00667 L 183.5 33.99333 L 185.5 33.56667 L 187.5 34.71333 L 189.5 32.87333 L 191.5 33.40667 L 193.5 32.019999999999996 L 195.5 33.80667 L 197.5 34.28667 L 199.5 34.84667 L 202.5 34.47333 L 204.5 33.94 L 206.5 31.64667 L 208.5 34.87333 L 210.5 35.03333 L 212.5 32.07333 L 214.5 33.78 L 216.5 33.43333 L 218.5 32.84667 L 220.5 33.46 L 222.5 31.78 L 224.5 33.22 L 226.5 32.473330000000004 L 228.5 32.60667 L 230.5 32.44667 L 232.5 34.44667 L 234.5 32.52667 L 236.5 32.20667 L 238.5 31.72667 L 240.5 30.68667 L 242.5 31.64667 L 244.5 32.473330000000004 L 247.5 32.20667 L 249.5 32.42 L 251.5 34.26 L 253.5 33.96667 L 255.5 30.82 L 257.5 31.54 L 259.5 34.12667 L 261.5 33.3 L 263.5 32.98 L 265.5 34.02 L 267.5 32.71333 L 269.5 31.51333 L 271.5 31.3 L 273.5 32.66 L 275.5 32.28667 L 277.5 31.22 L 279.5 33.88667 L 281.5 33.27333 L 283.5 32.04667 L 285.5 30.74 L 287.5 30.5 L 290.5 32.04667 L 292.5 33.32667 L 294.5 33.19333 L 296.5 32.76667 L 298.5 33.80667 L 300.5 33.59333 L 302.5 31.88667 L 304.5 32.60667 L 306.5 29.16667 L 308.5 30.04667 L 310.5 30.68667 L 312.5 31.48667 L 314.5 28.76667 L 316.5 29.83333 L 318.5 32.98 L 320.5 31.48667 L 322.5 31.62 L 324.5 30.95333 L 326.5 30.52667 L 328.5 29.48667 L 330.5 28.92667 L 332.5 31.96667 L 335.5 28.60667 L 337.5 28.71333 L 339.5 29.64667 L 341.5 28.02 L 343.5 31.35333 L 345.5 32.98 L 347.5 28.55333 L 349.5 31.46 L 351.5 27.75333 L 353.5 33.11333 L 355.5 28.02 L 357.5 28.52667 L 359.5 29.08667 L 361.5 29.14 L 363.5 32.31333 L 365.5 30.18 L 367.5 28.36667 L 369.5 32.18 L 371.5 31.99333 L 373.5 31.35333 L 375.5 27.99333 L 377.5 32.76667 L 380.5 31.83333 L 382.5 29.7 L 384.5 30.63333 L 386.5 29.22 L 388.5 30.79333 L 390.5 32.20667 L 392.5 30.42 L 394.5 29.72667 L 396.5 26.79333 L 398.5 26.79333 L 400.5 27.83333 L 402.5 28.23333 L 404.5 27.16667 L 406.5 31.78 L 408.5 28.31333 L 410.5 29.72667 L 412.5 28.76667 L 414.5 27.51333 L 416.5 30.34 L 418.5 27.14 L 420.5 29.3 L 422.5 30.76667 L 425.5 27.00667 L 427.5 28.84667 L 429.5 31.99333 L 431.5 27.06 L 433.5 26.82 L 435.5 31.96667 L 437.5 25.94 L 439.5 31.64667 L 441.5 30.76667 L 443.5 26.04667 L 445.5 30.23333 L 447.5 26.55333 L 449.5 30.07333 L 451.5 31.43333 L 453.5 27.94 L 455.5 25.27333 L 457.5 26.44667 L 459.5 26.26 L 461.5 30.23333 L 463.5 28.31333 L 465.5 24.74 L 468.5 26.12667 L 470.5 30.52667 L 472.5 26.52667 L 474.5 26.42 L 476.5 30.07333 L 478.5 27.64667 L 480.5 29.72667 L 482.5 24.87333 L 484.5 25.32667 L 486.5 29.16667 L 488.5 25.80667 L 490.5 24.31333 L 492.5 25.75333 L 494.5 31.32667 L 496.5 27.11333 L 498.5 28.68667 L 500.5 30.44667 L 502.5 29.51333 L 504.5 24.47333 L 506.5 23.78 L 508.5 27.08667 L 510.5 26.52667 L 513.5 27.78 L 515.5 29.86 L 517.5 29.86 L 519.5 29.80667 L 521.5 27.7 L 523.5 26.71333 L 525.5 27.32667 L 527.5 27.08667 L 529.5 28.04667 L 531.5 30.39333 L 533.5 27.64667 L 535.5 30.47333 L 537.5 29.62 L 539.5 24.28667 L 541.5 27.24667 L 543.5 26.79333 L 545.5 28.1 L 547.5 26.23333 L 549.5 26.74 L 551.5 23.00667 L 553.5 26.60667 L 555.5 29.75333 L 558.5 22.84667 L 560.5 26.44667 L 562.5 28.02 L 564.5 23.16667 L 566.5 28.74 L 568.5 25.94 L 570.5 26.20667 L 572.5 28.23333 L 574.5 25.99333 L 576.5 26.95333 L 578.5 22.92667 L 580.5 24.31333 L 582.5 23.80667 L 584.5 24.79333 L 586.5 29.03333 L 588.5 24.44667 L 590.5 23.48667 L 592.5 21.67333 L 594.5 27.96667 L 596.5 23.48667 L 598.5 26.31333 L 601.5 25.08667 L 603.5 27.06 L 605.5 23.62 L 607.5 28.98 L 609.5 28.18 L 611.5 25.32667 L 613.5 28.5 L 615.5 23.64667 L 617.5 24.95333 L 619.5 27.06 L 621.5 28.84667 L 623.5 29.3 L 625.5 23.96667 L 627.5 27.99333 L 629.5 22.1 L 631.5 22.71333 L 633.5 28.34 L 635.5 23.11333 L 637.5 25.38 L 639.5 26.5 L 641.5 27.94 L 643.5 29.46 L 646.5 25.38 L 648.5 25.86 L 650.5 24.36667 L 652.5 19.91333 L 654.5 21.96667 L 656.5 24.87333 L 658.5 21.19333 L 660.5 28.07333 L 662.5 23.88667 L 664.5 25.78 L 666.5 20.42 L 668.5 22.18 L 670.5 25.86 L 672.5 26.5 L 674.5 28.55333 L 676.5 25.00667 L 678.5 25.99333 L 680.5 28.23333 L 682.5 22.47333 L 684.5 19.99333 L 686.5 25.78 L 688.5 22.23333 L 691.5 20.98 L 693.5 26.34 L 695.5 27.08667 L 697.5 20.28667 L 699.5 20.82 L 701.5 25.11333 L 703.5 20.23333 L 705.5 23.14 L 707.5 25.54 L 709.5 24.63333 L 711.5 24.87333 L 713.5 25.83333 L 715.5 18.44667 L 717.5 26.07333 L 719.5 20.07333 L 721.5 19.03333 L 723.5 19.94 L 725.5 24.95333 L 727.5 25.00667 L 729.5 24.1 L 731.5 17.99333 L 733.5 24.5 L 736.5 25.99333 L 738.5 28.1 L 740.5 21.88667 L 742.5 20.34 L 744.5 19.64667 L 746.5 17.64667 L 748.5 21.32667 L 750.5 19.08667 L 752.5 26.87333 L 754.5 18.20667 L 756.5 26.79333 L 758.5 23.86 L 760.5 27.91333 L 762.5 24.71333 L 764.5 26.15333 L 766.5 22.66 L 768.5 27.03333 L 770.5 18.87333 L 772.5 21.16667 L 774.5 26.1 L 776.5 22.76667 L 779.5 23.94 L 781.5 25.72667 L 783.5 22.26 L 785.5 22.34 L 787.5 16.34 L 789.5 20.82 L 791.5 21.22 L 793.5 19.08667 L 795.5 21.94 L 797.5 17.06 L 799.5 16.79333 L 801.5 26.9 L 803.5 21.11333 L 805.5 15.83333 L 807.5 23.91333 L 809.5 25.88667 L 811.5 22.47333 L 813.5 25.40667 L 815.5 21.06 L 817.5 22.55333 L 819.5 21.48667 L 821.5 26.66 L 824.5 23.14 L 826.5 15.27333 L 828.5 19.51333 L 830.5 21.67333 L 832.5 25.11333 L 834.5 17.67333 L 836.5 16.55333 L 838.5 17.75333 L 840.5 26.20667 L 842.5 25.32667 L 844.5 23.88667 L 846.5 15.32667 L 848.5 17.99333 L 850.5 17.54 L 852.5 23.35333 L 854.5 20.9 L 856.5 15.64667 L 858.5 16.02 L 860.5 23.43333 L 862.5 19.54 L 864.5 17.22 L 866.5 23.94 L 869.5 24.28667 L 871.5 18.39333 L 873.5 25.43333 L 875.5 25.64667 L 877.5 24.18 L 879.5 16.04667 L 881.5 22.31333 L 883.5 24.28667 L 885.5 16.71333 L 887.5 15.75333 L 889.5 16.02 L 891.5 13.80667 L 893.5 24.07333 L 895.5 15.19333 L 897.5 17.11333 L 899.5 26.04667 L 901.5 18.04667 L 903.5 13.43333 L 905.5 18.84667 L 907.5 14.66 L 909.5 20.58 L 911.5 22.31333 L 914.5 20.68667 L 916.5 18.98 L 918.5 13.80667 L 920.5 15.00667 L 922.5 14.20667 L 924.5 16.95333 L 926.5 23.64667 L 928.5 24.02 L 930.5 14.47333 L 932.5 21.40667 L 934.5 20.55333 L 936.5 16.87333 L 938.5 22.18 L 940.5 23.24667 L 942.5 14.31333 L 944.5 17.11333 L 946.5 18.84667 L 948.5 25.46 L 950.5 15.40667 L 952.5 23.88667 L 954.5 19.80667 L 957.5 19.43333 L 959.5 12.23333 L 961.5 23.43333 L 963.5 17.03333 L 965.5 14.42 L 967.5 23.40667 L 969.5 19.38 L 971.5 14.20667 L 973.5 15.08667 L 975.5 24.07333 L 977.5 13.78 L 979.5 19.54 L 981.5 25.00667 L 983.5 13.91333 L 985.5 15.88667 L 987.5 18.02 L 989.5 17.06 L 991.5 18.95333 L 993.5 17.22 L 995.5 11.75333 L 997.5 14.28667 L 999.5 13.3 L 1002.5 19.32667 L 1004.5 21.83333 L 1006.5 19.99333 L 1008.5 13.48667 L 1010.5 17.27333 L 1012.5 20.42 L 1014.5 15.48667 L 1016.5 22.47333 L 1018.5 18.98 L 1020.5 13.7 L 1022.5 23.43333 L 1022.5 40.5 L 1.5 40.5 L 1.5 37.40667 Z" style="stroke:#000000;stroke-opacity:0; stroke-width: 1; stroke-dasharray: ; stroke-linecap: butt; stroke-linejoin: miter; stroke-miterlimit: 10;fill:#888888;fill-opacity:1; fill-rule: nonzero; opacity: 1" transform=" matrix(1 0 0 1 0 0) " stroke-linecap="round"  clip-path="url(#AmChartsEl-2036)" />
<path d="M 68.5 40.5 L 68.5 40.5 L 68.5 0.5" style="stroke:#FFFFFF;stroke-opacity:0.7; stroke-width: 1; stroke-dasharray: ; stroke-linecap: butt; stroke-linejoin: miter; stroke-miterlimit: 10; fill: none; fill-rule: nonzero; opacity: 1" transform=" matrix(1 0 0 1 0 0) " stroke-linecap="round" />
<path d="M 188.5 40.5 L 188.5 40.5 L 188.5 0.5" style="stroke:#FFFFFF;stroke-opacity:0.7; stroke-width: 1; stroke-dasharray: ; stroke-linecap: butt; stroke-linejoin: miter; stroke-miterlimit: 10; fill: none; fill-rule: nonzero; opacity: 1" transform=" matrix(1 0 0 1 0 0) " stroke-linecap="round" />
<path d="M 313.5 40.5 L 313.5 40.5 L 313.5 0.5" style="stroke:#FFFFFF;stroke-opacity:0.7; stroke-width: 1; stroke-dasharray: ; stroke-linecap: butt; stroke-linejoin: miter; stroke-miterlimit: 10; fill: none; fill-rule: nonzero; opacity: 1" transform=" matrix(1 0 0 1 0 0) " stroke-linecap="round" />
<path d="M 438.5 40.5 L 438.5 40.5 L 438.5 0.5" style="stroke:#FFFFFF;stroke-opacity:0.7; stroke-width: 1; stroke-dasharray: ; stroke-linecap: butt; stroke-linejoin: miter; stroke-miterlimit: 10; fill: none; fill-rule: nonzero; opacity: 1" transform=" matrix(1 0 0 1 0 0) " stroke-linecap="round" />
<path d="M 565.5 40.5 L 565.5 40.5 L 565.5 0.5" style="stroke:#FFFFFF;stroke-opacity:0.7; stroke-width: 1; stroke-dasharray: ; stroke-linecap: butt; stroke-linejoin: miter; stroke-miterlimit: 10; fill: none; fill-rule: nonzero; opacity: 1" transform=" matrix(1 0 0 1 0 0) " stroke-linecap="round" />
<path d="M 690.5 40.5 L 690.5 40.5 L 690.5 0.5" style="stroke:#FFFFFF;stroke-opacity:0.7; stroke-width: 1; stroke-dasharray: ; stroke-linecap: butt; stroke-linejoin: miter; stroke-miterlimit: 10; fill: none; fill-rule: nonzero; opacity: 1" transform=" matrix(1 0 0 1 0 0) " stroke-linecap="round" />
<path d="M 814.5 40.5 L 814.5 40.5 L 814.5 0.5" style="stroke:#FFFFFF;stroke-opacity:0.7; stroke-width: 1; stroke-dasharray: ; stroke-linecap: butt; stroke-linejoin: miter; stroke-miterlimit: 10; fill: none; fill-rule: nonzero; opacity: 1" transform=" matrix(1 0 0 1 0 0) " stroke-linecap="round" />
<path d="M 937.5 40.5 L 937.5 40.5 L 937.5 0.5" style="stroke:#FFFFFF;stroke-opacity:0.7; stroke-width: 1; stroke-dasharray: ; stroke-linecap: butt; stroke-linejoin: miter; stroke-miterlimit: 10; fill: none; fill-rule: nonzero; opacity: 1" transform=" matrix(1 0 0 1 0 0) " stroke-linecap="round" />
	<g transform=" matrix(1 0 0 1 71 28.5) ">
		<text font-family="Verdana" font-size="11" font-weight="normal" style="stroke: none; stroke-width: 1; stroke-dasharray: ; stroke-linecap: butt; stroke-linejoin: miter; stroke-miterlimit: 10;fill:#FFFFFF;fill-opacity:1; fill-rule: nonzero; opacity: 1" ><tspan x="0" y="5.9912" fill="rgba(255,255,255,1)">2015</tspan></text>
	</g>
	<g transform=" matrix(1 0 0 1 191 28.5) ">
		<text font-family="Verdana" font-size="11" font-weight="normal" style="stroke: none; stroke-width: 1; stroke-dasharray: ; stroke-linecap: butt; stroke-linejoin: miter; stroke-miterlimit: 10;fill:#FFFFFF;fill-opacity:1; fill-rule: nonzero; opacity: 1" ><tspan x="0" y="5.9912" fill="rgba(255,255,255,1)">Mar</tspan></text>
	</g>
	<g transform=" matrix(1 0 0 1 316 28.5) ">
		<text font-family="Verdana" font-size="11" font-weight="normal" style="stroke: none; stroke-width: 1; stroke-dasharray: ; stroke-linecap: butt; stroke-linejoin: miter; stroke-miterlimit: 10;fill:#FFFFFF;fill-opacity:1; fill-rule: nonzero; opacity: 1" ><tspan x="0" y="5.9912" fill="rgba(255,255,255,1)">May</tspan></text>
	</g>
	<g transform=" matrix(1 0 0 1 441 28.5) ">
		<text font-family="Verdana" font-size="11" font-weight="normal" style="stroke: none; stroke-width: 1; stroke-dasharray: ; stroke-linecap: butt; stroke-linejoin: miter; stroke-miterlimit: 10;fill:#FFFFFF;fill-opacity:1; fill-rule: nonzero; opacity: 1" ><tspan x="0" y="5.9912" fill="rgba(255,255,255,1)">Jul</tspan></text>
	</g>
	<g transform=" matrix(1 0 0 1 568 28.5) ">
		<text font-family="Verdana" font-size="11" font-weight="normal" style="stroke: none; stroke-width: 1; stroke-dasharray: ; stroke-linecap: butt; stroke-linejoin: miter; stroke-miterlimit: 10;fill:#FFFFFF;fill-opacity:1; fill-rule: nonzero; opacity: 1" ><tspan x="0" y="5.9912" fill="rgba(255,255,255,1)">Sep</tspan></text>
	</g>
	<g transform=" matrix(1 0 0 1 693 28.5) ">
		<text font-family="Verdana" font-size="11" font-weight="normal" style="stroke: none; stroke-width: 1; stroke-dasharray: ; stroke-linecap: butt; stroke-linejoin: miter; stroke-miterlimit: 10;fill:#FFFFFF;fill-opacity:1; fill-rule: nonzero; opacity: 1" ><tspan x="0" y="5.9912" fill="rgba(255,255,255,1)">Nov</tspan></text>
	</g>
	<g transform=" matrix(1 0 0 1 817 28.5) ">
		<text font-family="Verdana" font-size="11" font-weight="normal" style="stroke: none; stroke-width: 1; stroke-dasharray: ; stroke-linecap: butt; stroke-linejoin: miter; stroke-miterlimit: 10;fill:#FFFFFF;fill-opacity:1; fill-rule: nonzero; opacity: 1" ><tspan x="0" y="5.9912" fill="rgba(255,255,255,1)">2016</tspan></text>
	</g>
	<g transform=" matrix(1 0 0 1 940 28.5) ">
		<text font-family="Verdana" font-size="11" font-weight="normal" style="stroke: none; stroke-width: 1; stroke-dasharray: ; stroke-linecap: butt; stroke-linejoin: miter; stroke-miterlimit: 10;fill:#FFFFFF;fill-opacity:1; fill-rule: nonzero; opacity: 1" ><tspan x="0" y="5.9912" fill="rgba(255,255,255,1)">Mar</tspan></text>
	</g>
<rect x="0.5" y="0.5" rx="0" ry="0" width="1024" height="40" style="stroke:#000000;stroke-opacity:0.005; stroke-width: 0; stroke-dasharray: ; stroke-linecap: butt; stroke-linejoin: miter; stroke-miterlimit: 10;fill:#000000;fill-opacity:0.005; fill-rule: nonzero; opacity: 1" transform=" matrix(1 0 0 1 0 0) "/>
<rect x="0" y="0.5" rx="0" ry="0" width="1023" height="40" style="stroke:#000000;stroke-opacity:0.005; stroke-width: 0; stroke-dasharray: ; stroke-linecap: butt; stroke-linejoin: miter; stroke-miterlimit: 10;fill:#000000;fill-opacity:0.005; fill-rule: nonzero; opacity: 1" transform=" matrix(1 0 0 1 0 0) "/>
<g transform=" matrix(1 0 0 1 -17 3) ">
<image xlink:href="http://localhost:8080/app/VAADIN/resources/amcharts/images/dragIconRoundBig.svg" x="0" y="0" style="stroke: none; stroke-width: 1; stroke-dasharray: ; stroke-linecap: butt; stroke-linejoin: miter; stroke-miterlimit: 10;fill:#000000;fill-opacity:1; fill-rule: nonzero; opacity: 1" width="35" height="35" preserveAspectRatio="xMidYMid meet"></image>
</g>
<rect x="0.5" y="0.5" rx="0" ry="0" width="25" height="40" style="stroke:#000000;stroke-opacity:0.005; stroke-width: 0; stroke-dasharray: ; stroke-linecap: butt; stroke-linejoin: miter; stroke-miterlimit: 10;fill:#000000;fill-opacity:0.005; fill-rule: nonzero; opacity: 1" transform=" matrix(1 0 0 1 -12 1) "/>
<g transform=" matrix(1 0 0 1 1006 3) ">
<image xlink:href="http://localhost:8080/app/VAADIN/resources/amcharts/images/dragIconRoundBig.svg" x="0" y="0" style="stroke: none; stroke-width: 1; stroke-dasharray: ; stroke-linecap: butt; stroke-linejoin: miter; stroke-miterlimit: 10;fill:#000000;fill-opacity:1; fill-rule: nonzero; opacity: 1" width="35" height="35" preserveAspectRatio="xMidYMid meet"></image>
</g>
<rect x="0.5" y="0.5" rx="0" ry="0" width="25" height="40" style="stroke:#000000;stroke-opacity:0.005; stroke-width: 0; stroke-dasharray: ; stroke-linecap: butt; stroke-linejoin: miter; stroke-miterlimit: 10;fill:#000000;fill-opacity:0.005; fill-rule: nonzero; opacity: 1" transform=" matrix(1 0 0 1 1011 1) "/>
<rect x="0" y="0" rx="0" ry="0" width="1023" height="41" style="stroke: none; stroke-width: 0; stroke-dasharray: ; stroke-linecap: butt; stroke-linejoin: miter; stroke-miterlimit: 10; fill: transparent; fill-rule: nonzero; opacity: 1" transform=""/>
</g>
	<g transform="translate(66.5 582.21)">
		<text font-family="Verdana" font-size="11" font-weight="normal" style="stroke: none; stroke-width: 1; stroke-dasharray: ; stroke-linecap: butt; stroke-linejoin: miter; stroke-miterlimit: 10;fill:#000000;fill-opacity:1; fill-rule: nonzero; opacity: 0.7" ><tspan x="-61.5" y="2.4706" fill="rgb(0, 0, 0)">JS chart by amCharts</tspan></text>
	</g>
<clipPath xmlns="http://www.w3.org/2000/svg" id="AmChartsEl-2033"><rect x="0" y="0" width="1023" height="477" rx="0" ry="0" stroke-width="0" fill="transparent" svgUid="48"/></clipPath><clipPath xmlns="http://www.w3.org/2000/svg" id="AmChartsEl-2035"><rect x="0" y="0" width="1023" height="477" rx="0" ry="0" stroke-width="0" fill="transparent" svgUid="48"/></clipPath><clipPath xmlns="http://www.w3.org/2000/svg" id="AmChartsEl-2034"><rect x="0" y="0" width="1023" height="477" rx="0" ry="0" stroke-width="0" fill="transparent" svgUid="48"/></clipPath><clipPath xmlns="http://www.w3.org/2000/svg" id="AmChartsEl-2036"><rect x="0" y="0" width="1023" height="41" rx="0" ry="0" stroke-width="0" fill="transparent" svgUid="49"/></clipPath><clipPath xmlns="http://www.w3.org/2000/svg" id="AmChartsEl-2036"><rect x="0" y="0" width="1023" height="41" rx="0" ry="0" stroke-width="0" fill="transparent" svgUid="49"/></clipPath></svg>