<?xml version="1.0" encoding="UTF-8" standalone="no" ?><!DOCTYPE svg PUBLIC "-//W3C//DTD SVG 1.1//EN" "http://www.w3.org/Graphics/SVG/1.1/DTD/svg11.dtd">
<svg xmlns="http://www.w3.org/2000/svg" xmlns:xlink="http://www.w3.org/1999/xlink" version="1.1" width="1024" height="570" style="background-color: #FFFFFF" xml:space="preserve"><desc>Created with Fabric.js 1.5.0</desc><defs></defs><g style="stroke: none; stroke-width: 1; stroke-dasharray: ; stroke-linecap: butt; stroke-linejoin: miter; stroke-miterlimit: 10; fill: none; fill-rule: nonzero; opacity: 1" transform="translate(0 0)" >
	<g transform=" matrix(1 0 0 1 0 11) ">
		<text font-family="Verdana" font-size="11" font-weight="bold" style="stroke: none; stroke-width: 1; stroke-dasharray: ; stroke-linecap: butt; stroke-linejoin: miter; stroke-miterlimit: 10;fill:#000000;fill-opacity:1; fill-rule: nonzero; opacity: 1" ><tspan x="0" y="5.9912" fill="rgba(0,0,0,1)">Value</tspan></text>
	</g>
<path d="M 0.5 0.5 L 958.5 0.5 L 958.5 23.5 L 0.5 23.5 Z" style="stroke:#000000;stroke-opacity:0; stroke-width: 1; stroke-dasharray: ; stroke-linecap: butt; stroke-linejoin: miter; stroke-miterlimit: 10;fill:#FFFFFF;fill-opacity:0; fill-rule: nonzero; opacity: 1" transform=" matrix(1 0 0 1 49 0) " stroke-linecap="round" />
<path d="M -7.5 8.5 L 8.5 8.5 L 8.5 -7.5 L -7.5 -7.5 Z" style="stroke:#CC4748;stroke-opacity:1; stroke-width: 1; stroke-dasharray: ; stroke-linecap: butt; stroke-linejoin: miter; stroke-miterlimit: 10;fill:#CC4748;fill-opacity:0.9; fill-rule: nonzero; opacity: 1" transform=" matrix(1 0 0 1 57 12) " stroke-linecap="round" />
<path d="M -5.5 -5.5 L 6.5 6.5" style="stroke: #FFFFFF; stroke-width: 3; stroke-dasharray: ; stroke-linecap: butt; stroke-linejoin: miter; stroke-miterlimit: 10; fill: none; fill-rule: nonzero; opacity: 0" transform=" matrix(1 0 0 1 57 12) " stroke-linecap="round" />
<path d="M -5.5 6.5 L 6.5 -5.5" style="stroke: #FFFFFF; stroke-width: 3; stroke-dasharray: ; stroke-linecap: butt; stroke-linejoin: miter; stroke-miterlimit: 10; fill: none; fill-rule: nonzero; opacity: 0" transform=" matrix(1 0 0 1 57 12) " stroke-linecap="round" />
	<g transform=" matrix(1 0 0 1 70 11) ">
		<text font-family="Verdana" font-size="11" font-weight="normal" style="stroke: none; stroke-width: 1; stroke-dasharray: ; stroke-linecap: butt; stroke-linejoin: miter; stroke-miterlimit: 10;fill:#000000;fill-opacity:1; fill-rule: nonzero; opacity: 1" ><tspan x="0" y="5.9912" fill="rgba(0,0,0,1)">Fourth data set</tspan></text>
	</g>
	<g transform=" matrix(1 0 0 1 182 11) ">
		<text font-family="Verdana" font-size="11" font-weight="normal" style="stroke: none; stroke-width: 1; stroke-dasharray: ; stroke-linecap: butt; stroke-linejoin: miter; stroke-miterlimit: 10;fill:#000000;fill-opacity:1; fill-rule: nonzero; opacity: 1" ><tspan x="0" y="5.9912" fill="rgba(0,0,0,1)">-23.71%</tspan></text>
	</g>
<rect x="16" y="0" rx="0" ry="0" width="166.5" height="18" style="stroke: none; stroke-width: 0; stroke-dasharray: ; stroke-linecap: butt; stroke-linejoin: miter; stroke-miterlimit: 10;fill:#FFFFFF;fill-opacity:0.005; fill-rule: nonzero; opacity: 1" transform=" matrix(1 0 0 1 49 4) "/>
<path d="M -7.5 8.5 L 8.5 8.5 L 8.5 -7.5 L -7.5 -7.5 Z" style="stroke:#67B7DC;stroke-opacity:1; stroke-width: 1; stroke-dasharray: ; stroke-linecap: butt; stroke-linejoin: miter; stroke-miterlimit: 10;fill:#67B7DC;fill-opacity:0.9; fill-rule: nonzero; opacity: 1" transform=" matrix(1 0 0 1 251 12) " stroke-linecap="round" />
<path d="M -5.5 -5.5 L 6.5 6.5" style="stroke: #FFFFFF; stroke-width: 3; stroke-dasharray: ; stroke-linecap: butt; stroke-linejoin: miter; stroke-miterlimit: 10; fill: none; fill-rule: nonzero; opacity: 0" transform=" matrix(1 0 0 1 251 12) " stroke-linecap="round" />
<path d="M -5.5 6.5 L 6.5 -5.5" style="stroke: #FFFFFF; stroke-width: 3; stroke-dasharray: ; stroke-linecap: butt; stroke-linejoin: miter; stroke-miterlimit: 10; fill: none; fill-rule: nonzero; opacity: 0" transform=" matrix(1 0 0 1 251 12) " stroke-linecap="round" />
	<g transform=" matrix(1 0 0 1 264 11) ">
		<text font-family="Verdana" font-size="11" font-weight="normal" style="stroke: none; stroke-width: 1; stroke-dasharray: ; stroke-linecap: butt; stroke-linejoin: miter; stroke-miterlimit: 10;fill:#000000;fill-opacity:1; fill-rule: nonzero; opacity: 1" ><tspan x="0" y="5.9912" fill="rgba(0,0,0,1)">First data set</tspan></text>
	</g>
	<g transform=" matrix(1 0 0 1 364 11) ">
		<text font-family="Verdana" font-size="11" font-weight="normal" style="stroke: none; stroke-width: 1; stroke-dasharray: ; stroke-linecap: butt; stroke-linejoin: miter; stroke-miterlimit: 10;fill:#000000;fill-opacity:1; fill-rule: nonzero; opacity: 1" ><tspan x="0" y="5.9912" fill="rgba(0,0,0,1)">42.32%</tspan></text>
	</g>
<rect x="16" y="0" rx="0" ry="0" width="154.5" height="18" style="stroke: none; stroke-width: 0; stroke-dasharray: ; stroke-linecap: butt; stroke-linejoin: miter; stroke-miterlimit: 10;fill:#FFFFFF;fill-opacity:0.005; fill-rule: nonzero; opacity: 1" transform=" matrix(1 0 0 1 243 4) "/>
<path d="M -7.5 8.5 L 8.5 8.5 L 8.5 -7.5 L -7.5 -7.5 Z" style="stroke:#FDD400;stroke-opacity:1; stroke-width: 1; stroke-dasharray: ; stroke-linecap: butt; stroke-linejoin: miter; stroke-miterlimit: 10;fill:#FDD400;fill-opacity:0.9; fill-rule: nonzero; opacity: 1" transform=" matrix(1 0 0 1 432 12) " stroke-linecap="round" />
<path d="M -5.5 -5.5 L 6.5 6.5" style="stroke: #FFFFFF; stroke-width: 3; stroke-dasharray: ; stroke-linecap: butt; stroke-linejoin: miter; stroke-miterlimit: 10; fill: none; fill-rule: nonzero; opacity: 0" transform=" matrix(1 0 0 1 432 12) " stroke-linecap="round" />
<path d="M -5.5 6.5 L 6.5 -5.5" style="stroke: #FFFFFF; stroke-width: 3; stroke-dasharray: ; stroke-linecap: butt; stroke-linejoin: miter; stroke-miterlimit: 10; fill: none; fill-rule: nonzero; opacity: 0" transform=" matrix(1 0 0 1 432 12) " stroke-linecap="round" />
	<g transform=" matrix(1 0 0 1 445 11) ">
		<text font-family="Verdana" font-size="11" font-weight="normal" style="stroke: none; stroke-width: 1; stroke-dasharray: ; stroke-linecap: butt; stroke-linejoin: miter; stroke-miterlimit: 10;fill:#000000;fill-opacity:1; fill-rule: nonzero; opacity: 1" ><tspan x="0" y="5.9912" fill="rgba(0,0,0,1)">Second data set</tspan></text>
	</g>
	<g transform=" matrix(1 0 0 1 563 11) ">
		<text font-family="Verdana" font-size="11" font-weight="normal" style="stroke: none; stroke-width: 1; stroke-dasharray: ; stroke-linecap: butt; stroke-linejoin: miter; stroke-miterlimit: 10;fill:#000000;fill-opacity:1; fill-rule: nonzero; opacity: 1" ><tspan x="0" y="5.9912" fill="rgba(0,0,0,1)">13.26%</tspan></text>
	</g>
<rect x="16" y="0" rx="0" ry="0" width="172.5" height="18" style="stroke: none; stroke-width: 0; stroke-dasharray: ; stroke-linecap: butt; stroke-linejoin: miter; stroke-miterlimit: 10;fill:#FFFFFF;fill-opacity:0.005; fill-rule: nonzero; opacity: 1" transform=" matrix(1 0 0 1 424 4) "/>
<path d="M -7.5 8.5 L 8.5 8.5 L 8.5 -7.5 L -7.5 -7.5 Z" style="stroke:#84B761;stroke-opacity:1; stroke-width: 1; stroke-dasharray: ; stroke-linecap: butt; stroke-linejoin: miter; stroke-miterlimit: 10;fill:#84B761;fill-opacity:0.9; fill-rule: nonzero; opacity: 1" transform=" matrix(1 0 0 1 632 12) " stroke-linecap="round" />
<path d="M -5.5 -5.5 L 6.5 6.5" style="stroke: #FFFFFF; stroke-width: 3; stroke-dasharray: ; stroke-linecap: butt; stroke-linejoin: miter; stroke-miterlimit: 10; fill: none; fill-rule: nonzero; opacity: 0" transform=" matrix(1 0 0 1 632 12) " stroke-linecap="round" />
<path d="M -5.5 6.5 L 6.5 -5.5" style="stroke: #FFFFFF; stroke-width: 3; stroke-dasharray: ; stroke-linecap: butt; stroke-linejoin: miter; stroke-miterlimit: 10; fill: none; fill-rule: nonzero; opacity: 0" transform=" matrix(1 0 0 1 632 12) " stroke-linecap="round" />
	<g transform=" matrix(1 0 0 1 645 11) ">
		<text font-family="Verdana" font-size="11" font-weight="normal" style="stroke: none; stroke-width: 1; stroke-dasharray: ; stroke-linecap: butt; stroke-linejoin: miter; stroke-miterlimit: 10;fill:#000000;fill-opacity:1; fill-rule: nonzero; opacity: 1" ><tspan x="0" y="5.9912" fill="rgba(0,0,0,1)">Third data set</tspan></text>
	</g>
	<g transform=" matrix(1 0 0 1 750 11) ">
		<text font-family="Verdana" font-size="11" font-weight="normal" style="stroke: none; stroke-width: 1; stroke-dasharray: ; stroke-linecap: butt; stroke-linejoin: miter; stroke-miterlimit: 10;fill:#000000;fill-opacity:1; fill-rule: nonzero; opacity: 1" ><tspan x="0" y="5.9912" fill="rgba(0,0,0,1)">-14.31%</tspan></text>
	</g>
<rect x="16" y="0" rx="0" ry="0" width="159.5" height="18" style="stroke: none; stroke-width: 0; stroke-dasharray: ; stroke-linecap: butt; stroke-linejoin: miter; stroke-miterlimit: 10;fill:#FFFFFF;fill-opacity:0.005; fill-rule: nonzero; opacity: 1" transform=" matrix(1 0 0 1 624 4) "/>
</g>
<g style="stroke: none; stroke-width: 1; stroke-dasharray: ; stroke-linecap: butt; stroke-linejoin: miter; stroke-miterlimit: 10; fill: none; fill-rule: nonzero; opacity: 1" transform="translate(0 24)" >
<path d="M 0.5 0.5 L 1007.5 0.5 L 1007.5 340.5 L 0.5 340.5 Z" style="stroke:#000000;stroke-opacity:0; stroke-width: 1; stroke-dasharray: ; stroke-linecap: butt; stroke-linejoin: miter; stroke-miterlimit: 10;fill:#FFFFFF;fill-opacity:0; fill-rule: nonzero; opacity: 1" transform="" stroke-linecap="round" />
<path d="M 0.5 0.5 L 1007.5 0.5 L 1007.5 340.5 L 0.5 340.5 L 0.5 0.5 Z" style="stroke:#000000;stroke-opacity:0; stroke-width: 1; stroke-dasharray: ; stroke-linecap: butt; stroke-linejoin: miter; stroke-miterlimit: 10;fill:#FFFFFF;fill-opacity:0; fill-rule: nonzero; opacity: 1" transform=" matrix(1 0 0 1 0 0) " stroke-linecap="round" />
<path d="M 12.5 340.5 L 12.5 340.5 L 12.5 0.5" style="stroke:#000000;stroke-opacity:0.1; stroke-width: 1; stroke-dasharray: ; stroke-linecap: butt; stroke-linejoin: miter; stroke-miterlimit: 10; fill: none; fill-rule: nonzero; opacity: 1" transform=" matrix(1 0 0 1 0 0) " stroke-linecap="round" />
<path d="M 115.5 340.5 L 115.5 340.5 L 115.5 0.5" style="stroke:#000000;stroke-opacity:0.1; stroke-width: 1; stroke-dasharray: ; stroke-linecap: butt; stroke-linejoin: miter; stroke-miterlimit: 10; fill: none; fill-rule: nonzero; opacity: 1" transform=" matrix(1 0 0 1 0 0) " stroke-linecap="round" />
<path d="M 218.5 340.5 L 218.5 340.5 L 218.5 0.5" style="stroke:#000000;stroke-opacity:0.1; stroke-width: 1; stroke-dasharray: ; stroke-linecap: butt; stroke-linejoin: miter; stroke-miterlimit: 10; fill: none; fill-rule: nonzero; opacity: 1" transform=" matrix(1 0 0 1 0 0) " stroke-linecap="round" />
<path d="M 321.5 340.5 L 321.5 340.5 L 321.5 0.5" style="stroke:#000000;stroke-opacity:0.1; stroke-width: 1; stroke-dasharray: ; stroke-linecap: butt; stroke-linejoin: miter; stroke-miterlimit: 10; fill: none; fill-rule: nonzero; opacity: 1" transform=" matrix(1 0 0 1 0 0) " stroke-linecap="round" />
<path d="M 424.5 340.5 L 424.5 340.5 L 424.5 0.5" style="stroke:#000000;stroke-opacity:0.1; stroke-width: 1; stroke-dasharray: ; stroke-linecap: butt; stroke-linejoin: miter; stroke-miterlimit: 10; fill: none; fill-rule: nonzero; opacity: 1" transform=" matrix(1 0 0 1 0 0) " stroke-linecap="round" />
<path d="M 527.5 340.5 L 527.5 340.5 L 527.5 0.5" style="stroke:#000000;stroke-opacity:0.1; stroke-width: 1; stroke-dasharray: ; stroke-linecap: butt; stroke-linejoin: miter; stroke-miterlimit: 10; fill: none; fill-rule: nonzero; opacity: 1" transform=" matrix(1 0 0 1 0 0) " stroke-linecap="round" />
<path d="M 630.5 340.5 L 630.5 340.5 L 630.5 0.5" style="stroke:#000000;stroke-opacity:0.1; stroke-width: 1; stroke-dasharray: ; stroke-linecap: butt; stroke-linejoin: miter; stroke-miterlimit: 10; fill: none; fill-rule: nonzero; opacity: 1" transform=" matrix(1 0 0 1 0 0) " stroke-linecap="round" />
<path d="M 733.5 340.5 L 733.5 340.5 L 733.5 0.5" style="stroke:#000000;stroke-opacity:0.1; stroke-width: 1; stroke-dasharray: ; stroke-linecap: butt; stroke-linejoin: miter; stroke-miterlimit: 10; fill: none; fill-rule: nonzero; opacity: 1" transform=" matrix(1 0 0 1 0 0) " stroke-linecap="round" />
<path d="M 835.5 340.5 L 835.5 340.5 L 835.5 0.5" style="stroke:#000000;stroke-opacity:0.1; stroke-width: 1; stroke-dasharray: ; stroke-linecap: butt; stroke-linejoin: miter; stroke-miterlimit: 10; fill: none; fill-rule: nonzero; opacity: 1" transform=" matrix(1 0 0 1 0 0) " stroke-linecap="round" />
<path d="M 938.5 340.5 L 938.5 340.5 L 938.5 0.5" style="stroke:#000000;stroke-opacity:0.1; stroke-width: 1; stroke-dasharray: ; stroke-linecap: butt; stroke-linejoin: miter; stroke-miterlimit: 10; fill: none; fill-rule: nonzero; opacity: 1" transform=" matrix(1 0 0 1 0 0) " stroke-linecap="round" />
<path d="M 0.5 340.5 L 0.5 340.5 L 1007.5 340.5" style="stroke:#000000;stroke-opacity:0.1; stroke-width: 1; stroke-dasharray: ; stroke-linecap: butt; stroke-linejoin: miter; stroke-miterlimit: 10; fill: none; fill-rule: nonzero; opacity: 1" transform=" matrix(1 0 0 1 0 0) " stroke-linecap="round" />
<path d="M 0.5 298.5 L 0.5 298.5 L 1007.5 298.5" style="stroke:#000000;stroke-opacity:0.1; stroke-width: 1; stroke-dasharray: ; stroke-linecap: butt; stroke-linejoin: miter; stroke-miterlimit: 10; fill: none; fill-rule: nonzero; opacity: 1" transform=" matrix(1 0 0 1 0 0) " stroke-linecap="round" />
<path d="M 0.5 255.5 L 0.5 255.5 L 1007.5 255.5" style="stroke:#000000;stroke-opacity:0.1; stroke-width: 1; stroke-dasharray: ; stroke-linecap: butt; stroke-linejoin: miter; stroke-miterlimit: 10; fill: none; fill-rule: nonzero; opacity: 1" transform=" matrix(1 0 0 1 0 0) " stroke-linecap="round" />
<path d="M 0.5 213.5 L 0.5 213.5 L 1007.5 213.5" style="stroke:#000000;stroke-opacity:0.1; stroke-width: 1; stroke-dasharray: ; stroke-linecap: butt; stroke-linejoin: miter; stroke-miterlimit: 10; fill: none; fill-rule: nonzero; opacity: 1" transform=" matrix(1 0 0 1 0 0) " stroke-linecap="round" />
<path d="M 0.5 170.5 L 0.5 170.5 L 1007.5 170.5" style="stroke:#000000;stroke-opacity:0.1; stroke-width: 1; stroke-dasharray: ; stroke-linecap: butt; stroke-linejoin: miter; stroke-miterlimit: 10; fill: none; fill-rule: nonzero; opacity: 1" transform=" matrix(1 0 0 1 0 0) " stroke-linecap="round" />
<path d="M 0.5 128.5 L 0.5 128.5 L 1007.5 128.5" style="stroke:#000000;stroke-opacity:0.1; stroke-width: 1; stroke-dasharray: ; stroke-linecap: butt; stroke-linejoin: miter; stroke-miterlimit: 10; fill: none; fill-rule: nonzero; opacity: 1" transform=" matrix(1 0 0 1 0 0) " stroke-linecap="round" />
<path d="M 0.5 85.5 L 0.5 85.5 L 1007.5 85.5" style="stroke:#000000;stroke-opacity:0.1; stroke-width: 1; stroke-dasharray: ; stroke-linecap: butt; stroke-linejoin: miter; stroke-miterlimit: 10; fill: none; fill-rule: nonzero; opacity: 1" transform=" matrix(1 0 0 1 0 0) " stroke-linecap="round" />
<path d="M 0.5 43.5 L 0.5 43.5 L 1007.5 43.5" style="stroke:#000000;stroke-opacity:0.1; stroke-width: 1; stroke-dasharray: ; stroke-linecap: butt; stroke-linejoin: miter; stroke-miterlimit: 10; fill: none; fill-rule: nonzero; opacity: 1" transform=" matrix(1 0 0 1 0 0) " stroke-linecap="round" />
<path d="M 0.5 0.5 L 0.5 0.5 L 1007.5 0.5" style="stroke:#000000;stroke-opacity:0.1; stroke-width: 1; stroke-dasharray: ; stroke-linecap: butt; stroke-linejoin: miter; stroke-miterlimit: 10; fill: none; fill-rule: nonzero; opacity: 1" transform=" matrix(1 0 0 1 0 0) " stroke-linecap="round" />
<rect x="0.5" y="0.5" rx="0" ry="0" width="34" height="340" style="stroke:#000000;stroke-opacity:0.1; stroke-width: 0; stroke-dasharray: ; stroke-linecap: butt; stroke-linejoin: miter; stroke-miterlimit: 10;fill:#000000;fill-opacity:0.1; fill-rule: nonzero; opacity: 0" transform=" matrix(1 0 0 1 870 0) " clip-path="url(#AmChartsEl-1151)" />
<path d="M -38.5 220.40787 L -4.5 230.14392 L 29.5 213 L 64.5 250.251 L 98.5 192.04631 L 132.5 164.53137 L 167.5 237.76345 L 201.5 228.874 L 235.5 233.10707 L 270.5 190.77639 L 304.5 246.22958 L 338.5 190.77639 L 372.5 256.38894 L 407.5 175.53735 L 441.5 191.41135 L 475.5 266.125 L 510.5 258.29382 L 544.5 264.00847 L 578.5 203.4756 L 613.5 262.73855 L 647.5 243.05478 L 681.5 212.15339 L 715.5 175.53735 L 750.5 262.52689 L 784.5 209.61355 L 818.5 247.28785 L 853.5 208.55528 L 887.5 235.01195 L 921.5 178.28884 L 956.5 267.18327 L 990.5 263.37351 M 0 0 L 0 0" style="stroke:#CC4748;stroke-opacity:0.9; stroke-width: 1; stroke-dasharray: ; stroke-linecap: butt; stroke-linejoin: miter; stroke-miterlimit: 10; fill: none; fill-rule: nonzero; opacity: 1" transform=" matrix(1 0 0 1 0 0) " stroke-linecap="round"  clip-path="url(#AmChartsEl-1153)" />
<rect x="0" y="0" rx="0" ry="0" width="1007" height="340" style="stroke: none; stroke-width: 0; stroke-dasharray: ; stroke-linecap: butt; stroke-linejoin: miter; stroke-miterlimit: 10; fill: transparent; fill-rule: nonzero; opacity: 1" transform=""/>
<path d="M -38.5 174.89024 L -4.5 243.18293 L 29.5 213 L 64.5 203.2439 L 98.5 101.71951 L 132.5 232.20732 L 167.5 194.40244 L 201.5 214.82927 L 235.5 126.71951 L 270.5 150.80488 L 304.5 215.7439 L 338.5 188.60976 L 372.5 170.62195 L 407.5 188.60976 L 441.5 122.7561 L 475.5 187.69512 L 510.5 156.59756 L 544.5 150.5 L 578.5 185.56098 L 613.5 206.29268 L 647.5 182.81707 L 681.5 85.2561 L 715.5 203.85366 L 750.5 208.73171 L 784.5 219.70732 L 818.5 100.5 L 853.5 92.57317 L 887.5 222.7561 L 921.5 214.21951 L 956.5 132.20732 L 990.5 123.06098 M 0 0 L 0 0" style="stroke:#67B7DC;stroke-opacity:0.9; stroke-width: 1; stroke-dasharray: ; stroke-linecap: butt; stroke-linejoin: miter; stroke-miterlimit: 10; fill: none; fill-rule: nonzero; opacity: 1" transform=" matrix(1 0 0 1 0 0) " stroke-linecap="round"  clip-path="url(#AmChartsEl-1154)" />
<rect x="0" y="0" rx="0" ry="0" width="1007" height="340" style="stroke: none; stroke-width: 0; stroke-dasharray: ; stroke-linecap: butt; stroke-linejoin: miter; stroke-miterlimit: 10; fill: transparent; fill-rule: nonzero; opacity: 1" transform=""/>
<path d="M -38.5 159.7219 L -4.5 214.83718 L 29.5 213 L 64.5 111.95533 L 98.5 45.817 L 132.5 144.10591 L 167.5 168.60159 L 201.5 80.72334 L 235.5 212.6938 L 270.5 139.20677 L 304.5 149.31124 L 338.5 130.02089 L 372.5 72.14986 L 407.5 156.04755 L 441.5 174.11311 L 475.5 92.05259 L 510.5 195.24063 L 544.5 154.21037 L 578.5 43.67363 L 613.5 149.92363 L 647.5 99.4013 L 681.5 202.28314 L 715.5 44.89841 L 750.5 182.3804 L 784.5 199.52738 L 818.5 209.01945 L 853.5 64.49495999999999 L 887.5 138.28818 L 921.5 136.7572 L 956.5 125.73415 L 990.5 184.82997 M 0 0 L 0 0" style="stroke:#FDD400;stroke-opacity:0.9; stroke-width: 1; stroke-dasharray: ; stroke-linecap: butt; stroke-linejoin: miter; stroke-miterlimit: 10; fill: none; fill-rule: nonzero; opacity: 1" transform=" matrix(1 0 0 1 0 0) " stroke-linecap="round"  clip-path="url(#AmChartsEl-1155)" />
<rect x="0" y="0" rx="0" ry="0" width="1007" height="340" style="stroke: none; stroke-width: 0; stroke-dasharray: ; stroke-linecap: butt; stroke-linejoin: miter; stroke-miterlimit: 10; fill: transparent; fill-rule: nonzero; opacity: 1" transform=""/>
<path d="M -38.5 206.01111 L -4.5 275.9 L 29.5 213 L 64.5 194.86667 L 98.5 271.36667 L 132.5 190.14444 L 167.5 192.6 L 201.5 262.48889 L 235.5 242.65556 L 270.5 288.36667 L 304.5 213 L 338.5 215.83333 L 372.5 201.66667 L 407.5 281.94444 L 441.5 252.66667 L 475.5 227.92222 L 510.5 254.93333 L 544.5 275.14444 L 578.5 251.91111 L 613.5 270.42222 L 647.5 276.46667 L 681.5 204.68889 L 715.5 234.53333 L 750.5 209.78889 L 784.5 269.47778 L 818.5 242.84444 L 853.5 284.21111 L 887.5 250.21111 L 921.5 252.28889 L 956.5 225.65556 L 990.5 243.41111 M 0 0 L 0 0" style="stroke:#84B761;stroke-opacity:0.9; stroke-width: 1; stroke-dasharray: ; stroke-linecap: butt; stroke-linejoin: miter; stroke-miterlimit: 10; fill: none; fill-rule: nonzero; opacity: 1" transform=" matrix(1 0 0 1 0 0) " stroke-linecap="round"  clip-path="url(#AmChartsEl-1156)" />
<rect x="0" y="0" rx="0" ry="0" width="1007" height="340" style="stroke: none; stroke-width: 0; stroke-dasharray: ; stroke-linecap: butt; stroke-linejoin: miter; stroke-miterlimit: 10; fill: transparent; fill-rule: nonzero; opacity: 1" transform=""/>
<path d="M 0.5 213.5 L 1007.5 213.5 L 1007.5 213.5" style="stroke:#000000;stroke-opacity:0.2; stroke-width: 1; stroke-dasharray: ; stroke-linecap: butt; stroke-linejoin: miter; stroke-miterlimit: 10; fill: none; fill-rule: nonzero; opacity: 1" transform=" matrix(1 0 0 1 0 0) " stroke-linecap="round" />
<path d="M 0.5 0.5 L 1007.5 0.5" style="stroke:#000000;stroke-opacity:0; stroke-width: 1; stroke-dasharray: ; stroke-linecap: butt; stroke-linejoin: miter; stroke-miterlimit: 10; fill: none; fill-rule: nonzero; opacity: 1" transform=" matrix(1 0 0 1 0 340) " stroke-linecap="round" />
<path d="M 0.5 0.5 L 0.5 340.5" style="stroke:#000000;stroke-opacity:0; stroke-width: 1; stroke-dasharray: ; stroke-linecap: butt; stroke-linejoin: miter; stroke-miterlimit: 10; fill: none; fill-rule: nonzero; opacity: 1" transform=" matrix(1 0 0 1 0 0) " stroke-linecap="round" />
<path d="M 0.5 0.5 L 1007.5 0.5 L 1007.5 0.5" style="stroke:#000000;stroke-opacity:0.5; stroke-width: 1; stroke-dasharray: ; stroke-linecap: butt; stroke-linejoin: miter; stroke-miterlimit: 10; fill: none; fill-rule: nonzero; opacity: 0" transform=" matrix(1 0 0 1 0 5) " stroke-linecap="round"  clip-path="url(#AmChartsEl-1152)" />
<rect x="0" y="0" rx="0" ry="0" width="1007" height="340" style="stroke: none; stroke-width: 0; stroke-dasharray: ; stroke-linecap: butt; stroke-linejoin: miter; stroke-miterlimit: 10; fill: transparent; fill-rule: nonzero; opacity: 1" transform=""/>
	<g transform=" matrix(1 0 0 1 4 332.5) ">
		<text font-family="Verdana" font-size="11" font-weight="normal" style="stroke: none; stroke-width: 1; stroke-dasharray: ; stroke-linecap: butt; stroke-linejoin: miter; stroke-miterlimit: 10;fill:#000000;fill-opacity:1; fill-rule: nonzero; opacity: 1" ><tspan x="0" y="5.9912" fill="rgba(0,0,0,1)">-60%</tspan></text>
	</g>
	<g transform=" matrix(1 0 0 1 4 290.5) ">
		<text font-family="Verdana" font-size="11" font-weight="normal" style="stroke: none; stroke-width: 1; stroke-dasharray: ; stroke-linecap: butt; stroke-linejoin: miter; stroke-miterlimit: 10;fill:#000000;fill-opacity:1; fill-rule: nonzero; opacity: 1" ><tspan x="0" y="5.9912" fill="rgba(0,0,0,1)">-40%</tspan></text>
	</g>
	<g transform=" matrix(1 0 0 1 4 247.5) ">
		<text font-family="Verdana" font-size="11" font-weight="normal" style="stroke: none; stroke-width: 1; stroke-dasharray: ; stroke-linecap: butt; stroke-linejoin: miter; stroke-miterlimit: 10;fill:#000000;fill-opacity:1; fill-rule: nonzero; opacity: 1" ><tspan x="0" y="5.9912" fill="rgba(0,0,0,1)">-20%</tspan></text>
	</g>
	<g transform=" matrix(1 0 0 1 4 205.5) ">
		<text font-family="Verdana" font-size="11" font-weight="normal" style="stroke: none; stroke-width: 1; stroke-dasharray: ; stroke-linecap: butt; stroke-linejoin: miter; stroke-miterlimit: 10;fill:#000000;fill-opacity:1; fill-rule: nonzero; opacity: 1" ><tspan x="0" y="5.9912" fill="rgba(0,0,0,1)">0%</tspan></text>
	</g>
	<g transform=" matrix(1 0 0 1 4 162.5) ">
		<text font-family="Verdana" font-size="11" font-weight="normal" style="stroke: none; stroke-width: 1; stroke-dasharray: ; stroke-linecap: butt; stroke-linejoin: miter; stroke-miterlimit: 10;fill:#000000;fill-opacity:1; fill-rule: nonzero; opacity: 1" ><tspan x="0" y="5.9912" fill="rgba(0,0,0,1)">20%</tspan></text>
	</g>
	<g transform=" matrix(1 0 0 1 4 120.5) ">
		<text font-family="Verdana" font-size="11" font-weight="normal" style="stroke: none; stroke-width: 1; stroke-dasharray: ; stroke-linecap: butt; stroke-linejoin: miter; stroke-miterlimit: 10;fill:#000000;fill-opacity:1; fill-rule: nonzero; opacity: 1" ><tspan x="0" y="5.9912" fill="rgba(0,0,0,1)">40%</tspan></text>
	</g>
	<g transform=" matrix(1 0 0 1 4 77.5) ">
		<text font-family="Verdana" font-size="11" font-weight="normal" style="stroke: none; stroke-width: 1; stroke-dasharray: ; stroke-linecap: butt; stroke-linejoin: miter; stroke-miterlimit: 10;fill:#000000;fill-opacity:1; fill-rule: nonzero; opacity: 1" ><tspan x="0" y="5.9912" fill="rgba(0,0,0,1)">60%</tspan></text>
	</g>
	<g transform=" matrix(1 0 0 1 4 35.5) ">
		<text font-family="Verdana" font-size="11" font-weight="normal" style="stroke: none; stroke-width: 1; stroke-dasharray: ; stroke-linecap: butt; stroke-linejoin: miter; stroke-miterlimit: 10;fill:#000000;fill-opacity:1; fill-rule: nonzero; opacity: 1" ><tspan x="0" y="5.9912" fill="rgba(0,0,0,1)">80%</tspan></text>
	</g>
	<g transform=" matrix(1 0 0 1 4 -1) ">
		<text font-family="Verdana" font-size="11" font-weight="normal" style="stroke: none; stroke-width: 1; stroke-dasharray: ; stroke-linecap: butt; stroke-linejoin: miter; stroke-miterlimit: 10;fill:#000000;fill-opacity:1; fill-rule: nonzero; opacity: 1" ><tspan x="0" y="5.9912" fill="rgba(0,0,0,1)"></tspan></text>
	</g>
<rect x="0" y="0" rx="0" ry="0" width="1007" height="340" style="stroke: none; stroke-width: 0; stroke-dasharray: ; stroke-linecap: butt; stroke-linejoin: miter; stroke-miterlimit: 10; fill: transparent; fill-rule: nonzero; opacity: 1" transform=""/>
</g>
<g style="stroke: none; stroke-width: 1; stroke-dasharray: ; stroke-linecap: butt; stroke-linejoin: miter; stroke-miterlimit: 10; fill: none; fill-rule: nonzero; opacity: 1" transform="translate(0 373)" >
	<g transform=" matrix(1 0 0 1 0 11) ">
		<text font-family="Verdana" font-size="11" font-weight="bold" style="stroke: none; stroke-width: 1; stroke-dasharray: ; stroke-linecap: butt; stroke-linejoin: miter; stroke-miterlimit: 10;fill:#000000;fill-opacity:1; fill-rule: nonzero; opacity: 1" ><tspan x="0" y="5.9912" fill="rgba(0,0,0,1)">Volume</tspan></text>
	</g>
<path d="M 0.5 0.5 L 945.5 0.5 L 945.5 23.5 L 0.5 23.5 Z" style="stroke:#000000;stroke-opacity:0; stroke-width: 1; stroke-dasharray: ; stroke-linecap: butt; stroke-linejoin: miter; stroke-miterlimit: 10;fill:#FFFFFF;fill-opacity:0; fill-rule: nonzero; opacity: 1" transform=" matrix(1 0 0 1 62 0) " stroke-linecap="round" />
<path d="M -7.5 8.5 L 8.5 8.5 L 8.5 -7.5 L -7.5 -7.5 Z" style="stroke:#CC4748;stroke-opacity:1; stroke-width: 1; stroke-dasharray: ; stroke-linecap: butt; stroke-linejoin: miter; stroke-miterlimit: 10;fill:#CC4748;fill-opacity:1; fill-rule: nonzero; opacity: 1" transform=" matrix(1 0 0 1 70 12) " stroke-linecap="round" />
<path d="M -5.5 -5.5 L 6.5 6.5" style="stroke: #FFFFFF; stroke-width: 3; stroke-dasharray: ; stroke-linecap: butt; stroke-linejoin: miter; stroke-miterlimit: 10; fill: none; fill-rule: nonzero; opacity: 0" transform=" matrix(1 0 0 1 70 12) " stroke-linecap="round" />
<path d="M -5.5 6.5 L 6.5 -5.5" style="stroke: #FFFFFF; stroke-width: 3; stroke-dasharray: ; stroke-linecap: butt; stroke-linejoin: miter; stroke-miterlimit: 10; fill: none; fill-rule: nonzero; opacity: 0" transform=" matrix(1 0 0 1 70 12) " stroke-linecap="round" />
	<g transform=" matrix(1 0 0 1 83 11) ">
		<text font-family="Verdana" font-size="11" font-weight="normal" style="stroke: none; stroke-width: 1; stroke-dasharray: ; stroke-linecap: butt; stroke-linejoin: miter; stroke-miterlimit: 10;fill:#000000;fill-opacity:1; fill-rule: nonzero; opacity: 1" ><tspan x="0" y="5.9912" fill="rgba(0,0,0,1)">Fourth data set</tspan></text>
	</g>
	<g transform=" matrix(1 0 0 1 195 11) ">
		<text font-family="Verdana" font-size="11" font-weight="normal" style="stroke: none; stroke-width: 1; stroke-dasharray: ; stroke-linecap: butt; stroke-linejoin: miter; stroke-miterlimit: 10;fill:#000000;fill-opacity:1; fill-rule: nonzero; opacity: 1" ><tspan x="0" y="5.9912" fill="rgba(0,0,0,1)">1,308</tspan></text>
	</g>
<rect x="16" y="0" rx="0" ry="0" width="166.5" height="18" style="stroke: none; stroke-width: 0; stroke-dasharray: ; stroke-linecap: butt; stroke-linejoin: miter; stroke-miterlimit: 10;fill:#FFFFFF;fill-opacity:0.005; fill-rule: nonzero; opacity: 1" transform=" matrix(1 0 0 1 62 4) "/>
</g>
<g style="stroke: none; stroke-width: 1; stroke-dasharray: ; stroke-linecap: butt; stroke-linejoin: miter; stroke-miterlimit: 10; fill: none; fill-rule: nonzero; opacity: 1" transform="translate(0 397)" >
<path d="M 0.5 0.5 L 1007.5 0.5 L 1007.5 132.5 L 0.5 132.5 Z" style="stroke:#000000;stroke-opacity:0; stroke-width: 1; stroke-dasharray: ; stroke-linecap: butt; stroke-linejoin: miter; stroke-miterlimit: 10;fill:#FFFFFF;fill-opacity:0; fill-rule: nonzero; opacity: 1" transform="" stroke-linecap="round" />
<path d="M 0.5 0.5 L 1007.5 0.5 L 1007.5 104.5 L 0.5 104.5 L 0.5 0.5 Z" style="stroke:#000000;stroke-opacity:0; stroke-width: 1; stroke-dasharray: ; stroke-linecap: butt; stroke-linejoin: miter; stroke-miterlimit: 10;fill:#FFFFFF;fill-opacity:0; fill-rule: nonzero; opacity: 1" transform=" matrix(1 0 0 1 0 0) " stroke-linecap="round" />
<path d="M 12.5 104.5 L 12.5 104.5 L 12.5 0.5" style="stroke:#000000;stroke-opacity:0.1; stroke-width: 1; stroke-dasharray: ; stroke-linecap: butt; stroke-linejoin: miter; stroke-miterlimit: 10; fill: none; fill-rule: nonzero; opacity: 1" transform=" matrix(1 0 0 1 0 0) " stroke-linecap="round" />
<path d="M 115.5 104.5 L 115.5 104.5 L 115.5 0.5" style="stroke:#000000;stroke-opacity:0.1; stroke-width: 1; stroke-dasharray: ; stroke-linecap: butt; stroke-linejoin: miter; stroke-miterlimit: 10; fill: none; fill-rule: nonzero; opacity: 1" transform=" matrix(1 0 0 1 0 0) " stroke-linecap="round" />
<path d="M 218.5 104.5 L 218.5 104.5 L 218.5 0.5" style="stroke:#000000;stroke-opacity:0.1; stroke-width: 1; stroke-dasharray: ; stroke-linecap: butt; stroke-linejoin: miter; stroke-miterlimit: 10; fill: none; fill-rule: nonzero; opacity: 1" transform=" matrix(1 0 0 1 0 0) " stroke-linecap="round" />
<path d="M 321.5 104.5 L 321.5 104.5 L 321.5 0.5" style="stroke:#000000;stroke-opacity:0.1; stroke-width: 1; stroke-dasharray: ; stroke-linecap: butt; stroke-linejoin: miter; stroke-miterlimit: 10; fill: none; fill-rule: nonzero; opacity: 1" transform=" matrix(1 0 0 1 0 0) " stroke-linecap="round" />
<path d="M 424.5 104.5 L 424.5 104.5 L 424.5 0.5" style="stroke:#000000;stroke-opacity:0.1; stroke-width: 1; stroke-dasharray: ; stroke-linecap: butt; stroke-linejoin: miter; stroke-miterlimit: 10; fill: none; fill-rule: nonzero; opacity: 1" transform=" matrix(1 0 0 1 0 0) " stroke-linecap="round" />
<path d="M 527.5 104.5 L 527.5 104.5 L 527.5 0.5" style="stroke:#000000;stroke-opacity:0.1; stroke-width: 1; stroke-dasharray: ; stroke-linecap: butt; stroke-linejoin: miter; stroke-miterlimit: 10; fill: none; fill-rule: nonzero; opacity: 1" transform=" matrix(1 0 0 1 0 0) " stroke-linecap="round" />
<path d="M 630.5 104.5 L 630.5 104.5 L 630.5 0.5" style="stroke:#000000;stroke-opacity:0.1; stroke-width: 1; stroke-dasharray: ; stroke-linecap: butt; stroke-linejoin: miter; stroke-miterlimit: 10; fill: none; fill-rule: nonzero; opacity: 1" transform=" matrix(1 0 0 1 0 0) " stroke-linecap="round" />
<path d="M 733.5 104.5 L 733.5 104.5 L 733.5 0.5" style="stroke:#000000;stroke-opacity:0.1; stroke-width: 1; stroke-dasharray: ; stroke-linecap: butt; stroke-linejoin: miter; stroke-miterlimit: 10; fill: none; fill-rule: nonzero; opacity: 1" transform=" matrix(1 0 0 1 0 0) " stroke-linecap="round" />
<path d="M 835.5 104.5 L 835.5 104.5 L 835.5 0.5" style="stroke:#000000;stroke-opacity:0.1; stroke-width: 1; stroke-dasharray: ; stroke-linecap: butt; stroke-linejoin: miter; stroke-miterlimit: 10; fill: none; fill-rule: nonzero; opacity: 1" transform=" matrix(1 0 0 1 0 0) " stroke-linecap="round" />
<path d="M 938.5 104.5 L 938.5 104.5 L 938.5 0.5" style="stroke:#000000;stroke-opacity:0.1; stroke-width: 1; stroke-dasharray: ; stroke-linecap: butt; stroke-linejoin: miter; stroke-miterlimit: 10; fill: none; fill-rule: nonzero; opacity: 1" transform=" matrix(1 0 0 1 0 0) " stroke-linecap="round" />
<path d="M 0.5 104.5 L 0.5 104.5 L 1007.5 104.5" style="stroke:#000000;stroke-opacity:0.1; stroke-width: 1; stroke-dasharray: ; stroke-linecap: butt; stroke-linejoin: miter; stroke-miterlimit: 10; fill: none; fill-rule: nonzero; opacity: 1" transform=" matrix(1 0 0 1 0 0) " stroke-linecap="round" />
<path d="M 0.5 52.5 L 0.5 52.5 L 1007.5 52.5" style="stroke:#000000;stroke-opacity:0.1; stroke-width: 1; stroke-dasharray: ; stroke-linecap: butt; stroke-linejoin: miter; stroke-miterlimit: 10; fill: none; fill-rule: nonzero; opacity: 1" transform=" matrix(1 0 0 1 0 0) " stroke-linecap="round" />
<path d="M 0.5 0.5 L 0.5 0.5 L 1007.5 0.5" style="stroke:#000000;stroke-opacity:0.1; stroke-width: 1; stroke-dasharray: ; stroke-linecap: butt; stroke-linejoin: miter; stroke-miterlimit: 10; fill: none; fill-rule: nonzero; opacity: 1" transform=" matrix(1 0 0 1 0 0) " stroke-linecap="round" />
<rect x="0.5" y="0.5" rx="0" ry="0" width="34" height="104" style="stroke:#000000;stroke-opacity:0.1; stroke-width: 0; stroke-dasharray: ; stroke-linecap: butt; stroke-linejoin: miter; stroke-miterlimit: 10;fill:#000000;fill-opacity:0.1; fill-rule: nonzero; opacity: 0" transform=" matrix(1 0 0 1 904 0) " clip-path="url(#AmChartsEl-1157)" />
<path d="M 0.5 0.5 L 0.5 -31.5 L 9.5 -31.5 L 9.5 0.5 L 0.5 0.5 Z" style="stroke:#CC4748;stroke-opacity:0.9; stroke-width: 1; stroke-dasharray: ; stroke-linecap: butt; stroke-linejoin: miter; stroke-miterlimit: 10;fill:#CC4748;fill-opacity:1; fill-rule: nonzero; opacity: 1" transform=" matrix(1 0 0 1 0 104) " stroke-linecap="round" />
<path d="M 0.5 0.5 L 0.5 -11.5 L 27.5 -11.5 L 27.5 0.5 L 0.5 0.5 Z" style="stroke:#CC4748;stroke-opacity:0.9; stroke-width: 1; stroke-dasharray: ; stroke-linecap: butt; stroke-linejoin: miter; stroke-miterlimit: 10;fill:#CC4748;fill-opacity:1; fill-rule: nonzero; opacity: 1" transform=" matrix(1 0 0 1 15 104) " stroke-linecap="round" />
<path d="M 0.5 0.5 L 0.5 -56.5 L 27.5 -56.5 L 27.5 0.5 L 0.5 0.5 Z" style="stroke:#CC4748;stroke-opacity:0.9; stroke-width: 1; stroke-dasharray: ; stroke-linecap: butt; stroke-linejoin: miter; stroke-miterlimit: 10;fill:#CC4748;fill-opacity:1; fill-rule: nonzero; opacity: 1" transform=" matrix(1 0 0 1 50 104) " stroke-linecap="round" />
<path d="M 0.5 0.5 L 0.5 -37.5 L 27.5 -37.5 L 27.5 0.5 L 0.5 0.5 Z" style="stroke:#CC4748;stroke-opacity:0.9; stroke-width: 1; stroke-dasharray: ; stroke-linecap: butt; stroke-linejoin: miter; stroke-miterlimit: 10;fill:#CC4748;fill-opacity:1; fill-rule: nonzero; opacity: 1" transform=" matrix(1 0 0 1 84 104) " stroke-linecap="round" />
<path d="M 0.5 0.5 L 0.5 -42.5 L 27.5 -42.5 L 27.5 0.5 L 0.5 0.5 Z" style="stroke:#CC4748;stroke-opacity:0.9; stroke-width: 1; stroke-dasharray: ; stroke-linecap: butt; stroke-linejoin: miter; stroke-miterlimit: 10;fill:#CC4748;fill-opacity:1; fill-rule: nonzero; opacity: 1" transform=" matrix(1 0 0 1 118 104) " stroke-linecap="round" />
<path d="M 0.5 0.5 L 0.5 -8.5 L 27.5 -8.5 L 27.5 0.5 L 0.5 0.5 Z" style="stroke:#CC4748;stroke-opacity:0.9; stroke-width: 1; stroke-dasharray: ; stroke-linecap: butt; stroke-linejoin: miter; stroke-miterlimit: 10;fill:#CC4748;fill-opacity:1; fill-rule: nonzero; opacity: 1" transform=" matrix(1 0 0 1 153 104) " stroke-linecap="round" />
<path d="M 0.5 0.5 L 0.5 -43.5 L 27.5 -43.5 L 27.5 0.5 L 0.5 0.5 Z" style="stroke:#CC4748;stroke-opacity:0.9; stroke-width: 1; stroke-dasharray: ; stroke-linecap: butt; stroke-linejoin: miter; stroke-miterlimit: 10;fill:#CC4748;fill-opacity:1; fill-rule: nonzero; opacity: 1" transform=" matrix(1 0 0 1 187 104) " stroke-linecap="round" />
<path d="M 0.5 0.5 L 0.5 -39.5 L 27.5 -39.5 L 27.5 0.5 L 0.5 0.5 Z" style="stroke:#CC4748;stroke-opacity:0.9; stroke-width: 1; stroke-dasharray: ; stroke-linecap: butt; stroke-linejoin: miter; stroke-miterlimit: 10;fill:#CC4748;fill-opacity:1; fill-rule: nonzero; opacity: 1" transform=" matrix(1 0 0 1 221 104) " stroke-linecap="round" />
<path d="M 0.5 0.5 L 0.5 -17.5 L 27.5 -17.5 L 27.5 0.5 L 0.5 0.5 Z" style="stroke:#CC4748;stroke-opacity:0.9; stroke-width: 1; stroke-dasharray: ; stroke-linecap: butt; stroke-linejoin: miter; stroke-miterlimit: 10;fill:#CC4748;fill-opacity:1; fill-rule: nonzero; opacity: 1" transform=" matrix(1 0 0 1 256 104) " stroke-linecap="round" />
<path d="M 0.5 0.5 L 0.5 -32.5 L 27.5 -32.5 L 27.5 0.5 L 0.5 0.5 Z" style="stroke:#CC4748;stroke-opacity:0.9; stroke-width: 1; stroke-dasharray: ; stroke-linecap: butt; stroke-linejoin: miter; stroke-miterlimit: 10;fill:#CC4748;fill-opacity:1; fill-rule: nonzero; opacity: 1" transform=" matrix(1 0 0 1 290 104) " stroke-linecap="round" />
<path d="M 0.5 0.5 L 0.5 -41.5 L 27.5 -41.5 L 27.5 0.5 L 0.5 0.5 Z" style="stroke:#CC4748;stroke-opacity:0.9; stroke-width: 1; stroke-dasharray: ; stroke-linecap: butt; stroke-linejoin: miter; stroke-miterlimit: 10;fill:#CC4748;fill-opacity:1; fill-rule: nonzero; opacity: 1" transform=" matrix(1 0 0 1 324 104) " stroke-linecap="round" />
<path d="M 0.5 0.5 L 0.5 -13.5 L 27.5 -13.5 L 27.5 0.5 L 0.5 0.5 Z" style="stroke:#CC4748;stroke-opacity:0.9; stroke-width: 1; stroke-dasharray: ; stroke-linecap: butt; stroke-linejoin: miter; stroke-miterlimit: 10;fill:#CC4748;fill-opacity:1; fill-rule: nonzero; opacity: 1" transform=" matrix(1 0 0 1 358 104) " stroke-linecap="round" />
<path d="M 0.5 0.5 L 0.5 -30.5 L 27.5 -30.5 L 27.5 0.5 L 0.5 0.5 Z" style="stroke:#CC4748;stroke-opacity:0.9; stroke-width: 1; stroke-dasharray: ; stroke-linecap: butt; stroke-linejoin: miter; stroke-miterlimit: 10;fill:#CC4748;fill-opacity:1; fill-rule: nonzero; opacity: 1" transform=" matrix(1 0 0 1 393 104) " stroke-linecap="round" />
<path d="M 0.5 0.5 L 0.5 -10.5 L 27.5 -10.5 L 27.5 0.5 L 0.5 0.5 Z" style="stroke:#CC4748;stroke-opacity:0.9; stroke-width: 1; stroke-dasharray: ; stroke-linecap: butt; stroke-linejoin: miter; stroke-miterlimit: 10;fill:#CC4748;fill-opacity:1; fill-rule: nonzero; opacity: 1" transform=" matrix(1 0 0 1 427 104) " stroke-linecap="round" />
<path d="M 0.5 0.5 L 0.5 -61.5 L 27.5 -61.5 L 27.5 0.5 L 0.5 0.5 Z" style="stroke:#CC4748;stroke-opacity:0.9; stroke-width: 1; stroke-dasharray: ; stroke-linecap: butt; stroke-linejoin: miter; stroke-miterlimit: 10;fill:#CC4748;fill-opacity:1; fill-rule: nonzero; opacity: 1" transform=" matrix(1 0 0 1 461 104) " stroke-linecap="round" />
<path d="M 0.5 0.5 L 0.5 -42.5 L 27.5 -42.5 L 27.5 0.5 L 0.5 0.5 Z" style="stroke:#CC4748;stroke-opacity:0.9; stroke-width: 1; stroke-dasharray: ; stroke-linecap: butt; stroke-linejoin: miter; stroke-miterlimit: 10;fill:#CC4748;fill-opacity:1; fill-rule: nonzero; opacity: 1" transform=" matrix(1 0 0 1 496 104) " stroke-linecap="round" />
<path d="M 0.5 0.5 L 0.5 -11.5 L 27.5 -11.5 L 27.5 0.5 L 0.5 0.5 Z" style="stroke:#CC4748;stroke-opacity:0.9; stroke-width: 1; stroke-dasharray: ; stroke-linecap: butt; stroke-linejoin: miter; stroke-miterlimit: 10;fill:#CC4748;fill-opacity:1; fill-rule: nonzero; opacity: 1" transform=" matrix(1 0 0 1 530 104) " stroke-linecap="round" />
<path d="M 0.5 0.5 L 0.5 -64.5 L 27.5 -64.5 L 27.5 0.5 L 0.5 0.5 Z" style="stroke:#CC4748;stroke-opacity:0.9; stroke-width: 1; stroke-dasharray: ; stroke-linecap: butt; stroke-linejoin: miter; stroke-miterlimit: 10;fill:#CC4748;fill-opacity:1; fill-rule: nonzero; opacity: 1" transform=" matrix(1 0 0 1 564 104) " stroke-linecap="round" />
<path d="M 0.5 0.5 L 0.5 -45.5 L 27.5 -45.5 L 27.5 0.5 L 0.5 0.5 Z" style="stroke:#CC4748;stroke-opacity:0.9; stroke-width: 1; stroke-dasharray: ; stroke-linecap: butt; stroke-linejoin: miter; stroke-miterlimit: 10;fill:#CC4748;fill-opacity:1; fill-rule: nonzero; opacity: 1" transform=" matrix(1 0 0 1 599 104) " stroke-linecap="round" />
<path d="M 0.5 0.5 L 0.5 -61.5 L 27.5 -61.5 L 27.5 0.5 L 0.5 0.5 Z" style="stroke:#CC4748;stroke-opacity:0.9; stroke-width: 1; stroke-dasharray: ; stroke-linecap: butt; stroke-linejoin: miter; stroke-miterlimit: 10;fill:#CC4748;fill-opacity:1; fill-rule: nonzero; opacity: 1" transform=" matrix(1 0 0 1 633 104) " stroke-linecap="round" />
<path d="M 0.5 0.5 L 0.5 -38.5 L 27.5 -38.5 L 27.5 0.5 L 0.5 0.5 Z" style="stroke:#CC4748;stroke-opacity:0.9; stroke-width: 1; stroke-dasharray: ; stroke-linecap: butt; stroke-linejoin: miter; stroke-miterlimit: 10;fill:#CC4748;fill-opacity:1; fill-rule: nonzero; opacity: 1" transform=" matrix(1 0 0 1 667 104) " stroke-linecap="round" />
<path d="M 0.5 0.5 L 0.5 -11.5 L 27.5 -11.5 L 27.5 0.5 L 0.5 0.5 Z" style="stroke:#CC4748;stroke-opacity:0.9; stroke-width: 1; stroke-dasharray: ; stroke-linecap: butt; stroke-linejoin: miter; stroke-miterlimit: 10;fill:#CC4748;fill-opacity:1; fill-rule: nonzero; opacity: 1" transform=" matrix(1 0 0 1 701 104) " stroke-linecap="round" />
<path d="M 0.5 0.5 L 0.5 -57.5 L 27.5 -57.5 L 27.5 0.5 L 0.5 0.5 Z" style="stroke:#CC4748;stroke-opacity:0.9; stroke-width: 1; stroke-dasharray: ; stroke-linecap: butt; stroke-linejoin: miter; stroke-miterlimit: 10;fill:#CC4748;fill-opacity:1; fill-rule: nonzero; opacity: 1" transform=" matrix(1 0 0 1 736 104) " stroke-linecap="round" />
<path d="M 0.5 0.5 L 0.5 -36.5 L 27.5 -36.5 L 27.5 0.5 L 0.5 0.5 Z" style="stroke:#CC4748;stroke-opacity:0.9; stroke-width: 1; stroke-dasharray: ; stroke-linecap: butt; stroke-linejoin: miter; stroke-miterlimit: 10;fill:#CC4748;fill-opacity:1; fill-rule: nonzero; opacity: 1" transform=" matrix(1 0 0 1 770 104) " stroke-linecap="round" />
<path d="M 0.5 0.5 L 0.5 -56.5 L 27.5 -56.5 L 27.5 0.5 L 0.5 0.5 Z" style="stroke:#CC4748;stroke-opacity:0.9; stroke-width: 1; stroke-dasharray: ; stroke-linecap: butt; stroke-linejoin: miter; stroke-miterlimit: 10;fill:#CC4748;fill-opacity:1; fill-rule: nonzero; opacity: 1" transform=" matrix(1 0 0 1 804 104) " stroke-linecap="round" />
<path d="M 0.5 0.5 L 0.5 -41.5 L 27.5 -41.5 L 27.5 0.5 L 0.5 0.5 Z" style="stroke:#CC4748;stroke-opacity:0.9; stroke-width: 1; stroke-dasharray: ; stroke-linecap: butt; stroke-linejoin: miter; stroke-miterlimit: 10;fill:#CC4748;fill-opacity:1; fill-rule: nonzero; opacity: 1" transform=" matrix(1 0 0 1 839 104) " stroke-linecap="round" />
<path d="M 0.5 0.5 L 0.5 -66.5 L 27.5 -66.5 L 27.5 0.5 L 0.5 0.5 Z" style="stroke:#CC4748;stroke-opacity:0.9; stroke-width: 1; stroke-dasharray: ; stroke-linecap: butt; stroke-linejoin: miter; stroke-miterlimit: 10;fill:#CC4748;fill-opacity:1; fill-rule: nonzero; opacity: 1" transform=" matrix(1 0 0 1 873 104) " stroke-linecap="round" />
<path d="M 0.5 0.5 L 0.5 -70.5 L 27.5 -70.5 L 27.5 0.5 L 0.5 0.5 Z" style="stroke:#CC4748;stroke-opacity:0.9; stroke-width: 1; stroke-dasharray: ; stroke-linecap: butt; stroke-linejoin: miter; stroke-miterlimit: 10;fill:#CC4748;fill-opacity:1; fill-rule: nonzero; opacity: 1" transform=" matrix(1 0 0 1 907 104) " stroke-linecap="round" />
<path d="M 0.5 0.5 L 0.5 -57.5 L 27.5 -57.5 L 27.5 0.5 L 0.5 0.5 Z" style="stroke:#CC4748;stroke-opacity:0.9; stroke-width: 1; stroke-dasharray: ; stroke-linecap: butt; stroke-linejoin: miter; stroke-miterlimit: 10;fill:#CC4748;fill-opacity:1; fill-rule: nonzero; opacity: 1" transform=" matrix(1 0 0 1 942 104) " stroke-linecap="round" />
<path d="M 0.5 0.5 L 0.5 -31.5 L 27.5 -31.5 L 27.5 0.5 L 0.5 0.5 Z" style="stroke:#CC4748;stroke-opacity:0.9; stroke-width: 1; stroke-dasharray: ; stroke-linecap: butt; stroke-linejoin: miter; stroke-miterlimit: 10;fill:#CC4748;fill-opacity:1; fill-rule: nonzero; opacity: 1" transform=" matrix(1 0 0 1 976 104) " stroke-linecap="round" />
<path d="M 0.5 0.5 L 1007.5 0.5" style="stroke:#000000;stroke-opacity:0; stroke-width: 1; stroke-dasharray: ; stroke-linecap: butt; stroke-linejoin: miter; stroke-miterlimit: 10; fill: none; fill-rule: nonzero; opacity: 1" transform=" matrix(1 0 0 1 0 104) " stroke-linecap="round" />
<path d="M 0.5 0.5 L 0.5 104.5" style="stroke:#000000;stroke-opacity:0; stroke-width: 1; stroke-dasharray: ; stroke-linecap: butt; stroke-linejoin: miter; stroke-miterlimit: 10; fill: none; fill-rule: nonzero; opacity: 1" transform=" matrix(1 0 0 1 0 0) " stroke-linecap="round" />
<path d="M 0.5 0.5 L 1007.5 0.5 L 1007.5 0.5" style="stroke:#000000;stroke-opacity:0.5; stroke-width: 1; stroke-dasharray: ; stroke-linecap: butt; stroke-linejoin: miter; stroke-miterlimit: 10; fill: none; fill-rule: nonzero; opacity: 0" transform=" matrix(1 0 0 1 0 0) " stroke-linecap="round"  clip-path="url(#AmChartsEl-1158)" />
<rect x="0" y="0" rx="0" ry="0" width="1007" height="104" style="stroke: none; stroke-width: 0; stroke-dasharray: ; stroke-linecap: butt; stroke-linejoin: miter; stroke-miterlimit: 10; fill: transparent; fill-rule: nonzero; opacity: 1" transform=""/>
	<g transform=" matrix(1 0 0 1 15 116.5) ">
		<text font-family="Verdana" font-size="11" font-weight="normal" style="stroke: none; stroke-width: 1; stroke-dasharray: ; stroke-linecap: butt; stroke-linejoin: miter; stroke-miterlimit: 10;fill:#000000;fill-opacity:1; fill-rule: nonzero; opacity: 1" ><tspan x="0" y="5.9912" fill="rgba(0,0,0,1)">Mar 14</tspan></text>
	</g>
	<g transform=" matrix(1 0 0 1 118 116.5) ">
		<text font-family="Verdana" font-size="11" font-weight="normal" style="stroke: none; stroke-width: 1; stroke-dasharray: ; stroke-linecap: butt; stroke-linejoin: miter; stroke-miterlimit: 10;fill:#000000;fill-opacity:1; fill-rule: nonzero; opacity: 1" ><tspan x="0" y="5.9912" fill="rgba(0,0,0,1)">Mar 17</tspan></text>
	</g>
	<g transform=" matrix(1 0 0 1 221 116.5) ">
		<text font-family="Verdana" font-size="11" font-weight="normal" style="stroke: none; stroke-width: 1; stroke-dasharray: ; stroke-linecap: butt; stroke-linejoin: miter; stroke-miterlimit: 10;fill:#000000;fill-opacity:1; fill-rule: nonzero; opacity: 1" ><tspan x="0" y="5.9912" fill="rgba(0,0,0,1)">Mar 20</tspan></text>
	</g>
	<g transform=" matrix(1 0 0 1 324 116.5) ">
		<text font-family="Verdana" font-size="11" font-weight="normal" style="stroke: none; stroke-width: 1; stroke-dasharray: ; stroke-linecap: butt; stroke-linejoin: miter; stroke-miterlimit: 10;fill:#000000;fill-opacity:1; fill-rule: nonzero; opacity: 1" ><tspan x="0" y="5.9912" fill="rgba(0,0,0,1)">Mar 23</tspan></text>
	</g>
	<g transform=" matrix(1 0 0 1 427 116.5) ">
		<text font-family="Verdana" font-size="11" font-weight="normal" style="stroke: none; stroke-width: 1; stroke-dasharray: ; stroke-linecap: butt; stroke-linejoin: miter; stroke-miterlimit: 10;fill:#000000;fill-opacity:1; fill-rule: nonzero; opacity: 1" ><tspan x="0" y="5.9912" fill="rgba(0,0,0,1)">Mar 26</tspan></text>
	</g>
	<g transform=" matrix(1 0 0 1 530 116.5) ">
		<text font-family="Verdana" font-size="11" font-weight="normal" style="stroke: none; stroke-width: 1; stroke-dasharray: ; stroke-linecap: butt; stroke-linejoin: miter; stroke-miterlimit: 10;fill:#000000;fill-opacity:1; fill-rule: nonzero; opacity: 1" ><tspan x="0" y="5.9912" fill="rgba(0,0,0,1)">Mar 29</tspan></text>
	</g>
	<g transform=" matrix(1 0 0 1 633 116.5) ">
		<text font-family="Verdana" font-size="11" font-weight="bold" style="stroke: none; stroke-width: 1; stroke-dasharray: ; stroke-linecap: butt; stroke-linejoin: miter; stroke-miterlimit: 10;fill:#000000;fill-opacity:1; fill-rule: nonzero; opacity: 1" ><tspan x="0" y="5.9912" fill="rgba(0,0,0,1)">Apr</tspan></text>
	</g>
	<g transform=" matrix(1 0 0 1 736 116.5) ">
		<text font-family="Verdana" font-size="11" font-weight="normal" style="stroke: none; stroke-width: 1; stroke-dasharray: ; stroke-linecap: butt; stroke-linejoin: miter; stroke-miterlimit: 10;fill:#000000;fill-opacity:1; fill-rule: nonzero; opacity: 1" ><tspan x="0" y="5.9912" fill="rgba(0,0,0,1)">Apr 04</tspan></text>
	</g>
	<g transform=" matrix(1 0 0 1 838 116.5) ">
		<text font-family="Verdana" font-size="11" font-weight="normal" style="stroke: none; stroke-width: 1; stroke-dasharray: ; stroke-linecap: butt; stroke-linejoin: miter; stroke-miterlimit: 10;fill:#000000;fill-opacity:1; fill-rule: nonzero; opacity: 1" ><tspan x="0" y="5.9912" fill="rgba(0,0,0,1)">Apr 07</tspan></text>
	</g>
	<g transform=" matrix(1 0 0 1 941 116.5) ">
		<text font-family="Verdana" font-size="11" font-weight="normal" style="stroke: none; stroke-width: 1; stroke-dasharray: ; stroke-linecap: butt; stroke-linejoin: miter; stroke-miterlimit: 10;fill:#000000;fill-opacity:1; fill-rule: nonzero; opacity: 1" ><tspan x="0" y="5.9912" fill="rgba(0,0,0,1)">Apr 10</tspan></text>
	</g>
	<g transform=" matrix(1 0 0 1 4 96.5) ">
		<text font-family="Verdana" font-size="11" font-weight="normal" style="stroke: none; stroke-width: 1; stroke-dasharray: ; stroke-linecap: butt; stroke-linejoin: miter; stroke-miterlimit: 10;fill:#000000;fill-opacity:1; fill-rule: nonzero; opacity: 1" ><tspan x="0" y="5.9912" fill="rgba(0,0,0,1)">1,000</tspan></text>
	</g>
	<g transform=" matrix(1 0 0 1 4 44.5) ">
		<text font-family="Verdana" font-size="11" font-weight="normal" style="stroke: none; stroke-width: 1; stroke-dasharray: ; stroke-linecap: butt; stroke-linejoin: miter; stroke-miterlimit: 10;fill:#000000;fill-opacity:1; fill-rule: nonzero; opacity: 1" ><tspan x="0" y="5.9912" fill="rgba(0,0,0,1)">1,500</tspan></text>
	</g>
	<g transform=" matrix(1 0 0 1 4 -1) ">
		<text font-family="Verdana" font-size="11" font-weight="normal" style="stroke: none; stroke-width: 1; stroke-dasharray: ; stroke-linecap: butt; stroke-linejoin: miter; stroke-miterlimit: 10;fill:#000000;fill-opacity:1; fill-rule: nonzero; opacity: 1" ><tspan x="0" y="5.9912" fill="rgba(0,0,0,1)"></tspan></text>
	</g>
<rect x="0" y="0" rx="0" ry="0" width="1007" height="104" style="stroke: none; stroke-width: 0; stroke-dasharray: ; stroke-linecap: butt; stroke-linejoin: miter; stroke-miterlimit: 10; fill: transparent; fill-rule: nonzero; opacity: 1" transform=""/>
</g>
	<g transform="translate(941.5 409.21)">
		<text font-family="Verdana" font-size="11" font-weight="normal" style="stroke: none; stroke-width: 1; stroke-dasharray: ; stroke-linecap: butt; stroke-linejoin: miter; stroke-miterlimit: 10;fill:#000000;fill-opacity:1; fill-rule: nonzero; opacity: 0.7" ><tspan x="-61.5" y="2.4706" fill="rgb(0, 0, 0)">JS chart by amCharts</tspan></text>
	</g>
<g style="stroke: none; stroke-width: 1; stroke-dasharray: ; stroke-linecap: butt; stroke-linejoin: miter; stroke-miterlimit: 10; fill: none; fill-rule: nonzero; opacity: 1" transform="translate(0 530)" >
<path d="M 0.5 0.5 L 1007.5 0.5 L 1007.5 39.5 L 0.5 39.5 Z" style="stroke:#000000;stroke-opacity:0; stroke-width: 1; stroke-dasharray: ; stroke-linecap: butt; stroke-linejoin: miter; stroke-miterlimit: 10;fill:#FFFFFF;fill-opacity:0; fill-rule: nonzero; opacity: 1" transform="" stroke-linecap="round" />
<path d="M 0.5 0.5 L 1007.5 0.5 L 1007.5 0.5 L 0.5 0.5 L 0.5 0.5 Z" style="stroke:#000000;stroke-opacity:0; stroke-width: 1; stroke-dasharray: ; stroke-linecap: butt; stroke-linejoin: miter; stroke-miterlimit: 10;fill:#FFFFFF;fill-opacity:0; fill-rule: nonzero; opacity: 1" transform=" matrix(1 0 0 1 0 40) " stroke-linecap="round" />
<path d="M 12.5 0.5 L 12.5 0.5 L 12.5 0.5" style="stroke:#000000;stroke-opacity:0.1; stroke-width: 1; stroke-dasharray: ; stroke-linecap: butt; stroke-linejoin: miter; stroke-miterlimit: 10; fill: none; fill-rule: nonzero; opacity: 1" transform=" matrix(1 0 0 1 0 40) " stroke-linecap="round" />
<path d="M 115.5 0.5 L 115.5 0.5 L 115.5 0.5" style="stroke:#000000;stroke-opacity:0.1; stroke-width: 1; stroke-dasharray: ; stroke-linecap: butt; stroke-linejoin: miter; stroke-miterlimit: 10; fill: none; fill-rule: nonzero; opacity: 1" transform=" matrix(1 0 0 1 0 40) " stroke-linecap="round" />
<path d="M 218.5 0.5 L 218.5 0.5 L 218.5 0.5" style="stroke:#000000;stroke-opacity:0.1; stroke-width: 1; stroke-dasharray: ; stroke-linecap: butt; stroke-linejoin: miter; stroke-miterlimit: 10; fill: none; fill-rule: nonzero; opacity: 1" transform=" matrix(1 0 0 1 0 40) " stroke-linecap="round" />
<path d="M 321.5 0.5 L 321.5 0.5 L 321.5 0.5" style="stroke:#000000;stroke-opacity:0.1; stroke-width: 1; stroke-dasharray: ; stroke-linecap: butt; stroke-linejoin: miter; stroke-miterlimit: 10; fill: none; fill-rule: nonzero; opacity: 1" transform=" matrix(1 0 0 1 0 40) " stroke-linecap="round" />
<path d="M 424.5 0.5 L 424.5 0.5 L 424.5 0.5" style="stroke:#000000;stroke-opacity:0.1; stroke-width: 1; stroke-dasharray: ; stroke-linecap: butt; stroke-linejoin: miter; stroke-miterlimit: 10; fill: none; fill-rule: nonzero; opacity: 1" transform=" matrix(1 0 0 1 0 40) " stroke-linecap="round" />
<path d="M 527.5 0.5 L 527.5 0.5 L 527.5 0.5" style="stroke:#000000;stroke-opacity:0.1; stroke-width: 1; stroke-dasharray: ; stroke-linecap: butt; stroke-linejoin: miter; stroke-miterlimit: 10; fill: none; fill-rule: nonzero; opacity: 1" transform=" matrix(1 0 0 1 0 40) " stroke-linecap="round" />
<path d="M 630.5 0.5 L 630.5 0.5 L 630.5 0.5" style="stroke:#000000;stroke-opacity:0.1; stroke-width: 1; stroke-dasharray: ; stroke-linecap: butt; stroke-linejoin: miter; stroke-miterlimit: 10; fill: none; fill-rule: nonzero; opacity: 1" transform=" matrix(1 0 0 1 0 40) " stroke-linecap="round" />
<path d="M 733.5 0.5 L 733.5 0.5 L 733.5 0.5" style="stroke:#000000;stroke-opacity:0.1; stroke-width: 1; stroke-dasharray: ; stroke-linecap: butt; stroke-linejoin: miter; stroke-miterlimit: 10; fill: none; fill-rule: nonzero; opacity: 1" transform=" matrix(1 0 0 1 0 40) " stroke-linecap="round" />
<path d="M 835.5 0.5 L 835.5 0.5 L 835.5 0.5" style="stroke:#000000;stroke-opacity:0.1; stroke-width: 1; stroke-dasharray: ; stroke-linecap: butt; stroke-linejoin: miter; stroke-miterlimit: 10; fill: none; fill-rule: nonzero; opacity: 1" transform=" matrix(1 0 0 1 0 40) " stroke-linecap="round" />
<path d="M 938.5 0.5 L 938.5 0.5 L 938.5 0.5" style="stroke:#000000;stroke-opacity:0.1; stroke-width: 1; stroke-dasharray: ; stroke-linecap: butt; stroke-linejoin: miter; stroke-miterlimit: 10; fill: none; fill-rule: nonzero; opacity: 1" transform=" matrix(1 0 0 1 0 40) " stroke-linecap="round" />
<path d="M 0.5 40.5 L 1008.5 40.5 L 1008.5 40.5" style="stroke:#000000;stroke-opacity:0; stroke-width: 1; stroke-dasharray: ; stroke-linecap: butt; stroke-linejoin: miter; stroke-miterlimit: 10; fill: none; fill-rule: nonzero; opacity: 1" transform=" matrix(1 0 0 1 0 0) " stroke-linecap="round" />
<path d="M 0.5 0.5 L 1007.5 0.5" style="stroke:#000000;stroke-opacity:0; stroke-width: 1; stroke-dasharray: ; stroke-linecap: butt; stroke-linejoin: miter; stroke-miterlimit: 10; fill: none; fill-rule: nonzero; opacity: 1" transform=" matrix(1 0 0 1 0 40) " stroke-linecap="round" />
<path d="M 0.5 0.5 L 0.5 40.5" style="stroke:#000000;stroke-opacity:0; stroke-width: 1; stroke-dasharray: ; stroke-linecap: butt; stroke-linejoin: miter; stroke-miterlimit: 10; fill: none; fill-rule: nonzero; opacity: 0" transform=" matrix(1 0 0 1 0 0) " stroke-linecap="round" />
<path d="M 0.5 0.5 L 1007.5 0.5" style="stroke:#000000;stroke-opacity:0; stroke-width: 1; stroke-dasharray: ; stroke-linecap: butt; stroke-linejoin: miter; stroke-miterlimit: 10; fill: none; fill-rule: nonzero; opacity: 1" transform=" matrix(1 0 0 1 0 40) " stroke-linecap="round" />
<rect x="0.5" y="0.5" rx="0" ry="0" width="1008" height="40" style="stroke:#000000;stroke-opacity:0.12; stroke-width: 1; stroke-dasharray: ; stroke-linecap: butt; stroke-linejoin: miter; stroke-miterlimit: 10;fill:#000000;fill-opacity:0.12; fill-rule: nonzero; opacity: 1" transform=" matrix(1 0 0 1 0 0) "/>
<rect x="0.5" y="0.5" rx="0" ry="0" width="59" height="41" style="stroke:#FFFFFF;stroke-opacity:0.4; stroke-width: 0; stroke-dasharray: ; stroke-linecap: butt; stroke-linejoin: miter; stroke-miterlimit: 10;fill:#FFFFFF;fill-opacity:0.4; fill-rule: nonzero; opacity: 1" transform=" matrix(1 0 0 1 948 0) "/>
<path d="M 1.5 32.74 L 3.5 32.63333 L 5.5 34.02 L 7.5 33.43333 L 9.5 32.39333 L 11.5 33.88667 L 13.5 32.28667 L 15.5 34.92667 L 17.5 32.44667 L 19.5 32.20667 L 21.5 33.51333 L 23.5 33.00667 L 25.5 32.74 L 27.5 33.40667 L 29.5 32.68667 L 31.5 33.91333 L 33.5 31.7 L 35.5 31.7 L 37.5 32.44667 L 39.5 32.34 L 41.5 34.28667 L 43.5 31.48667 L 45.5 31.75333 L 47.5 34.34 L 49.5 32.36667 L 51.5 33.22 L 53.5 33.91333 L 55.5 34.20667 L 57.5 31.51333 L 59.5 33.03333 L 61.5 31.51333 L 63.5 31.06 L 65.5 34.23333 L 67.5 31.75333 L 69.5 32.42 L 71.5 32.5 L 74.5 31.38 L 76.5 31.64667 L 78.5 31.94 L 80.5 32.15333 L 82.5 33.14 L 84.5 30.5 L 86.5 32.36667 L 88.5 32.71333 L 90.5 31.38 L 92.5 31.83333 L 94.5 32.34 L 96.5 33.67333 L 98.5 29.99333 L 100.5 30.12667 L 102.5 32.36667 L 104.5 30.79333 L 106.5 32.019999999999996 L 108.5 33.43333 L 110.5 31.16667 L 112.5 32.31333 L 114.5 32.44667 L 116.5 31.38 L 118.5 30.39333 L 120.5 31.24667 L 122.5 33.19333 L 124.5 31.32667 L 126.5 30.44667 L 128.5 29.75333 L 130.5 29.22 L 132.5 29.24667 L 134.5 29.38 L 136.5 30.47333 L 138.5 32.126670000000004 L 140.5 31.88667 L 142.5 29.94 L 144.5 30.9 L 146.5 32.04667 L 148.5 29.96667 L 150.5 32.1 L 152.5 32.42 L 154.5 30.63333 L 156.5 32.1 L 158.5 28.98 L 160.5 31.54 L 162.5 29.06 L 164.5 28.71333 L 166.5 32.84667 L 168.5 28.87333 L 170.5 28.1 L 172.5 29.59333 L 174.5 31.38 L 176.5 29.59333 L 178.5 31.19333 L 180.5 32.66 L 182.5 28.5 L 184.5 30.82 L 186.5 28.20667 L 188.5 30.87333 L 190.5 31.11333 L 192.5 28.92667 L 194.5 32.36667 L 196.5 31.56667 L 198.5 31.51333 L 200.5 27.27333 L 202.5 29.32667 L 204.5 27.24667 L 206.5 28.82 L 208.5 30.26 L 210.5 30.76667 L 212.5 28.20667 L 214.5 26.9 L 217.5 27.75333 L 219.5 29.99333 L 221.5 31.51333 L 223.5 30.76667 L 225.5 30.36667 L 227.5 27.48667 L 229.5 29.88667 L 231.5 31.00667 L 233.5 28.31333 L 235.5 27.83333 L 237.5 28.95333 L 239.5 26.5 L 241.5 29.7 L 243.5 26.63333 L 245.5 27.75333 L 247.5 30.18 L 249.5 29.06 L 251.5 30.84667 L 253.5 30.58 L 255.5 27.72667 L 257.5 29.3 L 259.5 28.55333 L 261.5 31.03333 L 263.5 25.75333 L 265.5 29.96667 L 267.5 25.48667 L 269.5 30.76667 L 271.5 25.86 L 273.5 29.62 L 275.5 29.96667 L 277.5 29.19333 L 279.5 27.88667 L 281.5 26.42 L 283.5 28.31333 L 285.5 25.96667 L 287.5 29.86 L 289.5 28.66 L 291.5 30.12667 L 293.5 29.3 L 295.5 26.12667 L 297.5 28.31333 L 299.5 26.9 L 301.5 28.52667 L 303.5 29.43333 L 305.5 29.40667 L 307.5 27.35333 L 309.5 29.16667 L 311.5 30.18 L 313.5 29.94 L 315.5 25.46 L 317.5 28.23333 L 319.5 25.94 L 321.5 27.51333 L 323.5 27.67333 L 325.5 25.38 L 327.5 26.44667 L 329.5 27.38 L 331.5 26.66 L 333.5 28.34 L 335.5 30.63333 L 337.5 28.15333 L 339.5 29.27333 L 341.5 25.38 L 343.5 28.42 L 345.5 26.66 L 347.5 25.14 L 349.5 30.52667 L 351.5 25.88667 L 353.5 29.00667 L 355.5 25.00667 L 357.5 23.08667 L 359.5 23.94 L 362.5 28.52667 L 364.5 26.95333 L 366.5 28.9 L 368.5 28.02 L 370.5 25.78 L 372.5 23.51333 L 374.5 25.91333 L 376.5 28.5 L 378.5 27.06 L 380.5 27.27333 L 382.5 26.23333 L 384.5 22.68667 L 386.5 26.31333 L 388.5 26.36667 L 390.5 22.39333 L 392.5 28.82 L 394.5 29.19333 L 396.5 28.79333 L 398.5 26.18 L 400.5 27.59333 L 402.5 22.44667 L 404.5 27.96667 L 406.5 27.00667 L 408.5 23.19333 L 410.5 22.71333 L 412.5 23.35333 L 414.5 24.20667 L 416.5 27.16667 L 418.5 22.28667 L 420.5 22.92667 L 422.5 24.07333 L 424.5 25.3 L 426.5 27.38 L 428.5 26.02 L 430.5 26.92667 L 432.5 26.36667 L 434.5 24.04667 L 436.5 25.94 L 438.5 22.98 L 440.5 28.34 L 442.5 28.18 L 444.5 21.51333 L 446.5 23.7 L 448.5 27.16667 L 450.5 28.31333 L 452.5 24.9 L 454.5 25.7 L 456.5 21.75333 L 458.5 26.23333 L 460.5 21.40667 L 462.5 28.9 L 464.5 23.27333 L 466.5 20.66 L 468.5 26.98 L 470.5 27.11333 L 472.5 22.1 L 474.5 27.7 L 476.5 23.78 L 478.5 23.19333 L 480.5 21.08667 L 482.5 23.54 L 484.5 20.28667 L 486.5 22.92667 L 488.5 24.1 L 490.5 28.07333 L 492.5 27.48667 L 494.5 20.18 L 496.5 22.26 L 498.5 20.9 L 500.5 25.75333 L 502.5 21.7 L 505.5 21.11333 L 507.5 24.04667 L 509.5 21.35333 L 511.5 20.82 L 513.5 22.5 L 515.5 22.68667 L 517.5 22.63333 L 519.5 28.12667 L 521.5 26.39333 L 523.5 23.96667 L 525.5 26.20667 L 527.5 24.39333 L 529.5 24.52667 L 531.5 26.55333 L 533.5 22.20667 L 535.5 26.82 L 537.5 21.80667 L 539.5 22.5 L 541.5 25.80667 L 543.5 22.1 L 545.5 23.43333 L 547.5 23.27333 L 549.5 21.54 L 551.5 21.99333 L 553.5 26.20667 L 555.5 18.44667 L 557.5 24.95333 L 559.5 25.40667 L 561.5 25.24667 L 563.5 27.16667 L 565.5 25.72667 L 567.5 24.34 L 569.5 23.11333 L 571.5 26.9 L 573.5 24.71333 L 575.5 26.98 L 577.5 26.63333 L 579.5 17.19333 L 581.5 19.75333 L 583.5 24.02 L 585.5 21.54 L 587.5 26.9 L 589.5 21.51333 L 591.5 25.32667 L 593.5 18.20667 L 595.5 22.58 L 597.5 25.48667 L 599.5 26.87333 L 601.5 21.40667 L 603.5 21.43333 L 605.5 18.26 L 607.5 20.9 L 609.5 20.55333 L 611.5 24.66 L 613.5 24.18 L 615.5 17.40667 L 617.5 25.67333 L 619.5 25.78 L 621.5 21.78 L 623.5 18.15333 L 625.5 20.60667 L 627.5 16.206670000000003 L 629.5 16.28667 L 631.5 20.07333 L 633.5 23.7 L 635.5 22.87333 L 637.5 18.92667 L 639.5 17.00667 L 641.5 22.79333 L 643.5 22.20667 L 645.5 20.1 L 648.5 19.56667 L 650.5 26.20667 L 652.5 22.82 L 654.5 25.06 L 656.5 21.19333 L 658.5 21.38 L 660.5 25.83333 L 662.5 17.22 L 664.5 23.94 L 666.5 15.08667 L 668.5 16.5 L 670.5 24.15333 L 672.5 25.00667 L 674.5 15.51333 L 676.5 23.83333 L 678.5 17.86 L 680.5 16.39333 L 682.5 24.95333 L 684.5 25.35333 L 686.5 14.84667 L 688.5 17.06 L 690.5 20.15333 L 692.5 22.92667 L 694.5 20.20667 L 696.5 23.94 L 698.5 22.55333 L 700.5 16.259999999999998 L 702.5 15.72667 L 704.5 20.9 L 706.5 18.34 L 708.5 22.76667 L 710.5 23.22 L 712.5 22.20667 L 714.5 23.83333 L 716.5 21.11333 L 718.5 17.48667 L 720.5 25.3 L 722.5 23.78 L 724.5 14.47333 L 726.5 21.43333 L 728.5 17.94 L 730.5 17.86 L 732.5 25.19333 L 734.5 18.18 L 736.5 18.82 L 738.5 13.83333 L 740.5 15.7 L 742.5 22.31333 L 744.5 13.16667 L 746.5 16.68667 L 748.5 15.06 L 750.5 19.75333 L 752.5 23.19333 L 754.5 13.27333 L 756.5 13.59333 L 758.5 19.27333 L 760.5 20.15333 L 762.5 24.9 L 764.5 21.38 L 766.5 13.00667 L 768.5 14.82 L 770.5 19.56667 L 772.5 16.66 L 774.5 12.18 L 776.5 23.78 L 778.5 15.14 L 780.5 19.06 L 782.5 21.00667 L 784.5 15.54 L 786.5 18.34 L 788.5 13.06 L 790.5 21.32667 L 793.5 22.87333 L 795.5 23.43333 L 797.5 17.56667 L 799.5 16.31333 L 801.5 20.63333 L 803.5 13.78 L 805.5 17.00667 L 807.5 21.3 L 809.5 20.02 L 811.5 22.84667 L 813.5 22.15333 L 815.5 12.98 L 817.5 21.78 L 819.5 14.79333 L 821.5 17.32667 L 823.5 22.34 L 825.5 14.31333 L 827.5 19.22 L 829.5 20.74 L 831.5 19.08667 L 833.5 19.14 L 835.5 19.78 L 837.5 16.233330000000002 L 839.5 20.18 L 841.5 18.39333 L 843.5 14.66 L 845.5 20.74 L 847.5 21.06 L 849.5 14.79333 L 851.5 20.44667 L 853.5 22.23333 L 855.5 16.233330000000002 L 857.5 11.46 L 859.5 13.11333 L 861.5 21.56667 L 863.5 10.31333 L 865.5 20.39333 L 867.5 20.52667 L 869.5 12.95333 L 871.5 23.54 L 873.5 12.82 L 875.5 22.55333 L 877.5 22.95333 L 879.5 21.40667 L 881.5 16.1 L 883.5 19.99333 L 885.5 15.78 L 887.5 21.16667 L 889.5 22.95333 L 891.5 17.94 L 893.5 22.04667 L 895.5 15.96667 L 897.5 23.16667 L 899.5 12.52667 L 901.5 19.86 L 903.5 19.16667 L 905.5 14.44667 L 907.5 14.12667 L 909.5 20.5 L 911.5 15.03333 L 913.5 14.07333 L 915.5 19.46 L 917.5 19.80667 L 919.5 16.76667 L 921.5 15.99333 L 923.5 15.27333 L 925.5 19.86 L 927.5 21.72667 L 929.5 10.26 L 931.5 21.88667 L 933.5 17.22 L 936.5 14.52667 L 938.5 20.39333 L 940.5 16.206670000000003 L 942.5 11.94 L 944.5 21.51333 L 946.5 14.66 L 948.5 15.88667 L 950.5 13.72667 L 952.5 18.42 L 954.5 11.08667 L 956.5 7.62 L 958.5 16.84667 L 960.5 15.72667 L 962.5 16.259999999999998 L 964.5 10.92667 L 966.5 17.91333 L 968.5 10.92667 L 970.5 19.19333 L 972.5 9.00667 L 974.5 11.00667 L 976.5 20.42 L 978.5 19.43333 L 980.5 20.15333 L 982.5 12.52667 L 984.5 19.99333 L 986.5 17.51333 L 988.5 13.62 L 990.5 9.00667 L 992.5 19.96667 L 994.5 13.3 L 996.5 18.04667 L 998.5 13.16667 L 1000.5 16.5 L 1002.5 9.35333 L 1004.5 20.55333 L 1006.5 20.07333 M 0 0 L 0 0" style="stroke:#BBBBBB;stroke-opacity:0; stroke-width: 1; stroke-dasharray: ; stroke-linecap: butt; stroke-linejoin: miter; stroke-miterlimit: 10; fill: none; fill-rule: nonzero; opacity: 1" transform=" matrix(1 0 0 1 0 0) " stroke-linecap="round" />
<path d="M 1.5 32.74 L 3.5 32.63333 L 5.5 34.02 L 7.5 33.43333 L 9.5 32.39333 L 11.5 33.88667 L 13.5 32.28667 L 15.5 34.92667 L 17.5 32.44667 L 19.5 32.20667 L 21.5 33.51333 L 23.5 33.00667 L 25.5 32.74 L 27.5 33.40667 L 29.5 32.68667 L 31.5 33.91333 L 33.5 31.7 L 35.5 31.7 L 37.5 32.44667 L 39.5 32.34 L 41.5 34.28667 L 43.5 31.48667 L 45.5 31.75333 L 47.5 34.34 L 49.5 32.36667 L 51.5 33.22 L 53.5 33.91333 L 55.5 34.20667 L 57.5 31.51333 L 59.5 33.03333 L 61.5 31.51333 L 63.5 31.06 L 65.5 34.23333 L 67.5 31.75333 L 69.5 32.42 L 71.5 32.5 L 74.5 31.38 L 76.5 31.64667 L 78.5 31.94 L 80.5 32.15333 L 82.5 33.14 L 84.5 30.5 L 86.5 32.36667 L 88.5 32.71333 L 90.5 31.38 L 92.5 31.83333 L 94.5 32.34 L 96.5 33.67333 L 98.5 29.99333 L 100.5 30.12667 L 102.5 32.36667 L 104.5 30.79333 L 106.5 32.019999999999996 L 108.5 33.43333 L 110.5 31.16667 L 112.5 32.31333 L 114.5 32.44667 L 116.5 31.38 L 118.5 30.39333 L 120.5 31.24667 L 122.5 33.19333 L 124.5 31.32667 L 126.5 30.44667 L 128.5 29.75333 L 130.5 29.22 L 132.5 29.24667 L 134.5 29.38 L 136.5 30.47333 L 138.5 32.126670000000004 L 140.5 31.88667 L 142.5 29.94 L 144.5 30.9 L 146.5 32.04667 L 148.5 29.96667 L 150.5 32.1 L 152.5 32.42 L 154.5 30.63333 L 156.5 32.1 L 158.5 28.98 L 160.5 31.54 L 162.5 29.06 L 164.5 28.71333 L 166.5 32.84667 L 168.5 28.87333 L 170.5 28.1 L 172.5 29.59333 L 174.5 31.38 L 176.5 29.59333 L 178.5 31.19333 L 180.5 32.66 L 182.5 28.5 L 184.5 30.82 L 186.5 28.20667 L 188.5 30.87333 L 190.5 31.11333 L 192.5 28.92667 L 194.5 32.36667 L 196.5 31.56667 L 198.5 31.51333 L 200.5 27.27333 L 202.5 29.32667 L 204.5 27.24667 L 206.5 28.82 L 208.5 30.26 L 210.5 30.76667 L 212.5 28.20667 L 214.5 26.9 L 217.5 27.75333 L 219.5 29.99333 L 221.5 31.51333 L 223.5 30.76667 L 225.5 30.36667 L 227.5 27.48667 L 229.5 29.88667 L 231.5 31.00667 L 233.5 28.31333 L 235.5 27.83333 L 237.5 28.95333 L 239.5 26.5 L 241.5 29.7 L 243.5 26.63333 L 245.5 27.75333 L 247.5 30.18 L 249.5 29.06 L 251.5 30.84667 L 253.5 30.58 L 255.5 27.72667 L 257.5 29.3 L 259.5 28.55333 L 261.5 31.03333 L 263.5 25.75333 L 265.5 29.96667 L 267.5 25.48667 L 269.5 30.76667 L 271.5 25.86 L 273.5 29.62 L 275.5 29.96667 L 277.5 29.19333 L 279.5 27.88667 L 281.5 26.42 L 283.5 28.31333 L 285.5 25.96667 L 287.5 29.86 L 289.5 28.66 L 291.5 30.12667 L 293.5 29.3 L 295.5 26.12667 L 297.5 28.31333 L 299.5 26.9 L 301.5 28.52667 L 303.5 29.43333 L 305.5 29.40667 L 307.5 27.35333 L 309.5 29.16667 L 311.5 30.18 L 313.5 29.94 L 315.5 25.46 L 317.5 28.23333 L 319.5 25.94 L 321.5 27.51333 L 323.5 27.67333 L 325.5 25.38 L 327.5 26.44667 L 329.5 27.38 L 331.5 26.66 L 333.5 28.34 L 335.5 30.63333 L 337.5 28.15333 L 339.5 29.27333 L 341.5 25.38 L 343.5 28.42 L 345.5 26.66 L 347.5 25.14 L 349.5 30.52667 L 351.5 25.88667 L 353.5 29.00667 L 355.5 25.00667 L 357.5 23.08667 L 359.5 23.94 L 362.5 28.52667 L 364.5 26.95333 L 366.5 28.9 L 368.5 28.02 L 370.5 25.78 L 372.5 23.51333 L 374.5 25.91333 L 376.5 28.5 L 378.5 27.06 L 380.5 27.27333 L 382.5 26.23333 L 384.5 22.68667 L 386.5 26.31333 L 388.5 26.36667 L 390.5 22.39333 L 392.5 28.82 L 394.5 29.19333 L 396.5 28.79333 L 398.5 26.18 L 400.5 27.59333 L 402.5 22.44667 L 404.5 27.96667 L 406.5 27.00667 L 408.5 23.19333 L 410.5 22.71333 L 412.5 23.35333 L 414.5 24.20667 L 416.5 27.16667 L 418.5 22.28667 L 420.5 22.92667 L 422.5 24.07333 L 424.5 25.3 L 426.5 27.38 L 428.5 26.02 L 430.5 26.92667 L 432.5 26.36667 L 434.5 24.04667 L 436.5 25.94 L 438.5 22.98 L 440.5 28.34 L 442.5 28.18 L 444.5 21.51333 L 446.5 23.7 L 448.5 27.16667 L 450.5 28.31333 L 452.5 24.9 L 454.5 25.7 L 456.5 21.75333 L 458.5 26.23333 L 460.5 21.40667 L 462.5 28.9 L 464.5 23.27333 L 466.5 20.66 L 468.5 26.98 L 470.5 27.11333 L 472.5 22.1 L 474.5 27.7 L 476.5 23.78 L 478.5 23.19333 L 480.5 21.08667 L 482.5 23.54 L 484.5 20.28667 L 486.5 22.92667 L 488.5 24.1 L 490.5 28.07333 L 492.5 27.48667 L 494.5 20.18 L 496.5 22.26 L 498.5 20.9 L 500.5 25.75333 L 502.5 21.7 L 505.5 21.11333 L 507.5 24.04667 L 509.5 21.35333 L 511.5 20.82 L 513.5 22.5 L 515.5 22.68667 L 517.5 22.63333 L 519.5 28.12667 L 521.5 26.39333 L 523.5 23.96667 L 525.5 26.20667 L 527.5 24.39333 L 529.5 24.52667 L 531.5 26.55333 L 533.5 22.20667 L 535.5 26.82 L 537.5 21.80667 L 539.5 22.5 L 541.5 25.80667 L 543.5 22.1 L 545.5 23.43333 L 547.5 23.27333 L 549.5 21.54 L 551.5 21.99333 L 553.5 26.20667 L 555.5 18.44667 L 557.5 24.95333 L 559.5 25.40667 L 561.5 25.24667 L 563.5 27.16667 L 565.5 25.72667 L 567.5 24.34 L 569.5 23.11333 L 571.5 26.9 L 573.5 24.71333 L 575.5 26.98 L 577.5 26.63333 L 579.5 17.19333 L 581.5 19.75333 L 583.5 24.02 L 585.5 21.54 L 587.5 26.9 L 589.5 21.51333 L 591.5 25.32667 L 593.5 18.20667 L 595.5 22.58 L 597.5 25.48667 L 599.5 26.87333 L 601.5 21.40667 L 603.5 21.43333 L 605.5 18.26 L 607.5 20.9 L 609.5 20.55333 L 611.5 24.66 L 613.5 24.18 L 615.5 17.40667 L 617.5 25.67333 L 619.5 25.78 L 621.5 21.78 L 623.5 18.15333 L 625.5 20.60667 L 627.5 16.206670000000003 L 629.5 16.28667 L 631.5 20.07333 L 633.5 23.7 L 635.5 22.87333 L 637.5 18.92667 L 639.5 17.00667 L 641.5 22.79333 L 643.5 22.20667 L 645.5 20.1 L 648.5 19.56667 L 650.5 26.20667 L 652.5 22.82 L 654.5 25.06 L 656.5 21.19333 L 658.5 21.38 L 660.5 25.83333 L 662.5 17.22 L 664.5 23.94 L 666.5 15.08667 L 668.5 16.5 L 670.5 24.15333 L 672.5 25.00667 L 674.5 15.51333 L 676.5 23.83333 L 678.5 17.86 L 680.5 16.39333 L 682.5 24.95333 L 684.5 25.35333 L 686.5 14.84667 L 688.5 17.06 L 690.5 20.15333 L 692.5 22.92667 L 694.5 20.20667 L 696.5 23.94 L 698.5 22.55333 L 700.5 16.259999999999998 L 702.5 15.72667 L 704.5 20.9 L 706.5 18.34 L 708.5 22.76667 L 710.5 23.22 L 712.5 22.20667 L 714.5 23.83333 L 716.5 21.11333 L 718.5 17.48667 L 720.5 25.3 L 722.5 23.78 L 724.5 14.47333 L 726.5 21.43333 L 728.5 17.94 L 730.5 17.86 L 732.5 25.19333 L 734.5 18.18 L 736.5 18.82 L 738.5 13.83333 L 740.5 15.7 L 742.5 22.31333 L 744.5 13.16667 L 746.5 16.68667 L 748.5 15.06 L 750.5 19.75333 L 752.5 23.19333 L 754.5 13.27333 L 756.5 13.59333 L 758.5 19.27333 L 760.5 20.15333 L 762.5 24.9 L 764.5 21.38 L 766.5 13.00667 L 768.5 14.82 L 770.5 19.56667 L 772.5 16.66 L 774.5 12.18 L 776.5 23.78 L 778.5 15.14 L 780.5 19.06 L 782.5 21.00667 L 784.5 15.54 L 786.5 18.34 L 788.5 13.06 L 790.5 21.32667 L 793.5 22.87333 L 795.5 23.43333 L 797.5 17.56667 L 799.5 16.31333 L 801.5 20.63333 L 803.5 13.78 L 805.5 17.00667 L 807.5 21.3 L 809.5 20.02 L 811.5 22.84667 L 813.5 22.15333 L 815.5 12.98 L 817.5 21.78 L 819.5 14.79333 L 821.5 17.32667 L 823.5 22.34 L 825.5 14.31333 L 827.5 19.22 L 829.5 20.74 L 831.5 19.08667 L 833.5 19.14 L 835.5 19.78 L 837.5 16.233330000000002 L 839.5 20.18 L 841.5 18.39333 L 843.5 14.66 L 845.5 20.74 L 847.5 21.06 L 849.5 14.79333 L 851.5 20.44667 L 853.5 22.23333 L 855.5 16.233330000000002 L 857.5 11.46 L 859.5 13.11333 L 861.5 21.56667 L 863.5 10.31333 L 865.5 20.39333 L 867.5 20.52667 L 869.5 12.95333 L 871.5 23.54 L 873.5 12.82 L 875.5 22.55333 L 877.5 22.95333 L 879.5 21.40667 L 881.5 16.1 L 883.5 19.99333 L 885.5 15.78 L 887.5 21.16667 L 889.5 22.95333 L 891.5 17.94 L 893.5 22.04667 L 895.5 15.96667 L 897.5 23.16667 L 899.5 12.52667 L 901.5 19.86 L 903.5 19.16667 L 905.5 14.44667 L 907.5 14.12667 L 909.5 20.5 L 911.5 15.03333 L 913.5 14.07333 L 915.5 19.46 L 917.5 19.80667 L 919.5 16.76667 L 921.5 15.99333 L 923.5 15.27333 L 925.5 19.86 L 927.5 21.72667 L 929.5 10.26 L 931.5 21.88667 L 933.5 17.22 L 936.5 14.52667 L 938.5 20.39333 L 940.5 16.206670000000003 L 942.5 11.94 L 944.5 21.51333 L 946.5 14.66 L 948.5 15.88667 L 950.5 13.72667 L 952.5 18.42 L 954.5 11.08667 L 956.5 7.62 L 958.5 16.84667 L 960.5 15.72667 L 962.5 16.259999999999998 L 964.5 10.92667 L 966.5 17.91333 L 968.5 10.92667 L 970.5 19.19333 L 972.5 9.00667 L 974.5 11.00667 L 976.5 20.42 L 978.5 19.43333 L 980.5 20.15333 L 982.5 12.52667 L 984.5 19.99333 L 986.5 17.51333 L 988.5 13.62 L 990.5 9.00667 L 992.5 19.96667 L 994.5 13.3 L 996.5 18.04667 L 998.5 13.16667 L 1000.5 16.5 L 1002.5 9.35333 L 1004.5 20.55333 L 1006.5 20.07333 L 1006.5 40.5 L 1.5 40.5 L 1.5 32.74 Z" style="stroke:#000000;stroke-opacity:0; stroke-width: 1; stroke-dasharray: ; stroke-linecap: butt; stroke-linejoin: miter; stroke-miterlimit: 10;fill:#BBBBBB;fill-opacity:0.5; fill-rule: nonzero; opacity: 1" transform=" matrix(1 0 0 1 0 0) " stroke-linecap="round" />
<path d="M 1.5 32.74 L 3.5 32.63333 L 5.5 34.02 L 7.5 33.43333 L 9.5 32.39333 L 11.5 33.88667 L 13.5 32.28667 L 15.5 34.92667 L 17.5 32.44667 L 19.5 32.20667 L 21.5 33.51333 L 23.5 33.00667 L 25.5 32.74 L 27.5 33.40667 L 29.5 32.68667 L 31.5 33.91333 L 33.5 31.7 L 35.5 31.7 L 37.5 32.44667 L 39.5 32.34 L 41.5 34.28667 L 43.5 31.48667 L 45.5 31.75333 L 47.5 34.34 L 49.5 32.36667 L 51.5 33.22 L 53.5 33.91333 L 55.5 34.20667 L 57.5 31.51333 L 59.5 33.03333 L 61.5 31.51333 L 63.5 31.06 L 65.5 34.23333 L 67.5 31.75333 L 69.5 32.42 L 71.5 32.5 L 74.5 31.38 L 76.5 31.64667 L 78.5 31.94 L 80.5 32.15333 L 82.5 33.14 L 84.5 30.5 L 86.5 32.36667 L 88.5 32.71333 L 90.5 31.38 L 92.5 31.83333 L 94.5 32.34 L 96.5 33.67333 L 98.5 29.99333 L 100.5 30.12667 L 102.5 32.36667 L 104.5 30.79333 L 106.5 32.019999999999996 L 108.5 33.43333 L 110.5 31.16667 L 112.5 32.31333 L 114.5 32.44667 L 116.5 31.38 L 118.5 30.39333 L 120.5 31.24667 L 122.5 33.19333 L 124.5 31.32667 L 126.5 30.44667 L 128.5 29.75333 L 130.5 29.22 L 132.5 29.24667 L 134.5 29.38 L 136.5 30.47333 L 138.5 32.126670000000004 L 140.5 31.88667 L 142.5 29.94 L 144.5 30.9 L 146.5 32.04667 L 148.5 29.96667 L 150.5 32.1 L 152.5 32.42 L 154.5 30.63333 L 156.5 32.1 L 158.5 28.98 L 160.5 31.54 L 162.5 29.06 L 164.5 28.71333 L 166.5 32.84667 L 168.5 28.87333 L 170.5 28.1 L 172.5 29.59333 L 174.5 31.38 L 176.5 29.59333 L 178.5 31.19333 L 180.5 32.66 L 182.5 28.5 L 184.5 30.82 L 186.5 28.20667 L 188.5 30.87333 L 190.5 31.11333 L 192.5 28.92667 L 194.5 32.36667 L 196.5 31.56667 L 198.5 31.51333 L 200.5 27.27333 L 202.5 29.32667 L 204.5 27.24667 L 206.5 28.82 L 208.5 30.26 L 210.5 30.76667 L 212.5 28.20667 L 214.5 26.9 L 217.5 27.75333 L 219.5 29.99333 L 221.5 31.51333 L 223.5 30.76667 L 225.5 30.36667 L 227.5 27.48667 L 229.5 29.88667 L 231.5 31.00667 L 233.5 28.31333 L 235.5 27.83333 L 237.5 28.95333 L 239.5 26.5 L 241.5 29.7 L 243.5 26.63333 L 245.5 27.75333 L 247.5 30.18 L 249.5 29.06 L 251.5 30.84667 L 253.5 30.58 L 255.5 27.72667 L 257.5 29.3 L 259.5 28.55333 L 261.5 31.03333 L 263.5 25.75333 L 265.5 29.96667 L 267.5 25.48667 L 269.5 30.76667 L 271.5 25.86 L 273.5 29.62 L 275.5 29.96667 L 277.5 29.19333 L 279.5 27.88667 L 281.5 26.42 L 283.5 28.31333 L 285.5 25.96667 L 287.5 29.86 L 289.5 28.66 L 291.5 30.12667 L 293.5 29.3 L 295.5 26.12667 L 297.5 28.31333 L 299.5 26.9 L 301.5 28.52667 L 303.5 29.43333 L 305.5 29.40667 L 307.5 27.35333 L 309.5 29.16667 L 311.5 30.18 L 313.5 29.94 L 315.5 25.46 L 317.5 28.23333 L 319.5 25.94 L 321.5 27.51333 L 323.5 27.67333 L 325.5 25.38 L 327.5 26.44667 L 329.5 27.38 L 331.5 26.66 L 333.5 28.34 L 335.5 30.63333 L 337.5 28.15333 L 339.5 29.27333 L 341.5 25.38 L 343.5 28.42 L 345.5 26.66 L 347.5 25.14 L 349.5 30.52667 L 351.5 25.88667 L 353.5 29.00667 L 355.5 25.00667 L 357.5 23.08667 L 359.5 23.94 L 362.5 28.52667 L 364.5 26.95333 L 366.5 28.9 L 368.5 28.02 L 370.5 25.78 L 372.5 23.51333 L 374.5 25.91333 L 376.5 28.5 L 378.5 27.06 L 380.5 27.27333 L 382.5 26.23333 L 384.5 22.68667 L 386.5 26.31333 L 388.5 26.36667 L 390.5 22.39333 L 392.5 28.82 L 394.5 29.19333 L 396.5 28.79333 L 398.5 26.18 L 400.5 27.59333 L 402.5 22.44667 L 404.5 27.96667 L 406.5 27.00667 L 408.5 23.19333 L 410.5 22.71333 L 412.5 23.35333 L 414.5 24.20667 L 416.5 27.16667 L 418.5 22.28667 L 420.5 22.92667 L 422.5 24.07333 L 424.5 25.3 L 426.5 27.38 L 428.5 26.02 L 430.5 26.92667 L 432.5 26.36667 L 434.5 24.04667 L 436.5 25.94 L 438.5 22.98 L 440.5 28.34 L 442.5 28.18 L 444.5 21.51333 L 446.5 23.7 L 448.5 27.16667 L 450.5 28.31333 L 452.5 24.9 L 454.5 25.7 L 456.5 21.75333 L 458.5 26.23333 L 460.5 21.40667 L 462.5 28.9 L 464.5 23.27333 L 466.5 20.66 L 468.5 26.98 L 470.5 27.11333 L 472.5 22.1 L 474.5 27.7 L 476.5 23.78 L 478.5 23.19333 L 480.5 21.08667 L 482.5 23.54 L 484.5 20.28667 L 486.5 22.92667 L 488.5 24.1 L 490.5 28.07333 L 492.5 27.48667 L 494.5 20.18 L 496.5 22.26 L 498.5 20.9 L 500.5 25.75333 L 502.5 21.7 L 505.5 21.11333 L 507.5 24.04667 L 509.5 21.35333 L 511.5 20.82 L 513.5 22.5 L 515.5 22.68667 L 517.5 22.63333 L 519.5 28.12667 L 521.5 26.39333 L 523.5 23.96667 L 525.5 26.20667 L 527.5 24.39333 L 529.5 24.52667 L 531.5 26.55333 L 533.5 22.20667 L 535.5 26.82 L 537.5 21.80667 L 539.5 22.5 L 541.5 25.80667 L 543.5 22.1 L 545.5 23.43333 L 547.5 23.27333 L 549.5 21.54 L 551.5 21.99333 L 553.5 26.20667 L 555.5 18.44667 L 557.5 24.95333 L 559.5 25.40667 L 561.5 25.24667 L 563.5 27.16667 L 565.5 25.72667 L 567.5 24.34 L 569.5 23.11333 L 571.5 26.9 L 573.5 24.71333 L 575.5 26.98 L 577.5 26.63333 L 579.5 17.19333 L 581.5 19.75333 L 583.5 24.02 L 585.5 21.54 L 587.5 26.9 L 589.5 21.51333 L 591.5 25.32667 L 593.5 18.20667 L 595.5 22.58 L 597.5 25.48667 L 599.5 26.87333 L 601.5 21.40667 L 603.5 21.43333 L 605.5 18.26 L 607.5 20.9 L 609.5 20.55333 L 611.5 24.66 L 613.5 24.18 L 615.5 17.40667 L 617.5 25.67333 L 619.5 25.78 L 621.5 21.78 L 623.5 18.15333 L 625.5 20.60667 L 627.5 16.206670000000003 L 629.5 16.28667 L 631.5 20.07333 L 633.5 23.7 L 635.5 22.87333 L 637.5 18.92667 L 639.5 17.00667 L 641.5 22.79333 L 643.5 22.20667 L 645.5 20.1 L 648.5 19.56667 L 650.5 26.20667 L 652.5 22.82 L 654.5 25.06 L 656.5 21.19333 L 658.5 21.38 L 660.5 25.83333 L 662.5 17.22 L 664.5 23.94 L 666.5 15.08667 L 668.5 16.5 L 670.5 24.15333 L 672.5 25.00667 L 674.5 15.51333 L 676.5 23.83333 L 678.5 17.86 L 680.5 16.39333 L 682.5 24.95333 L 684.5 25.35333 L 686.5 14.84667 L 688.5 17.06 L 690.5 20.15333 L 692.5 22.92667 L 694.5 20.20667 L 696.5 23.94 L 698.5 22.55333 L 700.5 16.259999999999998 L 702.5 15.72667 L 704.5 20.9 L 706.5 18.34 L 708.5 22.76667 L 710.5 23.22 L 712.5 22.20667 L 714.5 23.83333 L 716.5 21.11333 L 718.5 17.48667 L 720.5 25.3 L 722.5 23.78 L 724.5 14.47333 L 726.5 21.43333 L 728.5 17.94 L 730.5 17.86 L 732.5 25.19333 L 734.5 18.18 L 736.5 18.82 L 738.5 13.83333 L 740.5 15.7 L 742.5 22.31333 L 744.5 13.16667 L 746.5 16.68667 L 748.5 15.06 L 750.5 19.75333 L 752.5 23.19333 L 754.5 13.27333 L 756.5 13.59333 L 758.5 19.27333 L 760.5 20.15333 L 762.5 24.9 L 764.5 21.38 L 766.5 13.00667 L 768.5 14.82 L 770.5 19.56667 L 772.5 16.66 L 774.5 12.18 L 776.5 23.78 L 778.5 15.14 L 780.5 19.06 L 782.5 21.00667 L 784.5 15.54 L 786.5 18.34 L 788.5 13.06 L 790.5 21.32667 L 793.5 22.87333 L 795.5 23.43333 L 797.5 17.56667 L 799.5 16.31333 L 801.5 20.63333 L 803.5 13.78 L 805.5 17.00667 L 807.5 21.3 L 809.5 20.02 L 811.5 22.84667 L 813.5 22.15333 L 815.5 12.98 L 817.5 21.78 L 819.5 14.79333 L 821.5 17.32667 L 823.5 22.34 L 825.5 14.31333 L 827.5 19.22 L 829.5 20.74 L 831.5 19.08667 L 833.5 19.14 L 835.5 19.78 L 837.5 16.233330000000002 L 839.5 20.18 L 841.5 18.39333 L 843.5 14.66 L 845.5 20.74 L 847.5 21.06 L 849.5 14.79333 L 851.5 20.44667 L 853.5 22.23333 L 855.5 16.233330000000002 L 857.5 11.46 L 859.5 13.11333 L 861.5 21.56667 L 863.5 10.31333 L 865.5 20.39333 L 867.5 20.52667 L 869.5 12.95333 L 871.5 23.54 L 873.5 12.82 L 875.5 22.55333 L 877.5 22.95333 L 879.5 21.40667 L 881.5 16.1 L 883.5 19.99333 L 885.5 15.78 L 887.5 21.16667 L 889.5 22.95333 L 891.5 17.94 L 893.5 22.04667 L 895.5 15.96667 L 897.5 23.16667 L 899.5 12.52667 L 901.5 19.86 L 903.5 19.16667 L 905.5 14.44667 L 907.5 14.12667 L 909.5 20.5 L 911.5 15.03333 L 913.5 14.07333 L 915.5 19.46 L 917.5 19.80667 L 919.5 16.76667 L 921.5 15.99333 L 923.5 15.27333 L 925.5 19.86 L 927.5 21.72667 L 929.5 10.26 L 931.5 21.88667 L 933.5 17.22 L 936.5 14.52667 L 938.5 20.39333 L 940.5 16.206670000000003 L 942.5 11.94 L 944.5 21.51333 L 946.5 14.66 L 948.5 15.88667 L 950.5 13.72667 L 952.5 18.42 L 954.5 11.08667 L 956.5 7.62 L 958.5 16.84667 L 960.5 15.72667 L 962.5 16.259999999999998 L 964.5 10.92667 L 966.5 17.91333 L 968.5 10.92667 L 970.5 19.19333 L 972.5 9.00667 L 974.5 11.00667 L 976.5 20.42 L 978.5 19.43333 L 980.5 20.15333 L 982.5 12.52667 L 984.5 19.99333 L 986.5 17.51333 L 988.5 13.62 L 990.5 9.00667 L 992.5 19.96667 L 994.5 13.3 L 996.5 18.04667 L 998.5 13.16667 L 1000.5 16.5 L 1002.5 9.35333 L 1004.5 20.55333 L 1006.5 20.07333 M 0 0 L 0 0" style="stroke:#888888;stroke-opacity:0; stroke-width: 1; stroke-dasharray: ; stroke-linecap: butt; stroke-linejoin: miter; stroke-miterlimit: 10; fill: none; fill-rule: nonzero; opacity: 1" transform=" matrix(1 0 0 1 0 0) " stroke-linecap="round"  clip-path="url(#AmChartsEl-1159)" />
<path d="M 1.5 32.74 L 3.5 32.63333 L 5.5 34.02 L 7.5 33.43333 L 9.5 32.39333 L 11.5 33.88667 L 13.5 32.28667 L 15.5 34.92667 L 17.5 32.44667 L 19.5 32.20667 L 21.5 33.51333 L 23.5 33.00667 L 25.5 32.74 L 27.5 33.40667 L 29.5 32.68667 L 31.5 33.91333 L 33.5 31.7 L 35.5 31.7 L 37.5 32.44667 L 39.5 32.34 L 41.5 34.28667 L 43.5 31.48667 L 45.5 31.75333 L 47.5 34.34 L 49.5 32.36667 L 51.5 33.22 L 53.5 33.91333 L 55.5 34.20667 L 57.5 31.51333 L 59.5 33.03333 L 61.5 31.51333 L 63.5 31.06 L 65.5 34.23333 L 67.5 31.75333 L 69.5 32.42 L 71.5 32.5 L 74.5 31.38 L 76.5 31.64667 L 78.5 31.94 L 80.5 32.15333 L 82.5 33.14 L 84.5 30.5 L 86.5 32.36667 L 88.5 32.71333 L 90.5 31.38 L 92.5 31.83333 L 94.5 32.34 L 96.5 33.67333 L 98.5 29.99333 L 100.5 30.12667 L 102.5 32.36667 L 104.5 30.79333 L 106.5 32.019999999999996 L 108.5 33.43333 L 110.5 31.16667 L 112.5 32.31333 L 114.5 32.44667 L 116.5 31.38 L 118.5 30.39333 L 120.5 31.24667 L 122.5 33.19333 L 124.5 31.32667 L 126.5 30.44667 L 128.5 29.75333 L 130.5 29.22 L 132.5 29.24667 L 134.5 29.38 L 136.5 30.47333 L 138.5 32.126670000000004 L 140.5 31.88667 L 142.5 29.94 L 144.5 30.9 L 146.5 32.04667 L 148.5 29.96667 L 150.5 32.1 L 152.5 32.42 L 154.5 30.63333 L 156.5 32.1 L 158.5 28.98 L 160.5 31.54 L 162.5 29.06 L 164.5 28.71333 L 166.5 32.84667 L 168.5 28.87333 L 170.5 28.1 L 172.5 29.59333 L 174.5 31.38 L 176.5 29.59333 L 178.5 31.19333 L 180.5 32.66 L 182.5 28.5 L 184.5 30.82 L 186.5 28.20667 L 188.5 30.87333 L 190.5 31.11333 L 192.5 28.92667 L 194.5 32.36667 L 196.5 31.56667 L 198.5 31.51333 L 200.5 27.27333 L 202.5 29.32667 L 204.5 27.24667 L 206.5 28.82 L 208.5 30.26 L 210.5 30.76667 L 212.5 28.20667 L 214.5 26.9 L 217.5 27.75333 L 219.5 29.99333 L 221.5 31.51333 L 223.5 30.76667 L 225.5 30.36667 L 227.5 27.48667 L 229.5 29.88667 L 231.5 31.00667 L 233.5 28.31333 L 235.5 27.83333 L 237.5 28.95333 L 239.5 26.5 L 241.5 29.7 L 243.5 26.63333 L 245.5 27.75333 L 247.5 30.18 L 249.5 29.06 L 251.5 30.84667 L 253.5 30.58 L 255.5 27.72667 L 257.5 29.3 L 259.5 28.55333 L 261.5 31.03333 L 263.5 25.75333 L 265.5 29.96667 L 267.5 25.48667 L 269.5 30.76667 L 271.5 25.86 L 273.5 29.62 L 275.5 29.96667 L 277.5 29.19333 L 279.5 27.88667 L 281.5 26.42 L 283.5 28.31333 L 285.5 25.96667 L 287.5 29.86 L 289.5 28.66 L 291.5 30.12667 L 293.5 29.3 L 295.5 26.12667 L 297.5 28.31333 L 299.5 26.9 L 301.5 28.52667 L 303.5 29.43333 L 305.5 29.40667 L 307.5 27.35333 L 309.5 29.16667 L 311.5 30.18 L 313.5 29.94 L 315.5 25.46 L 317.5 28.23333 L 319.5 25.94 L 321.5 27.51333 L 323.5 27.67333 L 325.5 25.38 L 327.5 26.44667 L 329.5 27.38 L 331.5 26.66 L 333.5 28.34 L 335.5 30.63333 L 337.5 28.15333 L 339.5 29.27333 L 341.5 25.38 L 343.5 28.42 L 345.5 26.66 L 347.5 25.14 L 349.5 30.52667 L 351.5 25.88667 L 353.5 29.00667 L 355.5 25.00667 L 357.5 23.08667 L 359.5 23.94 L 362.5 28.52667 L 364.5 26.95333 L 366.5 28.9 L 368.5 28.02 L 370.5 25.78 L 372.5 23.51333 L 374.5 25.91333 L 376.5 28.5 L 378.5 27.06 L 380.5 27.27333 L 382.5 26.23333 L 384.5 22.68667 L 386.5 26.31333 L 388.5 26.36667 L 390.5 22.39333 L 392.5 28.82 L 394.5 29.19333 L 396.5 28.79333 L 398.5 26.18 L 400.5 27.59333 L 402.5 22.44667 L 404.5 27.96667 L 406.5 27.00667 L 408.5 23.19333 L 410.5 22.71333 L 412.5 23.35333 L 414.5 24.20667 L 416.5 27.16667 L 418.5 22.28667 L 420.5 22.92667 L 422.5 24.07333 L 424.5 25.3 L 426.5 27.38 L 428.5 26.02 L 430.5 26.92667 L 432.5 26.36667 L 434.5 24.04667 L 436.5 25.94 L 438.5 22.98 L 440.5 28.34 L 442.5 28.18 L 444.5 21.51333 L 446.5 23.7 L 448.5 27.16667 L 450.5 28.31333 L 452.5 24.9 L 454.5 25.7 L 456.5 21.75333 L 458.5 26.23333 L 460.5 21.40667 L 462.5 28.9 L 464.5 23.27333 L 466.5 20.66 L 468.5 26.98 L 470.5 27.11333 L 472.5 22.1 L 474.5 27.7 L 476.5 23.78 L 478.5 23.19333 L 480.5 21.08667 L 482.5 23.54 L 484.5 20.28667 L 486.5 22.92667 L 488.5 24.1 L 490.5 28.07333 L 492.5 27.48667 L 494.5 20.18 L 496.5 22.26 L 498.5 20.9 L 500.5 25.75333 L 502.5 21.7 L 505.5 21.11333 L 507.5 24.04667 L 509.5 21.35333 L 511.5 20.82 L 513.5 22.5 L 515.5 22.68667 L 517.5 22.63333 L 519.5 28.12667 L 521.5 26.39333 L 523.5 23.96667 L 525.5 26.20667 L 527.5 24.39333 L 529.5 24.52667 L 531.5 26.55333 L 533.5 22.20667 L 535.5 26.82 L 537.5 21.80667 L 539.5 22.5 L 541.5 25.80667 L 543.5 22.1 L 545.5 23.43333 L 547.5 23.27333 L 549.5 21.54 L 551.5 21.99333 L 553.5 26.20667 L 555.5 18.44667 L 557.5 24.95333 L 559.5 25.40667 L 561.5 25.24667 L 563.5 27.16667 L 565.5 25.72667 L 567.5 24.34 L 569.5 23.11333 L 571.5 26.9 L 573.5 24.71333 L 575.5 26.98 L 577.5 26.63333 L 579.5 17.19333 L 581.5 19.75333 L 583.5 24.02 L 585.5 21.54 L 587.5 26.9 L 589.5 21.51333 L 591.5 25.32667 L 593.5 18.20667 L 595.5 22.58 L 597.5 25.48667 L 599.5 26.87333 L 601.5 21.40667 L 603.5 21.43333 L 605.5 18.26 L 607.5 20.9 L 609.5 20.55333 L 611.5 24.66 L 613.5 24.18 L 615.5 17.40667 L 617.5 25.67333 L 619.5 25.78 L 621.5 21.78 L 623.5 18.15333 L 625.5 20.60667 L 627.5 16.206670000000003 L 629.5 16.28667 L 631.5 20.07333 L 633.5 23.7 L 635.5 22.87333 L 637.5 18.92667 L 639.5 17.00667 L 641.5 22.79333 L 643.5 22.20667 L 645.5 20.1 L 648.5 19.56667 L 650.5 26.20667 L 652.5 22.82 L 654.5 25.06 L 656.5 21.19333 L 658.5 21.38 L 660.5 25.83333 L 662.5 17.22 L 664.5 23.94 L 666.5 15.08667 L 668.5 16.5 L 670.5 24.15333 L 672.5 25.00667 L 674.5 15.51333 L 676.5 23.83333 L 678.5 17.86 L 680.5 16.39333 L 682.5 24.95333 L 684.5 25.35333 L 686.5 14.84667 L 688.5 17.06 L 690.5 20.15333 L 692.5 22.92667 L 694.5 20.20667 L 696.5 23.94 L 698.5 22.55333 L 700.5 16.259999999999998 L 702.5 15.72667 L 704.5 20.9 L 706.5 18.34 L 708.5 22.76667 L 710.5 23.22 L 712.5 22.20667 L 714.5 23.83333 L 716.5 21.11333 L 718.5 17.48667 L 720.5 25.3 L 722.5 23.78 L 724.5 14.47333 L 726.5 21.43333 L 728.5 17.94 L 730.5 17.86 L 732.5 25.19333 L 734.5 18.18 L 736.5 18.82 L 738.5 13.83333 L 740.5 15.7 L 742.5 22.31333 L 744.5 13.16667 L 746.5 16.68667 L 748.5 15.06 L 750.5 19.75333 L 752.5 23.19333 L 754.5 13.27333 L 756.5 13.59333 L 758.5 19.27333 L 760.5 20.15333 L 762.5 24.9 L 764.5 21.38 L 766.5 13.00667 L 768.5 14.82 L 770.5 19.56667 L 772.5 16.66 L 774.5 12.18 L 776.5 23.78 L 778.5 15.14 L 780.5 19.06 L 782.5 21.00667 L 784.5 15.54 L 786.5 18.34 L 788.5 13.06 L 790.5 21.32667 L 793.5 22.87333 L 795.5 23.43333 L 797.5 17.56667 L 799.5 16.31333 L 801.5 20.63333 L 803.5 13.78 L 805.5 17.00667 L 807.5 21.3 L 809.5 20.02 L 811.5 22.84667 L 813.5 22.15333 L 815.5 12.98 L 817.5 21.78 L 819.5 14.79333 L 821.5 17.32667 L 823.5 22.34 L 825.5 14.31333 L 827.5 19.22 L 829.5 20.74 L 831.5 19.08667 L 833.5 19.14 L 835.5 19.78 L 837.5 16.233330000000002 L 839.5 20.18 L 841.5 18.39333 L 843.5 14.66 L 845.5 20.74 L 847.5 21.06 L 849.5 14.79333 L 851.5 20.44667 L 853.5 22.23333 L 855.5 16.233330000000002 L 857.5 11.46 L 859.5 13.11333 L 861.5 21.56667 L 863.5 10.31333 L 865.5 20.39333 L 867.5 20.52667 L 869.5 12.95333 L 871.5 23.54 L 873.5 12.82 L 875.5 22.55333 L 877.5 22.95333 L 879.5 21.40667 L 881.5 16.1 L 883.5 19.99333 L 885.5 15.78 L 887.5 21.16667 L 889.5 22.95333 L 891.5 17.94 L 893.5 22.04667 L 895.5 15.96667 L 897.5 23.16667 L 899.5 12.52667 L 901.5 19.86 L 903.5 19.16667 L 905.5 14.44667 L 907.5 14.12667 L 909.5 20.5 L 911.5 15.03333 L 913.5 14.07333 L 915.5 19.46 L 917.5 19.80667 L 919.5 16.76667 L 921.5 15.99333 L 923.5 15.27333 L 925.5 19.86 L 927.5 21.72667 L 929.5 10.26 L 931.5 21.88667 L 933.5 17.22 L 936.5 14.52667 L 938.5 20.39333 L 940.5 16.206670000000003 L 942.5 11.94 L 944.5 21.51333 L 946.5 14.66 L 948.5 15.88667 L 950.5 13.72667 L 952.5 18.42 L 954.5 11.08667 L 956.5 7.62 L 958.5 16.84667 L 960.5 15.72667 L 962.5 16.259999999999998 L 964.5 10.92667 L 966.5 17.91333 L 968.5 10.92667 L 970.5 19.19333 L 972.5 9.00667 L 974.5 11.00667 L 976.5 20.42 L 978.5 19.43333 L 980.5 20.15333 L 982.5 12.52667 L 984.5 19.99333 L 986.5 17.51333 L 988.5 13.62 L 990.5 9.00667 L 992.5 19.96667 L 994.5 13.3 L 996.5 18.04667 L 998.5 13.16667 L 1000.5 16.5 L 1002.5 9.35333 L 1004.5 20.55333 L 1006.5 20.07333 L 1006.5 40.5 L 1.5 40.5 L 1.5 32.74 Z" style="stroke:#000000;stroke-opacity:0; stroke-width: 1; stroke-dasharray: ; stroke-linecap: butt; stroke-linejoin: miter; stroke-miterlimit: 10;fill:#888888;fill-opacity:1; fill-rule: nonzero; opacity: 1" transform=" matrix(1 0 0 1 0 0) " stroke-linecap="round"  clip-path="url(#AmChartsEl-1159)" />
<path d="M 66.5 40.5 L 66.5 40.5 L 66.5 0.5" style="stroke:#FFFFFF;stroke-opacity:0.15; stroke-width: 1; stroke-dasharray: ; stroke-linecap: butt; stroke-linejoin: miter; stroke-miterlimit: 10; fill: none; fill-rule: nonzero; opacity: 1" transform=" matrix(1 0 0 1 0 0) " stroke-linecap="round" />
<path d="M 185.5 40.5 L 185.5 40.5 L 185.5 0.5" style="stroke:#FFFFFF;stroke-opacity:0.15; stroke-width: 1; stroke-dasharray: ; stroke-linecap: butt; stroke-linejoin: miter; stroke-miterlimit: 10; fill: none; fill-rule: nonzero; opacity: 1" transform=" matrix(1 0 0 1 0 0) " stroke-linecap="round" />
<path d="M 308.5 40.5 L 308.5 40.5 L 308.5 0.5" style="stroke:#FFFFFF;stroke-opacity:0.15; stroke-width: 1; stroke-dasharray: ; stroke-linecap: butt; stroke-linejoin: miter; stroke-miterlimit: 10; fill: none; fill-rule: nonzero; opacity: 1" transform=" matrix(1 0 0 1 0 0) " stroke-linecap="round" />
<path d="M 431.5 40.5 L 431.5 40.5 L 431.5 0.5" style="stroke:#FFFFFF;stroke-opacity:0.15; stroke-width: 1; stroke-dasharray: ; stroke-linecap: butt; stroke-linejoin: miter; stroke-miterlimit: 10; fill: none; fill-rule: nonzero; opacity: 1" transform=" matrix(1 0 0 1 0 0) " stroke-linecap="round" />
<path d="M 556.5 40.5 L 556.5 40.5 L 556.5 0.5" style="stroke:#FFFFFF;stroke-opacity:0.15; stroke-width: 1; stroke-dasharray: ; stroke-linecap: butt; stroke-linejoin: miter; stroke-miterlimit: 10; fill: none; fill-rule: nonzero; opacity: 1" transform=" matrix(1 0 0 1 0 0) " stroke-linecap="round" />
<path d="M 679.5 40.5 L 679.5 40.5 L 679.5 0.5" style="stroke:#FFFFFF;stroke-opacity:0.15; stroke-width: 1; stroke-dasharray: ; stroke-linecap: butt; stroke-linejoin: miter; stroke-miterlimit: 10; fill: none; fill-rule: nonzero; opacity: 1" transform=" matrix(1 0 0 1 0 0) " stroke-linecap="round" />
<path d="M 802.5 40.5 L 802.5 40.5 L 802.5 0.5" style="stroke:#FFFFFF;stroke-opacity:0.15; stroke-width: 1; stroke-dasharray: ; stroke-linecap: butt; stroke-linejoin: miter; stroke-miterlimit: 10; fill: none; fill-rule: nonzero; opacity: 1" transform=" matrix(1 0 0 1 0 0) " stroke-linecap="round" />
<path d="M 922.5 40.5 L 922.5 40.5 L 922.5 0.5" style="stroke:#FFFFFF;stroke-opacity:0.15; stroke-width: 1; stroke-dasharray: ; stroke-linecap: butt; stroke-linejoin: miter; stroke-miterlimit: 10; fill: none; fill-rule: nonzero; opacity: 1" transform=" matrix(1 0 0 1 0 0) " stroke-linecap="round" />
	<g transform=" matrix(1 0 0 1 69 28.5) ">
		<text font-family="Verdana" font-size="11" font-weight="normal" style="stroke: none; stroke-width: 1; stroke-dasharray: ; stroke-linecap: butt; stroke-linejoin: miter; stroke-miterlimit: 10;fill:#FFFFFF;fill-opacity:1; fill-rule: nonzero; opacity: 1" ><tspan x="0" y="5.9912" fill="rgba(255,255,255,1)">2015</tspan></text>
	</g>
	<g transform=" matrix(1 0 0 1 188 28.5) ">
		<text font-family="Verdana" font-size="11" font-weight="normal" style="stroke: none; stroke-width: 1; stroke-dasharray: ; stroke-linecap: butt; stroke-linejoin: miter; stroke-miterlimit: 10;fill:#FFFFFF;fill-opacity:1; fill-rule: nonzero; opacity: 1" ><tspan x="0" y="5.9912" fill="rgba(255,255,255,1)">Mar</tspan></text>
	</g>
	<g transform=" matrix(1 0 0 1 311 28.5) ">
		<text font-family="Verdana" font-size="11" font-weight="normal" style="stroke: none; stroke-width: 1; stroke-dasharray: ; stroke-linecap: butt; stroke-linejoin: miter; stroke-miterlimit: 10;fill:#FFFFFF;fill-opacity:1; fill-rule: nonzero; opacity: 1" ><tspan x="0" y="5.9912" fill="rgba(255,255,255,1)">May</tspan></text>
	</g>
	<g transform=" matrix(1 0 0 1 434 28.5) ">
		<text font-family="Verdana" font-size="11" font-weight="normal" style="stroke: none; stroke-width: 1; stroke-dasharray: ; stroke-linecap: butt; stroke-linejoin: miter; stroke-miterlimit: 10;fill:#FFFFFF;fill-opacity:1; fill-rule: nonzero; opacity: 1" ><tspan x="0" y="5.9912" fill="rgba(255,255,255,1)">Jul</tspan></text>
	</g>
	<g transform=" matrix(1 0 0 1 559 28.5) ">
		<text font-family="Verdana" font-size="11" font-weight="normal" style="stroke: none; stroke-width: 1; stroke-dasharray: ; stroke-linecap: butt; stroke-linejoin: miter; stroke-miterlimit: 10;fill:#FFFFFF;fill-opacity:1; fill-rule: nonzero; opacity: 1" ><tspan x="0" y="5.9912" fill="rgba(255,255,255,1)">Sep</tspan></text>
	</g>
	<g transform=" matrix(1 0 0 1 682 28.5) ">
		<text font-family="Verdana" font-size="11" font-weight="normal" style="stroke: none; stroke-width: 1; stroke-dasharray: ; stroke-linecap: butt; stroke-linejoin: miter; stroke-miterlimit: 10;fill:#FFFFFF;fill-opacity:1; fill-rule: nonzero; opacity: 1" ><tspan x="0" y="5.9912" fill="rgba(255,255,255,1)">Nov</tspan></text>
	</g>
	<g transform=" matrix(1 0 0 1 805 28.5) ">
		<text font-family="Verdana" font-size="11" font-weight="normal" style="stroke: none; stroke-width: 1; stroke-dasharray: ; stroke-linecap: butt; stroke-linejoin: miter; stroke-miterlimit: 10;fill:#FFFFFF;fill-opacity:1; fill-rule: nonzero; opacity: 1" ><tspan x="0" y="5.9912" fill="rgba(255,255,255,1)">2016</tspan></text>
	</g>
	<g transform=" matrix(1 0 0 1 925 28.5) ">
		<text font-family="Verdana" font-size="11" font-weight="normal" style="stroke: none; stroke-width: 1; stroke-dasharray: ; stroke-linecap: butt; stroke-linejoin: miter; stroke-miterlimit: 10;fill:#FFFFFF;fill-opacity:1; fill-rule: nonzero; opacity: 1" ><tspan x="0" y="5.9912" fill="rgba(255,255,255,1)">Mar</tspan></text>
	</g>
<rect x="0.5" y="0.5" rx="0" ry="0" width="1008" height="40" style="stroke:#000000;stroke-opacity:0.005; stroke-width: 0; stroke-dasharray: ; stroke-linecap: butt; stroke-linejoin: miter; stroke-miterlimit: 10;fill:#000000;fill-opacity:0.005; fill-rule: nonzero; opacity: 1" transform=" matrix(1 0 0 1 0 0) "/>
<rect x="948" y="0.5" rx="0" ry="0" width="59" height="40" style="stroke:#000000;stroke-opacity:0.005; stroke-width: 0; stroke-dasharray: ; stroke-linecap: butt; stroke-linejoin: miter; stroke-miterlimit: 10;fill:#000000;fill-opacity:0.005; fill-rule: nonzero; opacity: 1" transform=" matrix(1 0 0 1 0 0) "/>
<g transform=" matrix(1 0 0 1 931 3) ">
<image xlink:href="http://localhost:8080/app/VAADIN/resources/amcharts/images/dragIconRoundBig.svg" x="0" y="0" style="stroke: none; stroke-width: 1; stroke-dasharray: ; stroke-linecap: butt; stroke-linejoin: miter; stroke-miterlimit: 10;fill:#000000;fill-opacity:1; fill-rule: nonzero; opacity: 1" width="35" height="35" preserveAspectRatio="xMidYMid meet"></image>
</g>
<rect x="0.5" y="0.5" rx="0" ry="0" width="25" height="40" style="stroke:#000000;stroke-opacity:0.005; stroke-width: 0; stroke-dasharray: ; stroke-linecap: butt; stroke-linejoin: miter; stroke-miterlimit: 10;fill:#000000;fill-opacity:0.005; fill-rule: nonzero; opacity: 1" transform=" matrix(1 0 0 1 936 1) "/>
<g transform=" matrix(1 0 0 1 990 3) ">
<image xlink:href="http://localhost:8080/app/VAADIN/resources/amcharts/images/dragIconRoundBig.svg" x="0" y="0" style="stroke: none; stroke-width: 1; stroke-dasharray: ; stroke-linecap: butt; stroke-linejoin: miter; stroke-miterlimit: 10;fill:#000000;fill-opacity:1; fill-rule: nonzero; opacity: 1" width="35" height="35" preserveAspectRatio="xMidYMid meet"></image>
</g>
<rect x="0.5" y="0.5" rx="0" ry="0" width="25" height="40" style="stroke:#000000;stroke-opacity:0.005; stroke-width: 0; stroke-dasharray: ; stroke-linecap: butt; stroke-linejoin: miter; stroke-miterlimit: 10;fill:#000000;fill-opacity:0.005; fill-rule: nonzero; opacity: 1" transform=" matrix(1 0 0 1 995 1) "/>
<rect x="948" y="0" rx="0" ry="0" width="59" height="41" style="stroke: none; stroke-width: 0; stroke-dasharray: ; stroke-linecap: butt; stroke-linejoin: miter; stroke-miterlimit: 10; fill: transparent; fill-rule: nonzero; opacity: 1" transform=""/>
</g>
	<g transform="translate(66.5 582.21)">
		<text font-family="Verdana" font-size="11" font-weight="normal" style="stroke: none; stroke-width: 1; stroke-dasharray: ; stroke-linecap: butt; stroke-linejoin: miter; stroke-miterlimit: 10;fill:#000000;fill-opacity:1; fill-rule: nonzero; opacity: 0.7" ><tspan x="-61.5" y="2.4706" fill="rgb(0, 0, 0)">JS chart by amCharts</tspan></text>
	</g>
<clipPath xmlns="http://www.w3.org/2000/svg" id="AmChartsEl-1151"><rect x="0" y="0" width="1007" height="340" rx="0" ry="0" stroke-width="0" fill="transparent" svgUid="31"/></clipPath><clipPath xmlns="http://www.w3.org/2000/svg" id="AmChartsEl-1153"><rect x="0" y="0" width="1007" height="340" rx="0" ry="0" stroke-width="0" fill="transparent" svgUid="31"/></clipPath><clipPath xmlns="http://www.w3.org/2000/svg" id="AmChartsEl-1154"><rect x="0" y="0" width="1007" height="340" rx="0" ry="0" stroke-width="0" fill="transparent" svgUid="31"/></clipPath><clipPath xmlns="http://www.w3.org/2000/svg" id="AmChartsEl-1155"><rect x="0" y="0" width="1007" height="340" rx="0" ry="0" stroke-width="0" fill="transparent" svgUid="31"/></clipPath><clipPath xmlns="http://www.w3.org/2000/svg" id="AmChartsEl-1156"><rect x="0" y="0" width="1007" height="340" rx="0" ry="0" stroke-width="0" fill="transparent" svgUid="31"/></clipPath><clipPath xmlns="http://www.w3.org/2000/svg" id="AmChartsEl-1152"><rect x="0" y="0" width="1007" height="340" rx="0" ry="0" stroke-width="0" fill="transparent" svgUid="31"/></clipPath><clipPath xmlns="http://www.w3.org/2000/svg" id="AmChartsEl-1157"><rect x="0" y="0" width="1007" height="104" rx="0" ry="0" stroke-width="0" fill="transparent" svgUid="33"/></clipPath><clipPath xmlns="http://www.w3.org/2000/svg" id="AmChartsEl-1158"><rect x="0" y="0" width="1007" height="104" rx="0" ry="0" stroke-width="0" fill="transparent" svgUid="33"/></clipPath><clipPath xmlns="http://www.w3.org/2000/svg" id="AmChartsEl-1159"><rect x="948" y="0" width="59" height="41" rx="0" ry="0" stroke-width="0" fill="transparent" svgUid="34"/></clipPath><clipPath xmlns="http://www.w3.org/2000/svg" id="AmChartsEl-1159"><rect x="948" y="0" width="59" height="41" rx="0" ry="0" stroke-width="0" fill="transparent" svgUid="34"/></clipPath></svg>