<?xml version="1.0" encoding="UTF-8" standalone="no" ?><!DOCTYPE svg PUBLIC "-//W3C//DTD SVG 1.1//EN" "http://www.w3.org/Graphics/SVG/1.1/DTD/svg11.dtd">
<svg xmlns="http://www.w3.org/2000/svg" xmlns:xlink="http://www.w3.org/1999/xlink" version="1.1" width="1024" height="570" style="background-color: #FFFFFF" xml:space="preserve"><desc>Created with Fabric.js 1.5.0</desc><defs></defs><g style="stroke: none; stroke-width: 1; stroke-dasharray: ; stroke-linecap: butt; stroke-linejoin: miter; stroke-miterlimit: 10; fill: none; fill-rule: nonzero; opacity: 1" transform="translate(0 0)" >
<path d="M 0.5 0.5 L 1023.5 0.5 L 1023.5 569.5 L 0.5 569.5 Z" style="stroke:#000000;stroke-opacity:0; stroke-width: 1; stroke-dasharray: ; stroke-linecap: butt; stroke-linejoin: miter; stroke-miterlimit: 10;fill:#FFFFFF;fill-opacity:0; fill-rule: nonzero; opacity: 1" transform="" stroke-linecap="round" />
<path d="M 0.5 0.5 L 919.5 0.5 L 919.5 468.5 L 0.5 468.5 L 0.5 0.5 Z" style="stroke:#000000;stroke-opacity:0; stroke-width: 1; stroke-dasharray: ; stroke-linecap: butt; stroke-linejoin: miter; stroke-miterlimit: 10;fill:#FFFFFF;fill-opacity:0; fill-rule: nonzero; opacity: 1" transform=" matrix(1 0 0 1 64 40) " stroke-linecap="round" />
<path d="M 0.5 468.5 L 0.5 468.5 L 0.5 0.5" style="stroke:#000000;stroke-opacity:0.15; stroke-width: 1; stroke-dasharray: 1 1; stroke-linecap: butt; stroke-linejoin: miter; stroke-miterlimit: 10; fill: none; fill-rule: nonzero; opacity: 1" transform=" matrix(1 0 0 1 64 40) " stroke-linecap="round" />
<path d="M 131.5 468.5 L 131.5 468.5 L 131.5 0.5" style="stroke:#000000;stroke-opacity:0.15; stroke-width: 1; stroke-dasharray: 1 1; stroke-linecap: butt; stroke-linejoin: miter; stroke-miterlimit: 10; fill: none; fill-rule: nonzero; opacity: 1" transform=" matrix(1 0 0 1 64 40) " stroke-linecap="round" />
<path d="M 263.5 468.5 L 263.5 468.5 L 263.5 0.5" style="stroke:#000000;stroke-opacity:0.15; stroke-width: 1; stroke-dasharray: 1 1; stroke-linecap: butt; stroke-linejoin: miter; stroke-miterlimit: 10; fill: none; fill-rule: nonzero; opacity: 1" transform=" matrix(1 0 0 1 64 40) " stroke-linecap="round" />
<path d="M 394.5 468.5 L 394.5 468.5 L 394.5 0.5" style="stroke:#000000;stroke-opacity:0.15; stroke-width: 1; stroke-dasharray: 1 1; stroke-linecap: butt; stroke-linejoin: miter; stroke-miterlimit: 10; fill: none; fill-rule: nonzero; opacity: 1" transform=" matrix(1 0 0 1 64 40) " stroke-linecap="round" />
<path d="M 525.5 468.5 L 525.5 468.5 L 525.5 0.5" style="stroke:#000000;stroke-opacity:0.15; stroke-width: 1; stroke-dasharray: 1 1; stroke-linecap: butt; stroke-linejoin: miter; stroke-miterlimit: 10; fill: none; fill-rule: nonzero; opacity: 1" transform=" matrix(1 0 0 1 64 40) " stroke-linecap="round" />
<path d="M 656.5 468.5 L 656.5 468.5 L 656.5 0.5" style="stroke:#000000;stroke-opacity:0.15; stroke-width: 1; stroke-dasharray: 1 1; stroke-linecap: butt; stroke-linejoin: miter; stroke-miterlimit: 10; fill: none; fill-rule: nonzero; opacity: 1" transform=" matrix(1 0 0 1 64 40) " stroke-linecap="round" />
<path d="M 788.5 468.5 L 788.5 468.5 L 788.5 0.5" style="stroke:#000000;stroke-opacity:0.15; stroke-width: 1; stroke-dasharray: 1 1; stroke-linecap: butt; stroke-linejoin: miter; stroke-miterlimit: 10; fill: none; fill-rule: nonzero; opacity: 1" transform=" matrix(1 0 0 1 64 40) " stroke-linecap="round" />
<path d="M 919.5 468.5 L 919.5 468.5 L 919.5 0.5" style="stroke:#000000;stroke-opacity:0.15; stroke-width: 1; stroke-dasharray: 1 1; stroke-linecap: butt; stroke-linejoin: miter; stroke-miterlimit: 10; fill: none; fill-rule: nonzero; opacity: 1" transform=" matrix(1 0 0 1 64 40) " stroke-linecap="round" />
<path d="M 0.5 468.5 L 0.5 468.5 L 919.5 468.5" style="stroke:#000000;stroke-opacity:0.15; stroke-width: 1; stroke-dasharray: 1 1; stroke-linecap: butt; stroke-linejoin: miter; stroke-miterlimit: 10; fill: none; fill-rule: nonzero; opacity: 1" transform=" matrix(1 0 0 1 64 40) " stroke-linecap="round" />
<path d="M 0.5 421.5 L 0.5 421.5 L 919.5 421.5" style="stroke:#000000;stroke-opacity:0.15; stroke-width: 1; stroke-dasharray: 1 1; stroke-linecap: butt; stroke-linejoin: miter; stroke-miterlimit: 10; fill: none; fill-rule: nonzero; opacity: 1" transform=" matrix(1 0 0 1 64 40) " stroke-linecap="round" />
<path d="M 0.5 374.5 L 0.5 374.5 L 919.5 374.5" style="stroke:#000000;stroke-opacity:0.15; stroke-width: 1; stroke-dasharray: 1 1; stroke-linecap: butt; stroke-linejoin: miter; stroke-miterlimit: 10; fill: none; fill-rule: nonzero; opacity: 1" transform=" matrix(1 0 0 1 64 40) " stroke-linecap="round" />
<path d="M 0.5 328.5 L 0.5 328.5 L 919.5 328.5" style="stroke:#000000;stroke-opacity:0.15; stroke-width: 1; stroke-dasharray: 1 1; stroke-linecap: butt; stroke-linejoin: miter; stroke-miterlimit: 10; fill: none; fill-rule: nonzero; opacity: 1" transform=" matrix(1 0 0 1 64 40) " stroke-linecap="round" />
<path d="M 0.5 281.5 L 0.5 281.5 L 919.5 281.5" style="stroke:#000000;stroke-opacity:0.15; stroke-width: 1; stroke-dasharray: 1 1; stroke-linecap: butt; stroke-linejoin: miter; stroke-miterlimit: 10; fill: none; fill-rule: nonzero; opacity: 1" transform=" matrix(1 0 0 1 64 40) " stroke-linecap="round" />
<path d="M 0.5 234.5 L 0.5 234.5 L 919.5 234.5" style="stroke:#000000;stroke-opacity:0.15; stroke-width: 1; stroke-dasharray: 1 1; stroke-linecap: butt; stroke-linejoin: miter; stroke-miterlimit: 10; fill: none; fill-rule: nonzero; opacity: 1" transform=" matrix(1 0 0 1 64 40) " stroke-linecap="round" />
<path d="M 0.5 187.5 L 0.5 187.5 L 919.5 187.5" style="stroke:#000000;stroke-opacity:0.15; stroke-width: 1; stroke-dasharray: 1 1; stroke-linecap: butt; stroke-linejoin: miter; stroke-miterlimit: 10; fill: none; fill-rule: nonzero; opacity: 1" transform=" matrix(1 0 0 1 64 40) " stroke-linecap="round" />
<path d="M 0.5 140.5 L 0.5 140.5 L 919.5 140.5" style="stroke:#000000;stroke-opacity:0.15; stroke-width: 1; stroke-dasharray: 1 1; stroke-linecap: butt; stroke-linejoin: miter; stroke-miterlimit: 10; fill: none; fill-rule: nonzero; opacity: 1" transform=" matrix(1 0 0 1 64 40) " stroke-linecap="round" />
<path d="M 0.5 94.5 L 0.5 94.5 L 919.5 94.5" style="stroke:#000000;stroke-opacity:0.15; stroke-width: 1; stroke-dasharray: 1 1; stroke-linecap: butt; stroke-linejoin: miter; stroke-miterlimit: 10; fill: none; fill-rule: nonzero; opacity: 1" transform=" matrix(1 0 0 1 64 40) " stroke-linecap="round" />
<path d="M 0.5 47.5 L 0.5 47.5 L 919.5 47.5" style="stroke:#000000;stroke-opacity:0.15; stroke-width: 1; stroke-dasharray: 1 1; stroke-linecap: butt; stroke-linejoin: miter; stroke-miterlimit: 10; fill: none; fill-rule: nonzero; opacity: 1" transform=" matrix(1 0 0 1 64 40) " stroke-linecap="round" />
<path d="M 0.5 0.5 L 0.5 0.5 L 919.5 0.5" style="stroke:#000000;stroke-opacity:0.15; stroke-width: 1; stroke-dasharray: 1 1; stroke-linecap: butt; stroke-linejoin: miter; stroke-miterlimit: 10; fill: none; fill-rule: nonzero; opacity: 1" transform=" matrix(1 0 0 1 64 40) " stroke-linecap="round" />
<path d="M 66.5 456.5 L 131.5 438.5 L 197.5 414.5 L 263.5 402.5 L 328.5 386.5 L 394.5 349.5 L 460.5 311.5 L 525.5 281.5 L 591.5 260.5 L 656.5 241.5 L 722.5 225.5 L 788.5 194.5 M 0 0 L 0 0" style="stroke:#FF6600;stroke-opacity:0; stroke-width: 1; stroke-dasharray: ; stroke-linecap: butt; stroke-linejoin: miter; stroke-miterlimit: 10; fill: none; fill-rule: nonzero; opacity: 1" transform=" matrix(1 0 0 1 64 40) " stroke-linecap="round" />
<rect x="0" y="0" rx="0" ry="0" width="920" height="469" style="stroke: none; stroke-width: 0; stroke-dasharray: ; stroke-linecap: butt; stroke-linejoin: miter; stroke-miterlimit: 10; fill: transparent; fill-rule: nonzero; opacity: 1" transform=""/>
<path d="M 66.5 417.5 L 131.5 353.5 L 197.5 349.5 L 263.5 344.5 L 328.5 325.5 L 394.5 274.5 L 460.5 222.5 L 525.5 180.5 L 591.5 129.5 L 656.5 117.5 L 722.5 28.5 L 788.5 23.5 M 0 0 L 0 0" style="stroke:#FCD202;stroke-opacity:0; stroke-width: 1; stroke-dasharray: ; stroke-linecap: butt; stroke-linejoin: miter; stroke-miterlimit: 10; fill: none; fill-rule: nonzero; opacity: 1" transform=" matrix(1 0 0 1 64 40) " stroke-linecap="round" />
<rect x="0" y="0" rx="0" ry="0" width="920" height="469" style="stroke: none; stroke-width: 0; stroke-dasharray: ; stroke-linecap: butt; stroke-linejoin: miter; stroke-miterlimit: 10; fill: transparent; fill-rule: nonzero; opacity: 1" transform=""/>
<path d="M 66.5 421.5 L 788.5 187.5 L 786.5 182.5 L 64.5 416.5 Z" style="stroke:#FF6600;stroke-opacity:0.005; stroke-width: 0; stroke-dasharray: ; stroke-linecap: butt; stroke-linejoin: miter; stroke-miterlimit: 10;fill:#FF6600;fill-opacity:0.005; fill-rule: nonzero; opacity: 1" transform=" matrix(1 0 0 1 64 40) " stroke-linecap="round" />
<path d="M 66.5 421.5 L 788.5 187.5" style="stroke:#FF6600;stroke-opacity:1; stroke-width: 1; stroke-dasharray: ; stroke-linecap: butt; stroke-linejoin: miter; stroke-miterlimit: 10; fill: none; fill-rule: nonzero; opacity: 1" transform=" matrix(1 0 0 1 64 40) " stroke-linecap="round" />
<rect x="0" y="0" rx="0" ry="0" width="920" height="469" style="stroke: none; stroke-width: 0; stroke-dasharray: ; stroke-linecap: butt; stroke-linejoin: miter; stroke-miterlimit: 10; fill: transparent; fill-rule: nonzero; opacity: 1" transform=""/>
<path d="M 66.5 445.5 L 788.5 23.5 L 785.5 19.5 L 63.5 441.5 Z" style="stroke:#FCD202;stroke-opacity:0.005; stroke-width: 0; stroke-dasharray: ; stroke-linecap: butt; stroke-linejoin: miter; stroke-miterlimit: 10;fill:#FCD202;fill-opacity:0.005; fill-rule: nonzero; opacity: 1" transform=" matrix(1 0 0 1 64 40) " stroke-linecap="round" />
<path d="M 66.5 445.5 L 788.5 23.5" style="stroke:#FCD202;stroke-opacity:1; stroke-width: 1; stroke-dasharray: ; stroke-linecap: butt; stroke-linejoin: miter; stroke-miterlimit: 10; fill: none; fill-rule: nonzero; opacity: 1" transform=" matrix(1 0 0 1 64 40) " stroke-linecap="round" />
<rect x="0" y="0" rx="0" ry="0" width="920" height="469" style="stroke: none; stroke-width: 0; stroke-dasharray: ; stroke-linecap: butt; stroke-linejoin: miter; stroke-miterlimit: 10; fill: transparent; fill-rule: nonzero; opacity: 1" transform=""/>
<path d="M 0.5 468.5 L 919.5 468.5 L 919.5 468.5" style="stroke:#000000;stroke-opacity:0.3; stroke-width: 1; stroke-dasharray: 1 1; stroke-linecap: butt; stroke-linejoin: miter; stroke-miterlimit: 10; fill: none; fill-rule: nonzero; opacity: 1" transform=" matrix(1 0 0 1 64 40) " stroke-linecap="round" />
<path d="M 0.5 468.5 L 0.5 0.5 L 0.5 0.5" style="stroke:#000000;stroke-opacity:0.3; stroke-width: 1; stroke-dasharray: 1 1; stroke-linecap: butt; stroke-linejoin: miter; stroke-miterlimit: 10; fill: none; fill-rule: nonzero; opacity: 1" transform=" matrix(1 0 0 1 64 40) " stroke-linecap="round" />
<path d="M 0.5 0.5 L 919.5 0.5" style="stroke:#000000;stroke-opacity:0; stroke-width: 1; stroke-dasharray: ; stroke-linecap: butt; stroke-linejoin: miter; stroke-miterlimit: 10; fill: none; fill-rule: nonzero; opacity: 1" transform=" matrix(1 0 0 1 64 508) " stroke-linecap="round" />
<path d="M 0.5 0.5 L 0.5 468.5" style="stroke:#000000;stroke-opacity:0; stroke-width: 1; stroke-dasharray: ; stroke-linecap: butt; stroke-linejoin: miter; stroke-miterlimit: 10; fill: none; fill-rule: nonzero; opacity: 1" transform=" matrix(1 0 0 1 64 40) " stroke-linecap="round" />
<path d="M 0.5 0.5 L 0.5 468.5" style="stroke:#CC0000;stroke-opacity:1; stroke-width: 1; stroke-dasharray: ; stroke-linecap: butt; stroke-linejoin: miter; stroke-miterlimit: 10; fill: none; fill-rule: nonzero; opacity: 0" transform=" matrix(1 0 0 1 959 40) " stroke-linecap="round" />
<path d="M 0.5 0.5 L 919.5 0.5" style="stroke:#CC0000;stroke-opacity:1; stroke-width: 1; stroke-dasharray: ; stroke-linecap: butt; stroke-linejoin: miter; stroke-miterlimit: 10; fill: none; fill-rule: nonzero; opacity: 0" transform=" matrix(1 0 0 1 64 87) " stroke-linecap="round" />
<rect x="0.5" y="0.5" rx="0" ry="0" width="20" height="469" style="stroke:#D4D4D4;stroke-opacity:1; stroke-width: 1; stroke-dasharray: ; stroke-linecap: butt; stroke-linejoin: miter; stroke-miterlimit: 10;fill:#D4D4D4;fill-opacity:1; fill-rule: nonzero; opacity: 1" transform=" matrix(1 0 0 1 984 40) "/>
<rect x="0.5" y="0.5" rx="0" ry="0" width="20" height="469" style="stroke:#000000;stroke-opacity:0.005; stroke-width: 0; stroke-dasharray: ; stroke-linecap: butt; stroke-linejoin: miter; stroke-miterlimit: 10;fill:#000000;fill-opacity:0.005; fill-rule: nonzero; opacity: 1" transform=" matrix(1 0 0 1 984 40) "/>
<rect x="0.5" y="0.5" rx="0" ry="0" width="20" height="469" style="stroke:#EFEFEF;stroke-opacity:1; stroke-width: 0; stroke-dasharray: ; stroke-linecap: butt; stroke-linejoin: miter; stroke-miterlimit: 10;fill:#EFEFEF;fill-opacity:1; fill-rule: nonzero; opacity: 1" transform=" matrix(1 0 0 1 984 40) "/>
<rect x="0.5" y="0" rx="0" ry="0" width="20" height="469" style="stroke:#000000;stroke-opacity:0.005; stroke-width: 0; stroke-dasharray: ; stroke-linecap: butt; stroke-linejoin: miter; stroke-miterlimit: 10;fill:#000000;fill-opacity:0.005; fill-rule: nonzero; opacity: 1" transform=" matrix(1 0 0 1 984 40) "/>
<g transform=" matrix(1 0 0 1 977 23) ">
<image xlink:href="https://demo.cuba-platform.com/sampler/VAADIN/resources/amcharts/images/dragIconRoundBigH.svg" x="0" y="0" style="stroke: none; stroke-width: 1; stroke-dasharray: ; stroke-linecap: butt; stroke-linejoin: miter; stroke-miterlimit: 10;fill:#000000;fill-opacity:1; fill-rule: nonzero; opacity: 1" width="35" height="35" preserveAspectRatio="xMidYMid meet"></image>
</g>
<rect x="0.5" y="0.5" rx="0" ry="0" width="25" height="20" style="stroke:#000000;stroke-opacity:0.005; stroke-width: 0; stroke-dasharray: ; stroke-linecap: butt; stroke-linejoin: miter; stroke-miterlimit: 10;fill:#000000;fill-opacity:0.005; fill-rule: nonzero; opacity: 1" transform=" matrix(1 0 0 1 982 31) "/>
<g transform=" matrix(1 0 0 1 977 492) ">
<image xlink:href="https://demo.cuba-platform.com/sampler/VAADIN/resources/amcharts/images/dragIconRoundBigH.svg" x="0" y="0" style="stroke: none; stroke-width: 1; stroke-dasharray: ; stroke-linecap: butt; stroke-linejoin: miter; stroke-miterlimit: 10;fill:#000000;fill-opacity:1; fill-rule: nonzero; opacity: 1" width="35" height="35" preserveAspectRatio="xMidYMid meet"></image>
</g>
<rect x="0.5" y="0.5" rx="0" ry="0" width="25" height="20" style="stroke:#000000;stroke-opacity:0.005; stroke-width: 0; stroke-dasharray: ; stroke-linecap: butt; stroke-linejoin: miter; stroke-miterlimit: 10;fill:#000000;fill-opacity:0.005; fill-rule: nonzero; opacity: 1" transform=" matrix(1 0 0 1 982 500) "/>
<rect x="0" y="0" rx="0" ry="0" width="21" height="469" style="stroke: none; stroke-width: 0; stroke-dasharray: ; stroke-linecap: butt; stroke-linejoin: miter; stroke-miterlimit: 10; fill: transparent; fill-rule: nonzero; opacity: 1" transform=""/>
<rect x="0.5" y="0.5" rx="0" ry="0" width="920" height="20" style="stroke:#D4D4D4;stroke-opacity:1; stroke-width: 1; stroke-dasharray: ; stroke-linecap: butt; stroke-linejoin: miter; stroke-miterlimit: 10;fill:#D4D4D4;fill-opacity:1; fill-rule: nonzero; opacity: 1" transform=" matrix(1 0 0 1 64 20) "/>
<rect x="0.5" y="0.5" rx="0" ry="0" width="920" height="20" style="stroke:#000000;stroke-opacity:0.005; stroke-width: 0; stroke-dasharray: ; stroke-linecap: butt; stroke-linejoin: miter; stroke-miterlimit: 10;fill:#000000;fill-opacity:0.005; fill-rule: nonzero; opacity: 1" transform=" matrix(1 0 0 1 64 20) "/>
<rect x="0.5" y="0.5" rx="0" ry="0" width="920" height="20" style="stroke:#EFEFEF;stroke-opacity:1; stroke-width: 0; stroke-dasharray: ; stroke-linecap: butt; stroke-linejoin: miter; stroke-miterlimit: 10;fill:#EFEFEF;fill-opacity:1; fill-rule: nonzero; opacity: 1" transform=" matrix(1 0 0 1 64 20) "/>
<rect x="0" y="0.5" rx="0" ry="0" width="920" height="20" style="stroke:#000000;stroke-opacity:0.005; stroke-width: 0; stroke-dasharray: ; stroke-linecap: butt; stroke-linejoin: miter; stroke-miterlimit: 10;fill:#000000;fill-opacity:0.005; fill-rule: nonzero; opacity: 1" transform=" matrix(1 0 0 1 64 20) "/>
<g transform=" matrix(1 0 0 1 47 13) ">
<image xlink:href="https://demo.cuba-platform.com/sampler/VAADIN/resources/amcharts/images/dragIconRoundBig.svg" x="0" y="0" style="stroke: none; stroke-width: 1; stroke-dasharray: ; stroke-linecap: butt; stroke-linejoin: miter; stroke-miterlimit: 10;fill:#000000;fill-opacity:1; fill-rule: nonzero; opacity: 1" width="35" height="35" preserveAspectRatio="xMidYMid meet"></image>
</g>
<rect x="0.5" y="0.5" rx="0" ry="0" width="25" height="20" style="stroke:#000000;stroke-opacity:0.005; stroke-width: 0; stroke-dasharray: ; stroke-linecap: butt; stroke-linejoin: miter; stroke-miterlimit: 10;fill:#000000;fill-opacity:0.005; fill-rule: nonzero; opacity: 1" transform=" matrix(1 0 0 1 52 21) "/>
<g transform=" matrix(1 0 0 1 967 13) ">
<image xlink:href="https://demo.cuba-platform.com/sampler/VAADIN/resources/amcharts/images/dragIconRoundBig.svg" x="0" y="0" style="stroke: none; stroke-width: 1; stroke-dasharray: ; stroke-linecap: butt; stroke-linejoin: miter; stroke-miterlimit: 10;fill:#000000;fill-opacity:1; fill-rule: nonzero; opacity: 1" width="35" height="35" preserveAspectRatio="xMidYMid meet"></image>
</g>
<rect x="0.5" y="0.5" rx="0" ry="0" width="25" height="20" style="stroke:#000000;stroke-opacity:0.005; stroke-width: 0; stroke-dasharray: ; stroke-linecap: butt; stroke-linejoin: miter; stroke-miterlimit: 10;fill:#000000;fill-opacity:0.005; fill-rule: nonzero; opacity: 1" transform=" matrix(1 0 0 1 972 21) "/>
<rect x="0" y="0" rx="0" ry="0" width="920" height="21" style="stroke: none; stroke-width: 0; stroke-dasharray: ; stroke-linecap: butt; stroke-linejoin: miter; stroke-miterlimit: 10; fill: transparent; fill-rule: nonzero; opacity: 1" transform=""/>
<path d="M -4 4 L 0 -4 L 4 4 Z" style="stroke:#FF6600;stroke-opacity:0; stroke-width: 2; stroke-dasharray: ; stroke-linecap: butt; stroke-linejoin: miter; stroke-miterlimit: 10;fill:#FF6600;fill-opacity:1; fill-rule: nonzero; opacity: 1" transform=" matrix(1 0 0 1 130 496) " stroke-linecap="round" />
<path d="M -4 4 L 0 -4 L 4 4 Z" style="stroke:#FF6600;stroke-opacity:0; stroke-width: 2; stroke-dasharray: ; stroke-linecap: butt; stroke-linejoin: miter; stroke-miterlimit: 10;fill:#FF6600;fill-opacity:1; fill-rule: nonzero; opacity: 1" transform=" matrix(1 0 0 1 195 478) " stroke-linecap="round" />
<path d="M -4 4 L 0 -4 L 4 4 Z" style="stroke:#FF6600;stroke-opacity:0; stroke-width: 2; stroke-dasharray: ; stroke-linecap: butt; stroke-linejoin: miter; stroke-miterlimit: 10;fill:#FF6600;fill-opacity:1; fill-rule: nonzero; opacity: 1" transform=" matrix(1 0 0 1 261 454) " stroke-linecap="round" />
<path d="M -4 4 L 0 -4 L 4 4 Z" style="stroke:#FF6600;stroke-opacity:0; stroke-width: 2; stroke-dasharray: ; stroke-linecap: butt; stroke-linejoin: miter; stroke-miterlimit: 10;fill:#FF6600;fill-opacity:1; fill-rule: nonzero; opacity: 1" transform=" matrix(1 0 0 1 327 442) " stroke-linecap="round" />
<path d="M -4 4 L 0 -4 L 4 4 Z" style="stroke:#FF6600;stroke-opacity:0; stroke-width: 2; stroke-dasharray: ; stroke-linecap: butt; stroke-linejoin: miter; stroke-miterlimit: 10;fill:#FF6600;fill-opacity:1; fill-rule: nonzero; opacity: 1" transform=" matrix(1 0 0 1 392 426) " stroke-linecap="round" />
<path d="M -4 4 L 0 -4 L 4 4 Z" style="stroke:#FF6600;stroke-opacity:0; stroke-width: 2; stroke-dasharray: ; stroke-linecap: butt; stroke-linejoin: miter; stroke-miterlimit: 10;fill:#FF6600;fill-opacity:1; fill-rule: nonzero; opacity: 1" transform=" matrix(1 0 0 1 458 389) " stroke-linecap="round" />
<path d="M -4 4 L 0 -4 L 4 4 Z" style="stroke:#FF6600;stroke-opacity:0; stroke-width: 2; stroke-dasharray: ; stroke-linecap: butt; stroke-linejoin: miter; stroke-miterlimit: 10;fill:#FF6600;fill-opacity:1; fill-rule: nonzero; opacity: 1" transform=" matrix(1 0 0 1 524 351) " stroke-linecap="round" />
<path d="M -4 4 L 0 -4 L 4 4 Z" style="stroke:#FF6600;stroke-opacity:0; stroke-width: 2; stroke-dasharray: ; stroke-linecap: butt; stroke-linejoin: miter; stroke-miterlimit: 10;fill:#FF6600;fill-opacity:1; fill-rule: nonzero; opacity: 1" transform=" matrix(1 0 0 1 589 321) " stroke-linecap="round" />
<path d="M -4 4 L 0 -4 L 4 4 Z" style="stroke:#FF6600;stroke-opacity:0; stroke-width: 2; stroke-dasharray: ; stroke-linecap: butt; stroke-linejoin: miter; stroke-miterlimit: 10;fill:#FF6600;fill-opacity:1; fill-rule: nonzero; opacity: 1" transform=" matrix(1 0 0 1 655 300) " stroke-linecap="round" />
<path d="M -4 4 L 0 -4 L 4 4 Z" style="stroke:#FF6600;stroke-opacity:0; stroke-width: 2; stroke-dasharray: ; stroke-linecap: butt; stroke-linejoin: miter; stroke-miterlimit: 10;fill:#FF6600;fill-opacity:1; fill-rule: nonzero; opacity: 1" transform=" matrix(1 0 0 1 720 281) " stroke-linecap="round" />
<path d="M -4 4 L 0 -4 L 4 4 Z" style="stroke:#FF6600;stroke-opacity:0; stroke-width: 2; stroke-dasharray: ; stroke-linecap: butt; stroke-linejoin: miter; stroke-miterlimit: 10;fill:#FF6600;fill-opacity:1; fill-rule: nonzero; opacity: 1" transform=" matrix(1 0 0 1 786 265) " stroke-linecap="round" />
<path d="M -4 4 L 0 -4 L 4 4 Z" style="stroke:#FF6600;stroke-opacity:0; stroke-width: 2; stroke-dasharray: ; stroke-linecap: butt; stroke-linejoin: miter; stroke-miterlimit: 10;fill:#FF6600;fill-opacity:1; fill-rule: nonzero; opacity: 1" transform=" matrix(1 0 0 1 852 234) " stroke-linecap="round" />
<path d="M -4 -4 L 0 4 L 4 -4 Z" style="stroke:#FCD202;stroke-opacity:0; stroke-width: 2; stroke-dasharray: ; stroke-linecap: butt; stroke-linejoin: miter; stroke-miterlimit: 10;fill:#FCD202;fill-opacity:1; fill-rule: nonzero; opacity: 1" transform=" matrix(1 0 0 1 130 457) " stroke-linecap="round" />
<path d="M -4 -4 L 0 4 L 4 -4 Z" style="stroke:#FCD202;stroke-opacity:0; stroke-width: 2; stroke-dasharray: ; stroke-linecap: butt; stroke-linejoin: miter; stroke-miterlimit: 10;fill:#FCD202;fill-opacity:1; fill-rule: nonzero; opacity: 1" transform=" matrix(1 0 0 1 195 393) " stroke-linecap="round" />
<path d="M -4 -4 L 0 4 L 4 -4 Z" style="stroke:#FCD202;stroke-opacity:0; stroke-width: 2; stroke-dasharray: ; stroke-linecap: butt; stroke-linejoin: miter; stroke-miterlimit: 10;fill:#FCD202;fill-opacity:1; fill-rule: nonzero; opacity: 1" transform=" matrix(1 0 0 1 261 389) " stroke-linecap="round" />
<path d="M -4 -4 L 0 4 L 4 -4 Z" style="stroke:#FCD202;stroke-opacity:0; stroke-width: 2; stroke-dasharray: ; stroke-linecap: butt; stroke-linejoin: miter; stroke-miterlimit: 10;fill:#FCD202;fill-opacity:1; fill-rule: nonzero; opacity: 1" transform=" matrix(1 0 0 1 327 384) " stroke-linecap="round" />
<path d="M -4 -4 L 0 4 L 4 -4 Z" style="stroke:#FCD202;stroke-opacity:0; stroke-width: 2; stroke-dasharray: ; stroke-linecap: butt; stroke-linejoin: miter; stroke-miterlimit: 10;fill:#FCD202;fill-opacity:1; fill-rule: nonzero; opacity: 1" transform=" matrix(1 0 0 1 392 365) " stroke-linecap="round" />
<path d="M -4 -4 L 0 4 L 4 -4 Z" style="stroke:#FCD202;stroke-opacity:0; stroke-width: 2; stroke-dasharray: ; stroke-linecap: butt; stroke-linejoin: miter; stroke-miterlimit: 10;fill:#FCD202;fill-opacity:1; fill-rule: nonzero; opacity: 1" transform=" matrix(1 0 0 1 458 314) " stroke-linecap="round" />
<path d="M -4 -4 L 0 4 L 4 -4 Z" style="stroke:#FCD202;stroke-opacity:0; stroke-width: 2; stroke-dasharray: ; stroke-linecap: butt; stroke-linejoin: miter; stroke-miterlimit: 10;fill:#FCD202;fill-opacity:1; fill-rule: nonzero; opacity: 1" transform=" matrix(1 0 0 1 524 262) " stroke-linecap="round" />
<path d="M -4 -4 L 0 4 L 4 -4 Z" style="stroke:#FCD202;stroke-opacity:0; stroke-width: 2; stroke-dasharray: ; stroke-linecap: butt; stroke-linejoin: miter; stroke-miterlimit: 10;fill:#FCD202;fill-opacity:1; fill-rule: nonzero; opacity: 1" transform=" matrix(1 0 0 1 589 220) " stroke-linecap="round" />
<path d="M -4 -4 L 0 4 L 4 -4 Z" style="stroke:#FCD202;stroke-opacity:0; stroke-width: 2; stroke-dasharray: ; stroke-linecap: butt; stroke-linejoin: miter; stroke-miterlimit: 10;fill:#FCD202;fill-opacity:1; fill-rule: nonzero; opacity: 1" transform=" matrix(1 0 0 1 655 169) " stroke-linecap="round" />
<path d="M -4 -4 L 0 4 L 4 -4 Z" style="stroke:#FCD202;stroke-opacity:0; stroke-width: 2; stroke-dasharray: ; stroke-linecap: butt; stroke-linejoin: miter; stroke-miterlimit: 10;fill:#FCD202;fill-opacity:1; fill-rule: nonzero; opacity: 1" transform=" matrix(1 0 0 1 720 157) " stroke-linecap="round" />
<path d="M -4 -4 L 0 4 L 4 -4 Z" style="stroke:#FCD202;stroke-opacity:0; stroke-width: 2; stroke-dasharray: ; stroke-linecap: butt; stroke-linejoin: miter; stroke-miterlimit: 10;fill:#FCD202;fill-opacity:1; fill-rule: nonzero; opacity: 1" transform=" matrix(1 0 0 1 786 68) " stroke-linecap="round" />
<path d="M -4 -4 L 0 4 L 4 -4 Z" style="stroke:#FCD202;stroke-opacity:0; stroke-width: 2; stroke-dasharray: ; stroke-linecap: butt; stroke-linejoin: miter; stroke-miterlimit: 10;fill:#FCD202;fill-opacity:1; fill-rule: nonzero; opacity: 1" transform=" matrix(1 0 0 1 852 63) " stroke-linecap="round" />
	<g transform=" matrix(1 0 0 1 64 525.5) ">
		<text font-family="Verdana" font-size="11" font-weight="normal" style="stroke: none; stroke-width: 1; stroke-dasharray: ; stroke-linecap: butt; stroke-linejoin: miter; stroke-miterlimit: 10;fill:#000000;fill-opacity:1; fill-rule: nonzero; opacity: 1" ><tspan x="-3.5" y="5.9912" fill="rgba(0,0,0,1)">0</tspan></text>
	</g>
	<g transform=" matrix(1 0 0 1 195 525.5) ">
		<text font-family="Verdana" font-size="11" font-weight="normal" style="stroke: none; stroke-width: 1; stroke-dasharray: ; stroke-linecap: butt; stroke-linejoin: miter; stroke-miterlimit: 10;fill:#000000;fill-opacity:1; fill-rule: nonzero; opacity: 1" ><tspan x="-3.5" y="5.9912" fill="rgba(0,0,0,1)">2</tspan></text>
	</g>
	<g transform=" matrix(1 0 0 1 327 525.5) ">
		<text font-family="Verdana" font-size="11" font-weight="normal" style="stroke: none; stroke-width: 1; stroke-dasharray: ; stroke-linecap: butt; stroke-linejoin: miter; stroke-miterlimit: 10;fill:#000000;fill-opacity:1; fill-rule: nonzero; opacity: 1" ><tspan x="-3.5" y="5.9912" fill="rgba(0,0,0,1)">4</tspan></text>
	</g>
	<g transform=" matrix(1 0 0 1 458 525.5) ">
		<text font-family="Verdana" font-size="11" font-weight="normal" style="stroke: none; stroke-width: 1; stroke-dasharray: ; stroke-linecap: butt; stroke-linejoin: miter; stroke-miterlimit: 10;fill:#000000;fill-opacity:1; fill-rule: nonzero; opacity: 1" ><tspan x="-3.5" y="5.9912" fill="rgba(0,0,0,1)">6</tspan></text>
	</g>
	<g transform=" matrix(1 0 0 1 589 525.5) ">
		<text font-family="Verdana" font-size="11" font-weight="normal" style="stroke: none; stroke-width: 1; stroke-dasharray: ; stroke-linecap: butt; stroke-linejoin: miter; stroke-miterlimit: 10;fill:#000000;fill-opacity:1; fill-rule: nonzero; opacity: 1" ><tspan x="-3.5" y="5.9912" fill="rgba(0,0,0,1)">8</tspan></text>
	</g>
	<g transform=" matrix(1 0 0 1 720 525.5) ">
		<text font-family="Verdana" font-size="11" font-weight="normal" style="stroke: none; stroke-width: 1; stroke-dasharray: ; stroke-linecap: butt; stroke-linejoin: miter; stroke-miterlimit: 10;fill:#000000;fill-opacity:1; fill-rule: nonzero; opacity: 1" ><tspan x="-7" y="5.9912" fill="rgba(0,0,0,1)">10</tspan></text>
	</g>
	<g transform=" matrix(1 0 0 1 852 525.5) ">
		<text font-family="Verdana" font-size="11" font-weight="normal" style="stroke: none; stroke-width: 1; stroke-dasharray: ; stroke-linecap: butt; stroke-linejoin: miter; stroke-miterlimit: 10;fill:#000000;fill-opacity:1; fill-rule: nonzero; opacity: 1" ><tspan x="-7" y="5.9912" fill="rgba(0,0,0,1)">12</tspan></text>
	</g>
	<g transform=" matrix(1 0 0 1 983 525.5) ">
		<text font-family="Verdana" font-size="11" font-weight="normal" style="stroke: none; stroke-width: 1; stroke-dasharray: ; stroke-linecap: butt; stroke-linejoin: miter; stroke-miterlimit: 10;fill:#000000;fill-opacity:1; fill-rule: nonzero; opacity: 1" ><tspan x="-7" y="5.9912" fill="rgba(0,0,0,1)">14</tspan></text>
	</g>
	<g transform=" matrix(1 0 0 1 524 551) ">
		<text font-family="Verdana" font-size="12" font-weight="bold" style="stroke: none; stroke-width: 1; stroke-dasharray: ; stroke-linecap: butt; stroke-linejoin: miter; stroke-miterlimit: 10;fill:#000000;fill-opacity:1; fill-rule: nonzero; opacity: 1" ><tspan x="-20.5" y="5.9904" fill="rgba(0,0,0,1)">X Axis</tspan></text>
	</g>
	<g transform=" matrix(1 0 0 1 52 507) ">
		<text font-family="Verdana" font-size="11" font-weight="normal" style="stroke: none; stroke-width: 1; stroke-dasharray: ; stroke-linecap: butt; stroke-linejoin: miter; stroke-miterlimit: 10;fill:#000000;fill-opacity:1; fill-rule: nonzero; opacity: 1" ><tspan x="-7" y="5.9912" fill="rgba(0,0,0,1)">0</tspan></text>
	</g>
	<g transform=" matrix(1 0 0 1 52 460) ">
		<text font-family="Verdana" font-size="11" font-weight="normal" style="stroke: none; stroke-width: 1; stroke-dasharray: ; stroke-linecap: butt; stroke-linejoin: miter; stroke-miterlimit: 10;fill:#000000;fill-opacity:1; fill-rule: nonzero; opacity: 1" ><tspan x="-7" y="5.9912" fill="rgba(0,0,0,1)">2</tspan></text>
	</g>
	<g transform=" matrix(1 0 0 1 52 413) ">
		<text font-family="Verdana" font-size="11" font-weight="normal" style="stroke: none; stroke-width: 1; stroke-dasharray: ; stroke-linecap: butt; stroke-linejoin: miter; stroke-miterlimit: 10;fill:#000000;fill-opacity:1; fill-rule: nonzero; opacity: 1" ><tspan x="-7" y="5.9912" fill="rgba(0,0,0,1)">4</tspan></text>
	</g>
	<g transform=" matrix(1 0 0 1 52 367) ">
		<text font-family="Verdana" font-size="11" font-weight="normal" style="stroke: none; stroke-width: 1; stroke-dasharray: ; stroke-linecap: butt; stroke-linejoin: miter; stroke-miterlimit: 10;fill:#000000;fill-opacity:1; fill-rule: nonzero; opacity: 1" ><tspan x="-7" y="5.9912" fill="rgba(0,0,0,1)">6</tspan></text>
	</g>
	<g transform=" matrix(1 0 0 1 52 320) ">
		<text font-family="Verdana" font-size="11" font-weight="normal" style="stroke: none; stroke-width: 1; stroke-dasharray: ; stroke-linecap: butt; stroke-linejoin: miter; stroke-miterlimit: 10;fill:#000000;fill-opacity:1; fill-rule: nonzero; opacity: 1" ><tspan x="-7" y="5.9912" fill="rgba(0,0,0,1)">8</tspan></text>
	</g>
	<g transform=" matrix(1 0 0 1 52 273) ">
		<text font-family="Verdana" font-size="11" font-weight="normal" style="stroke: none; stroke-width: 1; stroke-dasharray: ; stroke-linecap: butt; stroke-linejoin: miter; stroke-miterlimit: 10;fill:#000000;fill-opacity:1; fill-rule: nonzero; opacity: 1" ><tspan x="-14" y="5.9912" fill="rgba(0,0,0,1)">10</tspan></text>
	</g>
	<g transform=" matrix(1 0 0 1 52 226) ">
		<text font-family="Verdana" font-size="11" font-weight="normal" style="stroke: none; stroke-width: 1; stroke-dasharray: ; stroke-linecap: butt; stroke-linejoin: miter; stroke-miterlimit: 10;fill:#000000;fill-opacity:1; fill-rule: nonzero; opacity: 1" ><tspan x="-14" y="5.9912" fill="rgba(0,0,0,1)">12</tspan></text>
	</g>
	<g transform=" matrix(1 0 0 1 52 179) ">
		<text font-family="Verdana" font-size="11" font-weight="normal" style="stroke: none; stroke-width: 1; stroke-dasharray: ; stroke-linecap: butt; stroke-linejoin: miter; stroke-miterlimit: 10;fill:#000000;fill-opacity:1; fill-rule: nonzero; opacity: 1" ><tspan x="-14" y="5.9912" fill="rgba(0,0,0,1)">14</tspan></text>
	</g>
	<g transform=" matrix(1 0 0 1 52 133) ">
		<text font-family="Verdana" font-size="11" font-weight="normal" style="stroke: none; stroke-width: 1; stroke-dasharray: ; stroke-linecap: butt; stroke-linejoin: miter; stroke-miterlimit: 10;fill:#000000;fill-opacity:1; fill-rule: nonzero; opacity: 1" ><tspan x="-14" y="5.9912" fill="rgba(0,0,0,1)">16</tspan></text>
	</g>
	<g transform=" matrix(1 0 0 1 52 86) ">
		<text font-family="Verdana" font-size="11" font-weight="normal" style="stroke: none; stroke-width: 1; stroke-dasharray: ; stroke-linecap: butt; stroke-linejoin: miter; stroke-miterlimit: 10;fill:#000000;fill-opacity:1; fill-rule: nonzero; opacity: 1" ><tspan x="-14" y="5.9912" fill="rgba(0,0,0,1)">18</tspan></text>
	</g>
	<g transform=" matrix(1 0 0 1 52 39) ">
		<text font-family="Verdana" font-size="11" font-weight="normal" style="stroke: none; stroke-width: 1; stroke-dasharray: ; stroke-linecap: butt; stroke-linejoin: miter; stroke-miterlimit: 10;fill:#000000;fill-opacity:1; fill-rule: nonzero; opacity: 1" ><tspan x="-14" y="5.9912" fill="rgba(0,0,0,1)">20</tspan></text>
	</g>
	<g transform=" matrix(6.123233995736766e-17 -1 1 6.123233995736766e-17 21 274) ">
		<text font-family="Verdana" font-size="12" font-weight="bold" style="stroke: none; stroke-width: 1; stroke-dasharray: ; stroke-linecap: butt; stroke-linejoin: miter; stroke-miterlimit: 10;fill:#000000;fill-opacity:1; fill-rule: nonzero; opacity: 1" ><tspan x="-20.5" y="5.9904" fill="rgba(0,0,0,1)">Y Axis</tspan></text>
	</g>
<rect x="64" y="40" rx="0" ry="0" width="920" height="469" style="stroke: none; stroke-width: 0; stroke-dasharray: ; stroke-linecap: butt; stroke-linejoin: miter; stroke-miterlimit: 10; fill: transparent; fill-rule: nonzero; opacity: 1" transform=""/>
<rect x="64" y="40" rx="0" ry="0" width="920" height="469" style="stroke: none; stroke-width: 0; stroke-dasharray: ; stroke-linecap: butt; stroke-linejoin: miter; stroke-miterlimit: 10; fill: transparent; fill-rule: nonzero; opacity: 1" transform=""/>
<rect x="64" y="40" rx="0" ry="0" width="920" height="469" style="stroke: none; stroke-width: 0; stroke-dasharray: ; stroke-linecap: butt; stroke-linejoin: miter; stroke-miterlimit: 10; fill: transparent; fill-rule: nonzero; opacity: 1" transform=""/>
</g>
	<g transform="translate(130.5 52.21)">
		<text font-family="Verdana" font-size="11" font-weight="normal" style="stroke: none; stroke-width: 1; stroke-dasharray: ; stroke-linecap: butt; stroke-linejoin: miter; stroke-miterlimit: 10;fill:#000000;fill-opacity:1; fill-rule: nonzero; opacity: 1" ><tspan x="-61.5" y="2.4706" fill="rgb(0, 0, 0)">JS chart by amCharts</tspan></text>
	</g>
</svg>