<?xml version="1.0" encoding="UTF-8"?><svg xmlns="http://www.w3.org/2000/svg" xmlns:xlink="http://www.w3.org/1999/xlink" fill-opacity="1" color-rendering="auto" color-interpolation="auto" text-rendering="auto" stroke="black" stroke-linecap="square" width="388" stroke-miterlimit="10" shape-rendering="auto" stroke-opacity="1" fill="black" stroke-dasharray="none" font-weight="normal" stroke-width="1" height="291" font-family="'Dialog'" font-style="normal" stroke-linejoin="miter" font-size="12px" stroke-dashoffset="0" image-rendering="auto">
  <!--Generated by ySVG 2.5-->
  <defs id="genericDefs"/>
  <g>
    <defs id="defs1">
      <clipPath clipPathUnits="userSpaceOnUse" id="clipPath1">
        <path d="M0 0 L388 0 L388 291 L0 291 L0 0 Z"/>
      </clipPath>
      <clipPath clipPathUnits="userSpaceOnUse" id="clipPath2">
        <path d="M213 129 L601 129 L601 420 L213 420 L213 129 Z"/>
      </clipPath>
      <clipPath clipPathUnits="userSpaceOnUse" id="clipPath3">
        <path d="M329 144 L329 199 L478 199 L478 144 Z"/>
      </clipPath>
      <clipPath clipPathUnits="userSpaceOnUse" id="clipPath4">
        <path d="M437 247 L437 302 L586 302 L586 247 Z"/>
      </clipPath>
      <clipPath clipPathUnits="userSpaceOnUse" id="clipPath5">
        <path d="M228 247 L228 302 L377 302 L377 247 Z"/>
      </clipPath>
      <clipPath clipPathUnits="userSpaceOnUse" id="clipPath6">
        <path d="M228 350 L228 405 L377 405 L377 350 Z"/>
      </clipPath>
    </defs>
    <g fill="white" text-rendering="geometricPrecision" shape-rendering="geometricPrecision" transform="translate(-213,-129)" stroke="white">
      <rect x="213" width="388" height="291" y="129" clip-path="url(#clipPath2)" stroke="none"/>
    </g>
    <g fill="rgb(238,238,238)" text-rendering="geometricPrecision" shape-rendering="geometricPrecision" transform="matrix(1,0,0,1,-213,-129)" stroke="rgb(238,238,238)">
      <rect x="329" width="149" height="55" y="144" clip-path="url(#clipPath2)" stroke="none"/>
    </g>
    <g text-rendering="geometricPrecision" stroke-miterlimit="1.45" shape-rendering="geometricPrecision" transform="matrix(1,0,0,1,-213,-129)" stroke-linecap="butt">
      <rect fill="none" x="329" width="149" height="55" y="144" clip-path="url(#clipPath2)"/>
      <text x="344.8066" xml:space="preserve" y="160.6016" clip-path="url(#clipPath3)" font-family="sans-serif" stroke="none">&lt;&lt;abstract class&gt;&gt;</text>
      <text x="381.4863" font-size="13px" y="184.7012" clip-path="url(#clipPath3)" font-family="sans-serif" stroke="none" font-weight="bold" xml:space="preserve">Screen</text>
    </g>
    <g fill="rgb(238,238,238)" text-rendering="geometricPrecision" shape-rendering="geometricPrecision" transform="matrix(1,0,0,1,-213,-129)" stroke="rgb(238,238,238)">
      <rect x="437" width="149" height="55" y="247" clip-path="url(#clipPath2)" stroke="none"/>
    </g>
    <g text-rendering="geometricPrecision" stroke-miterlimit="1.45" shape-rendering="geometricPrecision" transform="matrix(1,0,0,1,-213,-129)" stroke-linecap="butt">
      <rect fill="none" x="437" width="149" height="55" y="247" clip-path="url(#clipPath2)"/>
      <text x="452.8066" xml:space="preserve" y="263.6016" clip-path="url(#clipPath4)" font-family="sans-serif" stroke="none">&lt;&lt;abstract class&gt;&gt;</text>
      <text x="461.6074" font-size="13px" y="287.7012" clip-path="url(#clipPath4)" font-family="sans-serif" stroke="none" font-weight="bold" xml:space="preserve">StandardEditor</text>
    </g>
    <g fill="rgb(238,238,238)" text-rendering="geometricPrecision" shape-rendering="geometricPrecision" transform="matrix(1,0,0,1,-213,-129)" stroke="rgb(238,238,238)">
      <rect x="228" width="149" height="55" y="247" clip-path="url(#clipPath2)" stroke="none"/>
    </g>
    <g text-rendering="geometricPrecision" stroke-miterlimit="1.45" shape-rendering="geometricPrecision" transform="matrix(1,0,0,1,-213,-129)" stroke-linecap="butt">
      <rect fill="none" x="228" width="149" height="55" y="247" clip-path="url(#clipPath2)"/>
      <text x="243.8066" xml:space="preserve" y="263.6016" clip-path="url(#clipPath5)" font-family="sans-serif" stroke="none">&lt;&lt;abstract class&gt;&gt;</text>
      <text x="247.9006" font-size="13px" y="287.7012" clip-path="url(#clipPath5)" font-family="sans-serif" stroke="none" font-weight="bold" xml:space="preserve">StandardLookup</text>
    </g>
    <g fill="rgb(238,238,238)" text-rendering="geometricPrecision" shape-rendering="geometricPrecision" transform="matrix(1,0,0,1,-213,-129)" stroke="rgb(238,238,238)">
      <rect x="228" width="149" height="55" y="350" clip-path="url(#clipPath2)" stroke="none"/>
    </g>
    <g text-rendering="geometricPrecision" stroke-miterlimit="1.45" shape-rendering="geometricPrecision" transform="matrix(1,0,0,1,-213,-129)" stroke-linecap="butt">
      <rect fill="none" x="228" width="149" height="55" y="350" clip-path="url(#clipPath2)"/>
      <text x="243.8066" xml:space="preserve" y="366.6016" clip-path="url(#clipPath6)" font-family="sans-serif" stroke="none">&lt;&lt;abstract class&gt;&gt;</text>
      <text x="238.0459" font-size="13px" y="390.7012" clip-path="url(#clipPath6)" font-family="sans-serif" stroke="none" font-weight="bold" xml:space="preserve">MasterDetailScreen</text>
      <path fill="none" d="M482.6807 247.0149 L443.1777 209.3408" clip-path="url(#clipPath2)"/>
      <path fill="white" d="M432.3228 198.9884 L439.7605 214.3729 L448.0423 205.689 Z" clip-path="url(#clipPath2)" stroke="none"/>
      <path fill="none" d="M432.3228 198.9884 L439.7605 214.3729 L448.0423 205.689 Z" clip-path="url(#clipPath2)"/>
      <path fill="none" d="M329.4514 247.0149 L366.0432 209.6985" clip-path="url(#clipPath2)"/>
      <path fill="white" d="M376.5453 198.9884 L361.059 206.2117 L369.6271 214.6134 Z" clip-path="url(#clipPath2)" stroke="none"/>
      <path fill="none" d="M376.5453 198.9884 L361.059 206.2117 L369.6271 214.6134 Z" clip-path="url(#clipPath2)"/>
      <path fill="none" d="M302.5 350.0149 L302.5 316.97" clip-path="url(#clipPath2)"/>
      <path fill="white" d="M302.5 301.97 L296.5 317.97 L308.5 317.97 Z" clip-path="url(#clipPath2)" stroke="none"/>
      <path fill="none" d="M302.5 301.97 L296.5 317.97 L308.5 317.97 Z" clip-path="url(#clipPath2)"/>
    </g>
  </g>
</svg>
