<?xml version="1.0" encoding="UTF-8"?><svg xmlns="http://www.w3.org/2000/svg" xmlns:xlink="http://www.w3.org/1999/xlink" fill-opacity="1" color-rendering="auto" color-interpolation="auto" text-rendering="auto" stroke="black" stroke-linecap="square" width="455" stroke-miterlimit="10" shape-rendering="auto" stroke-opacity="1" fill="black" stroke-dasharray="none" font-weight="normal" stroke-width="1" height="341" font-family="'Dialog'" font-style="normal" stroke-linejoin="miter" font-size="12px" stroke-dashoffset="0" image-rendering="auto">
  <!--Generated by ySVG 2.5-->
  <defs id="genericDefs"/>
  <g>
    <defs id="defs1">
      <clipPath clipPathUnits="userSpaceOnUse" id="clipPath1">
        <path d="M0 0 L455 0 L455 341 L0 341 L0 0 Z"/>
      </clipPath>
      <clipPath clipPathUnits="userSpaceOnUse" id="clipPath2">
        <path d="M203 81 L658 81 L658 422 L203 422 L203 81 Z"/>
      </clipPath>
      <clipPath clipPathUnits="userSpaceOnUse" id="clipPath3">
        <path d="M218 310 L218 407 L423 407 L423 310 Z"/>
      </clipPath>
      <clipPath clipPathUnits="userSpaceOnUse" id="clipPath4">
        <path d="M438 310 L438 407 L643 407 L643 310 Z"/>
      </clipPath>
      <clipPath clipPathUnits="userSpaceOnUse" id="clipPath5">
        <path d="M354 96 L354 149 L503 149 L503 96 Z"/>
      </clipPath>
      <clipPath clipPathUnits="userSpaceOnUse" id="clipPath6">
        <path d="M246 179 L246 265 L395 265 L395 179 Z"/>
      </clipPath>
      <clipPath clipPathUnits="userSpaceOnUse" id="clipPath7">
        <path d="M466 179 L466 265 L615 265 L615 179 Z"/>
      </clipPath>
    </defs>
    <g fill="white" text-rendering="geometricPrecision" shape-rendering="geometricPrecision" transform="translate(-203,-81)" stroke="white">
      <rect x="203" width="455" height="341" y="81" clip-path="url(#clipPath2)" stroke="none"/>
    </g>
    <g fill="rgb(238,238,238)" text-rendering="geometricPrecision" shape-rendering="geometricPrecision" transform="matrix(1,0,0,1,-203,-81)" stroke="rgb(238,238,238)">
      <rect x="218" width="205" height="97" y="310" clip-path="url(#clipPath2)" stroke="none"/>
    </g>
    <g text-rendering="geometricPrecision" stroke-miterlimit="1.45" shape-rendering="geometricPrecision" transform="matrix(1,0,0,1,-203,-81)" stroke-linecap="butt">
      <rect fill="none" x="218" width="205" height="97" y="310" clip-path="url(#clipPath2)"/>
      <text x="275.9863" xml:space="preserve" y="326.6016" clip-path="url(#clipPath3)" font-family="sans-serif" stroke="none">&lt;&lt;interface&gt;&gt;</text>
      <text x="294.1763" font-size="13px" y="350.7012" clip-path="url(#clipPath3)" font-family="sans-serif" stroke="none" font-weight="bold" xml:space="preserve">Window</text>
      <line stroke-linecap="square" clip-path="url(#clipPath3)" fill="none" x1="219" x2="422" y1="358" y2="358" stroke-miterlimit="10"/>
      <line stroke-linecap="square" clip-path="url(#clipPath3)" fill="none" x1="219" x2="422" y1="368" y2="368" stroke-miterlimit="10"/>
      <text x="223" xml:space="preserve" y="385.0449" clip-path="url(#clipPath3)" font-family="sans-serif" stroke="none">getFrameOwner: Screen</text>
    </g>
    <g fill="rgb(238,238,238)" text-rendering="geometricPrecision" shape-rendering="geometricPrecision" transform="matrix(1,0,0,1,-203,-81)" stroke="rgb(238,238,238)">
      <rect x="438" width="205" height="97" y="310" clip-path="url(#clipPath2)" stroke="none"/>
    </g>
    <g text-rendering="geometricPrecision" stroke-miterlimit="1.45" shape-rendering="geometricPrecision" transform="matrix(1,0,0,1,-203,-81)" stroke-linecap="butt">
      <rect fill="none" x="438" width="205" height="97" y="310" clip-path="url(#clipPath2)"/>
      <text x="495.9863" xml:space="preserve" y="326.6016" clip-path="url(#clipPath4)" font-family="sans-serif" stroke="none">&lt;&lt;interface&gt;&gt;</text>
      <text x="508.6887" font-size="13px" y="350.7012" clip-path="url(#clipPath4)" font-family="sans-serif" stroke="none" font-weight="bold" xml:space="preserve">Fragment</text>
      <line stroke-linecap="square" clip-path="url(#clipPath4)" fill="none" x1="439" x2="642" y1="358" y2="358" stroke-miterlimit="10"/>
      <line stroke-linecap="square" clip-path="url(#clipPath4)" fill="none" x1="439" x2="642" y1="368" y2="368" stroke-miterlimit="10"/>
      <text x="443" xml:space="preserve" y="385.0449" clip-path="url(#clipPath4)" font-family="sans-serif" stroke="none">getFrameOwner: ScreenFragment</text>
    </g>
    <g fill="rgb(238,238,238)" text-rendering="geometricPrecision" shape-rendering="geometricPrecision" transform="matrix(1,0,0,1,-203,-81)" stroke="rgb(238,238,238)">
      <rect x="354" width="149" height="53" y="96.5" clip-path="url(#clipPath2)" stroke="none"/>
    </g>
    <g text-rendering="geometricPrecision" stroke-miterlimit="1.45" shape-rendering="geometricPrecision" transform="matrix(1,0,0,1,-203,-81)" stroke-linecap="butt">
      <rect fill="none" x="354" width="149" height="53" y="96.5" clip-path="url(#clipPath2)"/>
      <text x="361.4131" xml:space="preserve" y="113.1016" clip-path="url(#clipPath5)" font-family="sans-serif" stroke="none">&lt;&lt;marker interface&gt;&gt;</text>
      <text x="385.8882" font-size="13px" y="137.2012" clip-path="url(#clipPath5)" font-family="sans-serif" stroke="none" font-weight="bold" xml:space="preserve">FrameOwner</text>
    </g>
    <g fill="rgb(238,238,238)" text-rendering="geometricPrecision" shape-rendering="geometricPrecision" transform="matrix(1,0,0,1,-203,-81)" stroke="rgb(238,238,238)">
      <rect x="246" width="149" height="86" y="179.5" clip-path="url(#clipPath2)" stroke="none"/>
    </g>
    <g text-rendering="geometricPrecision" stroke-miterlimit="1.45" shape-rendering="geometricPrecision" transform="matrix(1,0,0,1,-203,-81)" stroke-linecap="butt">
      <rect fill="none" x="246" width="149" height="86" y="179.5" clip-path="url(#clipPath2)"/>
      <text x="261.8066" xml:space="preserve" y="196.1016" clip-path="url(#clipPath6)" font-family="sans-serif" stroke="none">&lt;&lt;abstract class&gt;&gt;</text>
      <text x="298.4863" font-size="13px" y="220.2012" clip-path="url(#clipPath6)" font-family="sans-serif" stroke="none" font-weight="bold" xml:space="preserve">Screen</text>
      <line stroke-linecap="square" clip-path="url(#clipPath6)" fill="none" x1="247" x2="394" y1="227" y2="227" stroke-miterlimit="10"/>
      <line stroke-linecap="square" clip-path="url(#clipPath6)" fill="none" x1="247" x2="394" y1="237" y2="237" stroke-miterlimit="10"/>
      <text x="251" xml:space="preserve" y="254.5449" clip-path="url(#clipPath6)" font-family="sans-serif" stroke="none">getWindow: Window</text>
    </g>
    <g fill="rgb(238,238,238)" text-rendering="geometricPrecision" shape-rendering="geometricPrecision" transform="matrix(1,0,0,1,-203,-81)" stroke="rgb(238,238,238)">
      <rect x="466" width="149" height="86" y="179.5" clip-path="url(#clipPath2)" stroke="none"/>
    </g>
    <g text-rendering="geometricPrecision" stroke-miterlimit="1.45" shape-rendering="geometricPrecision" transform="matrix(1,0,0,1,-203,-81)" stroke-linecap="butt">
      <rect fill="none" x="466" width="149" height="86" y="179.5" clip-path="url(#clipPath2)"/>
      <text x="481.8066" xml:space="preserve" y="196.1016" clip-path="url(#clipPath7)" font-family="sans-serif" stroke="none">&lt;&lt;abstract class&gt;&gt;</text>
      <text x="486.675" font-size="13px" y="220.2012" clip-path="url(#clipPath7)" font-family="sans-serif" stroke="none" font-weight="bold" xml:space="preserve">ScreenFragment</text>
      <line stroke-linecap="square" clip-path="url(#clipPath7)" fill="none" x1="467" x2="614" y1="227" y2="227" stroke-miterlimit="10"/>
      <line stroke-linecap="square" clip-path="url(#clipPath7)" fill="none" x1="467" x2="614" y1="237" y2="237" stroke-miterlimit="10"/>
      <text x="471" xml:space="preserve" y="254.5449" clip-path="url(#clipPath7)" font-family="sans-serif" stroke="none">getFragment: Fragment</text>
      <path fill="none" d="M367.1963 179.4789 L388.7021 159.6656" clip-path="url(#clipPath2)"/>
      <path fill="white" d="M399.7339 149.5021 L383.9012 155.9305 L392.0321 164.756 Z" clip-path="url(#clipPath2)" stroke="none"/>
      <path fill="none" d="M399.7339 149.5021 L383.9012 155.9305 L392.0321 164.756 Z" clip-path="url(#clipPath2)"/>
      <path fill="none" d="M320.5 265.498 L320.5 309.9555" clip-path="url(#clipPath2)"/>
      <path fill="none" d="M492.0742 179.4789 L469.5453 159.4644" clip-path="url(#clipPath2)"/>
      <path fill="white" d="M458.3315 149.5021 L466.308 164.6141 L474.2779 155.643 Z" clip-path="url(#clipPath2)" stroke="none"/>
      <path fill="none" d="M458.3315 149.5021 L466.308 164.6141 L474.2779 155.643 Z" clip-path="url(#clipPath2)"/>
      <path fill="none" d="M540.5 265.498 L540.5 309.9555" clip-path="url(#clipPath2)"/>
    </g>
  </g>
</svg>
