<?xml version="1.0" encoding="UTF-8"?><svg xmlns="http://www.w3.org/2000/svg" xmlns:xlink="http://www.w3.org/1999/xlink" fill-opacity="1" color-rendering="auto" color-interpolation="auto" text-rendering="auto" stroke="black" stroke-linecap="square" width="571" stroke-miterlimit="10" shape-rendering="auto" stroke-opacity="1" fill="black" stroke-dasharray="none" font-weight="normal" stroke-width="1" height="411" font-family="'Dialog'" font-style="normal" stroke-linejoin="miter" font-size="12px" stroke-dashoffset="0" image-rendering="auto">
  <!--Generated by ySVG 2.5-->
  <defs id="genericDefs"/>
  <g>
    <defs id="defs1">
      <clipPath clipPathUnits="userSpaceOnUse" id="clipPath1">
        <path d="M0 0 L571 0 L571 411 L0 411 L0 0 Z"/>
      </clipPath>
      <clipPath clipPathUnits="userSpaceOnUse" id="clipPath2">
        <path d="M5 -396 L576 -396 L576 15 L5 15 L5 -396 Z"/>
      </clipPath>
    </defs>
    <g fill="white" text-rendering="geometricPrecision" shape-rendering="geometricPrecision" transform="translate(-5,396)" stroke="white">
      <rect x="5" width="571" height="411" y="-396" clip-path="url(#clipPath2)" stroke="none"/>
    </g>
    <g stroke-linecap="butt" transform="matrix(1,0,0,1,-5,396)" fill="rgb(0,107,172)" text-rendering="geometricPrecision" shape-rendering="geometricPrecision" stroke="rgb(0,107,172)" stroke-miterlimit="1.45">
      <rect fill="none" x="325.5" width="160" height="60" y="-381" clip-path="url(#clipPath2)"/>
      <text x="384.3008" font-size="16px" y="-344.9531" clip-path="url(#clipPath2)" font-family="sans-serif" stroke="none" xml:space="preserve">CUBA</text>
    </g>
    <g fill="rgb(242,242,242)" text-rendering="geometricPrecision" shape-rendering="geometricPrecision" transform="matrix(1,0,0,1,-5,396)" stroke="rgb(242,242,242)">
      <rect x="163.25" width="160" height="60" y="-60" clip-path="url(#clipPath2)" stroke="none"/>
    </g>
    <g stroke-linecap="butt" transform="matrix(1,0,0,1,-5,396)" fill="rgb(189,189,189)" text-rendering="geometricPrecision" shape-rendering="geometricPrecision" stroke="rgb(189,189,189)" stroke-miterlimit="1.45">
      <rect fill="none" x="163.25" width="160" height="60" y="-60" clip-path="url(#clipPath2)"/>
    </g>
    <g stroke-linecap="butt" font-size="16px" transform="matrix(1,0,0,1,-5,396)" fill="rgb(110,110,110)" text-rendering="geometricPrecision" font-family="sans-serif" shape-rendering="geometricPrecision" stroke="rgb(110,110,110)" stroke-miterlimit="1.45">
      <text x="191.7734" xml:space="preserve" y="-23.9531" clip-path="url(#clipPath2)" stroke="none">APPLICATION</text>
    </g>
    <g fill="rgb(242,242,242)" text-rendering="geometricPrecision" shape-rendering="geometricPrecision" transform="matrix(1,0,0,1,-5,396)" stroke="rgb(242,242,242)">
      <rect x="211" width="160" height="60" y="-167" clip-path="url(#clipPath2)" stroke="none"/>
    </g>
    <g stroke-linecap="butt" transform="matrix(1,0,0,1,-5,396)" fill="rgb(189,189,189)" text-rendering="geometricPrecision" shape-rendering="geometricPrecision" stroke="rgb(189,189,189)" stroke-miterlimit="1.45">
      <rect fill="none" x="211" width="160" height="60" y="-167" clip-path="url(#clipPath2)"/>
    </g>
    <g stroke-linecap="butt" font-size="16px" transform="matrix(1,0,0,1,-5,396)" fill="rgb(110,110,110)" text-rendering="geometricPrecision" font-family="sans-serif" shape-rendering="geometricPrecision" stroke="rgb(110,110,110)" stroke-miterlimit="1.45">
      <text x="269.7031" xml:space="preserve" y="-140.375" clip-path="url(#clipPath2)" stroke="none">BASE </text>
      <text x="232.918" xml:space="preserve" y="-121.5312" clip-path="url(#clipPath2)" stroke="none">COMPONENT 2</text>
    </g>
    <g stroke-linecap="butt" transform="matrix(1,0,0,1,-5,396)" fill="rgb(0,107,172)" text-rendering="geometricPrecision" shape-rendering="geometricPrecision" stroke="rgb(0,107,172)" stroke-miterlimit="1.45">
      <rect fill="none" x="250" width="160" height="60" y="-274" clip-path="url(#clipPath2)"/>
      <text x="295.543" font-size="16px" y="-237.9531" clip-path="url(#clipPath2)" font-family="sans-serif" stroke="none" xml:space="preserve">REPORTS</text>
      <rect fill="none" x="401" width="160" height="60" y="-167" clip-path="url(#clipPath2)"/>
      <text x="465.0859" font-size="16px" y="-130.9531" clip-path="url(#clipPath2)" font-family="sans-serif" stroke="none" xml:space="preserve">BPM</text>
    </g>
    <g fill="rgb(242,242,242)" text-rendering="geometricPrecision" shape-rendering="geometricPrecision" transform="matrix(1,0,0,1,-5,396)" stroke="rgb(242,242,242)">
      <rect x="60" width="160" height="60" y="-274" clip-path="url(#clipPath2)" stroke="none"/>
    </g>
    <g stroke-linecap="butt" transform="matrix(1,0,0,1,-5,396)" fill="rgb(189,189,189)" text-rendering="geometricPrecision" shape-rendering="geometricPrecision" stroke="rgb(189,189,189)" stroke-miterlimit="1.45">
      <rect fill="none" x="60" width="160" height="60" y="-274" clip-path="url(#clipPath2)"/>
    </g>
    <g stroke-linecap="butt" font-size="16px" transform="matrix(1,0,0,1,-5,396)" fill="rgb(110,110,110)" text-rendering="geometricPrecision" font-family="sans-serif" shape-rendering="geometricPrecision" stroke="rgb(110,110,110)" stroke-miterlimit="1.45">
      <text x="118.7031" xml:space="preserve" y="-247.375" clip-path="url(#clipPath2)" stroke="none">BASE </text>
      <text x="81.918" xml:space="preserve" y="-228.5312" clip-path="url(#clipPath2)" stroke="none">COMPONENT 1</text>
    </g>
    <g fill="rgb(242,242,242)" text-rendering="geometricPrecision" shape-rendering="geometricPrecision" transform="matrix(1,0,0,1,-5,396)" stroke="rgb(242,242,242)">
      <rect x="20" width="160" height="60" y="-167" clip-path="url(#clipPath2)" stroke="none"/>
    </g>
    <g stroke-linecap="butt" transform="matrix(1,0,0,1,-5,396)" fill="rgb(189,189,189)" text-rendering="geometricPrecision" shape-rendering="geometricPrecision" stroke-dasharray="6,2" stroke="rgb(189,189,189)" stroke-miterlimit="1.45">
      <rect fill="none" x="20" width="160" height="60" y="-167" clip-path="url(#clipPath2)"/>
    </g>
    <g stroke-linecap="butt" font-size="16px" transform="matrix(1,0,0,1,-5,396)" fill="rgb(110,110,110)" text-rendering="geometricPrecision" font-family="sans-serif" shape-rendering="geometricPrecision" stroke="rgb(110,110,110)" stroke-miterlimit="1.45">
      <text x="60.0898" xml:space="preserve" y="-140.375" clip-path="url(#clipPath2)" stroke="none">OPTIONAL</text>
      <text x="49.5078" xml:space="preserve" y="-121.5312" clip-path="url(#clipPath2)" stroke="none">COMPONENT</text>
    </g>
    <g stroke-linecap="butt" transform="matrix(1,0,0,1,-5,396)" fill="rgb(157,176,189)" text-rendering="geometricPrecision" shape-rendering="geometricPrecision" stroke="rgb(157,176,189)" stroke-miterlimit="1.45">
      <path fill="none" d="M263.25 -60.0282 L263.25 -98.9928" clip-path="url(#clipPath2)"/>
      <path d="M263.25 -106.9928 L258.25 -94.9928 L263.25 -97.9928 L268.25 -94.9928 Z" clip-path="url(#clipPath2)" stroke="none"/>
      <path fill="none" d="M331 -167.0303 L331 -182.5 L425.5 -182.5 L425.5 -313" clip-path="url(#clipPath2)"/>
      <path d="M425.5 -321 L420.5 -309 L425.5 -312 L430.5 -309 Z" clip-path="url(#clipPath2)" stroke="none"/>
      <path fill="none" d="M291 -167.0459 L291 -205.9897" clip-path="url(#clipPath2)"/>
      <path d="M291 -213.9897 L286 -201.9897 L291 -204.9897 L296 -201.9897 Z" clip-path="url(#clipPath2)" stroke="none"/>
      <path fill="none" d="M330 -274.0303 L330 -289.5 L385.5 -289.5 L385.5 -313" clip-path="url(#clipPath2)"/>
      <path d="M385.5 -321 L380.5 -309 L385.5 -312 L390.5 -309 Z" clip-path="url(#clipPath2)" stroke="none"/>
      <path fill="none" d="M303.25 -60.0303 L303.25 -75.5 L481 -75.5 L481 -99" clip-path="url(#clipPath2)"/>
      <path d="M481 -107 L476 -95 L481 -98 L486 -95 Z" clip-path="url(#clipPath2)" stroke="none"/>
      <path fill="none" d="M465.5 -167.0096 L465.5 -313" clip-path="url(#clipPath2)"/>
      <path d="M465.5 -321 L460.5 -309 L465.5 -312 L470.5 -309 Z" clip-path="url(#clipPath2)" stroke="none"/>
      <path fill="none" d="M223.25 -60.0308 L223.25 -91.5 L195.5 -91.5 L195.5 -182.5 L180 -182.5 L180 -206" clip-path="url(#clipPath2)"/>
      <path d="M180 -214 L175 -202 L180 -205 L185 -202 Z" clip-path="url(#clipPath2)" stroke="none"/>
      <path fill="none" d="M140 -274.0308 L140 -305.5 L345.5 -305.5 L345.5 -313" clip-path="url(#clipPath2)"/>
      <path d="M345.5 -321 L340.5 -309 L345.5 -312 L350.5 -309 Z" clip-path="url(#clipPath2)" stroke="none"/>
      <path fill="none" stroke-dasharray="6,2" d="M183.25 -60.0303 L183.25 -75.5 L100 -75.5 L100 -99" clip-path="url(#clipPath2)"/>
      <path stroke-dasharray="6,2" d="M100 -107 L95 -95 L100 -98 L105 -95 Z" clip-path="url(#clipPath2)" stroke="none"/>
      <path fill="none" d="M100 -167.0459 L100 -206" clip-path="url(#clipPath2)"/>
      <path d="M100 -214 L95 -202 L100 -205 L105 -202 Z" clip-path="url(#clipPath2)" stroke="none"/>
    </g>
  </g>
</svg>
