<?xml version="1.0" encoding="UTF-8"?><svg xmlns="http://www.w3.org/2000/svg" xmlns:xlink="http://www.w3.org/1999/xlink" fill-opacity="1" color-rendering="auto" color-interpolation="auto" text-rendering="auto" stroke="black" stroke-linecap="square" width="469" stroke-miterlimit="10" shape-rendering="auto" stroke-opacity="1" fill="black" stroke-dasharray="none" font-weight="normal" stroke-width="1" height="211" font-family="'Dialog'" font-style="normal" stroke-linejoin="miter" font-size="12px" stroke-dashoffset="0" image-rendering="auto">
  <!--Generated by ySVG 2.5-->
  <defs id="genericDefs"/>
  <g>
    <defs id="defs1">
      <clipPath clipPathUnits="userSpaceOnUse" id="clipPath1">
        <path d="M0 0 L469 0 L469 211 L0 211 L0 0 Z"/>
      </clipPath>
      <clipPath clipPathUnits="userSpaceOnUse" id="clipPath2">
        <path d="M266 375 L735 375 L735 586 L266 586 L266 375 Z"/>
      </clipPath>
    </defs>
    <g fill="white" text-rendering="geometricPrecision" shape-rendering="geometricPrecision" transform="translate(-266,-375)" stroke="white">
      <rect x="266" width="469" height="211" y="375" clip-path="url(#clipPath2)" stroke="none"/>
    </g>
    <g stroke-linecap="butt" transform="matrix(1,0,0,1,-266,-375)" fill="rgb(110,110,110)" text-rendering="geometricPrecision" shape-rendering="geometricPrecision" stroke-dasharray="6,2" stroke="rgb(110,110,110)" stroke-miterlimit="1.45">
      <rect fill="none" x="619.05" width="100" height="70.323" y="425.5291" clip-path="url(#clipPath2)"/>
    </g>
    <g fill="rgb(242,242,242)" text-rendering="geometricPrecision" shape-rendering="geometricPrecision" transform="matrix(1,0,0,1,-266,-375)" stroke="rgb(242,242,242)">
      <rect x="512.05" width="100" height="145.323" y="425.5291" clip-path="url(#clipPath2)" stroke="none"/>
    </g>
    <g stroke-linecap="butt" transform="matrix(1,0,0,1,-266,-375)" fill="rgb(110,110,110)" text-rendering="geometricPrecision" shape-rendering="geometricPrecision" stroke-dasharray="6,2" stroke="rgb(110,110,110)" stroke-miterlimit="1.45">
      <rect fill="none" x="512.05" width="100" height="145.323" y="425.5291" clip-path="url(#clipPath2)"/>
    </g>
    <g fill="rgb(242,242,242)" text-rendering="geometricPrecision" shape-rendering="geometricPrecision" transform="matrix(1,0,0,1,-266,-375)" stroke="rgb(242,242,242)">
      <rect x="388.25" width="116" height="145.323" y="425.4109" clip-path="url(#clipPath2)" stroke="none"/>
    </g>
    <g stroke-linecap="butt" transform="matrix(1,0,0,1,-266,-375)" fill="rgb(157,176,189)" text-rendering="geometricPrecision" shape-rendering="geometricPrecision" stroke="rgb(157,176,189)" stroke-miterlimit="1.45">
      <rect fill="none" x="388.25" width="116" height="145.323" y="425.4109" clip-path="url(#clipPath2)"/>
    </g>
    <g fill="rgb(242,242,242)" text-rendering="geometricPrecision" shape-rendering="geometricPrecision" transform="matrix(1,0,0,1,-266,-375)" stroke="rgb(242,242,242)">
      <rect x="281.25" width="100" height="145.323" y="425.4109" clip-path="url(#clipPath2)" stroke="none"/>
    </g>
    <g stroke-linecap="butt" transform="matrix(1,0,0,1,-266,-375)" fill="rgb(157,176,189)" text-rendering="geometricPrecision" shape-rendering="geometricPrecision" stroke="rgb(157,176,189)" stroke-miterlimit="1.45">
      <rect fill="none" x="281.25" width="100" height="145.323" y="425.4109" clip-path="url(#clipPath2)"/>
      <text x="297.9834" y="410.4803" clip-path="url(#clipPath2)" fill="rgb(110,110,110)" font-family="sans-serif" stroke="none" xml:space="preserve">Middleware</text>
    </g>
    <g fill="white" text-rendering="geometricPrecision" shape-rendering="geometricPrecision" transform="matrix(1,0,0,1,-266,-375)" stroke="white">
      <rect x="288.25" width="86" height="86" y="432.1906" clip-path="url(#clipPath2)" stroke="none"/>
    </g>
    <g stroke-linecap="butt" transform="matrix(1,0,0,1,-266,-375)" fill="rgb(110,110,110)" text-rendering="geometricPrecision" shape-rendering="geometricPrecision" stroke="rgb(110,110,110)" stroke-miterlimit="1.45">
      <rect fill="none" x="288.25" width="86" height="86" y="432.1906" clip-path="url(#clipPath2)"/>
      <text x="312.7485" font-size="14px" y="480.4816" clip-path="url(#clipPath2)" font-family="sans-serif" stroke="none" xml:space="preserve">CORE</text>
    </g>
    <g fill="white" text-rendering="geometricPrecision" shape-rendering="geometricPrecision" transform="matrix(1,0,0,1,-266,-375)" stroke="white">
      <rect x="396.25" width="100" height="40" y="478.1906" clip-path="url(#clipPath2)" stroke="none"/>
    </g>
    <g stroke-linecap="butt" transform="matrix(1,0,0,1,-266,-375)" fill="rgb(110,110,110)" text-rendering="geometricPrecision" shape-rendering="geometricPrecision" stroke="rgb(110,110,110)" stroke-miterlimit="1.45">
      <rect fill="none" x="396.25" width="100" height="40" y="478.1906" clip-path="url(#clipPath2)"/>
      <text x="434.3247" font-size="14px" y="503.4816" clip-path="url(#clipPath2)" font-family="sans-serif" stroke="none" xml:space="preserve">GUI</text>
    </g>
    <g fill="white" text-rendering="geometricPrecision" shape-rendering="geometricPrecision" transform="matrix(1,0,0,1,-266,-375)" stroke="white">
      <rect x="627.05" width="86" height="56" y="432.1906" clip-path="url(#clipPath2)" stroke="none"/>
    </g>
    <g stroke-linecap="butt" transform="matrix(1,0,0,1,-266,-375)" fill="rgb(0,107,172)" text-rendering="geometricPrecision" shape-rendering="geometricPrecision" stroke="rgb(0,107,172)" stroke-miterlimit="1.45">
      <rect fill="none" x="627.05" width="86" height="56" y="432.1906" clip-path="url(#clipPath2)"/>
      <text x="646.8351" font-size="14px" y="465.4816" clip-path="url(#clipPath2)" font-family="sans-serif" stroke="none" xml:space="preserve">FRONT</text>
    </g>
    <g fill="white" text-rendering="geometricPrecision" shape-rendering="geometricPrecision" transform="matrix(1,0,0,1,-266,-375)" stroke="white">
      <rect x="288.25" width="316.8" height="40" y="524.1906" clip-path="url(#clipPath2)" stroke="none"/>
    </g>
    <g stroke-linecap="butt" transform="matrix(1,0,0,1,-266,-375)" fill="rgb(110,110,110)" text-rendering="geometricPrecision" shape-rendering="geometricPrecision" stroke="rgb(110,110,110)" stroke-miterlimit="1.45">
      <rect fill="none" x="288.25" width="316.8" height="40" y="524.1906" clip-path="url(#clipPath2)"/>
      <text x="419.8326" font-size="14px" y="549.4816" clip-path="url(#clipPath2)" font-family="sans-serif" stroke="none" xml:space="preserve">GLOBAL</text>
    </g>
    <g fill="white" text-rendering="geometricPrecision" shape-rendering="geometricPrecision" transform="matrix(1,0,0,1,-266,-375)" stroke="white">
      <rect x="396.25" width="100" height="40" y="432.1906" clip-path="url(#clipPath2)" stroke="none"/>
    </g>
    <g stroke-linecap="butt" transform="matrix(1,0,0,1,-266,-375)" fill="rgb(110,110,110)" text-rendering="geometricPrecision" shape-rendering="geometricPrecision" stroke="rgb(110,110,110)" stroke-miterlimit="1.45">
      <rect fill="none" x="396.25" width="100" height="40" y="432.1906" clip-path="url(#clipPath2)"/>
      <text x="432.4414" font-size="14px" y="457.4816" clip-path="url(#clipPath2)" font-family="sans-serif" stroke="none" xml:space="preserve">WEB</text>
    </g>
    <g fill="white" text-rendering="geometricPrecision" shape-rendering="geometricPrecision" transform="matrix(1,0,0,1,-266,-375)" stroke="white">
      <rect x="519.05" width="86" height="86" y="432.1906" clip-path="url(#clipPath2)" stroke="none"/>
    </g>
    <g stroke-linecap="butt" transform="matrix(1,0,0,1,-266,-375)" fill="rgb(110,110,110)" text-rendering="geometricPrecision" shape-rendering="geometricPrecision" stroke="rgb(110,110,110)" stroke-miterlimit="1.45">
      <rect fill="none" x="519.05" width="86" height="86" y="432.1906" clip-path="url(#clipPath2)"/>
      <text x="535.3283" font-size="14px" y="480.4816" clip-path="url(#clipPath2)" font-family="sans-serif" stroke="none" xml:space="preserve">PORTAL</text>
      <text x="415.1689" xml:space="preserve" y="410.4803" clip-path="url(#clipPath2)" font-family="sans-serif" stroke="none">Web Client</text>
      <text x="531.1506" xml:space="preserve" y="410.4803" clip-path="url(#clipPath2)" font-family="sans-serif" stroke="none">Web Portal</text>
      <text x="635.0978" xml:space="preserve" y="410.4803" clip-path="url(#clipPath2)" font-family="sans-serif" stroke="none">Frontend UI</text>
    </g>
  </g>
</svg>
