<?xml version="1.0" encoding="UTF-8"?><svg xmlns="http://www.w3.org/2000/svg" xmlns:xlink="http://www.w3.org/1999/xlink" fill-opacity="1" color-rendering="auto" color-interpolation="auto" text-rendering="auto" stroke="black" stroke-linecap="square" width="607" stroke-miterlimit="10" shape-rendering="auto" stroke-opacity="1" fill="black" stroke-dasharray="none" font-weight="normal" stroke-width="1" height="388" font-family="'Dialog'" font-style="normal" stroke-linejoin="miter" font-size="12px" stroke-dashoffset="0" image-rendering="auto">
  <!--Generated by ySVG 2.5-->
  <defs id="genericDefs"/>
  <g>
    <defs id="defs1">
      <clipPath clipPathUnits="userSpaceOnUse" id="clipPath1">
        <path d="M0 0 L607 0 L607 388 L0 388 L0 0 Z"/>
      </clipPath>
      <clipPath clipPathUnits="userSpaceOnUse" id="clipPath2">
        <path d="M679 194 L1286 194 L1286 582 L679 582 L679 194 Z"/>
      </clipPath>
    </defs>
    <g fill="white" text-rendering="geometricPrecision" shape-rendering="geometricPrecision" transform="translate(-679,-194)" stroke="white">
      <rect x="679" width="607" height="388" y="194" clip-path="url(#clipPath2)" stroke="none"/>
    </g>
    <g fill="white" text-rendering="geometricPrecision" shape-rendering="geometricPrecision" transform="matrix(1,0,0,1,-679,-194)" stroke="white">
      <rect x="694.1213" width="576.6787" height="101.3074" y="465.2747" clip-path="url(#clipPath2)" stroke="none"/>
    </g>
    <g stroke-linecap="butt" transform="matrix(1,0,0,1,-679,-194)" fill="rgb(0,107,172)" text-rendering="geometricPrecision" shape-rendering="geometricPrecision" stroke="rgb(0,107,172)" stroke-miterlimit="1.45">
      <rect fill="none" x="694.1213" width="576.6787" height="101.3074" y="465.2747" clip-path="url(#clipPath2)"/>
    </g>
    <g stroke-linecap="butt" font-size="14px" transform="matrix(1,0,0,1,-679,-194)" fill="rgb(79,79,79)" text-rendering="geometricPrecision" font-family="sans-serif" shape-rendering="geometricPrecision" stroke="rgb(79,79,79)" stroke-miterlimit="1.45">
      <text x="706.1213" xml:space="preserve" y="490.8099" clip-path="url(#clipPath2)" stroke="none">Database tier</text>
    </g>
    <g fill="white" text-rendering="geometricPrecision" shape-rendering="geometricPrecision" transform="matrix(1,0,0,1,-679,-194)" stroke="white">
      <rect x="694.1213" width="576.6787" height="110.3074" y="209.66" clip-path="url(#clipPath2)" stroke="none"/>
    </g>
    <g stroke-linecap="butt" transform="matrix(1,0,0,1,-679,-194)" fill="rgb(0,107,172)" text-rendering="geometricPrecision" shape-rendering="geometricPrecision" stroke="rgb(0,107,172)" stroke-miterlimit="1.45">
      <rect fill="none" x="694.1213" width="576.6787" height="110.3074" y="209.66" clip-path="url(#clipPath2)"/>
    </g>
    <g stroke-linecap="butt" font-size="14px" transform="matrix(1,0,0,1,-679,-194)" fill="rgb(79,79,79)" text-rendering="geometricPrecision" font-family="sans-serif" shape-rendering="geometricPrecision" stroke="rgb(79,79,79)" stroke-miterlimit="1.45">
      <text x="706.1213" xml:space="preserve" y="235.1952" clip-path="url(#clipPath2)" stroke="none">Client tier</text>
    </g>
    <g fill="white" text-rendering="geometricPrecision" shape-rendering="geometricPrecision" transform="matrix(1,0,0,1,-679,-194)" stroke="white">
      <rect x="694.1213" width="576.6787" height="93.3074" y="349.9674" clip-path="url(#clipPath2)" stroke="none"/>
    </g>
    <g stroke-linecap="butt" transform="matrix(1,0,0,1,-679,-194)" fill="rgb(0,107,172)" text-rendering="geometricPrecision" shape-rendering="geometricPrecision" stroke="rgb(0,107,172)" stroke-miterlimit="1.45">
      <rect fill="none" x="694.1213" width="576.6787" height="93.3074" y="349.9674" clip-path="url(#clipPath2)"/>
    </g>
    <g stroke-linecap="butt" font-size="14px" transform="matrix(1,0,0,1,-679,-194)" fill="rgb(79,79,79)" text-rendering="geometricPrecision" font-family="sans-serif" shape-rendering="geometricPrecision" stroke="rgb(79,79,79)" stroke-miterlimit="1.45">
      <text x="706.1213" xml:space="preserve" y="375.5025" clip-path="url(#clipPath2)" stroke="none">Middle tier</text>
    </g>
    <g stroke-linecap="butt" transform="matrix(1,0,0,1,-679,-194)" fill="rgb(0,107,172)" text-rendering="geometricPrecision" shape-rendering="geometricPrecision" stroke-dasharray="6,2" stroke="rgb(0,107,172)" stroke-miterlimit="1.45">
      <rect fill="none" x="917.4606" width="130" height="60" y="247.8537" clip-path="url(#clipPath2)"/>
      <text x="937.1911" font-size="16px" y="283.9006" clip-path="url(#clipPath2)" font-family="sans-serif" stroke-dasharray="none" stroke="none" xml:space="preserve">Frontend UI</text>
    </g>
    <g fill="rgb(242,242,242)" text-rendering="geometricPrecision" shape-rendering="geometricPrecision" transform="matrix(1,0,0,1,-679,-194)" stroke="rgb(242,242,242)">
      <rect x="709.4606" width="160" height="60" y="247.8537" clip-path="url(#clipPath2)" stroke="none"/>
    </g>
    <g stroke-linecap="butt" transform="matrix(1,0,0,1,-679,-194)" fill="rgb(110,110,110)" text-rendering="geometricPrecision" shape-rendering="geometricPrecision" stroke="rgb(110,110,110)" stroke-miterlimit="1.45">
      <rect fill="none" x="709.4606" width="160" height="60" y="247.8537" clip-path="url(#clipPath2)"/>
      <text x="748.0192" font-size="16px" y="274.4787" clip-path="url(#clipPath2)" font-family="sans-serif" stroke="none" xml:space="preserve">Web Client</text>
      <text x="768.4255" font-size="16px" y="293.3224" clip-path="url(#clipPath2)" font-family="sans-serif" stroke="none" xml:space="preserve">block</text>
    </g>
    <g fill="rgb(242,242,242)" text-rendering="geometricPrecision" shape-rendering="geometricPrecision" transform="matrix(1,0,0,1,-679,-194)" stroke="rgb(242,242,242)">
      <rect x="1095.4606" width="160" height="60" y="248.7044" clip-path="url(#clipPath2)" stroke="none"/>
    </g>
    <g stroke-linecap="butt" transform="matrix(1,0,0,1,-679,-194)" fill="rgb(110,110,110)" text-rendering="geometricPrecision" shape-rendering="geometricPrecision" stroke-dasharray="6,2" stroke="rgb(110,110,110)" stroke-miterlimit="1.45">
      <rect fill="none" x="1095.4606" width="160" height="60" y="248.7044" clip-path="url(#clipPath2)"/>
      <text x="1134.2614" font-size="16px" y="275.3294" clip-path="url(#clipPath2)" font-family="sans-serif" stroke-dasharray="none" stroke="none" xml:space="preserve">Web Portal</text>
      <text x="1154.4254" font-size="16px" y="294.1732" clip-path="url(#clipPath2)" font-family="sans-serif" stroke-dasharray="none" stroke="none" xml:space="preserve">block</text>
    </g>
    <g fill="rgb(242,242,242)" text-rendering="geometricPrecision" shape-rendering="geometricPrecision" transform="matrix(1,0,0,1,-679,-194)" stroke="rgb(242,242,242)">
      <rect x="902.81" width="160" height="60" y="366.6211" clip-path="url(#clipPath2)" stroke="none"/>
    </g>
    <g stroke-linecap="butt" transform="matrix(1,0,0,1,-679,-194)" fill="rgb(110,110,110)" text-rendering="geometricPrecision" shape-rendering="geometricPrecision" stroke="rgb(110,110,110)" stroke-miterlimit="1.45">
      <rect fill="none" x="902.81" width="160" height="60" y="366.6211" clip-path="url(#clipPath2)"/>
      <text x="938.4545" font-size="16px" y="393.2461" clip-path="url(#clipPath2)" font-family="sans-serif" stroke="none" xml:space="preserve">Middleware</text>
      <text x="961.7748" font-size="16px" y="412.0898" clip-path="url(#clipPath2)" font-family="sans-serif" stroke="none" xml:space="preserve">block</text>
    </g>
    <g transform="matrix(1,0,0,1,-679,-194)" fill-opacity="0.902" fill="rgb(255,255,255)" text-rendering="geometricPrecision" shape-rendering="geometricPrecision" stroke="rgb(255,255,255)" stroke-opacity="0.902">
      <path d="M945.13 494.0234 L945.13 545.8334 C945.13 550.6024 961.9999 554.4684 982.81 554.4684 C1003.6201 554.4684 1020.49 550.6024 1020.49 545.8334 L1020.49 494.0234 C1020.49 489.2545 1003.6201 485.3884 982.81 485.3884 C961.9999 485.3884 945.13 489.2545 945.13 494.0234 Z" stroke="none" clip-path="url(#clipPath2)"/>
    </g>
    <g stroke-linecap="butt" transform="matrix(1,0,0,1,-679,-194)" fill="rgb(157,176,189)" text-rendering="geometricPrecision" shape-rendering="geometricPrecision" stroke="rgb(157,176,189)" stroke-miterlimit="1.45">
      <path fill="none" d="M945.13 494.0234 L945.13 545.8334 C945.13 550.6024 961.9999 554.4684 982.81 554.4684 C1003.6201 554.4684 1020.49 550.6024 1020.49 545.8334 L1020.49 494.0234 C1020.49 489.2545 1003.6201 485.3884 982.81 485.3884 C961.9999 485.3884 945.13 489.2545 945.13 494.0234 Z" clip-path="url(#clipPath2)"/>
      <path fill="none" d="M945.13 494.0234 C945.13 498.7924 961.9999 502.6584 982.81 502.6584 C1003.6201 502.6584 1020.49 498.7924 1020.49 494.0234 M945.13 498.859 C945.13 503.628 961.9999 507.494 982.81 507.494 C1003.6201 507.494 1020.49 503.628 1020.49 498.859 M945.13 503.6946 C945.13 508.4636 961.9999 512.3297 982.81 512.3297 C1003.6201 512.3297 1020.49 508.4636 1020.49 503.6946" clip-path="url(#clipPath2)"/>
    </g>
    <g stroke-linecap="butt" transform="matrix(1,0,0,1,-679,-194)" fill="rgb(110,110,110)" text-rendering="geometricPrecision" shape-rendering="geometricPrecision" stroke="rgb(110,110,110)" stroke-miterlimit="1.45">
      <path fill="none" d="M917.4606 277.8537 L877.4606 277.8537" clip-path="url(#clipPath2)"/>
      <path d="M869.4606 277.8537 L881.4606 282.8537 L878.4606 277.8537 L881.4606 272.8537 Z" clip-path="url(#clipPath2)" stroke="none"/>
      <path fill="none" stroke-dasharray="6,2" d="M1047.4606 278.1402 L1087.4607 278.3165" clip-path="url(#clipPath2)"/>
      <path stroke-dasharray="6,2" d="M1095.4606 278.3518 L1083.4827 273.299 L1086.4607 278.3121 L1083.4386 283.2989 Z" clip-path="url(#clipPath2)" stroke="none"/>
      <path fill="none" d="M838.2996 307.8537 L927.1543 362.4338" clip-path="url(#clipPath2)"/>
      <path d="M933.971 366.6211 L926.363 356.0798 L926.3022 361.9105 L921.129 364.6007 Z" clip-path="url(#clipPath2)" stroke="none"/>
      <path fill="none" stroke-dasharray="6,2" d="M1126.447 308.7044 L1038.647 362.4447" clip-path="url(#clipPath2)"/>
      <path stroke-dasharray="6,2" d="M1031.8236 366.621 L1044.6688 364.6211 L1039.4999 361.9226 L1039.4484 356.0919 Z" clip-path="url(#clipPath2)" stroke="none"/>
      <path fill="none" d="M982.81 426.6211 L982.81 477.3482" clip-path="url(#clipPath2)"/>
      <path d="M982.81 485.3482 L987.81 473.3482 L982.81 476.3482 L977.81 473.3482 Z" clip-path="url(#clipPath2)" stroke="none"/>
    </g>
  </g>
</svg>
