<?xml version="1.0" encoding="UTF-8"?><svg xmlns="http://www.w3.org/2000/svg" xmlns:xlink="http://www.w3.org/1999/xlink" fill-opacity="1" color-rendering="auto" color-interpolation="auto" text-rendering="auto" stroke="black" stroke-linecap="square" width="771" stroke-miterlimit="10" shape-rendering="auto" stroke-opacity="1" fill="black" stroke-dasharray="none" font-weight="normal" stroke-width="1" height="276" font-family="'Dialog'" font-style="normal" stroke-linejoin="miter" font-size="12px" stroke-dashoffset="0" image-rendering="auto">
  <!--Generated by ySVG 2.5-->
  <defs id="genericDefs"/>
  <g>
    <defs id="defs1">
      <clipPath clipPathUnits="userSpaceOnUse" id="clipPath1">
        <path d="M0 0 L771 0 L771 276 L0 276 L0 0 Z"/>
      </clipPath>
      <clipPath clipPathUnits="userSpaceOnUse" id="clipPath2">
        <path d="M443 -327 L1214 -327 L1214 -51 L443 -51 L443 -327 Z"/>
      </clipPath>
    </defs>
    <g fill="white" text-rendering="geometricPrecision" shape-rendering="geometricPrecision" transform="translate(-443,327)" stroke="white">
      <rect x="443" width="771" height="276" y="-327" clip-path="url(#clipPath2)" stroke="none"/>
    </g>
    <g fill="white" text-rendering="geometricPrecision" shape-rendering="geometricPrecision" transform="matrix(1,0,0,1,-443,327)" stroke="white">
      <rect x="748.973" width="160" height="60" y="-311.1072" clip-path="url(#clipPath2)" stroke="none"/>
    </g>
    <g stroke-linecap="butt" transform="matrix(1,0,0,1,-443,327)" fill="rgb(0,107,172)" text-rendering="geometricPrecision" shape-rendering="geometricPrecision" stroke="rgb(0,107,172)" stroke-miterlimit="1.45">
      <rect fill="none" x="748.973" width="160" height="60" y="-311.1072" clip-path="url(#clipPath2)"/>
      <text x="807.7738" font-size="16px" y="-275.0603" clip-path="url(#clipPath2)" font-family="sans-serif" stroke="none" xml:space="preserve">CUBA</text>
    </g>
    <g fill="white" text-rendering="geometricPrecision" shape-rendering="geometricPrecision" transform="matrix(1,0,0,1,-443,327)" stroke="white">
      <rect x="848.973" width="160" height="60" y="-216.1072" clip-path="url(#clipPath2)" stroke="none"/>
    </g>
    <g stroke-linecap="butt" transform="matrix(1,0,0,1,-443,327)" fill="rgb(0,107,172)" text-rendering="geometricPrecision" shape-rendering="geometricPrecision" stroke-dasharray="6,2" stroke="rgb(0,107,172)" stroke-miterlimit="1.45">
      <rect fill="none" x="848.973" width="160" height="60" y="-216.1072" clip-path="url(#clipPath2)"/>
      <text x="915.3168" font-size="16px" y="-180.0603" clip-path="url(#clipPath2)" font-family="sans-serif" stroke-dasharray="none" stroke="none" xml:space="preserve">FTS</text>
    </g>
    <g fill="white" text-rendering="geometricPrecision" shape-rendering="geometricPrecision" transform="matrix(1,0,0,1,-443,327)" stroke="white">
      <rect x="1038.973" width="160" height="60" y="-216.1072" clip-path="url(#clipPath2)" stroke="none"/>
    </g>
    <g stroke-linecap="butt" transform="matrix(1,0,0,1,-443,327)" fill="rgb(0,107,172)" text-rendering="geometricPrecision" shape-rendering="geometricPrecision" stroke-dasharray="6,2" stroke="rgb(0,107,172)" stroke-miterlimit="1.45">
      <rect fill="none" x="1038.973" width="160" height="60" y="-216.1072" clip-path="url(#clipPath2)"/>
      <text x="1084.516" font-size="16px" y="-180.0603" clip-path="url(#clipPath2)" font-family="sans-serif" stroke-dasharray="none" stroke="none" xml:space="preserve">REPORTS</text>
    </g>
    <g fill="white" text-rendering="geometricPrecision" shape-rendering="geometricPrecision" transform="matrix(1,0,0,1,-443,327)" stroke="white">
      <rect x="458.973" width="160" height="60" y="-216.1072" clip-path="url(#clipPath2)" stroke="none"/>
    </g>
    <g stroke-linecap="butt" transform="matrix(1,0,0,1,-443,327)" fill="rgb(0,107,172)" text-rendering="geometricPrecision" shape-rendering="geometricPrecision" stroke-dasharray="6,2" stroke="rgb(0,107,172)" stroke-miterlimit="1.45">
      <rect fill="none" x="458.973" width="160" height="60" y="-216.1072" clip-path="url(#clipPath2)"/>
      <text x="507.6136" font-size="16px" y="-180.0603" clip-path="url(#clipPath2)" font-family="sans-serif" stroke-dasharray="none" stroke="none" xml:space="preserve">CHARTS</text>
    </g>
    <g fill="white" text-rendering="geometricPrecision" shape-rendering="geometricPrecision" transform="matrix(1,0,0,1,-443,327)" stroke="white">
      <rect x="648.973" width="160" height="60" y="-216.1072" clip-path="url(#clipPath2)" stroke="none"/>
    </g>
    <g stroke-linecap="butt" transform="matrix(1,0,0,1,-443,327)" fill="rgb(0,107,172)" text-rendering="geometricPrecision" shape-rendering="geometricPrecision" stroke-dasharray="6,2" stroke="rgb(0,107,172)" stroke-miterlimit="1.45">
      <rect fill="none" x="648.973" width="160" height="60" y="-216.1072" clip-path="url(#clipPath2)"/>
      <text x="713.059" font-size="16px" y="-180.0603" clip-path="url(#clipPath2)" font-family="sans-serif" stroke-dasharray="none" stroke="none" xml:space="preserve">BPM</text>
    </g>
    <g fill="rgb(242,242,242)" text-rendering="geometricPrecision" shape-rendering="geometricPrecision" transform="matrix(1,0,0,1,-443,327)" stroke="rgb(242,242,242)">
      <rect x="748.973" width="160" height="60" y="-126.1072" clip-path="url(#clipPath2)" stroke="none"/>
    </g>
    <g stroke-linecap="butt" transform="matrix(1,0,0,1,-443,327)" fill="rgb(157,176,189)" text-rendering="geometricPrecision" shape-rendering="geometricPrecision" stroke="rgb(157,176,189)" stroke-miterlimit="1.45">
      <rect fill="none" x="748.973" width="160" height="60" y="-126.1072" clip-path="url(#clipPath2)"/>
    </g>
    <g stroke-linecap="butt" font-size="16px" transform="matrix(1,0,0,1,-443,327)" fill="rgb(76,76,76)" text-rendering="geometricPrecision" font-family="sans-serif" shape-rendering="geometricPrecision" stroke="rgb(76,76,76)" stroke-miterlimit="1.45">
      <text x="777.4965" xml:space="preserve" y="-90.0603" clip-path="url(#clipPath2)" stroke="none">APPLICATION</text>
    </g>
    <g stroke-linecap="butt" transform="matrix(1,0,0,1,-443,327)" fill="rgb(157,176,189)" text-rendering="geometricPrecision" shape-rendering="geometricPrecision" stroke="rgb(157,176,189)" stroke-miterlimit="1.45">
      <path fill="none" d="M928.973 -216.146 L928.973 -226.0404 L855.9474 -226.0404 L855.9474 -243.0795" clip-path="url(#clipPath2)"/>
      <path d="M855.9474 -251.0795 L850.9474 -239.0795 L855.9474 -242.0795 L860.9474 -239.0795 Z" clip-path="url(#clipPath2)" stroke="none"/>
      <path fill="none" d="M1118.973 -216.0862 L1118.973 -233.6072 L900 -233.6072 L900 -243.0791" clip-path="url(#clipPath2)"/>
      <path d="M900 -251.0791 L895 -239.0791 L900 -242.0791 L905 -239.0791 Z" clip-path="url(#clipPath2)" stroke="none"/>
      <path fill="none" d="M538.973 -216.1072 L538.973 -233.6072 L768.1166 -233.6072 L768.1166 -243.0873" clip-path="url(#clipPath2)"/>
      <path d="M768.1166 -251.0873 L763.1166 -239.0873 L768.1166 -242.0873 L773.1166 -239.0873 Z" clip-path="url(#clipPath2)" stroke="none"/>
      <path fill="none" d="M728.973 -216.1072 L728.973 -224.9595 L797.625 -224.9595 L797.625 -243.0878" clip-path="url(#clipPath2)"/>
      <path d="M797.625 -251.0878 L792.625 -239.0878 L797.625 -242.0878 L802.625 -239.0878 Z" clip-path="url(#clipPath2)" stroke="none"/>
      <path fill="none" d="M828.973 -126.1072 L828.973 -243.1072" clip-path="url(#clipPath2)"/>
      <path d="M828.973 -251.1072 L823.973 -239.1072 L828.973 -242.1072 L833.973 -239.1072 Z" clip-path="url(#clipPath2)" stroke="none"/>
      <path fill="none" stroke-dasharray="6,2" d="M908.9742 -107.0284 L928.973 -107.0284 L928.973 -148.1072" clip-path="url(#clipPath2)"/>
      <path stroke-dasharray="6,2" d="M928.973 -156.1072 L923.973 -144.1072 L928.973 -147.1072 L933.973 -144.1072 Z" clip-path="url(#clipPath2)" stroke="none"/>
      <path fill="none" stroke-dasharray="6,2" d="M908.9875 -90 L1122.9716 -90 L1122.9716 -148.0778" clip-path="url(#clipPath2)"/>
      <path stroke-dasharray="6,2" d="M1122.9716 -156.0778 L1117.9716 -144.0778 L1122.9716 -147.0778 L1127.9716 -144.0778 Z" clip-path="url(#clipPath2)" stroke="none"/>
      <path fill="none" stroke-dasharray="6,2" d="M749.0084 -105.8359 L728.973 -105.8359 L728.973 -148.1072" clip-path="url(#clipPath2)"/>
      <path stroke-dasharray="6,2" d="M728.973 -156.1072 L723.973 -144.1072 L728.973 -147.1072 L733.973 -144.1072 Z" clip-path="url(#clipPath2)" stroke="none"/>
      <path fill="none" stroke-dasharray="6,2" d="M748.9778 -90 L538.973 -90 L538.973 -148.1072" clip-path="url(#clipPath2)"/>
      <path stroke-dasharray="6,2" d="M538.973 -156.1072 L533.973 -144.1072 L538.973 -147.1072 L543.973 -144.1072 Z" clip-path="url(#clipPath2)" stroke="none"/>
    </g>
  </g>
</svg>
