<?xml version="1.0" encoding="UTF-8"?><svg xmlns="http://www.w3.org/2000/svg" xmlns:xlink="http://www.w3.org/1999/xlink" fill-opacity="1" color-rendering="auto" color-interpolation="auto" text-rendering="auto" stroke="black" stroke-linecap="square" width="902" stroke-miterlimit="10" shape-rendering="auto" stroke-opacity="1" fill="black" stroke-dasharray="none" font-weight="normal" stroke-width="1" height="727" font-family="'Dialog'" font-style="normal" stroke-linejoin="miter" font-size="12px" stroke-dashoffset="0" image-rendering="auto">
  <!--Generated by ySVG 2.5-->
  <defs id="genericDefs"/>
  <g>
    <defs id="defs1">
      <clipPath clipPathUnits="userSpaceOnUse" id="clipPath1">
        <path d="M0 0 L902 0 L902 727 L0 727 L0 0 Z"/>
      </clipPath>
      <clipPath clipPathUnits="userSpaceOnUse" id="clipPath2">
        <path d="M1032 90 L1934 90 L1934 817 L1032 817 L1032 90 Z"/>
      </clipPath>
    </defs>
    <g fill="white" text-rendering="geometricPrecision" shape-rendering="geometricPrecision" transform="translate(-1032,-90)" stroke="white">
      <rect x="1032" width="902" height="727" y="90" clip-path="url(#clipPath2)" stroke="none"/>
    </g>
    <g stroke-linecap="butt" transform="matrix(1,0,0,1,-1032,-90)" fill="silver" text-rendering="geometricPrecision" shape-rendering="geometricPrecision" stroke="silver" stroke-miterlimit="1.45">
      <rect fill="none" x="1047.7415" width="646.0665" height="696" y="105.03" clip-path="url(#clipPath2)"/>
      <rect fill="none" x="1186.584" width="490" height="633.5" y="146.03" clip-path="url(#clipPath2)"/>
    </g>
    <g fill="rgb(204,255,204)" text-rendering="geometricPrecision" shape-rendering="geometricPrecision" transform="matrix(1,0,0,1,-1032,-90)" stroke="rgb(204,255,204)">
      <rect x="1206.584" width="210" height="406" y="188.28" clip-path="url(#clipPath2)" stroke="none"/>
    </g>
    <g stroke-linecap="butt" transform="matrix(1,0,0,1,-1032,-90)" fill="rgb(110,110,110)" text-rendering="geometricPrecision" shape-rendering="geometricPrecision" stroke="rgb(110,110,110)" stroke-miterlimit="1.45">
      <rect fill="none" x="1206.584" width="210" height="406" y="188.28" clip-path="url(#clipPath2)"/>
      <rect x="1226.584" y="224.28" clip-path="url(#clipPath2)" fill="none" width="170" height="353" stroke="silver"/>
    </g>
    <g fill="rgb(204,255,255)" text-rendering="geometricPrecision" shape-rendering="geometricPrecision" transform="matrix(1,0,0,1,-1032,-90)" stroke="rgb(204,255,255)">
      <rect x="1446.584" width="210" height="569.6994" y="188.28" clip-path="url(#clipPath2)" stroke="none"/>
    </g>
    <g stroke-linecap="butt" transform="matrix(1,0,0,1,-1032,-90)" fill="rgb(110,110,110)" text-rendering="geometricPrecision" shape-rendering="geometricPrecision" stroke="rgb(110,110,110)" stroke-miterlimit="1.45">
      <rect fill="none" x="1446.584" width="210" height="569.6994" y="188.28" clip-path="url(#clipPath2)"/>
      <rect x="1466.584" y="224.28" clip-path="url(#clipPath2)" fill="none" width="170" height="511.8402" stroke="silver"/>
    </g>
    <g fill="rgb(255,204,153)" text-rendering="geometricPrecision" shape-rendering="geometricPrecision" transform="matrix(1,0,0,1,-1032,-90)" stroke="rgb(255,204,153)">
      <rect x="1241.584" width="140" height="40" y="366.28" clip-path="url(#clipPath2)" stroke="none"/>
    </g>
    <g stroke-linecap="butt" transform="matrix(1,0,0,1,-1032,-90)" fill="rgb(0,107,172)" text-rendering="geometricPrecision" shape-rendering="geometricPrecision" stroke="rgb(0,107,172)" stroke-miterlimit="1.45">
      <rect fill="none" x="1241.584" width="140" height="40" y="366.28" clip-path="url(#clipPath2)"/>
      <text x="1242.2949" font-size="16px" y="392.3269" clip-path="url(#clipPath2)" font-family="sans-serif" stroke="none" xml:space="preserve">reports-global.jar</text>
    </g>
    <g fill="white" text-rendering="geometricPrecision" shape-rendering="geometricPrecision" transform="matrix(1,0,0,1,-1032,-90)" stroke="white">
      <rect x="1241.584" width="140" height="40" y="262.28" clip-path="url(#clipPath2)" stroke="none"/>
    </g>
    <g stroke-linecap="butt" transform="matrix(1,0,0,1,-1032,-90)" fill="rgb(0,107,172)" text-rendering="geometricPrecision" shape-rendering="geometricPrecision" stroke="rgb(0,107,172)" stroke-miterlimit="1.45">
      <rect fill="none" x="1241.584" width="140" height="40" y="262.28" clip-path="url(#clipPath2)"/>
      <text x="1251.8027" font-size="16px" y="288.3269" clip-path="url(#clipPath2)" font-family="sans-serif" stroke="none" xml:space="preserve">cuba-global.jar</text>
    </g>
    <g fill="rgb(255,255,153)" text-rendering="geometricPrecision" shape-rendering="geometricPrecision" transform="matrix(1,0,0,1,-1032,-90)" stroke="rgb(255,255,153)">
      <rect x="1241.584" width="140" height="40" y="470.28" clip-path="url(#clipPath2)" stroke="none"/>
    </g>
    <g stroke-linecap="butt" transform="matrix(1,0,0,1,-1032,-90)" fill="rgb(0,107,172)" text-rendering="geometricPrecision" shape-rendering="geometricPrecision" stroke="rgb(0,107,172)" stroke-miterlimit="1.45">
      <rect fill="none" x="1241.584" width="140" height="40" y="470.28" clip-path="url(#clipPath2)"/>
      <text x="1255.8301" font-size="16px" y="496.3269" clip-path="url(#clipPath2)" font-family="sans-serif" stroke="none" xml:space="preserve">app-global.jar</text>
    </g>
    <g fill="white" text-rendering="geometricPrecision" shape-rendering="geometricPrecision" transform="matrix(1,0,0,1,-1032,-90)" stroke="white">
      <rect x="1241.584" width="140" height="40" y="314.28" clip-path="url(#clipPath2)" stroke="none"/>
    </g>
    <g stroke-linecap="butt" transform="matrix(1,0,0,1,-1032,-90)" fill="rgb(0,107,172)" text-rendering="geometricPrecision" shape-rendering="geometricPrecision" stroke="rgb(0,107,172)" stroke-miterlimit="1.45">
      <rect fill="none" x="1241.584" width="140" height="40" y="314.28" clip-path="url(#clipPath2)"/>
      <text x="1259.041" font-size="16px" y="340.3269" clip-path="url(#clipPath2)" font-family="sans-serif" stroke="none" xml:space="preserve">cuba-core.jar</text>
    </g>
    <g fill="rgb(255,204,153)" text-rendering="geometricPrecision" shape-rendering="geometricPrecision" transform="matrix(1,0,0,1,-1032,-90)" stroke="rgb(255,204,153)">
      <rect x="1241.584" width="140" height="40" y="418.28" clip-path="url(#clipPath2)" stroke="none"/>
    </g>
    <g stroke-linecap="butt" transform="matrix(1,0,0,1,-1032,-90)" fill="rgb(0,107,172)" text-rendering="geometricPrecision" shape-rendering="geometricPrecision" stroke="rgb(0,107,172)" stroke-miterlimit="1.45">
      <rect fill="none" x="1241.584" width="140" height="40" y="418.28" clip-path="url(#clipPath2)"/>
      <text x="1249.5332" font-size="16px" y="444.3269" clip-path="url(#clipPath2)" font-family="sans-serif" stroke="none" xml:space="preserve">reports-core.jar</text>
    </g>
    <g fill="rgb(255,255,153)" text-rendering="geometricPrecision" shape-rendering="geometricPrecision" transform="matrix(1,0,0,1,-1032,-90)" stroke="rgb(255,255,153)">
      <rect x="1241.584" width="140" height="40" y="522.28" clip-path="url(#clipPath2)" stroke="none"/>
    </g>
    <g stroke-linecap="butt" transform="matrix(1,0,0,1,-1032,-90)" fill="rgb(0,107,172)" text-rendering="geometricPrecision" shape-rendering="geometricPrecision" stroke="rgb(0,107,172)" stroke-miterlimit="1.45">
      <rect fill="none" x="1241.584" width="140" height="40" y="522.28" clip-path="url(#clipPath2)"/>
      <text x="1263.0684" font-size="16px" y="548.3269" clip-path="url(#clipPath2)" font-family="sans-serif" stroke="none" xml:space="preserve">app-core.jar</text>
    </g>
    <g stroke-linecap="butt" font-size="14px" transform="matrix(1,0,0,1,-1032,-90)" fill="rgb(79,79,79)" text-rendering="geometricPrecision" font-family="sans-serif" shape-rendering="geometricPrecision" stroke="rgb(79,79,79)" stroke-miterlimit="1.45">
      <text x="1280.207" xml:space="preserve" y="210.8648" clip-path="url(#clipPath2)" stroke="none">app-core</text>
      <text x="1270.6606" xml:space="preserve" y="248.571" clip-path="url(#clipPath2)" stroke="none">WEB-INF/lib</text>
    </g>
    <g fill="rgb(255,204,153)" text-rendering="geometricPrecision" shape-rendering="geometricPrecision" transform="matrix(1,0,0,1,-1032,-90)" stroke="rgb(255,204,153)">
      <rect x="1481.584" width="140" height="40" y="418.28" clip-path="url(#clipPath2)" stroke="none"/>
    </g>
    <g stroke-linecap="butt" transform="matrix(1,0,0,1,-1032,-90)" fill="rgb(0,107,172)" text-rendering="geometricPrecision" shape-rendering="geometricPrecision" stroke="rgb(0,107,172)" stroke-miterlimit="1.45">
      <rect fill="none" x="1481.584" width="140" height="40" y="418.28" clip-path="url(#clipPath2)"/>
      <text x="1482.2949" font-size="16px" y="444.3269" clip-path="url(#clipPath2)" font-family="sans-serif" stroke="none" xml:space="preserve">reports-global.jar</text>
    </g>
    <g fill="white" text-rendering="geometricPrecision" shape-rendering="geometricPrecision" transform="matrix(1,0,0,1,-1032,-90)" stroke="white">
      <rect x="1481.584" width="140" height="40" y="262.28" clip-path="url(#clipPath2)" stroke="none"/>
    </g>
    <g stroke-linecap="butt" transform="matrix(1,0,0,1,-1032,-90)" fill="rgb(0,107,172)" text-rendering="geometricPrecision" shape-rendering="geometricPrecision" stroke="rgb(0,107,172)" stroke-miterlimit="1.45">
      <rect fill="none" x="1481.584" width="140" height="40" y="262.28" clip-path="url(#clipPath2)"/>
      <text x="1491.8027" font-size="16px" y="288.3269" clip-path="url(#clipPath2)" font-family="sans-serif" stroke="none" xml:space="preserve">cuba-global.jar</text>
    </g>
    <g fill="rgb(255,255,153)" text-rendering="geometricPrecision" shape-rendering="geometricPrecision" transform="matrix(1,0,0,1,-1032,-90)" stroke="rgb(255,255,153)">
      <rect x="1481.584" width="140" height="40" y="574.28" clip-path="url(#clipPath2)" stroke="none"/>
    </g>
    <g stroke-linecap="butt" transform="matrix(1,0,0,1,-1032,-90)" fill="rgb(0,107,172)" text-rendering="geometricPrecision" shape-rendering="geometricPrecision" stroke="rgb(0,107,172)" stroke-miterlimit="1.45">
      <rect fill="none" x="1481.584" width="140" height="40" y="574.28" clip-path="url(#clipPath2)"/>
      <text x="1495.8301" font-size="16px" y="600.3269" clip-path="url(#clipPath2)" font-family="sans-serif" stroke="none" xml:space="preserve">app-global.jar</text>
    </g>
    <g fill="white" text-rendering="geometricPrecision" shape-rendering="geometricPrecision" transform="matrix(1,0,0,1,-1032,-90)" stroke="white">
      <rect x="1481.584" width="140" height="40" y="314.28" clip-path="url(#clipPath2)" stroke="none"/>
    </g>
    <g stroke-linecap="butt" transform="matrix(1,0,0,1,-1032,-90)" fill="rgb(0,107,172)" text-rendering="geometricPrecision" shape-rendering="geometricPrecision" stroke="rgb(0,107,172)" stroke-miterlimit="1.45">
      <rect fill="none" x="1481.584" width="140" height="40" y="314.28" clip-path="url(#clipPath2)"/>
      <text x="1500.127" font-size="16px" y="340.3269" clip-path="url(#clipPath2)" font-family="sans-serif" stroke="none" xml:space="preserve">cuba-web.jar</text>
    </g>
    <g fill="rgb(255,204,153)" text-rendering="geometricPrecision" shape-rendering="geometricPrecision" transform="matrix(1,0,0,1,-1032,-90)" stroke="rgb(255,204,153)">
      <rect x="1481.584" width="140" height="40" y="470.28" clip-path="url(#clipPath2)" stroke="none"/>
    </g>
    <g stroke-linecap="butt" transform="matrix(1,0,0,1,-1032,-90)" fill="rgb(0,107,172)" text-rendering="geometricPrecision" shape-rendering="geometricPrecision" stroke="rgb(0,107,172)" stroke-miterlimit="1.45">
      <rect fill="none" x="1481.584" width="140" height="40" y="470.28" clip-path="url(#clipPath2)"/>
      <text x="1494.0098" font-size="16px" y="496.3269" clip-path="url(#clipPath2)" font-family="sans-serif" stroke="none" xml:space="preserve">reports-gui.jar</text>
    </g>
    <g fill="rgb(255,255,153)" text-rendering="geometricPrecision" shape-rendering="geometricPrecision" transform="matrix(1,0,0,1,-1032,-90)" stroke="rgb(255,255,153)">
      <rect x="1481.584" width="140" height="40" y="626.28" clip-path="url(#clipPath2)" stroke="none"/>
    </g>
    <g stroke-linecap="butt" transform="matrix(1,0,0,1,-1032,-90)" fill="rgb(0,107,172)" text-rendering="geometricPrecision" shape-rendering="geometricPrecision" stroke="rgb(0,107,172)" stroke-miterlimit="1.45">
      <rect fill="none" x="1481.584" width="140" height="40" y="626.28" clip-path="url(#clipPath2)"/>
      <text x="1507.5449" font-size="16px" y="652.3269" clip-path="url(#clipPath2)" font-family="sans-serif" stroke="none" xml:space="preserve">app-gui.jar</text>
    </g>
    <g stroke-linecap="butt" font-size="14px" transform="matrix(1,0,0,1,-1032,-90)" fill="rgb(79,79,79)" text-rendering="geometricPrecision" font-family="sans-serif" shape-rendering="geometricPrecision" stroke="rgb(79,79,79)" stroke-miterlimit="1.45">
      <text x="1538.9067" xml:space="preserve" y="210.8648" clip-path="url(#clipPath2)" stroke="none">app</text>
      <text x="1510.6606" xml:space="preserve" y="248.571" clip-path="url(#clipPath2)" stroke="none">WEB-INF/lib</text>
    </g>
    <g fill="white" text-rendering="geometricPrecision" shape-rendering="geometricPrecision" transform="matrix(1,0,0,1,-1032,-90)" stroke="white">
      <rect x="1481.584" width="140" height="40" y="366.28" clip-path="url(#clipPath2)" stroke="none"/>
    </g>
    <g stroke-linecap="butt" transform="matrix(1,0,0,1,-1032,-90)" fill="rgb(0,107,172)" text-rendering="geometricPrecision" shape-rendering="geometricPrecision" stroke="rgb(0,107,172)" stroke-miterlimit="1.45">
      <rect fill="none" x="1481.584" width="140" height="40" y="366.28" clip-path="url(#clipPath2)"/>
      <text x="1503.5176" font-size="16px" y="392.3269" clip-path="url(#clipPath2)" font-family="sans-serif" stroke="none" xml:space="preserve">cuba-gui.jar</text>
    </g>
    <g fill="rgb(255,204,153)" text-rendering="geometricPrecision" shape-rendering="geometricPrecision" transform="matrix(1,0,0,1,-1032,-90)" stroke="rgb(255,204,153)">
      <rect x="1481.584" width="140" height="40" y="522.28" clip-path="url(#clipPath2)" stroke="none"/>
    </g>
    <g stroke-linecap="butt" transform="matrix(1,0,0,1,-1032,-90)" fill="rgb(0,107,172)" text-rendering="geometricPrecision" shape-rendering="geometricPrecision" stroke="rgb(0,107,172)" stroke-miterlimit="1.45">
      <rect fill="none" x="1481.584" width="140" height="40" y="522.28" clip-path="url(#clipPath2)"/>
      <text x="1490.6191" font-size="16px" y="548.3269" clip-path="url(#clipPath2)" font-family="sans-serif" stroke="none" xml:space="preserve">reports-web.jar</text>
    </g>
    <g fill="rgb(255,255,153)" text-rendering="geometricPrecision" shape-rendering="geometricPrecision" transform="matrix(1,0,0,1,-1032,-90)" stroke="rgb(255,255,153)">
      <rect x="1481.584" width="140" height="40" y="678.28" clip-path="url(#clipPath2)" stroke="none"/>
    </g>
    <g stroke-linecap="butt" transform="matrix(1,0,0,1,-1032,-90)" fill="rgb(0,107,172)" text-rendering="geometricPrecision" shape-rendering="geometricPrecision" stroke="rgb(0,107,172)" stroke-miterlimit="1.45">
      <rect fill="none" x="1481.584" width="140" height="40" y="678.28" clip-path="url(#clipPath2)"/>
      <text x="1504.1543" font-size="16px" y="704.3269" clip-path="url(#clipPath2)" font-family="sans-serif" stroke="none" xml:space="preserve">app-web.jar</text>
    </g>
    <g stroke-linecap="butt" font-size="14px" transform="matrix(1,0,0,1,-1032,-90)" fill="rgb(79,79,79)" text-rendering="geometricPrecision" font-family="sans-serif" shape-rendering="geometricPrecision" stroke="rgb(79,79,79)" stroke-miterlimit="1.45">
      <text x="1401.6392" xml:space="preserve" y="173.1585" clip-path="url(#clipPath2)" stroke="none">webapps</text>
      <text x="1408.0615" xml:space="preserve" y="131.0261" clip-path="url(#clipPath2)" stroke="none">tomcat</text>
    </g>
    <g stroke-linecap="butt" transform="matrix(1,0,0,1,-1032,-90)" fill="rgb(110,110,110)" text-rendering="geometricPrecision" shape-rendering="geometricPrecision" stroke="rgb(110,110,110)" stroke-miterlimit="1.45">
      <rect fill="none" x="1076.584" width="80" height="40" y="146.03" clip-path="url(#clipPath2)"/>
      <text x="1104.2715" font-size="16px" y="172.0769" clip-path="url(#clipPath2)" font-family="sans-serif" stroke="none" xml:space="preserve">bin</text>
      <rect fill="none" x="1076.584" width="80" height="40" y="198.03" clip-path="url(#clipPath2)"/>
      <text x="1099.666" font-size="16px" y="224.0769" clip-path="url(#clipPath2)" font-family="sans-serif" stroke="none" xml:space="preserve">conf</text>
      <rect fill="none" x="1076.584" width="80" height="40" y="250.03" clip-path="url(#clipPath2)"/>
      <text x="1106.9238" font-size="16px" y="276.0769" clip-path="url(#clipPath2)" font-family="sans-serif" stroke="none" xml:space="preserve">lib</text>
      <rect fill="none" x="1076.584" width="80" height="40" y="302.03" clip-path="url(#clipPath2)"/>
      <text x="1100.291" font-size="16px" y="328.0769" clip-path="url(#clipPath2)" font-family="sans-serif" stroke="none" xml:space="preserve">logs</text>
      <rect fill="none" x="1076.584" width="80" height="40" y="354.03" clip-path="url(#clipPath2)"/>
      <text x="1090.3574" font-size="16px" y="380.0769" clip-path="url(#clipPath2)" font-family="sans-serif" stroke="none" xml:space="preserve">shared</text>
    </g>
    <g fill="rgb(204,255,204)" text-rendering="geometricPrecision" shape-rendering="geometricPrecision" transform="matrix(1,0,0,1,-1032,-90)" stroke="rgb(204,255,204)">
      <circle r="15" clip-path="url(#clipPath2)" cx="1738.808" cy="161.03" stroke="none"/>
    </g>
    <g stroke-linecap="butt" transform="matrix(1,0,0,1,-1032,-90)" fill="rgb(110,110,110)" text-rendering="geometricPrecision" shape-rendering="geometricPrecision" stroke="rgb(110,110,110)" stroke-miterlimit="1.45">
      <circle fill="none" r="15" clip-path="url(#clipPath2)" cx="1738.808" cy="161.03"/>
    </g>
    <g stroke-linecap="butt" font-size="16px" transform="matrix(1,0,0,1,-1032,-90)" fill="rgb(79,79,79)" text-rendering="geometricPrecision" font-family="sans-serif" shape-rendering="geometricPrecision" stroke="rgb(79,79,79)" stroke-miterlimit="1.45">
      <text x="1767.8879" xml:space="preserve" y="167.0769" clip-path="url(#clipPath2)" stroke="none">Middleware block</text>
      <text x="1767.8879" xml:space="preserve" y="217.9429" clip-path="url(#clipPath2)" stroke="none">Web Client block</text>
    </g>
    <g fill="rgb(204,255,255)" text-rendering="geometricPrecision" shape-rendering="geometricPrecision" transform="matrix(1,0,0,1,-1032,-90)" stroke="rgb(204,255,255)">
      <circle r="15" clip-path="url(#clipPath2)" cx="1738.808" cy="211.896" stroke="none"/>
    </g>
    <g stroke-linecap="butt" transform="matrix(1,0,0,1,-1032,-90)" fill="rgb(110,110,110)" text-rendering="geometricPrecision" shape-rendering="geometricPrecision" stroke="rgb(110,110,110)" stroke-miterlimit="1.45">
      <circle fill="none" r="15" clip-path="url(#clipPath2)" cx="1738.808" cy="211.896"/>
    </g>
    <g stroke-linecap="butt" font-size="16px" transform="matrix(1,0,0,1,-1032,-90)" fill="rgb(0,107,172)" text-rendering="geometricPrecision" font-family="sans-serif" shape-rendering="geometricPrecision" stroke="rgb(0,107,172)" stroke-miterlimit="1.45">
      <text x="1767.8879" xml:space="preserve" y="295.5949" clip-path="url(#clipPath2)" stroke="none">cuba component</text>
      <circle fill="none" r="15" clip-path="url(#clipPath2)" cx="1738.808" cy="289.548"/>
      <text x="1767.8879" xml:space="preserve" y="346.4609" clip-path="url(#clipPath2)" stroke="none">reports component</text>
    </g>
    <g fill="rgb(255,204,153)" text-rendering="geometricPrecision" shape-rendering="geometricPrecision" transform="matrix(1,0,0,1,-1032,-90)" stroke="rgb(255,204,153)">
      <circle r="15" clip-path="url(#clipPath2)" cx="1738.808" cy="340.414" stroke="none"/>
    </g>
    <g stroke-linecap="butt" transform="matrix(1,0,0,1,-1032,-90)" fill="rgb(0,107,172)" text-rendering="geometricPrecision" shape-rendering="geometricPrecision" stroke="rgb(0,107,172)" stroke-miterlimit="1.45">
      <circle fill="none" r="15" clip-path="url(#clipPath2)" cx="1738.808" cy="340.414"/>
      <text x="1767.8879" font-size="16px" y="397.3269" clip-path="url(#clipPath2)" font-family="sans-serif" stroke="none" xml:space="preserve">your application</text>
    </g>
    <g fill="rgb(255,255,153)" text-rendering="geometricPrecision" shape-rendering="geometricPrecision" transform="matrix(1,0,0,1,-1032,-90)" stroke="rgb(255,255,153)">
      <circle r="15" clip-path="url(#clipPath2)" cx="1738.808" cy="391.28" stroke="none"/>
    </g>
    <g stroke-linecap="butt" transform="matrix(1,0,0,1,-1032,-90)" fill="rgb(0,107,172)" text-rendering="geometricPrecision" shape-rendering="geometricPrecision" stroke="rgb(0,107,172)" stroke-miterlimit="1.45">
      <circle fill="none" r="15" clip-path="url(#clipPath2)" cx="1738.808" cy="391.28"/>
    </g>
  </g>
</svg>
