<?xml version="1.0" encoding="UTF-8"?><svg xmlns="http://www.w3.org/2000/svg" xmlns:xlink="http://www.w3.org/1999/xlink" fill-opacity="1" color-rendering="auto" color-interpolation="auto" text-rendering="auto" stroke="black" stroke-linecap="square" width="820" stroke-miterlimit="10" shape-rendering="auto" stroke-opacity="1" fill="black" stroke-dasharray="none" font-weight="normal" stroke-width="1" height="333" font-family="'Dialog'" font-style="normal" stroke-linejoin="miter" font-size="12px" stroke-dashoffset="0" image-rendering="auto">
  <!--Generated by ySVG 2.5-->
  <defs id="genericDefs"/>
  <g>
    <defs id="defs1">
      <clipPath clipPathUnits="userSpaceOnUse" id="clipPath1">
        <path d="M0 0 L820 0 L820 333 L0 333 L0 0 Z"/>
      </clipPath>
      <clipPath clipPathUnits="userSpaceOnUse" id="clipPath2">
        <path d="M245 -29 L1065 -29 L1065 304 L245 304 L245 -29 Z"/>
      </clipPath>
      <clipPath clipPathUnits="userSpaceOnUse" id="clipPath3">
        <path d="M752 52 L752 147 L909 147 L909 52 Z"/>
      </clipPath>
      <clipPath clipPathUnits="userSpaceOnUse" id="clipPath4">
        <path d="M949 86 L949 114 L1049 114 L1049 86 Z"/>
      </clipPath>
      <clipPath clipPathUnits="userSpaceOnUse" id="clipPath5">
        <path d="M781 186 L781 214 L881 214 L881 186 Z"/>
      </clipPath>
      <clipPath clipPathUnits="userSpaceOnUse" id="clipPath6">
        <path d="M758 -14 L758 14 L903 14 L903 -14 Z"/>
      </clipPath>
      <clipPath clipPathUnits="userSpaceOnUse" id="clipPath7">
        <path d="M438 86 L438 114 L547 114 L547 86 Z"/>
      </clipPath>
      <clipPath clipPathUnits="userSpaceOnUse" id="clipPath8">
        <path d="M587 61 L587 139 L712 139 L712 61 Z"/>
      </clipPath>
      <clipPath clipPathUnits="userSpaceOnUse" id="clipPath9">
        <path d="M260 151 L260 247 L420 247 L420 151 Z"/>
      </clipPath>
      <clipPath clipPathUnits="userSpaceOnUse" id="clipPath10">
        <path d="M282 23 L282 48 L398 48 L398 23 Z"/>
      </clipPath>
      <clipPath clipPathUnits="userSpaceOnUse" id="clipPath11">
        <path d="M282 87 L282 112 L398 112 L398 87 Z"/>
      </clipPath>
      <clipPath clipPathUnits="userSpaceOnUse" id="clipPath12">
        <path d="M763 261 L763 289 L898 289 L898 261 Z"/>
      </clipPath>
    </defs>
    <g fill="white" text-rendering="geometricPrecision" shape-rendering="geometricPrecision" transform="translate(-245,29)" stroke="white">
      <rect x="245" width="820" height="333" y="-29" clip-path="url(#clipPath2)" stroke="none"/>
    </g>
    <g fill="rgb(242,242,242)" text-rendering="geometricPrecision" shape-rendering="geometricPrecision" transform="matrix(1,0,0,1,-245,29)" stroke="rgb(242,242,242)">
      <rect x="752.5" width="157" height="95.25" y="52.375" clip-path="url(#clipPath2)" stroke="none"/>
    </g>
    <g stroke-linecap="butt" transform="matrix(1,0,0,1,-245,29)" fill="rgb(110,110,110)" text-rendering="geometricPrecision" shape-rendering="geometricPrecision" stroke="rgb(110,110,110)" stroke-miterlimit="1.45">
      <rect fill="none" x="752.5" width="157" height="95.25" y="52.375" clip-path="url(#clipPath2)"/>
    </g>
    <g stroke-linecap="butt" font-size="13px" transform="matrix(1,0,0,1,-245,29)" fill="rgb(79,79,79)" text-rendering="geometricPrecision" font-family="sans-serif" shape-rendering="geometricPrecision" stroke="rgb(79,79,79)" font-weight="bold" stroke-miterlimit="1.45">
      <text x="817.6001" xml:space="preserve" y="69.9434" clip-path="url(#clipPath3)" stroke="none">App</text>
    </g>
    <g fill="rgb(110,110,110)" text-rendering="geometricPrecision" shape-rendering="geometricPrecision" transform="matrix(1,0,0,1,-245,29)" stroke="rgb(110,110,110)">
      <line y2="77" fill="none" x1="753" clip-path="url(#clipPath3)" x2="908" y1="77"/>
      <line y2="87" fill="none" x1="753" clip-path="url(#clipPath3)" x2="908" y1="87"/>
    </g>
    <g text-rendering="geometricPrecision" stroke-miterlimit="1.45" shape-rendering="geometricPrecision" font-family="sans-serif" transform="matrix(1,0,0,1,-245,29)" stroke-linecap="butt">
      <text x="757.5" xml:space="preserve" y="104.2871" clip-path="url(#clipPath3)" stroke="none">getInstance</text>
      <text x="757.5" xml:space="preserve" y="118.4199" clip-path="url(#clipPath3)" stroke="none">getConnection</text>
      <text x="757.5" xml:space="preserve" y="132.5527" clip-path="url(#clipPath3)" stroke="none">getExceptionHandlers</text>
    </g>
    <g fill="rgb(242,242,242)" text-rendering="geometricPrecision" shape-rendering="geometricPrecision" transform="matrix(1,0,0,1,-245,29)" stroke="rgb(242,242,242)">
      <rect x="949.5" width="100" height="28" y="86" clip-path="url(#clipPath2)" stroke="none"/>
    </g>
    <g stroke-linecap="butt" transform="matrix(1,0,0,1,-245,29)" fill="rgb(110,110,110)" text-rendering="geometricPrecision" shape-rendering="geometricPrecision" stroke="rgb(110,110,110)" stroke-miterlimit="1.45">
      <rect fill="none" x="949.5" width="100" height="28" y="86" clip-path="url(#clipPath2)"/>
    </g>
    <g stroke-linecap="butt" font-size="13px" transform="matrix(1,0,0,1,-245,29)" fill="rgb(79,79,79)" text-rendering="geometricPrecision" font-family="sans-serif" shape-rendering="geometricPrecision" stroke="rgb(79,79,79)" font-weight="bold" stroke-miterlimit="1.45">
      <text x="961.6045" xml:space="preserve" y="103.5684" clip-path="url(#clipPath4)" stroke="none">DefaultApp</text>
    </g>
    <g fill="rgb(239,249,255)" text-rendering="geometricPrecision" shape-rendering="geometricPrecision" transform="matrix(1,0,0,1,-245,29)" stroke="rgb(239,249,255)">
      <rect x="781" width="100" height="28" y="186" clip-path="url(#clipPath2)" stroke="none"/>
    </g>
    <g stroke-linecap="butt" transform="matrix(1,0,0,1,-245,29)" fill="rgb(157,176,189)" text-rendering="geometricPrecision" shape-rendering="geometricPrecision" stroke="rgb(157,176,189)" stroke-miterlimit="1.45">
      <rect fill="none" x="781" width="100" height="28" y="186" clip-path="url(#clipPath2)"/>
    </g>
    <g stroke-linecap="butt" font-size="13px" transform="matrix(1,0,0,1,-245,29)" fill="rgb(79,79,79)" text-rendering="geometricPrecision" font-family="sans-serif" shape-rendering="geometricPrecision" stroke="rgb(79,79,79)" font-weight="bold" stroke-miterlimit="1.45">
      <text x="793.2441" xml:space="preserve" y="203.5684" clip-path="url(#clipPath5)" stroke="none">Connection</text>
    </g>
    <g fill="rgb(242,242,242)" text-rendering="geometricPrecision" shape-rendering="geometricPrecision" transform="matrix(1,0,0,1,-245,29)" stroke="rgb(242,242,242)">
      <rect x="758.5" width="145" height="28" y="-14" clip-path="url(#clipPath2)" stroke="none"/>
    </g>
    <g stroke-linecap="butt" transform="matrix(1,0,0,1,-245,29)" fill="rgb(110,110,110)" text-rendering="geometricPrecision" shape-rendering="geometricPrecision" stroke="rgb(110,110,110)" stroke-miterlimit="1.45">
      <rect fill="none" x="758.5" width="145" height="28" y="-14" clip-path="url(#clipPath2)"/>
    </g>
    <g stroke-linecap="butt" font-size="13px" transform="matrix(1,0,0,1,-245,29)" fill="rgb(79,79,79)" text-rendering="geometricPrecision" font-family="sans-serif" shape-rendering="geometricPrecision" stroke="rgb(79,79,79)" font-weight="bold" stroke-miterlimit="1.45">
      <text x="768.4915" xml:space="preserve" y="3.5684" clip-path="url(#clipPath6)" stroke="none">ExceptionHandlers</text>
    </g>
    <g fill="rgb(242,242,242)" text-rendering="geometricPrecision" shape-rendering="geometricPrecision" transform="matrix(1,0,0,1,-245,29)" stroke="rgb(242,242,242)">
      <rect x="438.4896" width="109.0104" height="28" y="86" clip-path="url(#clipPath2)" stroke="none"/>
    </g>
    <g stroke-linecap="butt" transform="matrix(1,0,0,1,-245,29)" fill="rgb(110,110,110)" text-rendering="geometricPrecision" shape-rendering="geometricPrecision" stroke="rgb(110,110,110)" stroke-miterlimit="1.45">
      <rect fill="none" x="438.4896" width="109.0104" height="28" y="86" clip-path="url(#clipPath2)"/>
    </g>
    <g stroke-linecap="butt" font-size="13px" transform="matrix(1,0,0,1,-245,29)" fill="rgb(79,79,79)" text-rendering="geometricPrecision" font-family="sans-serif" shape-rendering="geometricPrecision" stroke="rgb(79,79,79)" font-weight="bold" stroke-miterlimit="1.45">
      <text x="451.2495" xml:space="preserve" y="103.5684" clip-path="url(#clipPath7)" stroke="none">RootWindow</text>
    </g>
    <g fill="rgb(242,242,242)" text-rendering="geometricPrecision" shape-rendering="geometricPrecision" transform="matrix(1,0,0,1,-245,29)" stroke="rgb(242,242,242)">
      <rect x="587.5" width="125" height="78" y="61" clip-path="url(#clipPath2)" stroke="none"/>
    </g>
    <g stroke-linecap="butt" transform="matrix(1,0,0,1,-245,29)" fill="rgb(110,110,110)" text-rendering="geometricPrecision" shape-rendering="geometricPrecision" stroke="rgb(110,110,110)" stroke-miterlimit="1.45">
      <rect fill="none" x="587.5" width="125" height="78" y="61" clip-path="url(#clipPath2)"/>
    </g>
    <g stroke-linecap="butt" font-size="13px" transform="matrix(1,0,0,1,-245,29)" fill="rgb(79,79,79)" text-rendering="geometricPrecision" font-family="sans-serif" shape-rendering="geometricPrecision" stroke="rgb(79,79,79)" font-weight="bold" stroke-miterlimit="1.45">
      <text x="629.6589" xml:space="preserve" y="78.5684" clip-path="url(#clipPath8)" stroke="none">AppUI</text>
    </g>
    <g fill="rgb(110,110,110)" text-rendering="geometricPrecision" shape-rendering="geometricPrecision" transform="matrix(1,0,0,1,-245,29)" stroke="rgb(110,110,110)">
      <line y2="86" fill="none" x1="588" clip-path="url(#clipPath8)" x2="711" y1="86"/>
      <line y2="96" fill="none" x1="588" clip-path="url(#clipPath8)" x2="711" y1="96"/>
    </g>
    <g text-rendering="geometricPrecision" stroke-miterlimit="1.45" shape-rendering="geometricPrecision" font-family="sans-serif" transform="matrix(1,0,0,1,-245,29)" stroke-linecap="butt">
      <text x="592.5" xml:space="preserve" y="112.9121" clip-path="url(#clipPath8)" stroke="none">getCurrent</text>
      <text x="592.5" xml:space="preserve" y="127.0449" clip-path="url(#clipPath8)" stroke="none">getTopLevelWindow</text>
    </g>
    <g fill="rgb(242,242,242)" text-rendering="geometricPrecision" shape-rendering="geometricPrecision" transform="matrix(1,0,0,1,-245,29)" stroke="rgb(242,242,242)">
      <rect x="260.4896" width="160" height="96.5" y="151.75" clip-path="url(#clipPath2)" stroke="none"/>
    </g>
    <g stroke-linecap="butt" transform="matrix(1,0,0,1,-245,29)" fill="rgb(110,110,110)" text-rendering="geometricPrecision" shape-rendering="geometricPrecision" stroke="rgb(110,110,110)" stroke-miterlimit="1.45">
      <rect fill="none" x="260.4896" width="160" height="96.5" y="151.75" clip-path="url(#clipPath2)"/>
    </g>
    <g stroke-linecap="butt" font-size="13px" transform="matrix(1,0,0,1,-245,29)" fill="rgb(79,79,79)" text-rendering="geometricPrecision" font-family="sans-serif" shape-rendering="geometricPrecision" stroke="rgb(79,79,79)" font-weight="bold" stroke-miterlimit="1.45">
      <text x="302.3719" xml:space="preserve" y="169.3184" clip-path="url(#clipPath9)" stroke="none">MainScreen</text>
    </g>
    <g fill="rgb(110,110,110)" text-rendering="geometricPrecision" shape-rendering="geometricPrecision" transform="matrix(1,0,0,1,-245,29)" stroke="rgb(110,110,110)">
      <line y2="177" fill="none" x1="261" clip-path="url(#clipPath9)" x2="419" y1="177"/>
      <line y2="187" fill="none" x1="261" clip-path="url(#clipPath9)" x2="419" y1="187"/>
    </g>
    <g text-rendering="geometricPrecision" stroke-miterlimit="1.45" shape-rendering="geometricPrecision" font-family="sans-serif" transform="matrix(1,0,0,1,-245,29)" stroke-linecap="butt">
      <text x="265.4896" xml:space="preserve" y="203.6621" clip-path="url(#clipPath9)" stroke="none">getWorkArea</text>
      <text x="265.4896" xml:space="preserve" y="217.7949" clip-path="url(#clipPath9)" stroke="none">getUserIndicator</text>
      <text x="265.4896" xml:space="preserve" y="231.9277" clip-path="url(#clipPath9)" stroke="none">getFoldersPane</text>
    </g>
    <g fill="rgb(242,242,242)" text-rendering="geometricPrecision" shape-rendering="geometricPrecision" transform="matrix(1,0,0,1,-245,29)" stroke="rgb(242,242,242)">
      <rect x="282.4896" width="116" height="25" y="23.25" clip-path="url(#clipPath2)" stroke="none"/>
    </g>
    <g stroke-linecap="butt" transform="matrix(1,0,0,1,-245,29)" fill="rgb(110,110,110)" text-rendering="geometricPrecision" shape-rendering="geometricPrecision" stroke="rgb(110,110,110)" stroke-miterlimit="1.45">
      <rect fill="none" x="282.4896" width="116" height="25" y="23.25" clip-path="url(#clipPath2)"/>
    </g>
    <g stroke-linecap="butt" font-size="13px" transform="matrix(1,0,0,1,-245,29)" fill="rgb(79,79,79)" text-rendering="geometricPrecision" font-family="sans-serif" shape-rendering="geometricPrecision" stroke="rgb(79,79,79)" font-weight="bold" stroke-miterlimit="1.45">
      <text x="299.8741" xml:space="preserve" y="40.8184" clip-path="url(#clipPath10)" stroke="none">LoginScreen</text>
    </g>
    <g fill="rgb(242,242,242)" text-rendering="geometricPrecision" shape-rendering="geometricPrecision" transform="matrix(1,0,0,1,-245,29)" stroke="rgb(242,242,242)">
      <rect x="282.4896" width="116" height="25" y="87.5" clip-path="url(#clipPath2)" stroke="none"/>
    </g>
    <g stroke-linecap="butt" transform="matrix(1,0,0,1,-245,29)" fill="rgb(110,110,110)" text-rendering="geometricPrecision" shape-rendering="geometricPrecision" stroke="rgb(110,110,110)" stroke-miterlimit="1.45">
      <rect fill="none" x="282.4896" width="116" height="25" y="87.5" clip-path="url(#clipPath2)"/>
    </g>
    <g stroke-linecap="butt" font-size="13px" transform="matrix(1,0,0,1,-245,29)" fill="rgb(79,79,79)" text-rendering="geometricPrecision" font-family="sans-serif" shape-rendering="geometricPrecision" stroke="rgb(79,79,79)" font-weight="bold" stroke-miterlimit="1.45">
      <text x="318.476" xml:space="preserve" y="105.0684" clip-path="url(#clipPath11)" stroke="none">Screen</text>
    </g>
    <g fill="rgb(242,242,242)" text-rendering="geometricPrecision" shape-rendering="geometricPrecision" transform="matrix(1,0,0,1,-245,29)" stroke="rgb(242,242,242)">
      <rect x="763.5" width="135" height="28" y="261" clip-path="url(#clipPath2)" stroke="none"/>
    </g>
    <g stroke-linecap="butt" transform="matrix(1,0,0,1,-245,29)" fill="rgb(110,110,110)" text-rendering="geometricPrecision" shape-rendering="geometricPrecision" stroke="rgb(110,110,110)" stroke-miterlimit="1.45">
      <rect fill="none" x="763.5" width="135" height="28" y="261" clip-path="url(#clipPath2)"/>
    </g>
    <g stroke-linecap="butt" font-size="13px" transform="matrix(1,0,0,1,-245,29)" fill="rgb(79,79,79)" text-rendering="geometricPrecision" font-family="sans-serif" shape-rendering="geometricPrecision" stroke="rgb(79,79,79)" font-weight="bold" stroke-miterlimit="1.45">
      <text x="778.3652" xml:space="preserve" y="278.5684" clip-path="url(#clipPath12)" stroke="none">ConnectionImpl</text>
    </g>
    <g stroke-linecap="butt" transform="matrix(1,0,0,1,-245,29)" fill="rgb(157,176,189)" text-rendering="geometricPrecision" shape-rendering="geometricPrecision" stroke="rgb(157,176,189)" stroke-miterlimit="1.45">
      <path fill="none" d="M949.4609 100 L924.539 100" clip-path="url(#clipPath2)"/>
      <path fill="white" d="M909.539 100 L925.539 106 L925.539 94 Z" clip-path="url(#clipPath2)" stroke="none"/>
      <path fill="none" d="M909.539 100 L925.539 106 L925.539 94 Z" clip-path="url(#clipPath2)"/>
      <path fill="none" d="M831 147.6625 L831 185.9626" clip-path="url(#clipPath2)"/>
      <path fill="none" d="M831 14.0375 L831 52.3376" clip-path="url(#clipPath2)"/>
      <path fill="none" d="M752.4609 100 L712.539 100" clip-path="url(#clipPath2)"/>
      <path fill="none" d="M587.4609 100 L547.539 100" clip-path="url(#clipPath2)"/>
      <path fill="none" stroke-dasharray="6,2" d="M340.4896 48.2675 L340.4896 72.4963" clip-path="url(#clipPath2)"/>
      <path fill="white" stroke-dasharray="6,2" d="M340.4896 87.4963 L346.4896 71.4963 L334.4896 71.4963 Z" clip-path="url(#clipPath2)" stroke="none"/>
      <path fill="none" d="M340.4896 87.4963 L346.4896 71.4963 L334.4896 71.4963 Z" clip-path="url(#clipPath2)"/>
      <path fill="none" stroke-dasharray="6,2" d="M340.4896 151.7117 L340.4896 127.5383" clip-path="url(#clipPath2)"/>
      <path fill="white" stroke-dasharray="6,2" d="M340.4896 112.5383 L334.4896 128.5383 L346.4896 128.5383 Z" clip-path="url(#clipPath2)" stroke="none"/>
      <path fill="none" d="M340.4896 112.5383 L334.4896 128.5383 L346.4896 128.5383 Z" clip-path="url(#clipPath2)"/>
      <path fill="none" d="M398.5287 100 L438.4506 100" clip-path="url(#clipPath2)"/>
      <path fill="none" stroke-dasharray="6,2" d="M831 260.9541 L831 229.0459" clip-path="url(#clipPath2)"/>
      <path fill="white" stroke-dasharray="6,2" d="M831 214.0459 L825 230.0459 L837 230.0459 Z" clip-path="url(#clipPath2)" stroke="none"/>
      <path fill="none" d="M831 214.0459 L825 230.0459 L837 230.0459 Z" clip-path="url(#clipPath2)"/>
    </g>
  </g>
</svg>
