<?xml version="1.0" encoding="UTF-8"?><svg xmlns="http://www.w3.org/2000/svg" xmlns:xlink="http://www.w3.org/1999/xlink" fill-opacity="1" color-rendering="auto" color-interpolation="auto" text-rendering="auto" stroke="black" stroke-linecap="square" width="747" stroke-miterlimit="10" shape-rendering="auto" stroke-opacity="1" fill="black" stroke-dasharray="none" font-weight="normal" stroke-width="1" height="347" font-family="'Dialog'" font-style="normal" stroke-linejoin="miter" font-size="12px" stroke-dashoffset="0" image-rendering="auto">
  <!--Generated by ySVG 2.5-->
  <defs id="genericDefs"/>
  <g>
    <defs id="defs1">
      <clipPath clipPathUnits="userSpaceOnUse" id="clipPath1">
        <path d="M0 0 L747 0 L747 347 L0 347 L0 0 Z"/>
      </clipPath>
      <clipPath clipPathUnits="userSpaceOnUse" id="clipPath2">
        <path d="M274 156 L1021 156 L1021 503 L274 503 L274 156 Z"/>
      </clipPath>
      <clipPath clipPathUnits="userSpaceOnUse" id="clipPath3">
        <path d="M458 171 L458 283 L615 283 L615 171 Z"/>
      </clipPath>
      <clipPath clipPathUnits="userSpaceOnUse" id="clipPath4">
        <path d="M486 326 L486 354 L586 354 L586 326 Z"/>
      </clipPath>
      <clipPath clipPathUnits="userSpaceOnUse" id="clipPath5">
        <path d="M312 213 L312 241 L412 241 L412 213 Z"/>
      </clipPath>
      <clipPath clipPathUnits="userSpaceOnUse" id="clipPath6">
        <path d="M289 326 L289 354 L434 354 L434 326 Z"/>
      </clipPath>
      <clipPath clipPathUnits="userSpaceOnUse" id="clipPath7">
        <path d="M860 213 L860 241 L1005 241 L1005 213 Z"/>
      </clipPath>
      <clipPath clipPathUnits="userSpaceOnUse" id="clipPath8">
        <path d="M673 459 L673 487 L833 487 L833 459 Z"/>
      </clipPath>
      <clipPath clipPathUnits="userSpaceOnUse" id="clipPath9">
        <path d="M691 188 L691 266 L816 266 L816 188 Z"/>
      </clipPath>
      <clipPath clipPathUnits="userSpaceOnUse" id="clipPath10">
        <path d="M673 326 L673 422 L833 422 L833 326 Z"/>
      </clipPath>
    </defs>
    <g fill="white" text-rendering="geometricPrecision" shape-rendering="geometricPrecision" transform="translate(-274,-156)" stroke="white">
      <rect x="274" width="747" height="347" y="156" clip-path="url(#clipPath2)" stroke="none"/>
    </g>
    <g fill="rgb(242,242,242)" text-rendering="geometricPrecision" shape-rendering="geometricPrecision" transform="matrix(1,0,0,1,-274,-156)" stroke="rgb(242,242,242)">
      <rect x="458.125" width="157" height="112.5" y="171.25" clip-path="url(#clipPath2)" stroke="none"/>
    </g>
    <g stroke-linecap="butt" transform="matrix(1,0,0,1,-274,-156)" fill="rgb(110,110,110)" text-rendering="geometricPrecision" shape-rendering="geometricPrecision" stroke="rgb(110,110,110)" stroke-miterlimit="1.45">
      <rect fill="none" x="458.125" width="157" height="112.5" y="171.25" clip-path="url(#clipPath2)"/>
    </g>
    <g stroke-linecap="butt" font-size="13px" transform="matrix(1,0,0,1,-274,-156)" fill="rgb(79,79,79)" text-rendering="geometricPrecision" font-family="sans-serif" shape-rendering="geometricPrecision" stroke="rgb(79,79,79)" font-weight="bold" stroke-miterlimit="1.45">
      <text x="523.2251" xml:space="preserve" y="188.8184" clip-path="url(#clipPath3)" stroke="none">App</text>
    </g>
    <g fill="rgb(110,110,110)" text-rendering="geometricPrecision" shape-rendering="geometricPrecision" transform="matrix(1,0,0,1,-274,-156)" stroke="rgb(110,110,110)">
      <line y2="196" fill="none" x1="459" clip-path="url(#clipPath3)" x2="614" y1="196"/>
      <line y2="206" fill="none" x1="459" clip-path="url(#clipPath3)" x2="614" y1="206"/>
    </g>
    <g text-rendering="geometricPrecision" stroke-miterlimit="1.45" shape-rendering="geometricPrecision" font-family="sans-serif" transform="matrix(1,0,0,1,-274,-156)" stroke-linecap="butt">
      <text x="463.125" xml:space="preserve" y="223.1621" clip-path="url(#clipPath3)" stroke="none">getInstance</text>
      <text x="463.125" xml:space="preserve" y="237.2949" clip-path="url(#clipPath3)" stroke="none">getConnection</text>
      <text x="463.125" xml:space="preserve" y="251.4277" clip-path="url(#clipPath3)" stroke="none">getExceptionHandlers</text>
      <text x="463.125" xml:space="preserve" y="265.5605" clip-path="url(#clipPath3)" stroke="none">getTopLevelWindow</text>
    </g>
    <g fill="rgb(242,242,242)" text-rendering="geometricPrecision" shape-rendering="geometricPrecision" transform="matrix(1,0,0,1,-274,-156)" stroke="rgb(242,242,242)">
      <rect x="486.625" width="100" height="28" y="326" clip-path="url(#clipPath2)" stroke="none"/>
    </g>
    <g stroke-linecap="butt" transform="matrix(1,0,0,1,-274,-156)" fill="rgb(110,110,110)" text-rendering="geometricPrecision" shape-rendering="geometricPrecision" stroke="rgb(110,110,110)" stroke-miterlimit="1.45">
      <rect fill="none" x="486.625" width="100" height="28" y="326" clip-path="url(#clipPath2)"/>
    </g>
    <g stroke-linecap="butt" font-size="13px" transform="matrix(1,0,0,1,-274,-156)" fill="rgb(79,79,79)" text-rendering="geometricPrecision" font-family="sans-serif" shape-rendering="geometricPrecision" stroke="rgb(79,79,79)" font-weight="bold" stroke-miterlimit="1.45">
      <text x="498.7295" xml:space="preserve" y="343.5684" clip-path="url(#clipPath4)" stroke="none">DefaultApp</text>
    </g>
    <g fill="rgb(239,249,255)" text-rendering="geometricPrecision" shape-rendering="geometricPrecision" transform="matrix(1,0,0,1,-274,-156)" stroke="rgb(239,249,255)">
      <rect x="312" width="100" height="28" y="213.5" clip-path="url(#clipPath2)" stroke="none"/>
    </g>
    <g stroke-linecap="butt" transform="matrix(1,0,0,1,-274,-156)" fill="rgb(157,176,189)" text-rendering="geometricPrecision" shape-rendering="geometricPrecision" stroke="rgb(157,176,189)" stroke-miterlimit="1.45">
      <rect fill="none" x="312" width="100" height="28" y="213.5" clip-path="url(#clipPath2)"/>
    </g>
    <g stroke-linecap="butt" font-size="13px" transform="matrix(1,0,0,1,-274,-156)" fill="rgb(79,79,79)" text-rendering="geometricPrecision" font-family="sans-serif" shape-rendering="geometricPrecision" stroke="rgb(79,79,79)" font-weight="bold" stroke-miterlimit="1.45">
      <text x="324.2441" xml:space="preserve" y="231.0684" clip-path="url(#clipPath5)" stroke="none">Connection</text>
    </g>
    <g fill="rgb(242,242,242)" text-rendering="geometricPrecision" shape-rendering="geometricPrecision" transform="matrix(1,0,0,1,-274,-156)" stroke="rgb(242,242,242)">
      <rect x="289.5" width="145" height="28" y="326" clip-path="url(#clipPath2)" stroke="none"/>
    </g>
    <g stroke-linecap="butt" transform="matrix(1,0,0,1,-274,-156)" fill="rgb(110,110,110)" text-rendering="geometricPrecision" shape-rendering="geometricPrecision" stroke="rgb(110,110,110)" stroke-miterlimit="1.45">
      <rect fill="none" x="289.5" width="145" height="28" y="326" clip-path="url(#clipPath2)"/>
    </g>
    <g stroke-linecap="butt" font-size="13px" transform="matrix(1,0,0,1,-274,-156)" fill="rgb(79,79,79)" text-rendering="geometricPrecision" font-family="sans-serif" shape-rendering="geometricPrecision" stroke="rgb(79,79,79)" font-weight="bold" stroke-miterlimit="1.45">
      <text x="299.4915" xml:space="preserve" y="343.5684" clip-path="url(#clipPath6)" stroke="none">ExceptionHandlers</text>
    </g>
    <g fill="rgb(242,242,242)" text-rendering="geometricPrecision" shape-rendering="geometricPrecision" transform="matrix(1,0,0,1,-274,-156)" stroke="rgb(242,242,242)">
      <rect x="860.5" width="145" height="28" y="213.5" clip-path="url(#clipPath2)" stroke="none"/>
    </g>
    <g stroke-linecap="butt" transform="matrix(1,0,0,1,-274,-156)" fill="rgb(110,110,110)" text-rendering="geometricPrecision" shape-rendering="geometricPrecision" stroke="rgb(110,110,110)" stroke-miterlimit="1.45">
      <rect fill="none" x="860.5" width="145" height="28" y="213.5" clip-path="url(#clipPath2)"/>
    </g>
    <g stroke-linecap="butt" font-size="13px" transform="matrix(1,0,0,1,-274,-156)" fill="rgb(79,79,79)" text-rendering="geometricPrecision" font-family="sans-serif" shape-rendering="geometricPrecision" stroke="rgb(79,79,79)" font-weight="bold" stroke-miterlimit="1.45">
      <text x="874.6746" xml:space="preserve" y="231.0684" clip-path="url(#clipPath7)" stroke="none">AppLoginWindow</text>
    </g>
    <g fill="rgb(242,242,242)" text-rendering="geometricPrecision" shape-rendering="geometricPrecision" transform="matrix(1,0,0,1,-274,-156)" stroke="rgb(242,242,242)">
      <rect x="673.75" width="160" height="28" y="459.5" clip-path="url(#clipPath2)" stroke="none"/>
    </g>
    <g stroke-linecap="butt" transform="matrix(1,0,0,1,-274,-156)" fill="rgb(110,110,110)" text-rendering="geometricPrecision" shape-rendering="geometricPrecision" stroke="rgb(110,110,110)" stroke-miterlimit="1.45">
      <rect fill="none" x="673.75" width="160" height="28" y="459.5" clip-path="url(#clipPath2)"/>
    </g>
    <g stroke-linecap="butt" font-size="13px" transform="matrix(1,0,0,1,-274,-156)" fill="rgb(79,79,79)" text-rendering="geometricPrecision" font-family="sans-serif" shape-rendering="geometricPrecision" stroke="rgb(79,79,79)" font-weight="bold" stroke-miterlimit="1.45">
      <text x="697.9224" xml:space="preserve" y="477.0684" clip-path="url(#clipPath8)" stroke="none">AppMainWindow</text>
    </g>
    <g fill="rgb(242,242,242)" text-rendering="geometricPrecision" shape-rendering="geometricPrecision" transform="matrix(1,0,0,1,-274,-156)" stroke="rgb(242,242,242)">
      <rect x="691.25" width="125" height="78" y="188.5" clip-path="url(#clipPath2)" stroke="none"/>
    </g>
    <g stroke-linecap="butt" transform="matrix(1,0,0,1,-274,-156)" fill="rgb(110,110,110)" text-rendering="geometricPrecision" shape-rendering="geometricPrecision" stroke="rgb(110,110,110)" stroke-miterlimit="1.45">
      <rect fill="none" x="691.25" width="125" height="78" y="188.5" clip-path="url(#clipPath2)"/>
    </g>
    <g stroke-linecap="butt" font-size="13px" transform="matrix(1,0,0,1,-274,-156)" fill="rgb(79,79,79)" text-rendering="geometricPrecision" font-family="sans-serif" shape-rendering="geometricPrecision" stroke="rgb(79,79,79)" font-weight="bold" stroke-miterlimit="1.45">
      <text x="733.4089" xml:space="preserve" y="206.0684" clip-path="url(#clipPath9)" stroke="none">AppUI</text>
    </g>
    <g fill="rgb(110,110,110)" text-rendering="geometricPrecision" shape-rendering="geometricPrecision" transform="matrix(1,0,0,1,-274,-156)" stroke="rgb(110,110,110)">
      <line y2="213" fill="none" x1="692" clip-path="url(#clipPath9)" x2="815" y1="213"/>
      <line y2="223" fill="none" x1="692" clip-path="url(#clipPath9)" x2="815" y1="223"/>
    </g>
    <g text-rendering="geometricPrecision" stroke-miterlimit="1.45" shape-rendering="geometricPrecision" font-family="sans-serif" transform="matrix(1,0,0,1,-274,-156)" stroke-linecap="butt">
      <text x="696.25" xml:space="preserve" y="240.4121" clip-path="url(#clipPath9)" stroke="none">getCurrent</text>
      <text x="696.25" xml:space="preserve" y="254.5449" clip-path="url(#clipPath9)" stroke="none">getTopLevelWindow</text>
    </g>
    <g fill="rgb(242,242,242)" text-rendering="geometricPrecision" shape-rendering="geometricPrecision" transform="matrix(1,0,0,1,-274,-156)" stroke="rgb(242,242,242)">
      <rect x="673.75" width="160" height="96.5" y="326" clip-path="url(#clipPath2)" stroke="none"/>
    </g>
    <g stroke-linecap="butt" transform="matrix(1,0,0,1,-274,-156)" fill="rgb(110,110,110)" text-rendering="geometricPrecision" shape-rendering="geometricPrecision" stroke="rgb(110,110,110)" stroke-miterlimit="1.45">
      <rect fill="none" x="673.75" width="160" height="96.5" y="326" clip-path="url(#clipPath2)"/>
    </g>
    <g stroke-linecap="butt" font-size="13px" transform="matrix(1,0,0,1,-274,-156)" fill="rgb(79,79,79)" text-rendering="geometricPrecision" font-family="sans-serif" shape-rendering="geometricPrecision" stroke="rgb(79,79,79)" font-weight="bold" stroke-miterlimit="1.45">
      <text x="683.0498" xml:space="preserve" y="343.5684" clip-path="url(#clipPath10)" stroke="none">AbstractMainWindow</text>
    </g>
    <g fill="rgb(110,110,110)" text-rendering="geometricPrecision" shape-rendering="geometricPrecision" transform="matrix(1,0,0,1,-274,-156)" stroke="rgb(110,110,110)">
      <line y2="351" fill="none" x1="674" clip-path="url(#clipPath10)" x2="832" y1="351"/>
      <line y2="361" fill="none" x1="674" clip-path="url(#clipPath10)" x2="832" y1="361"/>
    </g>
    <g text-rendering="geometricPrecision" stroke-miterlimit="1.45" shape-rendering="geometricPrecision" font-family="sans-serif" transform="matrix(1,0,0,1,-274,-156)" stroke-linecap="butt">
      <text x="678.75" xml:space="preserve" y="377.9121" clip-path="url(#clipPath10)" stroke="none">getWorkArea</text>
      <text x="678.75" xml:space="preserve" y="392.0449" clip-path="url(#clipPath10)" stroke="none">getUserIndicator</text>
      <text x="678.75" xml:space="preserve" y="406.1777" clip-path="url(#clipPath10)" stroke="none">getFoldersPane</text>
      <path fill="none" d="M536.625 326.0199 L536.625 298.7352" clip-path="url(#clipPath2)" stroke="rgb(157,176,189)"/>
      <path fill="white" d="M536.625 283.7352 L530.625 299.7352 L542.625 299.7352 Z" clip-path="url(#clipPath2)" stroke="none"/>
      <path fill="none" d="M536.625 283.7352 L530.625 299.7352 L542.625 299.7352 Z" clip-path="url(#clipPath2)" stroke="rgb(157,176,189)"/>
      <path fill="none" d="M458.1231 227.5 L411.9959 227.5" clip-path="url(#clipPath2)" stroke="rgb(157,176,189)"/>
      <path fill="none" d="M364.0265 325.9952 L364.0265 270 L458.1362 270" clip-path="url(#clipPath2)" stroke="rgb(157,176,189)"/>
      <path fill="none" d="M615.1049 227.5 L691.2311 227.5" clip-path="url(#clipPath2)" stroke="rgb(157,176,189)"/>
      <path fill="none" d="M816.2862 227.5 L860.4813 227.5" clip-path="url(#clipPath2)" stroke="rgb(157,176,189)"/>
      <path fill="none" d="M753.75 459.4945 L753.75 437.4914" clip-path="url(#clipPath2)" stroke="rgb(157,176,189)"/>
      <path fill="white" d="M753.75 422.4914 L747.75 438.4914 L759.75 438.4914 Z" clip-path="url(#clipPath2)" stroke="none"/>
      <path fill="none" d="M753.75 422.4914 L747.75 438.4914 L759.75 438.4914 Z" clip-path="url(#clipPath2)" stroke="rgb(157,176,189)"/>
      <path fill="none" d="M753.75 266.5163 L753.75 325.9855" clip-path="url(#clipPath2)" stroke="rgb(157,176,189)"/>
    </g>
  </g>
</svg>
